<svg width="25" height="24" viewBox="0 0 25 24" fill="none" xmlns="http://www.w3.org/2000/svg">
<g id="Group">
<g id="Group_2">
<path id="Path" fill-rule="evenodd" clip-rule="evenodd" d="M3.995 13.465L5.19 15.029L5.448 16.976C5.591 18.056 6.44 18.906 7.52 19.05L9.472 19.311L11.035 20.505C11.9 21.166 13.099 21.166 13.964 20.505L15.528 19.31H15.526L17.474 19.052C18.554 18.909 19.404 18.06 19.548 16.98L19.808 15.028C19.808 15.029 20.412 14.238 21.003 13.465C21.664 12.6 21.663 11.401 21.003 10.536L19.81 8.97099L19.552 7.02399C19.409 5.94399 18.56 5.09399 17.48 4.94999L15.527 4.68999L13.964 3.49599C13.099 2.83499 11.9 2.83499 11.035 3.49599L9.471 4.68999H9.473L7.525 4.94899C6.445 5.09199 5.595 5.94099 5.451 7.02099L5.19 8.97299C5.19 8.97199 4.586 9.76299 3.995 10.536C3.335 11.4 3.335 12.6 3.995 13.465V13.465Z" stroke="white" stroke-width="1.5" stroke-linecap="round" stroke-linejoin="round"/>
<path id="Path_2" d="M15.303 10.6021L11.802 14.1031L9.69897 12.0021" stroke="white" stroke-width="1.5" stroke-linecap="round" stroke-linejoin="round"/>
</g>
</g>
</svg>
