<svg width="25" height="25" viewBox="0 0 25 25" fill="none" xmlns="http://www.w3.org/2000/svg">
<mask id="mask0_1_990" style="mask-type:alpha" maskUnits="userSpaceOnUse" x="0" y="0" width="25" height="25">
<rect x="0.179199" y="0.0861816" width="24" height="24" fill="#D9D9D9"/>
</mask>
<g mask="url(#mask0_1_990)">
<path d="M4.1792 19.0862V17.0862H6.1792V10.0862C6.1792 8.70285 6.59587 7.47368 7.4292 6.39868C8.26253 5.32368 9.34587 4.61951 10.6792 4.28618V3.58618C10.6792 3.16952 10.825 2.81535 11.1167 2.52368C11.4084 2.23201 11.7625 2.08618 12.1792 2.08618C12.5959 2.08618 12.95 2.23201 13.2417 2.52368C13.5334 2.81535 13.6792 3.16952 13.6792 3.58618V4.28618C15.0125 4.61951 16.0959 5.32368 16.9292 6.39868C17.7625 7.47368 18.1792 8.70285 18.1792 10.0862V17.0862H20.1792V19.0862H4.1792ZM12.1792 22.0862C11.6292 22.0862 11.1584 21.8903 10.7667 21.4987C10.375 21.107 10.1792 20.6362 10.1792 20.0862H14.1792C14.1792 20.6362 13.9834 21.107 13.5917 21.4987C13.2 21.8903 12.7292 22.0862 12.1792 22.0862ZM8.1792 17.0862H16.1792V10.0862C16.1792 8.98618 15.7875 8.04452 15.0042 7.26118C14.2209 6.47785 13.2792 6.08618 12.1792 6.08618C11.0792 6.08618 10.1375 6.47785 9.3542 7.26118C8.57087 8.04452 8.1792 8.98618 8.1792 10.0862V17.0862Z" fill="white"/>
</g>
</svg>
