<svg width="106" height="25" viewBox="0 0 106 25" fill="none" xmlns="http://www.w3.org/2000/svg">
<rect x="0.824707" y="0.0861816" width="105" height="24" rx="7" fill="url(#paint0_linear_1_987)"/>
<path d="M18.7135 10.6512C18.4621 10.1225 18.0981 9.71518 17.6215 9.42918C17.1448 9.13451 16.5901 8.98718 15.9575 8.98718C15.3248 8.98718 14.7528 9.13451 14.2415 9.42918C13.7388 9.71518 13.3401 10.1312 13.0455 10.6772C12.7595 11.2145 12.6165 11.8385 12.6165 12.5492C12.6165 13.2598 12.7595 13.8838 13.0455 14.4212C13.3401 14.9585 13.7388 15.3745 14.2415 15.6692C14.7528 15.9552 15.3248 16.0982 15.9575 16.0982C16.8415 16.0982 17.5695 15.8338 18.1415 15.3052C18.7135 14.7765 19.0471 14.0615 19.1425 13.1602H15.5285V12.1982H20.4035V13.1082C20.3341 13.8535 20.1001 14.5382 19.7015 15.1622C19.3028 15.7775 18.7785 16.2672 18.1285 16.6312C17.4785 16.9865 16.7548 17.1642 15.9575 17.1642C15.1168 17.1642 14.3498 16.9692 13.6565 16.5792C12.9631 16.1805 12.4128 15.6302 12.0055 14.9282C11.6068 14.2262 11.4075 13.4332 11.4075 12.5492C11.4075 11.6652 11.6068 10.8722 12.0055 10.1702C12.4128 9.45951 12.9631 8.90918 13.6565 8.51918C14.3498 8.12051 15.1168 7.92118 15.9575 7.92118C16.9195 7.92118 17.7688 8.15951 18.5055 8.63618C19.2508 9.11285 19.7925 9.78451 20.1305 10.6512H18.7135ZM26.5956 17.1772C25.755 17.1772 24.988 16.9822 24.2946 16.5922C23.6013 16.1935 23.051 15.6432 22.6436 14.9412C22.245 14.2305 22.0456 13.4332 22.0456 12.5492C22.0456 11.6652 22.245 10.8722 22.6436 10.1702C23.051 9.45951 23.6013 8.90918 24.2946 8.51918C24.988 8.12051 25.755 7.92118 26.5956 7.92118C27.445 7.92118 28.2163 8.12051 28.9096 8.51918C29.603 8.90918 30.149 9.45518 30.5476 10.1572C30.9463 10.8592 31.1456 11.6565 31.1456 12.5492C31.1456 13.4418 30.9463 14.2392 30.5476 14.9412C30.149 15.6432 29.603 16.1935 28.9096 16.5922C28.2163 16.9822 27.445 17.1772 26.5956 17.1772ZM26.5956 16.1502C27.2283 16.1502 27.796 16.0028 28.2986 15.7082C28.81 15.4135 29.2086 14.9932 29.4946 14.4472C29.7893 13.9012 29.9366 13.2685 29.9366 12.5492C29.9366 11.8212 29.7893 11.1885 29.4946 10.6512C29.2086 10.1052 28.8143 9.68485 28.3116 9.39018C27.809 9.09551 27.237 8.94818 26.5956 8.94818C25.9543 8.94818 25.3823 9.09551 24.8796 9.39018C24.377 9.68485 23.9783 10.1052 23.6836 10.6512C23.3976 11.1885 23.2546 11.8212 23.2546 12.5492C23.2546 13.2685 23.3976 13.9012 23.6836 14.4472C23.9783 14.9932 24.377 15.4135 24.8796 15.7082C25.391 16.0028 25.963 16.1502 26.5956 16.1502ZM43.2712 10.6772C43.2712 11.4312 43.0112 12.0595 42.4912 12.5622C41.9799 13.0562 41.1955 13.3032 40.1382 13.3032H38.3962V17.0862H37.2132V8.02518H40.1382C41.1609 8.02518 41.9365 8.27218 42.4652 8.76618C43.0025 9.26018 43.2712 9.89718 43.2712 10.6772ZM40.1382 12.3282C40.7969 12.3282 41.2822 12.1852 41.5942 11.8992C41.9062 11.6132 42.0622 11.2058 42.0622 10.6772C42.0622 9.55918 41.4209 9.00018 40.1382 9.00018H38.3962V12.3282H40.1382ZM50.0325 17.0862L47.8745 13.3812H46.4445V17.0862H45.2615V8.02518H48.1865C48.8712 8.02518 49.4475 8.14218 49.9155 8.37618C50.3922 8.61018 50.7475 8.92651 50.9815 9.32518C51.2155 9.72385 51.3325 10.1788 51.3325 10.6902C51.3325 11.3142 51.1505 11.8645 50.7865 12.3412C50.4312 12.8178 49.8938 13.1342 49.1745 13.2902L51.4495 17.0862H50.0325ZM46.4445 12.4322H48.1865C48.8278 12.4322 49.3088 12.2762 49.6295 11.9642C49.9502 11.6435 50.1105 11.2188 50.1105 10.6902C50.1105 10.1528 49.9502 9.73685 49.6295 9.44218C49.3175 9.14751 48.8365 9.00018 48.1865 9.00018H46.4445V12.4322ZM54.8737 8.98718V12.0162H58.1757V12.9912H54.8737V16.1112H58.5657V17.0862H53.6907V8.01218H58.5657V8.98718H54.8737ZM70.0667 8.09018V17.0862H68.8837V10.3782L65.8937 17.0862H65.0617L62.0587 10.3652V17.0862H60.8757V8.09018H62.1497L65.4777 15.5262L68.8057 8.09018H70.0667ZM73.776 8.02518V17.0862H72.593V8.02518H73.776ZM77.4692 8.02518V13.7582C77.4692 14.5642 77.6642 15.1622 78.0542 15.5522C78.4529 15.9422 79.0032 16.1372 79.7052 16.1372C80.3986 16.1372 80.9402 15.9422 81.3302 15.5522C81.7289 15.1622 81.9282 14.5642 81.9282 13.7582V8.02518H83.1112V13.7452C83.1112 14.4992 82.9596 15.1362 82.6562 15.6562C82.3529 16.1675 81.9412 16.5488 81.4212 16.8002C80.9099 17.0515 80.3336 17.1772 79.6922 17.1772C79.0509 17.1772 78.4702 17.0515 77.9502 16.8002C77.4389 16.5488 77.0316 16.1675 76.7282 15.6562C76.4336 15.1362 76.2862 14.4992 76.2862 13.7452V8.02518H77.4692ZM94.7957 8.09018V17.0862H93.6127V10.3782L90.6227 17.0862H89.7907L86.7877 10.3652V17.0862H85.6047V8.09018H86.8787L90.2067 15.5262L93.5347 8.09018H94.7957Z" fill="white"/>
<defs>
<linearGradient id="paint0_linear_1_987" x1="100.29" y1="46.1726" x2="-122.936" y2="-121.404" gradientUnits="userSpaceOnUse">
<stop stop-color="#DA0C15"/>
<stop offset="1"/>
</linearGradient>
</defs>
</svg>
