<svg width="42" height="42" viewBox="0 0 42 42" fill="none" xmlns="http://www.w3.org/2000/svg">
<rect x="0.179199" y="0.172607" width="41.8209" height="41.8273" rx="20" fill="white" fill-opacity="0.2"/>
<path d="M12.7521 25.1686C14.2638 26.6824 16.2769 27.5911 18.4121 27.7236C20.5473 27.8561 22.6573 27.2033 24.3446 25.888L30.15 31.6935C30.3559 31.8923 30.6317 32.0023 30.9179 31.9999C31.2041 31.9974 31.4779 31.8826 31.6804 31.6802C31.8828 31.4777 31.9976 31.2039 32.0001 30.9177C32.0025 30.6315 31.8925 30.3557 31.6937 30.1498L25.8882 24.3444C27.2618 22.5815 27.9112 20.361 27.704 18.1358C27.4968 15.9106 26.4485 13.8482 24.773 12.3693C23.0975 10.8904 20.9209 10.1063 18.6872 10.177C16.4534 10.2477 14.3308 11.1678 12.7521 12.7498C11.9364 13.565 11.2894 14.533 10.8479 15.5985C10.4064 16.6639 10.1792 17.8059 10.1792 18.9592C10.1792 20.1124 10.4064 21.2544 10.8479 22.3198C11.2894 23.3853 11.9364 24.3533 12.7521 25.1686ZM14.2958 14.2956C15.375 13.2164 16.7949 12.5448 18.3138 12.3952C19.8326 12.2456 21.3563 12.6272 22.6254 13.4751C23.8944 14.323 24.8301 15.5846 25.2732 17.045C25.7163 18.5055 25.6394 20.0744 25.0554 21.4845C24.4715 22.8945 23.4167 24.0585 22.0708 24.7781C20.7248 25.4976 19.1711 25.7283 17.6742 25.4307C16.1773 25.1331 14.8298 24.3257 13.8615 23.1461C12.8931 21.9664 12.3637 20.4875 12.3635 18.9613C12.3605 18.0941 12.5298 17.2349 12.8615 16.4336C13.1932 15.6323 13.6807 14.9048 14.2958 14.2934V14.2956ZM13.8416 18.9581C13.8416 18.6685 13.9566 18.3909 14.1614 18.1861C14.3661 17.9814 14.6438 17.8664 14.9333 17.8664C15.2228 17.8664 15.5005 17.9814 15.7052 18.1861C15.9099 18.3909 16.025 18.6685 16.025 18.9581C16.0258 19.7363 16.3354 20.4825 16.8857 21.0328C17.436 21.5831 18.1822 21.8927 18.9605 21.8936C19.25 21.8936 19.5276 22.0086 19.7324 22.2133C19.9371 22.418 20.0521 22.6957 20.0521 22.9852C20.0521 23.2748 19.9371 23.5524 19.7324 23.7572C19.5276 23.9619 19.25 24.0769 18.9605 24.0769C17.6038 24.0737 16.3037 23.5334 15.3444 22.5741C14.3851 21.6148 13.8448 20.3147 13.8416 18.9581Z" fill="white"/>
</svg>
