<svg width="93" height="25" viewBox="0 0 93 25" fill="none" xmlns="http://www.w3.org/2000/svg">
<rect x="0.824707" y="0.0859375" width="92" height="24" rx="7" fill="url(#paint0_linear_2280_8514)"/>
<path d="M14.7222 17.1769C14.1242 17.1769 13.5869 17.0729 13.1102 16.8649C12.6422 16.6483 12.2739 16.3536 12.0052 15.9809C11.7366 15.5996 11.5979 15.1619 11.5892 14.6679H12.8502C12.8936 15.0926 13.0669 15.4523 13.3702 15.7469C13.6822 16.0329 14.1329 16.1759 14.7222 16.1759C15.2856 16.1759 15.7276 16.0373 16.0482 15.7599C16.3776 15.4739 16.5422 15.1099 16.5422 14.6679C16.5422 14.3213 16.4469 14.0396 16.2562 13.8229C16.0656 13.6063 15.8272 13.4416 15.5412 13.3289C15.2552 13.2163 14.8696 13.0949 14.3842 12.9649C13.7862 12.8089 13.3052 12.6529 12.9412 12.4969C12.5859 12.3409 12.2782 12.0983 12.0182 11.7689C11.7669 11.4309 11.6412 10.9803 11.6412 10.4169C11.6412 9.92294 11.7669 9.48527 12.0182 9.10394C12.2696 8.7226 12.6206 8.42794 13.0712 8.21994C13.5306 8.01194 14.0549 7.90794 14.6442 7.90794C15.4936 7.90794 16.1869 8.12027 16.7242 8.54494C17.2702 8.9696 17.5779 9.53294 17.6472 10.2349H16.3472C16.3039 9.88827 16.1219 9.58494 15.8012 9.32494C15.4806 9.05627 15.0559 8.92194 14.5272 8.92194C14.0332 8.92194 13.6302 9.05194 13.3182 9.31194C13.0062 9.56327 12.8502 9.9186 12.8502 10.3779C12.8502 10.7073 12.9412 10.9759 13.1232 11.1839C13.3139 11.3919 13.5436 11.5523 13.8122 11.6649C14.0896 11.7689 14.4752 11.8903 14.9692 12.0289C15.5672 12.1936 16.0482 12.3583 16.4122 12.5229C16.7762 12.6789 17.0882 12.9259 17.3482 13.2639C17.6082 13.5933 17.7382 14.0439 17.7382 14.6159C17.7382 15.0579 17.6212 15.4739 17.3872 15.8639C17.1532 16.2539 16.8066 16.5703 16.3472 16.8129C15.8879 17.0556 15.3462 17.1769 14.7222 17.1769ZM21.1561 8.02494V13.7579C21.1561 14.5639 21.3511 15.1619 21.7411 15.5519C22.1398 15.9419 22.6901 16.1369 23.3921 16.1369C24.0854 16.1369 24.6271 15.9419 25.0171 15.5519C25.4158 15.1619 25.6151 14.5639 25.6151 13.7579V8.02494H26.7981V13.7449C26.7981 14.4989 26.6464 15.1359 26.3431 15.6559C26.0398 16.1673 25.6281 16.5486 25.1081 16.7999C24.5968 17.0513 24.0204 17.1769 23.3791 17.1769C22.7378 17.1769 22.1571 17.0513 21.6371 16.7999C21.1258 16.5486 20.7184 16.1673 20.4151 15.6559C20.1204 15.1359 19.9731 14.4989 19.9731 13.7449V8.02494H21.1561ZM33.8286 12.4189C34.1579 12.4709 34.4569 12.6053 34.7256 12.8219C35.0029 13.0386 35.2196 13.3073 35.3756 13.6279C35.5402 13.9486 35.6226 14.2909 35.6226 14.6549C35.6226 15.1143 35.5056 15.5303 35.2716 15.9029C35.0376 16.2669 34.6952 16.5573 34.2446 16.7739C33.8026 16.9819 33.2782 17.0859 32.6716 17.0859H29.2916V8.02494H32.5416C33.1569 8.02494 33.6812 8.12894 34.1146 8.33694C34.5479 8.53627 34.8729 8.80927 35.0896 9.15594C35.3062 9.5026 35.4146 9.8926 35.4146 10.3259C35.4146 10.8633 35.2672 11.3096 34.9726 11.6649C34.6866 12.0116 34.3052 12.2629 33.8286 12.4189ZM30.4746 11.9379H32.4636C33.0182 11.9379 33.4472 11.8079 33.7506 11.5479C34.0539 11.2879 34.2056 10.9283 34.2056 10.4689C34.2056 10.0096 34.0539 9.64994 33.7506 9.38994C33.4472 9.12994 33.0096 8.99994 32.4376 8.99994H30.4746V11.9379ZM32.5676 16.1109C33.1569 16.1109 33.6162 15.9723 33.9456 15.6949C34.2749 15.4176 34.4396 15.0319 34.4396 14.5379C34.4396 14.0353 34.2662 13.6409 33.9196 13.3549C33.5729 13.0603 33.1092 12.9129 32.5286 12.9129H30.4746V16.1109H32.5676ZM40.6572 17.1769C40.0592 17.1769 39.5219 17.0729 39.0452 16.8649C38.5772 16.6483 38.2089 16.3536 37.9402 15.9809C37.6716 15.5996 37.5329 15.1619 37.5242 14.6679H38.7852C38.8286 15.0926 39.0019 15.4523 39.3052 15.7469C39.6172 16.0329 40.0679 16.1759 40.6572 16.1759C41.2206 16.1759 41.6626 16.0373 41.9832 15.7599C42.3126 15.4739 42.4772 15.1099 42.4772 14.6679C42.4772 14.3213 42.3819 14.0396 42.1912 13.8229C42.0006 13.6063 41.7622 13.4416 41.4762 13.3289C41.1902 13.2163 40.8046 13.0949 40.3192 12.9649C39.7212 12.8089 39.2402 12.6529 38.8762 12.4969C38.5209 12.3409 38.2132 12.0983 37.9532 11.7689C37.7019 11.4309 37.5762 10.9803 37.5762 10.4169C37.5762 9.92294 37.7019 9.48527 37.9532 9.10394C38.2046 8.7226 38.5556 8.42794 39.0062 8.21994C39.4656 8.01194 39.9899 7.90794 40.5792 7.90794C41.4286 7.90794 42.1219 8.12027 42.6592 8.54494C43.2052 8.9696 43.5129 9.53294 43.5822 10.2349H42.2822C42.2389 9.88827 42.0569 9.58494 41.7362 9.32494C41.4156 9.05627 40.9909 8.92194 40.4622 8.92194C39.9682 8.92194 39.5652 9.05194 39.2532 9.31194C38.9412 9.56327 38.7852 9.9186 38.7852 10.3779C38.7852 10.7073 38.8762 10.9759 39.0582 11.1839C39.2489 11.3919 39.4786 11.5523 39.7472 11.6649C40.0246 11.7689 40.4102 11.8903 40.9042 12.0289C41.5022 12.1936 41.9832 12.3583 42.3472 12.5229C42.7112 12.6789 43.0232 12.9259 43.2832 13.2639C43.5432 13.5933 43.6732 14.0439 43.6732 14.6159C43.6732 15.0579 43.5562 15.4739 43.3222 15.8639C43.0882 16.2539 42.7416 16.5703 42.2822 16.8129C41.8229 17.0556 41.2812 17.1769 40.6572 17.1769ZM45.4921 12.5489C45.4921 11.6649 45.6914 10.8719 46.0901 10.1699C46.4888 9.45927 47.0304 8.9046 47.7151 8.50594C48.4084 8.10727 49.1754 7.90794 50.0161 7.90794C51.0041 7.90794 51.8664 8.14627 52.6031 8.62294C53.3398 9.0996 53.8771 9.7756 54.2151 10.6509H52.7981C52.5468 10.1049 52.1828 9.6846 51.7061 9.38994C51.2381 9.09527 50.6748 8.94794 50.0161 8.94794C49.3834 8.94794 48.8158 9.09527 48.3131 9.38994C47.8104 9.6846 47.4161 10.1049 47.1301 10.6509C46.8441 11.1883 46.7011 11.8209 46.7011 12.5489C46.7011 13.2683 46.8441 13.9009 47.1301 14.4469C47.4161 14.9843 47.8104 15.4003 48.3131 15.6949C48.8158 15.9896 49.3834 16.1369 50.0161 16.1369C50.6748 16.1369 51.2381 15.9939 51.7061 15.7079C52.1828 15.4133 52.5468 14.9929 52.7981 14.4469H54.2151C53.8771 15.3136 53.3398 15.9853 52.6031 16.4619C51.8664 16.9299 51.0041 17.1639 50.0161 17.1639C49.1754 17.1639 48.4084 16.9689 47.7151 16.5789C47.0304 16.1803 46.4888 15.6299 46.0901 14.9279C45.6914 14.2259 45.4921 13.4329 45.4921 12.5489ZM61.2671 17.0859L59.1091 13.3809H57.6791V17.0859H56.4961V8.02494H59.4211C60.1058 8.02494 60.6821 8.14194 61.1501 8.37594C61.6268 8.60994 61.9821 8.92627 62.2161 9.32494C62.4501 9.7236 62.5671 10.1786 62.5671 10.6899C62.5671 11.3139 62.3851 11.8643 62.0211 12.3409C61.6658 12.8176 61.1284 13.1339 60.4091 13.2899L62.6841 17.0859H61.2671ZM57.6791 12.4319H59.4211C60.0624 12.4319 60.5434 12.2759 60.8641 11.9639C61.1848 11.6433 61.3451 11.2186 61.3451 10.6899C61.3451 10.1526 61.1848 9.7366 60.8641 9.44194C60.5521 9.14727 60.0711 8.99994 59.4211 8.99994H57.6791V12.4319ZM66.1083 8.02494V17.0859H64.9253V8.02494H66.1083ZM73.1815 12.4189C73.5108 12.4709 73.8098 12.6053 74.0785 12.8219C74.3558 13.0386 74.5725 13.3073 74.7285 13.6279C74.8932 13.9486 74.9755 14.2909 74.9755 14.6549C74.9755 15.1143 74.8585 15.5303 74.6245 15.9029C74.3905 16.2669 74.0482 16.5573 73.5975 16.7739C73.1555 16.9819 72.6312 17.0859 72.0245 17.0859H68.6445V8.02494H71.8945C72.5098 8.02494 73.0342 8.12894 73.4675 8.33694C73.9008 8.53627 74.2258 8.80927 74.4425 9.15594C74.6592 9.5026 74.7675 9.8926 74.7675 10.3259C74.7675 10.8633 74.6202 11.3096 74.3255 11.6649C74.0395 12.0116 73.6582 12.2629 73.1815 12.4189ZM69.8275 11.9379H71.8165C72.3712 11.9379 72.8002 11.8079 73.1035 11.5479C73.4068 11.2879 73.5585 10.9283 73.5585 10.4689C73.5585 10.0096 73.4068 9.64994 73.1035 9.38994C72.8002 9.12994 72.3625 8.99994 71.7905 8.99994H69.8275V11.9379ZM71.9205 16.1109C72.5098 16.1109 72.9692 15.9723 73.2985 15.6949C73.6278 15.4176 73.7925 15.0319 73.7925 14.5379C73.7925 14.0353 73.6192 13.6409 73.2725 13.3549C72.9258 13.0603 72.4622 12.9129 71.8815 12.9129H69.8275V16.1109H71.9205ZM78.3202 8.98694V12.0159H81.6222V12.9909H78.3202V16.1109H82.0122V17.0859H77.1372V8.01194H82.0122V8.98694H78.3202Z" fill="white"/>
<defs>
<linearGradient id="paint0_linear_2280_8514" x1="87.9749" y1="46.1724" x2="-125.485" y2="-94.2336" gradientUnits="userSpaceOnUse">
<stop stop-color="#DA0C15"/>
<stop offset="1"/>
</linearGradient>
</defs>
</svg>
