<svg width="84" height="25" viewBox="0 0 84 25" fill="none" xmlns="http://www.w3.org/2000/svg">
<rect x="0.824707" y="0.0859375" width="83" height="24" rx="7" fill="url(#paint0_linear_2280_8811)"/>
<path d="M13.4505 8.02494V13.7579C13.4505 14.5639 13.6455 15.1619 14.0355 15.5519C14.4342 15.9419 14.9845 16.1369 15.6865 16.1369C16.3799 16.1369 16.9215 15.9419 17.3115 15.5519C17.7102 15.1619 17.9095 14.5639 17.9095 13.7579V8.02494H19.0925V13.7449C19.0925 14.4989 18.9409 15.1359 18.6375 15.6559C18.3342 16.1673 17.9225 16.5486 17.4025 16.7999C16.8912 17.0513 16.3149 17.1769 15.6735 17.1769C15.0322 17.1769 14.4515 17.0513 13.9315 16.7999C13.4202 16.5486 13.0129 16.1673 12.7095 15.6559C12.4149 15.1359 12.2675 14.4989 12.2675 13.7449V8.02494H13.4505ZM27.644 10.6769C27.644 11.4309 27.384 12.0593 26.864 12.5619C26.3527 13.0559 25.5683 13.3029 24.511 13.3029H22.769V17.0859H21.586V8.02494H24.511C25.5337 8.02494 26.3093 8.27194 26.838 8.76594C27.3753 9.25994 27.644 9.89694 27.644 10.6769ZM24.511 12.3279C25.1697 12.3279 25.655 12.1849 25.967 11.8989C26.279 11.6129 26.435 11.2056 26.435 10.6769C26.435 9.55894 25.7937 8.99994 24.511 8.99994H22.769V12.3279H24.511ZM36.4983 10.6509C36.247 10.1223 35.883 9.71494 35.4063 9.42894C34.9297 9.13427 34.375 8.98694 33.7423 8.98694C33.1097 8.98694 32.5377 9.13427 32.0263 9.42894C31.5237 9.71494 31.125 10.1309 30.8303 10.6769C30.5443 11.2143 30.4013 11.8383 30.4013 12.5489C30.4013 13.2596 30.5443 13.8836 30.8303 14.4209C31.125 14.9583 31.5237 15.3743 32.0263 15.6689C32.5377 15.9549 33.1097 16.0979 33.7423 16.0979C34.6263 16.0979 35.3543 15.8336 35.9263 15.3049C36.4983 14.7763 36.832 14.0613 36.9273 13.1599H33.3133V12.1979H38.1883V13.1079C38.119 13.8533 37.885 14.5379 37.4863 15.1619C37.0877 15.7773 36.5633 16.2669 35.9133 16.6309C35.2633 16.9863 34.5397 17.1639 33.7423 17.1639C32.9017 17.1639 32.1347 16.9689 31.4413 16.5789C30.748 16.1803 30.1977 15.6299 29.7903 14.9279C29.3917 14.2259 29.1923 13.4329 29.1923 12.5489C29.1923 11.6649 29.3917 10.8719 29.7903 10.1699C30.1977 9.45927 30.748 8.90894 31.4413 8.51894C32.1347 8.12027 32.9017 7.92094 33.7423 7.92094C34.7043 7.92094 35.5537 8.15927 36.2903 8.63594C37.0357 9.1126 37.5773 9.78427 37.9153 10.6509H36.4983ZM45.0435 17.0859L42.8855 13.3809H41.4555V17.0859H40.2725V8.02494H43.1975C43.8822 8.02494 44.4585 8.14194 44.9265 8.37594C45.4032 8.60994 45.7585 8.92627 45.9925 9.32494C46.2265 9.7236 46.3435 10.1786 46.3435 10.6899C46.3435 11.3139 46.1615 11.8643 45.7975 12.3409C45.4422 12.8176 44.9048 13.1339 44.1855 13.2899L46.4605 17.0859H45.0435ZM41.4555 12.4319H43.1975C43.8388 12.4319 44.3198 12.2759 44.6405 11.9639C44.9612 11.6433 45.1215 11.2186 45.1215 10.6899C45.1215 10.1526 44.9612 9.7366 44.6405 9.44194C44.3285 9.14727 43.8475 8.99994 43.1975 8.99994H41.4555V12.4319ZM54.0577 15.0709H50.1057L49.3777 17.0859H48.1297L51.4057 8.07694H52.7707L56.0337 17.0859H54.7857L54.0577 15.0709ZM53.7197 14.1089L52.0817 9.53294L50.4437 14.1089H53.7197ZM60.8024 8.02494C61.7904 8.02494 62.6441 8.21127 63.3634 8.58394C64.0914 8.94794 64.6461 9.47227 65.0274 10.1569C65.4174 10.8416 65.6124 11.6476 65.6124 12.5749C65.6124 13.5023 65.4174 14.3083 65.0274 14.9929C64.6461 15.6689 64.0914 16.1889 63.3634 16.5529C62.6441 16.9083 61.7904 17.0859 60.8024 17.0859H57.9814V8.02494H60.8024ZM60.8024 16.1109C61.9724 16.1109 62.8651 15.8033 63.4804 15.1879C64.0958 14.5639 64.4034 13.6929 64.4034 12.5749C64.4034 11.4483 64.0914 10.5686 63.4674 9.93594C62.8521 9.30327 61.9638 8.98694 60.8024 8.98694H59.1644V16.1109H60.8024ZM68.8758 8.98694V12.0159H72.1778V12.9909H68.8758V16.1109H72.5678V17.0859H67.6928V8.01194H72.5678V8.98694H68.8758Z" fill="white"/>
<defs>
<linearGradient id="paint0_linear_2280_8811" x1="79.4493" y1="46.1724" x2="-78.4038" y2="-38.28" gradientUnits="userSpaceOnUse">
<stop stop-color="#F1B124"/>
<stop offset="1" stop-color="#422F05"/>
</linearGradient>
</defs>
</svg>
