<?xml version="1.0" encoding="UTF-8" standalone="no"?>
<!-- Generator: Adobe Illustrator 26.3.1, SVG Export Plug-In . SVG Version: 6.00 Build 0)  -->

<svg
   version="1.1"
   id="Layer_1"
   x="0px"
   y="0px"
   viewBox="0 0 216 216"
   style="enable-background:new 0 0 216 216;"
   xml:space="preserve"
   sodipodi:docname="test2.svg"
   inkscape:version="1.2.1 (9c6d41e4, 2022-07-14)"
   xmlns:inkscape="http://www.inkscape.org/namespaces/inkscape"
   xmlns:sodipodi="http://sodipodi.sourceforge.net/DTD/sodipodi-0.dtd"
   xmlns:xlink="http://www.w3.org/1999/xlink"
   xmlns="http://www.w3.org/2000/svg"
   xmlns:svg="http://www.w3.org/2000/svg"><defs
   id="defs392"><linearGradient
     inkscape:collect="always"
     id="linearGradient754"><stop
       style="stop-color:#ff8080;stop-opacity:1"
       offset="0"
       id="stop748" /><stop
       style="stop-color:#9955ff;stop-opacity:1"
       offset="0.38132918"
       id="stop750" /><stop
       style="stop-color:#3737c8;stop-opacity:0"
       offset="1"
       id="stop752" /></linearGradient><linearGradient
     inkscape:collect="always"
     id="linearGradient557"><stop
       style="stop-color:#2aff80;stop-opacity:1"
       offset="0"
       id="stop553" /><stop
       style="stop-color:#55ddff;stop-opacity:1"
       offset="0.49370658"
       id="stop662" /><stop
       style="stop-color:#ffdd55;stop-opacity:1"
       offset="1"
       id="stop555" /></linearGradient><linearGradient
     inkscape:collect="always"
     xlink:href="#linearGradient557"
     id="linearGradient716"
     x1="21.966103"
     y1="14.644068"
     x2="186.71187"
     y2="197.69492"
     gradientUnits="userSpaceOnUse" /><filter
     style="color-interpolation-filters:sRGB;"
     inkscape:label="Blur"
     id="filter798"
     x="-0.80119031"
     y="-0.61114141"
     width="2.6023806"
     height="2.2222828"><feGaussianBlur
       stdDeviation="41.8588 30.9973"
       result="blur"
       id="feGaussianBlur796" /></filter><filter
     style="color-interpolation-filters:sRGB;"
     inkscape:label="Blur"
     id="filter908"
     x="-0.46634319"
     y="-0.60229166"
     width="1.9326864"
     height="2.2045833"><feGaussianBlur
       stdDeviation="22.0525 29.4"
       result="blur"
       id="feGaussianBlur906" /></filter><filter
     style="color-interpolation-filters:sRGB;"
     inkscape:label="Blur"
     id="filter1194"
     x="-3.1424164"
     y="-3.4740202"
     width="7.2848329"
     height="7.9480405"><feGaussianBlur
       stdDeviation="28.7611 24.2887"
       result="fbSourceGraphic"
       id="feGaussianBlur1192" /><feColorMatrix
       result="fbSourceGraphicAlpha"
       in="fbSourceGraphic"
       values="0 0 0 -1 0 0 0 0 -1 0 0 0 0 -1 0 0 0 0 1 0"
       id="feColorMatrix1196" /><feGaussianBlur
       id="feGaussianBlur1198"
       stdDeviation="28.7611 24.2887"
       result="fbSourceGraphic"
       in="fbSourceGraphic" /><feColorMatrix
       result="fbSourceGraphicAlpha"
       in="fbSourceGraphic"
       values="0 0 0 -1 0 0 0 0 -1 0 0 0 0 -1 0 0 0 0 1 0"
       id="feColorMatrix1200" /><feGaussianBlur
       id="feGaussianBlur1202"
       stdDeviation="28.7611 24.2887"
       result="blur"
       in="fbSourceGraphic" /></filter><linearGradient
     inkscape:collect="always"
     xlink:href="#linearGradient754"
     id="linearGradient745"
     gradientUnits="userSpaceOnUse"
     x1="-3.1732404"
     y1="219.17325"
     x2="79.649231"
     y2="159.28622"
     gradientTransform="translate(5.4410477e-6)" /><filter
     style="color-interpolation-filters:sRGB;"
     inkscape:label="Blur"
     id="filter950"
     x="-0.11369556"
     y="-0.18823556"
     width="1.2273911"
     height="1.3764711"><feGaussianBlur
       stdDeviation="10.2326 16.9412"
       result="blur"
       id="feGaussianBlur948" /></filter><clipPath
     clipPathUnits="userSpaceOnUse"
     id="clipPath1036"><rect
       style="fill:url(#linearGradient1040);fill-opacity:1;stroke-width:0.575911"
       id="rect1038"
       width="126.75295"
       height="122.08429"
       x="9.4404545"
       y="73.862"
       inkscape:label="mask" /></clipPath><linearGradient
     inkscape:collect="always"
     xlink:href="#linearGradient557"
     id="linearGradient1040"
     gradientUnits="userSpaceOnUse"
     x1="21.966103"
     y1="14.644068"
     x2="186.71187"
     y2="197.69492"
     gradientTransform="matrix(0.58681923,0,0,0.56520505,9.440455,73.862002)" /></defs><sodipodi:namedview
   id="namedview390"
   pagecolor="#ffffff"
   bordercolor="#000000"
   borderopacity="0.25"
   inkscape:showpageshadow="2"
   inkscape:pageopacity="0.0"
   inkscape:pagecheckerboard="0"
   inkscape:deskcolor="#d1d1d1"
   showgrid="false"
   inkscape:zoom="5.9609873"
   inkscape:cx="116.00427"
   inkscape:cy="110.63604"
   inkscape:window-width="1726"
   inkscape:window-height="975"
   inkscape:window-x="1827"
   inkscape:window-y="25"
   inkscape:window-maximized="0"
   inkscape:current-layer="Layer_1"
   showguides="false" />
<style
   type="text/css"
   id="style364">
	.st0{fill:#FFFFFF;}
</style>
<rect
   style="fill:url(#linearGradient716);fill-opacity:1"
   id="rect491"
   width="216"
   height="216"
   x="0"
   y="0" /><rect
   style="fill:url(#linearGradient745);fill-opacity:1;filter:url(#filter950)"
   id="rect491-7"
   width="216"
   height="216"
   x="0"
   y="0"
   transform="matrix(1.7041023,0,0,1.7692694,-16.087501,-130.68178)"
   inkscape:label="pink"
   clip-path="url(#clipPath1036)" />
<style
   type="text/css"
   id="style1347">
	.st0{fill:none;}
	.st1{fill:#FFFFFF;}
</style><g
   id="g1377"
   transform="translate(2.15,-1.7)"
   inkscape:label="logo">
	<path
   class="st0"
   d="m 124.5,111.4 c -0.9,-2.1 -2.6,-3.3 -4.9,-3.5 -2.5,-0.3 -4.6,0.4 -6.2,2.3 -1.3,1.3 -1.7,3 -1.7,5 0,0.2 0,0.6 0.1,0.9 0.2,2.1 1.1,3.8 2.8,5.1 1.5,1.1 3.2,1.3 4.9,1.1 2.3,-0.3 4,-1.5 5,-3.6 0.9,-1.7 0.9,-3.6 0.6,-5.4 -0.1,-0.6 -0.3,-1.3 -0.6,-1.9 z"
   id="path1349" />
	<path
   class="st0"
   d="m 51.4,94 c -0.5,-0.3 -0.8,0 -0.8,0.5 0,0.4 0,1 0,1.5 0,0.6 0,1.1 0,1.7 0,0.5 0.4,0.7 0.8,0.5 0.9,-0.5 1.9,-1.1 2.8,-1.6 0.5,-0.3 0.4,-0.7 0,-1 -0.9,-0.5 -1.8,-1.1 -2.8,-1.6 z"
   id="path1351" />
	<path
   class="st0"
   d="m 34.4,99.4 c -1.9,-1 -4,-1.4 -6.2,-1.5 -2.1,-0.1 -4.2,-0.1 -6.3,-0.1 -0.1,0 -0.1,0 -0.2,0 0,7.8 0,15.5 0,23.3 0.1,0 0.2,0 0.2,0 1.5,0 3,0 4.6,0 1.6,0 3.3,-0.1 4.9,-0.5 3.5,-0.9 6.1,-2.8 7.5,-6.1 1,-2.4 1.2,-4.9 0.8,-7.5 -0.6,-3.3 -2.3,-5.9 -5.3,-7.6 z"
   id="path1353" />
	<path
   class="st1"
   d="m 199.4,81.7 c -0.2,0.7 -0.4,1.4 -0.6,2.2 -0.2,-0.8 -0.4,-1.5 -0.6,-2.2 -0.3,0 -0.6,0 -0.9,0 -0.1,0.3 -0.1,0.6 -0.1,0.9 0,0.8 0,1.6 0,2.4 0.2,0 0.4,0 0.6,0 0,-0.8 0,-1.5 0,-2.3 0.2,0.7 0.4,1.3 0.5,1.9 0.1,0.4 0.2,0.6 0.6,0.5 0.1,0 0.1,0 0.2,0 0.2,-0.8 0.4,-1.5 0.6,-2.3 h 0.1 c 0,0.7 0,1.4 0,2.2 0.2,0 0.4,0 0.6,0 0,-1.1 0,-2.2 0,-3.3 -0.3,0 -0.6,0 -1,0 z"
   id="path1355" />
	<path
   class="st1"
   d="m 193.8,81.7 c 0,0.2 0,0.4 0,0.6 0.4,0 0.7,0 1,0 0,0.9 0,1.8 0,2.7 0.3,0 0.5,0 0.7,0 0,-0.9 0,-1.8 0,-2.7 0.4,0 0.7,0 1,0 -0.1,-0.2 -0.1,-0.4 -0.1,-0.6 -0.9,0 -1.8,0 -2.6,0 z"
   id="path1357" />
	<path
   class="st1"
   d="m 35.1,93.2 c -2.3,-0.8 -4.7,-1 -7.1,-1 -4.1,0 -8.1,0 -12.1,0 -0.1,0 -0.2,0 -0.3,0 0,11.5 0,23 0.1,34.5 0.1,0 0.2,0 0.3,0 3.7,0 7.4,0 11.1,0 2,0 4,-0.2 6,-0.6 1.9,-0.4 3.8,-0.9 5.5,-2 3.3,-2 5.5,-4.9 6.8,-8.4 1.3,-3.3 1.5,-6.6 0.8,-10 -1.3,-6.3 -5,-10.5 -11.1,-12.5 z m 3.8,21.3 c -1.4,3.3 -4,5.2 -7.5,6.1 -1.6,0.4 -3.3,0.5 -4.9,0.5 -1.6,0 -3.1,0 -4.6,0 0,0 -0.1,0 -0.2,0 0,-7.8 0,-15.5 0,-23.3 0.1,0 0.1,0 0.2,0 2.1,0 4.2,0 6.3,0.1 2.2,0.1 4.3,0.5 6.2,1.5 3,1.7 4.7,4.3 5.3,7.6 0.4,2.6 0.2,5.1 -0.8,7.5 z"
   id="path1359" />
	<path
   class="st1"
   d="m 146.8,124.7 c 0.1,-0.2 0.1,-0.4 0.1,-0.5 0.2,-2.9 0.5,-5.7 0.7,-8.6 0.3,-3.8 0.6,-7.6 0.9,-11.4 0,-0.2 0.1,-0.3 0.3,-0.3 0.8,-0.1 1.7,-0.3 2.5,-0.4 1.3,-0.2 2.7,-0.5 4,-0.7 0.1,0.2 0.1,0.3 0.1,0.4 2.1,7.1 4.2,14.3 6.3,21.4 0,0.2 0.1,0.3 0.4,0.3 1.7,0.1 3.5,0.1 5.2,0.1 0.3,0 0.4,-0.1 0.5,-0.3 4.9,-10.8 9.8,-21.5 14.7,-32.3 0,-0.1 0.1,-0.2 0.1,-0.3 -0.1,0.1 -0.2,0.1 -0.3,0.1 -2.6,0.5 -5.1,1.1 -7.7,1.6 -0.3,0 -0.4,0.1 -0.5,0.4 -2.8,7.4 -5.7,14.9 -8.5,22.3 -0.1,0.4 -0.3,0.7 -0.4,1.1 -0.1,0 -0.1,0 -0.1,0 -1.9,-6.8 -3.7,-13.6 -5.5,-20.4 -7.5,1.4 -14.9,2.8 -22.3,4.2 0,1.5 -0.1,3 -0.2,4.6 2,-0.4 4,-0.8 6.1,-1.2 -0.4,6.7 -0.9,13.3 -1.3,19.9 1.7,0 3.3,0 4.9,0 z"
   id="path1361" />
	<path
   class="st1"
   d="m 131,112.9 c -0.7,-3.9 -2.7,-7 -6.3,-8.7 -3.8,-1.8 -7.7,-1.9 -11.6,-0.3 -3,1.2 -5.3,3.4 -6.5,6.5 -1,2.4 -1.1,4.9 -0.6,7.4 0.9,4.6 3.6,7.7 8.1,9.1 2.2,0.7 4.4,0.7 6.6,0.4 2.7,-0.4 5.1,-1.5 7.1,-3.4 2.5,-2.5 3.4,-5.6 3.4,-9 -0.1,-0.4 -0.1,-0.8 -0.1,-1 0,-0.3 0,-0.7 -0.1,-1 z m -6.5,5.8 c -1,2.1 -2.7,3.3 -5,3.6 -1.7,0.2 -3.4,0 -4.9,-1.1 -1.7,-1.3 -2.6,-3 -2.8,-5.1 -0.1,-0.3 -0.1,-0.7 -0.1,-0.9 0,-2 0.4,-3.7 1.7,-5 1.6,-1.9 3.7,-2.6 6.2,-2.3 2.3,0.2 4,1.4 4.9,3.5 0.3,0.6 0.5,1.3 0.6,1.9 0.3,1.8 0.3,3.7 -0.6,5.4 z"
   id="path1363" />
	<path
   class="st1"
   d="m 71.3,113.3 c -1.6,-0.4 -3.2,-0.8 -4.8,-1.2 -0.6,-0.1 -1.3,-0.3 -1.8,-0.6 -1.1,-0.7 -1.4,-2.2 -0.5,-3.2 0.4,-0.5 0.9,-0.9 1.5,-1 2,-0.4 3.7,0 5.1,1.5 0.2,0.2 0.4,0.5 0.7,0.8 1.3,-1.1 2.6,-2.3 3.9,-3.5 -0.8,-1.1 -1.7,-1.9 -2.9,-2.4 -3.1,-1.4 -6.4,-1.5 -9.6,-0.4 -2.8,1 -4.6,3 -5,6 -0.4,3.1 1.1,5.6 3.8,6.6 1.4,0.6 2.9,0.9 4.4,1.3 0.8,0.2 1.6,0.3 2.4,0.6 1.2,0.4 1.8,1.5 1.6,2.6 -0.2,1.1 -0.9,1.7 -1.9,2.1 -1,0.4 -2.1,0.4 -3.2,0.2 -1.4,-0.3 -2.4,-1 -3.4,-1.9 -0.3,-0.3 -0.6,-0.5 -0.9,-0.8 -1.2,1.1 -2.4,2.3 -3.8,3.6 0.7,0.6 1.3,1.2 2.1,1.7 1.7,1.2 3.6,1.8 5.7,1.9 2,0.1 4,0.1 5.9,-0.5 3.1,-1 5.2,-3 5.6,-6.4 0.2,-2.1 -0.4,-4 -2,-5.5 -0.8,-0.7 -1.8,-1.2 -2.9,-1.5 z"
   id="path1365" />
	<path
   class="st1"
   d="m 92.6,124.9 c 0,-1.1 0,-2.2 0,-3.4 -0.2,0.1 -0.2,0.1 -0.3,0.1 -1.1,0.4 -2.2,0.6 -3.4,0.5 -1.4,-0.1 -2.6,-0.7 -2.8,-2.5 0,-0.5 -0.1,-1 -0.1,-1.5 0,-3.2 0,-6.4 0,-9.6 0,-0.1 0,-0.2 0,-0.3 2.2,0 4.3,0 6.4,0 0,-1.7 0,-3.3 0,-4.9 -2.1,0 -4.2,0 -6.4,0 0,-2.2 0,-4.4 0,-6.9 -1.9,0 -3.8,0 -5.7,0 0,2.2 0,4.5 0,6.7 -1.2,0 -2.4,0 -3.5,0 0,1.7 0,3.3 0,4.9 1.1,0 2.3,0 3.4,0 0,0.1 0,0.3 0,0.4 0,1.4 0,2.7 0,4.1 0,2.9 0,5.7 0.1,8.5 0.1,3 1.9,5.1 4.8,5.7 2.3,0.6 4.6,0.4 6.9,-0.2 0.7,-0.1 0.6,0 0.6,-0.7 0,-0.3 0,-0.6 0,-0.9 z"
   id="path1367" />
	<path
   class="st1"
   d="m 108.2,103.5 c 0.1,-0.1 0.1,-0.1 0.2,-0.2 v -0.1 c -0.8,0.1 -1.5,0.1 -2.3,0.2 -1.8,0.3 -3.4,1 -4.6,2.5 -0.3,0.5 -0.6,0.9 -0.9,1.3 0,0 -0.1,0 -0.1,0 0,0 0,0 0.1,0 -0.1,-1.3 -0.1,-2.5 -0.1,-3.9 -2,0 -3.9,0 -5.8,0 0,7.8 0,15.5 0,23.3 1.9,0 3.8,0 5.8,0 0,-0.1 0,-0.3 0,-0.4 0,-3.2 0,-6.5 0,-9.8 0,-1.3 0.1,-2.6 0.5,-3.9 0.6,-1.8 1.5,-3.2 3.3,-4 0.1,-0.1 0.1,-0.2 0.2,-0.3 0.9,-1.9 2.1,-3.4 3.7,-4.7 z"
   id="path1369" />
	<path
   class="st1"
   d="m 49.3,126.7 c 2,0 3.9,0 5.8,0 0,-7.8 0,-15.5 0,-23.3 -2,0 -3.9,0 -5.8,0 0,7.8 0,15.5 0,23.3 z"
   id="path1371" />
	<path
   class="st1"
   d="m 52.2,91.3 c -2.6,0 -4.8,2.1 -4.8,4.7 0,2.7 2,4.8 4.7,4.8 2.7,0 4.8,-2.1 4.8,-4.7 0,-2.6 -2.1,-4.8 -4.7,-4.8 z m 2,5.3 c -0.9,0.5 -1.9,1.1 -2.8,1.6 -0.4,0.2 -0.8,0 -0.8,-0.5 0,-0.6 0,-1.1 0,-1.7 0,-0.5 0,-1.1 0,-1.5 0,-0.5 0.3,-0.8 0.8,-0.5 1,0.5 1.9,1.1 2.8,1.6 0.4,0.3 0.5,0.7 0,1 z"
   id="path1373" />
	<path
   class="st1"
   d="m 195.2,90.9 c -1.3,-3.8 -3.9,-6.3 -7.9,-7.2 -2.3,-0.6 -4.6,-0.3 -6.9,0.3 -10.2,2.8 -20.3,5.5 -30.5,8.3 v 0 c -0.1,0 -0.2,0.1 -0.2,0.3 0,0.1 0.1,0.3 0.2,0.3 v 0 c 0,0 0,0 0,0 0,0 0,0 0,0 v 0 c 3.2,-0.8 6.5,-1.5 9.7,-2.3 5.7,-1.3 11.5,-2.7 17.2,-4 2,-0.4 4.1,-0.7 6.2,-0.5 1.9,0.2 3.5,0.9 4.7,2.4 1.5,1.8 2,3.9 1.8,6.2 -0.1,1.5 -0.3,3.1 -0.5,4.6 -0.3,2.4 -0.6,4.9 -0.9,7.4 -0.3,2.4 -0.6,4.9 -0.9,7.3 -0.3,2.4 -0.5,4.7 -0.8,7 -0.2,1.2 -0.2,2.4 -0.5,3.6 -0.9,4.3 -5,7.5 -9.5,7.4 -3.6,-0.1 -7.1,-0.2 -10.7,-0.3 -5.8,-0.1 -11.7,-0.3 -17.5,-0.5 -2.4,-0.1 -4.7,-0.1 -7,-0.2 0,0 0,0 0,0 0,0 0,0 0,0 0,0 0,0 0,0 v 0 c -0.1,0 -0.2,0.1 -0.2,0.3 0,0.1 0.1,0.2 0.2,0.2 0,0 0,0 0,0 2.3,0.2 4.6,0.3 6.9,0.5 2.6,0.2 5.3,0.4 7.9,0.6 2.6,0.2 5.2,0.4 7.8,0.6 2.6,0.2 5.3,0.4 8,0.6 2.3,0.2 4.6,0.3 6.9,0.5 1.3,0.1 2.5,0.2 3.7,0 4.5,-0.8 7.6,-3.4 9.1,-7.7 0.3,-1.5 0.6,-3.1 0.8,-4.7 0.4,-2.7 0.7,-5.4 1.1,-8.1 0.4,-2.7 0.7,-5.4 1.1,-8.1 0.4,-2.7 0.7,-5.4 1.1,-8.1 0.4,-2.4 0.3,-4.6 -0.4,-6.7 z"
   id="path1375" />
</g></svg>
