<svg width="27" height="27" viewBox="0 0 27 27" fill="none" xmlns="http://www.w3.org/2000/svg">
<rect x="0.5" y="0.5" width="26" height="26" stroke="white" stroke-opacity="0.4" stroke-linejoin="round"/>
<path d="M15.8312 13.7125C15.7187 13.45 15.5062 13.3 15.2187 13.275C14.9062 13.2375 14.6437 13.325 14.4437 13.5625C14.2812 13.725 14.2312 13.9375 14.2312 14.1875C14.2312 14.2125 14.2312 14.2625 14.2437 14.3C14.2687 14.5625 14.3812 14.775 14.5937 14.9375C14.7812 15.075 14.9937 15.1 15.2062 15.075C15.4937 15.0375 15.7062 14.8875 15.8312 14.625C15.9437 14.4125 15.9437 14.175 15.9062 13.95C15.8937 13.875 15.8687 13.7875 15.8312 13.7125Z" fill="white" fill-opacity="0.4"/>
<path d="M6.69375 11.5375C6.63125 11.5 6.59375 11.5375 6.59375 11.6C6.59375 11.65 6.59375 11.725 6.59375 11.7875C6.59375 11.8625 6.59375 11.925 6.59375 12C6.59375 12.0625 6.64375 12.0875 6.69375 12.0625C6.80625 12 6.93125 11.925 7.04375 11.8625C7.10625 11.825 7.09375 11.775 7.04375 11.7375C6.93125 11.675 6.81875 11.6 6.69375 11.5375Z" fill="white" fill-opacity="0.4"/>
<path d="M4.5687 12.2125C4.3312 12.0875 4.0687 12.0375 3.7937 12.025C3.5312 12.0125 3.2687 12.0125 3.0062 12.0125C2.9937 12.0125 2.9937 12.0125 2.9812 12.0125C2.9812 12.9875 2.9812 13.95 2.9812 14.925C2.9937 14.925 3.0062 14.925 3.0062 14.925C3.1937 14.925 3.3812 14.925 3.5812 14.925C3.7812 14.925 3.9937 14.9125 4.1937 14.8625C4.6312 14.75 4.9562 14.5125 5.1312 14.1C5.2562 13.8 5.2812 13.4875 5.2312 13.1625C5.1562 12.75 4.9437 12.425 4.5687 12.2125Z" fill="white" fill-opacity="0.4"/>
<path d="M25.1937 10C25.1687 10.0875 25.1437 10.175 25.1187 10.275C25.0937 10.175 25.0687 10.0875 25.0437 10C25.0062 10 24.9687 10 24.9312 10C24.9187 10.0375 24.9187 10.075 24.9187 10.1125C24.9187 10.2125 24.9187 10.3125 24.9187 10.4125C24.9437 10.4125 24.9687 10.4125 24.9937 10.4125C24.9937 10.3125 24.9937 10.225 24.9937 10.125C25.0187 10.2125 25.0437 10.2875 25.0562 10.3625C25.0687 10.4125 25.0812 10.4375 25.1312 10.425C25.1437 10.425 25.1437 10.425 25.1562 10.425C25.1812 10.325 25.2062 10.2375 25.2312 10.1375H25.2437C25.2437 10.225 25.2437 10.3125 25.2437 10.4125C25.2687 10.4125 25.2937 10.4125 25.3187 10.4125C25.3187 10.275 25.3187 10.1375 25.3187 10C25.2812 10 25.2437 10 25.1937 10Z" fill="white" fill-opacity="0.4"/>
<path d="M24.4938 10C24.4938 10.025 24.4938 10.05 24.4938 10.075C24.5438 10.075 24.5813 10.075 24.6188 10.075C24.6188 10.1875 24.6188 10.3 24.6188 10.4125C24.6563 10.4125 24.6813 10.4125 24.7063 10.4125C24.7063 10.3 24.7063 10.1875 24.7063 10.075C24.7563 10.075 24.7938 10.075 24.8313 10.075C24.8188 10.05 24.8188 10.025 24.8188 10C24.7063 10 24.5938 10 24.4938 10Z" fill="white" fill-opacity="0.4"/>
<path d="M4.65625 11.4375C4.36875 11.3375 4.06875 11.3125 3.76875 11.3125C3.25625 11.3125 2.75625 11.3125 2.25625 11.3125C2.24375 11.3125 2.23125 11.3125 2.21875 11.3125C2.21875 12.75 2.21875 14.1875 2.23125 15.625C2.24375 15.625 2.25625 15.625 2.26875 15.625C2.73125 15.625 3.19375 15.625 3.65625 15.625C3.90625 15.625 4.15625 15.6 4.40625 15.55C4.64375 15.5 4.88125 15.4375 5.09375 15.3C5.50625 15.05 5.78125 14.6875 5.94375 14.25C6.10625 13.8375 6.13125 13.425 6.04375 13C5.88125 12.2125 5.41875 11.6875 4.65625 11.4375ZM5.13125 14.1C4.95625 14.5125 4.63125 14.75 4.19375 14.8625C3.99375 14.9125 3.78125 14.925 3.58125 14.925C3.38125 14.925 3.19375 14.925 3.00625 14.925C3.00625 14.925 2.99375 14.925 2.98125 14.925C2.98125 13.95 2.98125 12.9875 2.98125 12.0125C2.99375 12.0125 2.99375 12.0125 3.00625 12.0125C3.26875 12.0125 3.53125 12.0125 3.79375 12.025C4.06875 12.0375 4.33125 12.0875 4.56875 12.2125C4.94375 12.425 5.15625 12.75 5.23125 13.1625C5.28125 13.4875 5.25625 13.8 5.13125 14.1Z" fill="white" fill-opacity="0.4"/>
<path d="M18.6187 15.375C18.6312 15.35 18.6312 15.325 18.6312 15.3125C18.6562 14.95 18.6937 14.6 18.7188 14.2375C18.7563 13.7625 18.7937 13.2875 18.8312 12.8125C18.8312 12.7875 18.8437 12.775 18.8687 12.775C18.9687 12.7625 19.0812 12.7375 19.1812 12.725C19.3437 12.7 19.5187 12.6625 19.6812 12.6375C19.6937 12.6625 19.6937 12.675 19.6937 12.6875C19.9562 13.575 20.2187 14.475 20.4812 15.3625C20.4812 15.3875 20.4937 15.4 20.5312 15.4C20.7438 15.4125 20.9687 15.4125 21.1812 15.4125C21.2187 15.4125 21.2312 15.4 21.2437 15.375C21.8562 14.025 22.4687 12.6875 23.0812 11.3375C23.0812 11.325 23.0938 11.3125 23.0938 11.3C23.0812 11.3125 23.0687 11.3125 23.0562 11.3125C22.7312 11.375 22.4187 11.45 22.0938 11.5125C22.0562 11.5125 22.0438 11.525 22.0312 11.5625C21.6813 12.4875 21.3187 13.425 20.9688 14.35C20.9562 14.4 20.9312 14.4375 20.9187 14.4875C20.9062 14.4875 20.9062 14.4875 20.9062 14.4875C20.6688 13.6375 20.4437 12.7875 20.2188 11.9375C19.2812 12.1125 18.3562 12.2875 17.4312 12.4625C17.4312 12.65 17.4188 12.8375 17.4062 13.0375C17.6562 12.9875 17.9062 12.9375 18.1687 12.8875C18.1187 13.725 18.0562 14.55 18.0062 15.375C18.2187 15.375 18.4187 15.375 18.6187 15.375Z" fill="white" fill-opacity="0.4"/>
<path d="M16.6438 13.9C16.5563 13.4125 16.3063 13.025 15.8563 12.8125C15.3813 12.5875 14.8938 12.575 14.4063 12.775C14.0313 12.925 13.7438 13.2 13.5938 13.5875C13.4688 13.8875 13.4563 14.2 13.5188 14.5125C13.6313 15.0875 13.9688 15.475 14.5313 15.65C14.8063 15.7375 15.0813 15.7375 15.3563 15.7C15.6938 15.65 15.9938 15.5125 16.2438 15.275C16.5563 14.9625 16.6688 14.575 16.6688 14.15C16.6563 14.1 16.6563 14.05 16.6563 14.025C16.6563 13.9875 16.6563 13.9375 16.6438 13.9ZM15.8313 14.625C15.7063 14.8875 15.4938 15.0375 15.2063 15.075C14.9938 15.1 14.7813 15.075 14.5938 14.9375C14.3813 14.775 14.2688 14.5625 14.2438 14.3C14.2313 14.2625 14.2313 14.2125 14.2313 14.1875C14.2313 13.9375 14.2813 13.725 14.4438 13.5625C14.6438 13.325 14.9063 13.2375 15.2188 13.275C15.5063 13.3 15.7188 13.45 15.8313 13.7125C15.8688 13.7875 15.8938 13.875 15.9063 13.95C15.9438 14.175 15.9438 14.4125 15.8313 14.625Z" fill="white" fill-opacity="0.4"/>
<path d="M9.18123 13.95C8.98123 13.9 8.78123 13.85 8.58123 13.8C8.50623 13.7875 8.41873 13.7625 8.35623 13.725C8.21873 13.6375 8.18123 13.45 8.29373 13.325C8.34373 13.2625 8.40623 13.2125 8.48123 13.2C8.73123 13.15 8.94373 13.2 9.11873 13.3875C9.14373 13.4125 9.16873 13.45 9.20623 13.4875C9.36873 13.35 9.53123 13.2 9.69373 13.05C9.59373 12.9125 9.48123 12.8125 9.33123 12.75C8.94373 12.575 8.53123 12.5625 8.13123 12.7C7.78123 12.825 7.55623 13.075 7.50623 13.45C7.45623 13.8375 7.64373 14.15 7.98123 14.275C8.15623 14.35 8.34373 14.3875 8.53123 14.4375C8.63123 14.4625 8.73123 14.475 8.83123 14.5125C8.98123 14.5625 9.05623 14.7 9.03123 14.8375C9.00623 14.975 8.91873 15.05 8.79373 15.1C8.66873 15.15 8.53123 15.15 8.39373 15.125C8.21873 15.0875 8.09373 15 7.96873 14.8875C7.93123 14.85 7.89373 14.825 7.85623 14.7875C7.70623 14.925 7.55623 15.075 7.38123 15.2375C7.46873 15.3125 7.54373 15.3875 7.64373 15.45C7.85623 15.6 8.09373 15.675 8.35623 15.6875C8.60623 15.7 8.85623 15.7 9.09373 15.625C9.48123 15.5 9.74373 15.25 9.79373 14.825C9.81873 14.5625 9.74373 14.325 9.54373 14.1375C9.44373 14.05 9.31873 13.9875 9.18123 13.95Z" fill="white" fill-opacity="0.4"/>
<path d="M11.8438 15.4C11.8438 15.2625 11.8438 15.125 11.8438 14.975C11.8188 14.9875 11.8188 14.9875 11.8063 14.9875C11.6688 15.0375 11.5313 15.0625 11.3813 15.05C11.2063 15.0375 11.0563 14.9625 11.0313 14.7375C11.0313 14.675 11.0188 14.6125 11.0188 14.55C11.0188 14.15 11.0188 13.75 11.0188 13.35C11.0188 13.3375 11.0188 13.325 11.0188 13.3125C11.2938 13.3125 11.5563 13.3125 11.8188 13.3125C11.8188 13.1 11.8188 12.9 11.8188 12.7C11.5563 12.7 11.2938 12.7 11.0188 12.7C11.0188 12.425 11.0188 12.15 11.0188 11.8375C10.7813 11.8375 10.5438 11.8375 10.3063 11.8375C10.3063 12.1125 10.3063 12.4 10.3063 12.675C10.1563 12.675 10.0063 12.675 9.86877 12.675C9.86877 12.8875 9.86877 13.0875 9.86877 13.2875C10.0063 13.2875 10.1563 13.2875 10.2938 13.2875C10.2938 13.3 10.2938 13.325 10.2938 13.3375C10.2938 13.5125 10.2938 13.675 10.2938 13.85C10.2938 14.2125 10.2938 14.5625 10.3063 14.9125C10.3188 15.2875 10.5438 15.55 10.9063 15.625C11.1938 15.7 11.4813 15.675 11.7688 15.6C11.8563 15.5875 11.8438 15.6 11.8438 15.5125C11.8438 15.475 11.8438 15.4375 11.8438 15.4Z" fill="white" fill-opacity="0.4"/>
<path d="M13.7937 12.725C13.8062 12.7125 13.8062 12.7125 13.8187 12.7V12.6875C13.7187 12.7 13.6312 12.7 13.5312 12.7125C13.3062 12.75 13.1062 12.8375 12.9562 13.025C12.9187 13.0875 12.8812 13.1375 12.8437 13.1875H12.8312C12.8312 13.1875 12.8312 13.1875 12.8437 13.1875C12.8312 13.025 12.8312 12.875 12.8312 12.7C12.5812 12.7 12.3437 12.7 12.1062 12.7C12.1062 13.675 12.1062 14.6375 12.1062 15.6125C12.3437 15.6125 12.5812 15.6125 12.8312 15.6125C12.8312 15.6 12.8312 15.575 12.8312 15.5625C12.8312 15.1625 12.8312 14.75 12.8312 14.3375C12.8312 14.175 12.8437 14.0125 12.8937 13.85C12.9687 13.625 13.0812 13.45 13.3062 13.35C13.3187 13.3375 13.3187 13.325 13.3312 13.3125C13.4437 13.075 13.5937 12.8875 13.7937 12.725Z" fill="white" fill-opacity="0.4"/>
<path d="M6.43127 15.625C6.68127 15.625 6.91877 15.625 7.15627 15.625C7.15627 14.65 7.15627 13.6875 7.15627 12.7125C6.90627 12.7125 6.66877 12.7125 6.43127 12.7125C6.43127 13.6875 6.43127 14.65 6.43127 15.625Z" fill="white" fill-opacity="0.4"/>
<path d="M6.79373 11.2C6.46873 11.2 6.19373 11.4625 6.19373 11.7875C6.19373 12.125 6.44373 12.3875 6.78123 12.3875C7.11873 12.3875 7.38123 12.125 7.38123 11.8C7.38123 11.475 7.11873 11.2 6.79373 11.2ZM7.04373 11.8625C6.93123 11.925 6.80623 12 6.69373 12.0625C6.64373 12.0875 6.59373 12.0625 6.59373 12C6.59373 11.925 6.59373 11.8625 6.59373 11.7875C6.59373 11.725 6.59373 11.65 6.59373 11.6C6.59373 11.5375 6.63123 11.5 6.69373 11.5375C6.81873 11.6 6.93123 11.675 7.04373 11.7375C7.09373 11.775 7.10623 11.825 7.04373 11.8625Z" fill="white" fill-opacity="0.4"/>
<path d="M24.6688 11.15C24.5063 10.675 24.1813 10.3625 23.6813 10.25C23.3938 10.175 23.1063 10.2125 22.8188 10.2875C21.5438 10.6375 20.2813 10.975 19.0063 11.325C18.9938 11.325 18.9813 11.3375 18.9813 11.3625C18.9813 11.375 18.9938 11.4 19.0063 11.4C19.4063 11.3 19.8188 11.2125 20.2188 11.1125C20.9313 10.95 21.6563 10.775 22.3688 10.6125C22.6188 10.5625 22.8813 10.525 23.1438 10.55C23.3813 10.575 23.5813 10.6625 23.7313 10.85C23.9188 11.075 23.9813 11.3375 23.9563 11.625C23.9438 11.8125 23.9188 12.0125 23.8938 12.2C23.8563 12.5 23.8188 12.8125 23.7813 13.125C23.7438 13.425 23.7063 13.7375 23.6688 14.0375C23.6313 14.3375 23.6063 14.625 23.5688 14.9125C23.5438 15.0625 23.5438 15.2125 23.5063 15.3625C23.3938 15.9 22.8813 16.3 22.3188 16.2875C21.8688 16.275 21.4313 16.2625 20.9813 16.25C20.2563 16.2375 19.5188 16.2125 18.7938 16.1875C18.4938 16.175 18.2063 16.175 17.9188 16.1625C17.9063 16.1625 17.8938 16.175 17.8938 16.2C17.8938 16.2125 17.9063 16.225 17.9188 16.225C18.2063 16.25 18.4938 16.2625 18.7813 16.2875C19.1063 16.3125 19.4438 16.3375 19.7688 16.3625C20.0938 16.3875 20.4188 16.4125 20.7438 16.4375C21.0688 16.4625 21.4063 16.4875 21.7438 16.5125C22.0313 16.5375 22.3188 16.55 22.6063 16.575C22.7688 16.5875 22.9188 16.6 23.0688 16.575C23.6313 16.475 24.0188 16.15 24.2063 15.6125C24.2438 15.425 24.2813 15.225 24.3063 15.025C24.3563 14.6875 24.3938 14.35 24.4438 14.0125C24.4938 13.675 24.5313 13.3375 24.5813 13C24.6313 12.6625 24.6688 12.325 24.7188 11.9875C24.7688 11.6875 24.7563 11.4125 24.6688 11.15Z" fill="white" fill-opacity="0.4"/>
</svg>
