<svg width="20" height="20" viewBox="0 0 20 20" fill="none" xmlns="http://www.w3.org/2000/svg">
<g id="Group_30">
<path id="Oval_3" d="M13.8519 10.1719C13.8519 14.9584 12.1274 18.8386 10 18.8386C7.87273 18.8386 6.14819 14.9584 6.14819 10.1719C6.14819 5.38542 7.87273 1.50522 10 1.50522C12.1274 1.50522 13.8519 5.38542 13.8519 10.1719Z" stroke="white" stroke-width="1.40833" stroke-linecap="round" stroke-linejoin="round"/>
<path id="Path_76" d="M18.1852 7.283H1.81482" stroke="white" stroke-width="1.40833" stroke-linecap="round" stroke-linejoin="round"/>
<path id="Rectangle_4" d="M1.33337 9.20892C1.33337 4.95428 4.78244 1.50522 9.03708 1.50522H10.963C15.2176 1.50522 18.6667 4.95428 18.6667 9.20892V11.1348C18.6667 15.3895 15.2176 18.8386 10.963 18.8386H9.03708C4.78244 18.8386 1.33337 15.3895 1.33337 11.1348V9.20892Z" stroke="white" stroke-width="1.40833" stroke-linecap="round" stroke-linejoin="round"/>
<path id="Path_77" d="M18.1852 13.0608H1.81482" stroke="white" stroke-width="1.40833" stroke-linecap="round" stroke-linejoin="round"/>
</g>
</svg>
