<svg width="27" height="27" viewBox="0 0 27 27" fill="none" xmlns="http://www.w3.org/2000/svg">
<path d="M26.9393 19.2804C26.9393 20.6834 26.5233 22.0549 25.7438 23.2214C24.9644 24.388 23.8565 25.2972 22.5603 25.8341C21.2641 26.371 19.8378 26.5114 18.4618 26.2377C17.0858 25.964 15.8218 25.2884 14.8298 24.2964C13.8377 23.3043 13.1621 22.0403 12.8884 20.6643C12.6147 19.2883 12.7552 17.862 13.2921 16.5658C13.829 15.2696 14.7382 14.1618 15.9047 13.3823C17.0712 12.6029 18.4427 12.1868 19.8457 12.1868C21.7265 12.1887 23.5297 12.9367 24.8596 14.2666C26.1895 15.5965 26.9374 17.3997 26.9393 19.2804ZM24.5748 19.2804C24.5748 18.3451 24.2974 17.4308 23.7778 16.6531C23.2581 15.8754 22.5196 15.2693 21.6554 14.9113C20.7913 14.5534 19.8404 14.4598 18.9231 14.6422C18.0058 14.8247 17.1631 15.2751 16.5017 15.9365C15.8404 16.5978 15.39 17.4405 15.2075 18.3578C15.025 19.2752 15.1187 20.226 15.4766 21.0902C15.8345 21.9543 16.4407 22.6929 17.2184 23.2125C17.9961 23.7321 18.9104 24.0095 19.8457 24.0095C21.0999 24.0095 22.3028 23.5112 23.1896 22.6244C24.0765 21.7375 24.5748 20.5346 24.5748 19.2804Z" fill="white"/>
<path d="M4.65594 24.0095C3.91882 24.0102 3.19805 23.7922 2.58492 23.3831C1.97178 22.9739 1.49386 22.392 1.21168 21.711C0.929491 21.0301 0.855735 20.2807 0.999748 19.5578C1.14376 18.8348 1.49907 18.1709 2.02067 17.6501L6.51919 13.1575L6.5915 13.0723L6.51919 13.0298C6.29047 12.8084 6.10856 12.5433 5.98427 12.2502C5.85998 11.9571 5.79583 11.6421 5.79564 11.3238C5.79391 10.9967 5.85683 10.6724 5.9808 10.3697C6.10477 10.067 6.28733 9.79176 6.51801 9.55983L14.6153 1.46367C15.3146 0.765899 16.2622 0.374023 17.25 0.374023C18.2379 0.374023 19.1854 0.765899 19.8847 1.46367L23.4835 5.06249C24.1808 5.76228 24.5723 6.70989 24.5723 7.69776C24.5723 8.68563 24.1808 9.63324 23.4835 10.333C23.2618 10.5549 22.9611 10.6796 22.6475 10.6797C22.3339 10.6798 22.0331 10.5553 21.8112 10.3336C21.5894 10.1119 21.4647 9.81121 21.4646 9.49759C21.4645 9.18397 21.5889 8.88315 21.8106 8.66131C22.0655 8.40539 22.2086 8.05893 22.2086 7.69776C22.2086 7.33659 22.0655 6.99013 21.8106 6.73421L18.213 3.12712C17.9573 2.87234 17.611 2.72929 17.25 2.72929C16.8891 2.72929 16.5428 2.87234 16.2871 3.12712L8.19091 11.2245C8.63422 11.7404 8.88785 12.3924 8.90973 13.0723C8.91265 13.3973 8.85045 13.7196 8.72678 14.0201C8.60312 14.3206 8.42051 14.5933 8.18973 14.8221L3.69712 19.3147C3.4528 19.5725 3.31876 19.9155 3.32353 20.2707C3.3283 20.6258 3.4715 20.9651 3.72266 21.2163C3.97382 21.4674 4.31309 21.6106 4.66825 21.6154C5.02341 21.6202 5.3664 21.4861 5.62421 21.2418L9.60727 17.2576C9.83084 17.0428 10.1298 16.9244 10.4399 16.9279C10.7499 16.9314 11.0461 17.0566 11.2647 17.2765C11.4834 17.4963 11.6069 17.7933 11.6086 18.1033C11.6104 18.4133 11.4903 18.7117 11.2743 18.934L7.29121 22.9183C6.94547 23.2647 6.53469 23.5395 6.08245 23.7268C5.6302 23.9141 5.14542 24.0101 4.65594 24.0095Z" fill="white"/>
<path d="M24.5748 19.2804C24.5748 18.3451 24.2974 17.4308 23.7778 16.6531C23.2581 15.8754 22.5196 15.2693 21.6554 14.9113C20.7913 14.5534 19.8404 14.4598 18.9231 14.6422C18.0058 14.8247 17.1631 15.2751 16.5017 15.9365C15.8404 16.5978 15.39 17.4405 15.2075 18.3578C15.025 19.2752 15.1187 20.226 15.4766 21.0902C15.8345 21.9543 16.4407 22.6929 17.2184 23.2125C17.9961 23.7321 18.9104 24.0095 19.8457 24.0095C21.0999 24.0095 22.3028 23.5112 23.1896 22.6244C24.0765 21.7375 24.5748 20.5346 24.5748 19.2804Z" fill="#3158CE"/>
</svg>
