<svg width="25" height="24" viewBox="0 0 25 24" fill="none" xmlns="http://www.w3.org/2000/svg">
    <path d="M4.96967 21.4697C4.67678 21.7626 4.67678 22.2374 4.96967 22.5303C5.26256 22.8232 5.73744 22.8232 6.03033 22.5303L4.96967 21.4697ZM7.5 20L6.97611 19.4632L6.96967 19.4697L7.5 20ZM17.5 20L16.9547 20.5149L16.9621 20.5227L16.9697 20.5303L17.5 20ZM18.9697 22.5303C19.2626 22.8232 19.7374 22.8232 20.0303 22.5303C20.3232 22.2374 20.3232 21.7626 20.0303 21.4697L18.9697 22.5303ZM5.23005 19.455L5.57054 18.7868L5.23005 19.455ZM3.04497 17.27L3.71322 16.9295L3.04497 17.27ZM21.955 17.27L21.2868 16.9295L21.955 17.27ZM19.77 19.455L19.4295 18.7868L19.77 19.455ZM14.5 4V3.25V4ZM19.77 4.54497L19.4295 5.21322L19.77 4.54497ZM21.955 6.73005L21.2868 7.07054L21.955 6.73005ZM10.5 4V3.25V4ZM5.23005 4.54497L5.57054 5.21322L5.23005 4.54497ZM3.04497 6.73005L3.71322 7.07054L3.04497 6.73005ZM12.5 4V4.75V4ZM16.0303 1.53033C16.3232 1.23744 16.3232 0.762563 16.0303 0.46967C15.7374 0.176777 15.2626 0.176777 14.9697 0.46967L16.0303 1.53033ZM10.0303 0.46967C9.73744 0.176777 9.26256 0.176777 8.96967 0.46967C8.67678 0.762563 8.67678 1.23744 8.96967 1.53033L10.0303 0.46967ZM7.54632 19.9548L7.58987 19.2061L7.54632 19.9548ZM6.03033 22.5303L8.03033 20.5303L6.96967 19.4697L4.96967 21.4697L6.03033 22.5303ZM16.9697 20.5303L18.9697 22.5303L20.0303 21.4697L18.0303 19.4697L16.9697 20.5303ZM14.5 19.25H10.5V20.75H14.5V19.25ZM1.75 12C1.75 13.3878 1.74942 14.4737 1.82061 15.3451C1.89252 16.2252 2.04138 16.9523 2.37671 17.6104L3.71322 16.9295C3.50359 16.518 3.37996 16.0103 3.31563 15.2229C3.25058 14.4268 3.25 13.4125 3.25 12H1.75ZM5.57054 18.7868C4.77085 18.3793 4.12068 17.7291 3.71322 16.9295L2.37671 17.6104C2.92798 18.6924 3.80762 19.572 4.88955 20.1233L5.57054 18.7868ZM21.75 12C21.75 13.4125 21.7494 14.4268 21.6844 15.2229C21.62 16.0103 21.4964 16.518 21.2868 16.9295L22.6233 17.6104C22.9586 16.9523 23.1075 16.2252 23.1794 15.3451C23.2506 14.4737 23.25 13.3878 23.25 12H21.75ZM21.2868 16.9295C20.8793 17.7291 20.2291 18.3793 19.4295 18.7868L20.1104 20.1233C21.1924 19.572 22.072 18.6924 22.6233 17.6104L21.2868 16.9295ZM14.5 4.75C15.9125 4.75 16.9268 4.75058 17.7229 4.81563C18.5103 4.87996 19.018 5.00359 19.4295 5.21322L20.1104 3.87671C19.4523 3.54138 18.7252 3.39252 17.8451 3.32061C16.9737 3.24942 15.8878 3.25 14.5 3.25V4.75ZM23.25 12C23.25 10.6122 23.2506 9.52632 23.1794 8.65494C23.1075 7.77479 22.9586 7.04768 22.6233 6.38955L21.2868 7.07054C21.4964 7.48197 21.62 7.9897 21.6844 8.77708C21.7494 9.57322 21.75 10.5875 21.75 12H23.25ZM19.4295 5.21322C20.2291 5.62068 20.8793 6.27085 21.2868 7.07054L22.6233 6.38955C22.072 5.30762 21.1924 4.42798 20.1104 3.87671L19.4295 5.21322ZM10.5 3.25C9.11224 3.25 8.02632 3.24942 7.15494 3.32061C6.27479 3.39252 5.54768 3.54138 4.88955 3.87671L5.57054 5.21322C5.98197 5.00359 6.4897 4.87996 7.27708 4.81563C8.07322 4.75058 9.08749 4.75 10.5 4.75V3.25ZM3.25 12C3.25 10.5875 3.25058 9.57322 3.31563 8.77708C3.37996 7.9897 3.50359 7.48197 3.71322 7.07054L2.37671 6.38955C2.04138 7.04768 1.89252 7.77479 1.82061 8.65494C1.74942 9.52632 1.75 10.6122 1.75 12H3.25ZM4.88955 3.87671C3.80762 4.42798 2.92798 5.30762 2.37671 6.38955L3.71322 7.07054C4.12068 6.27085 4.77085 5.62068 5.57054 5.21322L4.88955 3.87671ZM13.0303 4.53033L16.0303 1.53033L14.9697 0.46967L11.9697 3.46967L13.0303 4.53033ZM13.0303 3.46967L10.0303 0.46967L8.96967 1.53033L11.9697 4.53033L13.0303 3.46967ZM10.5 4.75L12.5 4.75V3.25L10.5 3.25V4.75ZM12.5 4.75L14.5 4.75V3.25L12.5 3.25V4.75ZM10.5 19.25C9.27046 19.25 8.34054 19.2497 7.58987 19.2061L7.50278 20.7035C8.30686 20.7503 9.28691 20.75 10.5 20.75V19.25ZM7.58987 19.2061C6.62088 19.1497 6.03573 19.0238 5.57054 18.7868L4.88955 20.1233C5.63053 20.5008 6.46173 20.643 7.50278 20.7035L7.58987 19.2061ZM8.02385 20.5367L8.07017 20.4915L7.02247 19.4181L6.97615 19.4633L8.02385 20.5367ZM14.5 20.75C15.7149 20.75 16.696 20.7503 17.5008 20.7033L17.4134 19.2059C16.6622 19.2497 15.7314 19.25 14.5 19.25V20.75ZM17.5008 20.7033C18.5402 20.6426 19.3703 20.5004 20.1104 20.1233L19.4295 18.7868C18.9648 19.0235 18.3805 19.1494 17.4134 19.2059L17.5008 20.7033ZM18.0453 19.4851L18.0024 19.4397L16.9118 20.4695L16.9547 20.5149L18.0453 19.4851Z" fill="#999999"/>
</svg>
