<svg width="33" height="32" viewBox="0 0 33 32" fill="none" xmlns="http://www.w3.org/2000/svg">
<path d="M11.5 14.6364V17.3636" stroke="#757575" stroke-width="1.5" stroke-linecap="round" stroke-linejoin="round"/>
<path d="M12.8636 16H10.1364" stroke="#757575" stroke-width="1.5" stroke-linecap="round" stroke-linejoin="round"/>
<path d="M21.5 21C24.2614 21 26.5 18.7614 26.5 16C26.5 13.2386 24.2614 11 21.5 11H11.5C8.73858 11 6.5 13.2386 6.5 16C6.5 18.7614 8.73858 21 11.5 21H11.4292C13.2352 20.999 14.8692 19.9283 15.5909 18.2727H17.4091C18.1308 19.9283 19.7648 20.999 21.5708 21" stroke="#757575" stroke-width="1.5" stroke-linecap="round" stroke-linejoin="round"/>
<path d="M21.5046 14.4091L21.5 14.4137L21.4955 14.4091L21.5 14.4046L21.5046 14.4091" stroke="#757575" stroke-width="1.5" stroke-linecap="round" stroke-linejoin="round"/>
<path d="M21.5046 17.5909L21.5 17.5954L21.4955 17.5909L21.5 17.5864L21.5046 17.5909" stroke="#757575" stroke-width="1.5" stroke-linecap="round" stroke-linejoin="round"/>
<path d="M19.9091 15.9954L19.9136 16L19.9091 16.0045L19.9045 16L19.9091 15.9954" stroke="#757575" stroke-width="1.5" stroke-linecap="round" stroke-linejoin="round"/>
<path d="M23.0909 15.9954L23.0954 16L23.0909 16.0045L23.0864 16L23.0909 15.9954" stroke="#757575" stroke-width="1.5" stroke-linecap="round" stroke-linejoin="round"/>
</svg>
