<svg width="25" height="24" viewBox="0 0 25 24" fill="none" xmlns="http://www.w3.org/2000/svg">
    <path d="M22.5 16.7402V4.67019C22.5 3.47019 21.52 2.58019 20.33 2.68019H20.27C18.17 2.86019 14.98 3.93019 13.2 5.05019L13.03 5.16019C12.74 5.34019 12.26 5.34019 11.97 5.16019L11.72 5.01019C9.94 3.90019 6.76 2.84019 4.66 2.67019C3.47 2.57019 2.5 3.47019 2.5 4.66019V16.7402C2.5 17.7002 3.28 18.6002 4.24 18.7202L4.53 18.7602C6.7 19.0502 10.05 20.1502 11.97 21.2002L12.01 21.2202C12.28 21.3702 12.71 21.3702 12.97 21.2202C14.89 20.1602 18.25 19.0502 20.43 18.7602L20.76 18.7202C21.72 18.6002 22.5 17.7002 22.5 16.7402Z" stroke="#999999" stroke-width="1.5" stroke-linecap="round" stroke-linejoin="round"/>
    <path d="M12.5 5.49023V20.4902" stroke="#999999" stroke-width="1.5" stroke-linecap="round" stroke-linejoin="round"/>
    <path d="M8.25 8.49023H6" stroke="#999999" stroke-width="1.5" stroke-linecap="round" stroke-linejoin="round"/>
    <path d="M9 11.4902H6" stroke="#999999" stroke-width="1.5" stroke-linecap="round" stroke-linejoin="round"/>
</svg>
