<svg width="132" height="132" viewBox="0 0 132 132" fill="none" xmlns="http://www.w3.org/2000/svg">
<g clip-path="url(#clip0_2952_7448)">
<rect width="132" height="132" fill="#F75B27"/>
<rect x="7" y="-10" width="117" height="126" rx="8.30137" fill="#F67D4F"/>
<rect x="17" y="-10" width="97" height="126" rx="8.30137" fill="#F11E01"/>
<rect x="30" y="13" width="70.9075" height="79.5548" rx="8.30137" fill="#FF4700"/>
<rect x="41" y="25" width="49.4623" height="55.3425" rx="8.30137" fill="#F11E01"/>
<path d="M77.2701 64.2757C77.2701 61.386 76.1222 58.6147 74.0789 56.5714C72.0356 54.528 69.2642 53.3801 66.3746 53.3801C63.4849 53.3801 60.7135 54.528 58.6702 56.5714C56.6269 58.6147 55.479 61.386 55.479 64.2757L66.3746 64.2757H77.2701Z" fill="#FF4A04"/>
<path d="M54.9999 41.8955C54.9999 44.7851 56.1478 47.5565 58.1912 49.5998C60.2345 51.6431 63.0058 52.791 65.8955 52.791C68.7851 52.791 71.5565 51.6431 73.5998 49.5998C75.6431 47.5565 76.791 44.7851 76.791 41.8955L65.8955 41.8955L54.9999 41.8955Z" fill="#FF4A04"/>
<rect y="106.271" width="133.119" height="25.7288" fill="url(#paint0_linear_2952_7448)"/>
<path d="M31.3633 124.642L34.4593 116.242H35.7673L38.8393 124.642H37.5673L35.0953 117.682L32.6233 124.642H31.3633ZM32.7673 122.566L33.0913 121.606H37.0513L37.3753 122.566H32.7673ZM42.0599 124.642V116.242H43.2599L47.5439 122.686V116.242H48.7439V124.642H47.5439L43.2599 118.198V124.642H42.0599ZM52.5208 124.642V116.242H53.7208L58.0048 122.686V116.242H59.2048V124.642H58.0048L53.7208 118.198V124.642H52.5208ZM66.6898 124.786C65.8978 124.786 65.1978 124.606 64.5898 124.246C63.9898 123.878 63.5178 123.37 63.1738 122.722C62.8378 122.066 62.6698 121.306 62.6698 120.442C62.6698 119.586 62.8378 118.834 63.1738 118.186C63.5178 117.53 63.9898 117.018 64.5898 116.65C65.1978 116.282 65.8978 116.098 66.6898 116.098C67.4978 116.098 68.2018 116.282 68.8018 116.65C69.4098 117.018 69.8818 117.53 70.2178 118.186C70.5538 118.834 70.7218 119.586 70.7218 120.442C70.7218 121.306 70.5538 122.066 70.2178 122.722C69.8818 123.37 69.4098 123.878 68.8018 124.246C68.2018 124.606 67.4978 124.786 66.6898 124.786ZM66.6898 123.718C67.2578 123.718 67.7498 123.586 68.1658 123.322C68.5898 123.058 68.9178 122.682 69.1497 122.194C69.3818 121.706 69.4978 121.122 69.4978 120.442C69.4978 119.762 69.3818 119.178 69.1497 118.69C68.9178 118.202 68.5898 117.83 68.1658 117.574C67.7498 117.31 67.2578 117.178 66.6898 117.178C66.1298 117.178 65.6378 117.31 65.2138 117.574C64.7978 117.83 64.4738 118.202 64.2418 118.69C64.0098 119.178 63.8938 119.762 63.8938 120.442C63.8938 121.122 64.0098 121.706 64.2418 122.194C64.4738 122.682 64.7978 123.058 65.2138 123.322C65.6378 123.586 66.1298 123.718 66.6898 123.718ZM75.695 124.642V121.522L72.935 116.242H74.291L76.391 120.538H76.211L78.311 116.242H79.655L76.895 121.522V124.642H75.695ZM82.7669 124.642V116.242H88.0709V117.226H83.9669V119.914H87.7109V120.874H83.9669V123.658H88.0709V124.642H82.7669ZM91.6458 124.642V116.242H94.1058C95.0818 116.242 95.8858 116.414 96.5178 116.758C97.1578 117.102 97.6298 117.59 97.9338 118.222C98.2458 118.846 98.4018 119.59 98.4018 120.454C98.4018 121.318 98.2458 122.062 97.9338 122.686C97.6298 123.31 97.1578 123.794 96.5178 124.138C95.8858 124.474 95.0818 124.642 94.1058 124.642H91.6458ZM92.8458 123.634H94.0578C94.8338 123.634 95.4458 123.506 95.8938 123.25C96.3498 122.994 96.6738 122.63 96.8658 122.158C97.0658 121.678 97.1658 121.11 97.1658 120.454C97.1658 119.79 97.0658 119.218 96.8658 118.738C96.6738 118.258 96.3498 117.89 95.8938 117.634C95.4458 117.378 94.8338 117.25 94.0578 117.25H92.8458V123.634Z" fill="white"/>
<path d="M171.919 90.2253C160.784 54.0893 209.362 30.725 230.641 61.9826C238.778 73.9365 253.759 79.187 267.579 74.9286C303.714 63.7933 327.079 112.372 295.821 133.65C283.867 141.788 278.617 156.769 282.875 170.588C294.011 206.724 245.432 230.088 224.154 198.831C216.016 186.877 201.035 181.626 187.216 185.885C151.08 197.02 127.715 148.441 158.973 127.163C170.927 119.026 176.177 104.045 171.919 90.2253Z" fill="#F2994A"/>
<path fill-rule="evenodd" clip-rule="evenodd" d="M187.321 107.636C175.743 93.8046 153.924 107.782 161.649 124.082C165.438 132.078 161.71 141.615 153.501 144.92C136.769 151.657 143.32 176.727 161.209 174.417C169.985 173.284 177.902 179.778 178.509 188.605C179.746 206.601 205.614 208.117 208.945 190.39C210.579 181.694 219.201 176.17 227.785 178.321C245.281 182.706 254.717 158.573 238.887 149.926C231.121 145.685 228.533 135.778 233.231 128.279C242.808 112.994 222.772 96.5622 209.657 108.946C203.223 115.021 193.001 114.421 187.321 107.636ZM202.94 160.278C208.864 156.484 210.589 148.605 206.795 142.682C203 136.758 195.122 135.032 189.198 138.827C183.275 142.622 181.549 150.5 185.343 156.424C189.138 162.347 197.016 164.073 202.94 160.278Z" fill="#27AE60"/>
<path d="M-46.636 0.14684C-47.5011 3.54814 -52.515 2.88824 -52.4706 -0.621085L-52.0949 -30.0607C-51.6097 -68.0752 -77.2363 -101.47 -114.081 -110.837L-142.616 -118.092C-146.017 -118.957 -145.357 -123.971 -141.848 -123.927L-112.408 -123.551C-74.394 -123.066 -40.9992 -148.692 -31.6317 -185.537L-24.3772 -214.072C-23.512 -217.473 -18.4981 -216.814 -18.5426 -213.304L-18.9183 -183.864C-19.4034 -145.85 6.22321 -112.455 43.0686 -103.088L71.6029 -95.8332C75.0042 -94.9681 74.3443 -89.9542 70.835 -89.9986L41.3954 -90.3743C3.38087 -90.8595 -30.0139 -65.2329 -39.3815 -28.3874L-46.636 0.14684Z" fill="#8482E7"/>
<path fill-rule="evenodd" clip-rule="evenodd" d="M35.123 -56.4543C20.3229 -39.1644 22.2567 -13.1688 39.4755 1.67907C22.2183 -13.2019 -3.85732 -11.2495 -18.7657 6.03952C-3.96526 -11.2501 -5.89943 -37.246 -23.1182 -52.0938C-5.86072 -37.2126 20.2146 -39.1653 35.123 -56.4543Z" fill="#00D092"/>
</g>
<defs>
<linearGradient id="paint0_linear_2952_7448" x1="0" y1="119.136" x2="133.119" y2="119.136" gradientUnits="userSpaceOnUse">
<stop stop-color="#FF7946"/>
<stop offset="0.764" stop-color="#F11E01"/>
</linearGradient>
<clipPath id="clip0_2952_7448">
<rect width="132" height="132" fill="white"/>
</clipPath>
</defs>
</svg>
