<svg width="132" height="132" viewBox="0 0 132 132" fill="none" xmlns="http://www.w3.org/2000/svg">
<g clip-path="url(#clip0_2952_7573)">
<rect width="132" height="132" fill="#F5EBC8"/>
<path d="M51.8384 106.341C52.3063 104.814 51.9698 103.096 50.903 101.566C49.8362 100.036 48.1265 98.8192 46.1499 98.1827C44.1732 97.5462 42.0917 97.5424 40.3631 98.1723C38.6346 98.8021 37.4006 100.014 36.9327 101.541L44.3855 103.941L51.8384 106.341Z" fill="#4989E0"/>
<path d="M51.801 106.568C51.341 108.097 50.1136 109.315 48.3886 109.954C46.6636 110.592 44.5824 110.599 42.6029 109.972C40.6233 109.345 38.9075 108.137 37.833 106.612C36.7584 105.087 36.4132 103.371 36.8731 101.841L44.337 104.204L51.801 106.568Z" fill="#FCFDFC"/>
<path d="M48.3063 105.46C48.0617 106.274 47.409 106.922 46.4918 107.261C45.5746 107.601 44.468 107.604 43.4155 107.271C42.3629 106.938 41.4506 106.295 40.8793 105.484C40.3079 104.673 40.1243 103.761 40.3689 102.947L44.3376 104.204L48.3063 105.46Z" fill="#2D86B8"/>
<path d="M46.6077 104.923C46.4678 105.388 46.0945 105.759 45.5698 105.953C45.0451 106.147 44.4121 106.149 43.81 105.959C43.2079 105.768 42.686 105.4 42.3592 104.936C42.0324 104.473 41.9274 103.951 42.0673 103.485L44.3375 104.204L46.6077 104.923Z" fill="#272320"/>
<path d="M78.9051 110.174C77.86 107.201 78.3382 103.828 80.2344 100.8C82.1307 97.7709 85.2896 95.3335 89.0164 94.0237C92.7431 92.714 96.7324 92.6391 100.107 93.8155C103.481 94.992 105.963 97.3235 107.009 100.297L92.9568 105.236L78.9051 110.174Z" fill="#5E47AE"/>
<path d="M78.9982 110.616C80.0282 113.595 82.499 115.939 85.8672 117.132C89.2354 118.326 93.225 118.271 96.9583 116.98C100.692 115.689 103.863 113.268 105.774 110.249C107.686 107.23 108.181 103.86 107.151 100.881L93.0747 105.749L78.9982 110.616Z" fill="#FCFDFC"/>
<path d="M85.5898 108.337C86.1375 109.92 87.4513 111.167 89.2422 111.801C91.0331 112.436 93.1544 112.407 95.1395 111.721C97.1246 111.034 98.8108 109.747 99.8272 108.141C100.844 106.536 101.107 104.744 100.559 103.161L93.0746 105.749L85.5898 108.337Z" fill="#151E61"/>
<path d="M88.7931 107.229C89.1064 108.135 89.8579 108.848 90.8824 109.211C91.9068 109.574 93.1203 109.557 94.2558 109.165C95.3914 108.772 96.3559 108.036 96.9374 107.117C97.5188 106.199 97.6694 105.174 97.3561 104.268L93.0746 105.749L88.7931 107.229Z" fill="#272320"/>
<rect y="105.111" width="132" height="26.8889" fill="url(#paint0_linear_2952_7573)"/>
<path d="M42.888 123V114.6H45.996C46.588 114.6 47.08 114.696 47.472 114.888C47.864 115.072 48.156 115.328 48.348 115.656C48.548 115.976 48.648 116.34 48.648 116.748C48.648 117.172 48.552 117.528 48.36 117.816C48.176 118.104 47.932 118.328 47.628 118.488C47.332 118.64 47.012 118.728 46.668 118.752L46.848 118.632C47.216 118.64 47.548 118.74 47.844 118.932C48.148 119.116 48.388 119.364 48.564 119.676C48.748 119.988 48.84 120.332 48.84 120.708C48.84 121.14 48.732 121.532 48.516 121.884C48.308 122.228 48 122.5 47.592 122.7C47.192 122.9 46.696 123 46.104 123H42.888ZM44.088 122.004H45.948C46.476 122.004 46.884 121.884 47.172 121.644C47.468 121.396 47.616 121.048 47.616 120.6C47.616 120.16 47.464 119.808 47.16 119.544C46.864 119.28 46.452 119.148 45.924 119.148H44.088V122.004ZM44.088 118.224H45.864C46.368 118.224 46.752 118.108 47.016 117.876C47.28 117.636 47.412 117.308 47.412 116.892C47.412 116.492 47.28 116.176 47.016 115.944C46.752 115.704 46.36 115.584 45.84 115.584H44.088V118.224ZM55.9905 123.144C55.1985 123.144 54.4985 122.964 53.8905 122.604C53.2905 122.236 52.8185 121.728 52.4745 121.08C52.1385 120.424 51.9705 119.664 51.9705 118.8C51.9705 117.944 52.1385 117.192 52.4745 116.544C52.8185 115.888 53.2905 115.376 53.8905 115.008C54.4985 114.64 55.1985 114.456 55.9905 114.456C56.7985 114.456 57.5025 114.64 58.1025 115.008C58.7105 115.376 59.1825 115.888 59.5185 116.544C59.8545 117.192 60.0225 117.944 60.0225 118.8C60.0225 119.664 59.8545 120.424 59.5185 121.08C59.1825 121.728 58.7105 122.236 58.1025 122.604C57.5025 122.964 56.7985 123.144 55.9905 123.144ZM55.9905 122.076C56.5585 122.076 57.0505 121.944 57.4665 121.68C57.8905 121.416 58.2185 121.04 58.4505 120.552C58.6825 120.064 58.7985 119.48 58.7985 118.8C58.7985 118.12 58.6825 117.536 58.4505 117.048C58.2185 116.56 57.8905 116.188 57.4665 115.932C57.0505 115.668 56.5585 115.536 55.9905 115.536C55.4305 115.536 54.9385 115.668 54.5145 115.932C54.0985 116.188 53.7745 116.56 53.5425 117.048C53.3105 117.536 53.1945 118.12 53.1945 118.8C53.1945 119.48 53.3105 120.064 53.5425 120.552C53.7745 121.04 54.0985 121.416 54.5145 121.68C54.9385 121.944 55.4305 122.076 55.9905 122.076ZM63.47 123V114.6H66.314C66.978 114.6 67.522 114.712 67.946 114.936C68.37 115.16 68.682 115.46 68.882 115.836C69.09 116.204 69.194 116.624 69.194 117.096C69.194 117.544 69.09 117.96 68.882 118.344C68.682 118.72 68.366 119.024 67.934 119.256C67.502 119.48 66.95 119.592 66.278 119.592H64.67V123H63.47ZM67.886 123L66.074 119.268H67.394L69.278 123H67.886ZM64.67 118.68H66.242C66.834 118.68 67.266 118.536 67.538 118.248C67.818 117.952 67.958 117.576 67.958 117.12C67.958 116.656 67.822 116.288 67.55 116.016C67.278 115.744 66.838 115.608 66.23 115.608H64.67V118.68ZM72.7708 123V114.6H78.0748V115.584H73.9708V118.272H77.7148V119.232H73.9708V122.016H78.0748V123H72.7708ZM81.6497 123V114.6H84.1097C85.0857 114.6 85.8897 114.772 86.5217 115.116C87.1617 115.46 87.6337 115.948 87.9377 116.58C88.2497 117.204 88.4057 117.948 88.4057 118.812C88.4057 119.676 88.2497 120.42 87.9377 121.044C87.6337 121.668 87.1617 122.152 86.5217 122.496C85.8897 122.832 85.0857 123 84.1097 123H81.6497ZM82.8497 121.992H84.0617C84.8377 121.992 85.4497 121.864 85.8977 121.608C86.3537 121.352 86.6777 120.988 86.8697 120.516C87.0697 120.036 87.1697 119.468 87.1697 118.812C87.1697 118.148 87.0697 117.576 86.8697 117.096C86.6777 116.616 86.3537 116.248 85.8977 115.992C85.4497 115.736 84.8377 115.608 84.0617 115.608H82.8497V121.992Z" fill="white"/>
<path d="M3.65336 17.2019C4.54142 12.4626 7.75262 8.35962 12.5806 5.79547C17.4085 3.23131 23.4577 2.41606 29.3974 3.52905C35.337 4.64204 40.6807 7.5921 44.2527 11.7303C47.8248 15.8684 49.3326 20.8557 48.4446 25.595L26.049 21.3984L3.65336 17.2019Z" fill="#5E47AE"/>
<path d="M3.43883 17.8585C2.52678 22.5932 4.00934 27.588 7.56037 31.7442C11.1114 35.9004 16.44 38.8776 22.374 40.0206C28.308 41.1637 34.3612 40.3791 39.2021 37.8394C44.0429 35.2998 47.2749 31.2131 48.1869 26.4784L25.8129 22.1684L3.43883 17.8585Z" fill="#FCFDFC"/>
<path d="M13.9163 19.8765C13.4314 22.394 14.2197 25.0499 16.1078 27.2598C17.996 29.4697 20.8293 31.0527 23.9845 31.6605C27.1396 32.2683 30.3582 31.8511 32.9322 30.5007C35.5062 29.1503 37.2247 26.9774 37.7096 24.4599L25.813 22.1682L13.9163 19.8765Z" fill="#151E61"/>
<path d="M19.0077 20.8575C18.7303 22.2976 19.1812 23.8168 20.2613 25.0809C21.3414 26.3451 22.9621 27.2506 24.767 27.5983C26.5719 27.9459 28.413 27.7073 29.8854 26.9348C31.3578 26.1624 32.3408 24.9194 32.6182 23.4793L25.813 22.1684L19.0077 20.8575Z" fill="#272320"/>
<path d="M121.694 7.1451C120.372 4.79355 117.88 3.20371 114.767 2.72533C111.653 2.24695 108.173 2.91921 105.091 4.59424C102.01 6.26926 99.5804 8.80982 98.3364 11.657C97.0925 14.5043 97.1363 17.4249 98.4583 19.7765L110.076 13.4608L121.694 7.1451Z" fill="#4989E0"/>
<path d="M121.928 7.45462C123.262 9.79937 123.321 12.7194 122.092 15.5724C120.863 18.4253 118.446 20.9775 115.373 22.6674C112.301 24.3573 108.824 25.0466 105.707 24.5836C102.591 24.1206 100.09 22.5432 98.7558 20.1984L110.342 13.8265L121.928 7.45462Z" fill="#FCFDFC"/>
<path d="M116.502 10.4379C117.212 11.6846 117.243 13.2372 116.589 14.7542C115.936 16.2712 114.651 17.6282 113.017 18.5268C111.383 19.4253 109.534 19.7918 107.877 19.5456C106.22 19.2994 104.891 18.4607 104.181 17.2139L110.342 13.8259L116.502 10.4379Z" fill="#2D86B8"/>
<path d="M113.866 11.8882C114.272 12.6014 114.29 13.4895 113.916 14.3573C113.542 15.225 112.807 16.0013 111.872 16.5153C110.938 17.0293 109.88 17.239 108.932 17.0981C107.984 16.9573 107.224 16.4775 106.818 15.7643L110.342 13.8263L113.866 11.8882Z" fill="#272320"/>
<path d="M81.565 79.9229C81.6975 77.8098 80.7343 75.6994 78.8874 74.0558C77.0404 72.4122 74.461 71.3702 71.7166 71.159C68.9723 70.9478 66.2877 71.5846 64.2534 72.9294C62.2192 74.2743 61.002 76.2169 60.8696 78.33L71.2173 79.1265L81.565 79.9229Z" fill="#4989E0"/>
<path d="M81.5866 80.2267C81.4652 82.3406 80.2583 84.2894 78.2314 85.6443C76.2044 86.9992 73.5235 87.6492 70.7783 87.4514C68.0331 87.2536 65.4485 86.2241 63.5932 84.5895C61.7378 82.9548 60.7637 80.8489 60.885 78.735L71.2358 79.4808L81.5866 80.2267Z" fill="#FCFDFC"/>
<path d="M76.7399 79.8768C76.6754 81.0009 76.0336 82.037 74.9559 82.7575C73.8781 83.4779 72.4526 83.8235 70.9929 83.7184C69.5333 83.6132 68.159 83.0658 67.1725 82.1966C66.186 81.3275 65.668 80.2077 65.7325 79.0837L71.2362 79.4803L76.7399 79.8768Z" fill="#2D86B8"/>
<path d="M74.3844 79.7074C74.3475 80.3503 73.9805 80.9431 73.3639 81.3552C72.7474 81.7673 71.932 81.965 71.097 81.9048C70.262 81.8447 69.4759 81.5315 68.9116 81.0344C68.3473 80.5372 68.051 79.8966 68.0879 79.2537L71.2362 79.4805L74.3844 79.7074Z" fill="#272320"/>
<path d="M116.939 75.2259C116.458 72.779 114.779 70.6717 112.27 69.3676C109.762 68.0635 106.63 67.6693 103.563 68.2719C100.496 68.8745 97.7462 70.4244 95.9177 72.5807C94.0892 74.737 93.332 77.3231 93.8128 79.77L105.376 77.498L116.939 75.2259Z" fill="#683E4E"/>
<path d="M117.053 75.565C117.546 78.0094 116.802 80.5993 114.984 82.7648C113.167 84.9303 110.424 86.4942 107.361 87.1123C104.297 87.7304 101.163 87.3521 98.6482 86.0607C96.1332 84.7693 94.4432 82.6706 93.95 80.2261L105.501 77.8956L117.053 75.565Z" fill="#FCFDFC"/>
<path d="M111.643 76.6565C111.906 77.9563 111.51 79.3334 110.544 80.4848C109.577 81.6363 108.119 82.4678 106.49 82.7964C104.861 83.1251 103.195 82.924 101.857 82.2373C100.52 81.5507 99.6216 80.4347 99.3594 79.135L105.501 77.8958L111.643 76.6565Z" fill="#C79C27"/>
<path d="M109.015 77.1866C109.165 77.9301 108.939 78.7179 108.386 79.3765C107.833 80.0352 106.999 80.5108 106.067 80.6989C105.135 80.8869 104.182 80.7718 103.417 80.379C102.652 79.9862 102.138 79.3479 101.988 78.6044L105.502 77.8955L109.015 77.1866Z" fill="#272320"/>
<path d="M86.5031 21.6506C87.3088 19.5341 87.0277 17.1031 85.7217 14.8925C84.4158 12.6818 82.1918 10.8726 79.5392 9.86282C76.8865 8.85304 74.0225 8.7254 71.577 9.50799C69.1316 10.2906 67.3051 11.9193 66.4994 14.0358L76.5013 17.8432L86.5031 21.6506Z" fill="#683E4E"/>
<path d="M86.4281 21.9666C85.6331 24.0872 83.8149 25.7252 81.3735 26.5201C78.9321 27.3151 76.0674 27.202 73.4097 26.2057C70.7519 25.2093 68.5189 23.4114 67.2017 21.2074C65.8845 19.0034 65.5911 16.5739 66.3861 14.4533L76.4071 18.2099L86.4281 21.9666Z" fill="#FCFDFC"/>
<path d="M81.7355 20.2076C81.3128 21.3352 80.3461 22.2061 79.0479 22.6288C77.7498 23.0515 76.2266 22.9914 74.8134 22.4616C73.4003 21.9318 72.2129 20.9758 71.5125 19.8039C70.8122 18.632 70.6562 17.3402 71.0789 16.2127L76.4072 18.2102L81.7355 20.2076Z" fill="#C79C27"/>
<path d="M79.4554 19.3523C79.2136 19.9973 78.6606 20.4955 77.918 20.7373C77.1754 20.9791 76.3041 20.9447 75.4957 20.6416C74.6873 20.3386 74.0081 19.7918 73.6075 19.1214C73.2069 18.451 73.1177 17.7121 73.3595 17.0671L76.4074 18.2097L79.4554 19.3523Z" fill="#272320"/>
<path d="M46.05 58.7617C46.8557 56.6452 46.5746 54.2142 45.2686 52.0036C43.9626 49.7929 41.7387 47.9837 39.086 46.9739C36.4334 45.9641 33.5693 45.8365 31.1239 46.6191C28.6785 47.4017 26.852 49.0304 26.0463 51.1469L36.0481 54.9543L46.05 58.7617Z" fill="#683E4E"/>
<path d="M45.975 59.0777C45.18 61.1983 43.3618 62.8363 40.9204 63.6312C38.4789 64.4262 35.6143 64.3131 32.9565 63.3167C30.2988 62.3204 28.0657 60.5225 26.7486 58.3185C25.4314 56.1145 25.138 53.6849 25.933 51.5644L35.954 55.321L45.975 59.0777Z" fill="#FCFDFC"/>
<path d="M41.2824 57.3187C40.8597 58.4463 39.8929 59.3172 38.5948 59.7399C37.2967 60.1626 35.7735 60.1024 34.3603 59.5727C32.9471 59.0429 31.7598 58.0869 31.0594 56.915C30.3591 55.7431 30.2031 54.4513 30.6258 53.3238L35.9541 55.3212L41.2824 57.3187Z" fill="#C79C27"/>
<path d="M39.0023 56.4634C38.7605 57.1084 38.2074 57.6066 37.4649 57.8484C36.7223 58.0902 35.851 58.0558 35.0426 57.7527C34.2342 57.4497 33.555 56.9028 33.1544 56.2325C32.7538 55.5621 32.6645 54.8231 32.9063 54.1781L35.9543 55.3208L39.0023 56.4634Z" fill="#272320"/>
<path d="M38.5916 82.8733C38.8615 78.8976 37.141 74.9505 33.8086 71.9001C30.4761 68.8498 25.8048 66.9461 20.8222 66.6078C15.8395 66.2696 10.9538 67.5245 7.2397 70.0965C3.52562 72.6686 1.28746 76.347 1.01758 80.3226L19.8046 81.5979L38.5916 82.8733Z" fill="#C79C27"/>
<path d="M38.6275 83.4433C38.3777 87.4203 36.1582 91.11 32.4572 93.7008C28.7562 96.2916 23.8769 97.5712 18.8926 97.2583C13.9083 96.9453 9.2274 95.0653 5.87957 92.0318C2.53174 88.9984 0.791253 85.06 1.04099 81.0831L19.8342 82.2632L38.6275 83.4433Z" fill="#FCFDFC"/>
<path d="M29.8268 82.8908C29.694 85.0054 28.5139 86.9672 26.546 88.3448C24.5781 89.7224 21.9837 90.4028 19.3335 90.2364C16.6833 90.07 14.1943 89.0703 12.4142 87.4574C10.6342 85.8445 9.70871 83.7504 9.84149 81.6358L19.8342 82.2633L29.8268 82.8908Z" fill="#2D86B8"/>
<path d="M25.5504 82.6219C25.4745 83.8315 24.7994 84.9537 23.6737 85.7418C22.548 86.5298 21.0639 86.919 19.5479 86.8238C18.0319 86.7286 16.6082 86.1568 15.5899 85.2341C14.5716 84.3115 14.0422 83.1136 14.1182 81.904L19.8343 82.2629L25.5504 82.6219Z" fill="#272320"/>
<path d="M88.8446 45.2669C88.2018 41.8365 85.8775 38.8666 82.3829 37.0106C78.8883 35.1546 74.5098 34.5645 70.2105 35.3702C65.9112 36.1758 62.0434 38.3111 59.4578 41.3064C56.8723 44.3017 55.7809 47.9116 56.4237 51.342L72.6341 48.3045L88.8446 45.2669Z" fill="#D8AD2A"/>
<path d="M89 45.7427C89.6602 49.1698 88.587 52.7852 86.0167 55.7935C83.4464 58.8019 79.5894 60.9568 75.2943 61.7842C70.9991 62.6115 66.6176 62.0436 63.1137 60.2054C59.6097 58.3671 57.2704 55.409 56.6102 51.982L72.8051 48.8623L89 45.7427Z" fill="#FCFDFC"/>
<path d="M81.4162 47.2033C81.7672 49.0256 81.1967 50.9479 79.83 52.5475C78.4633 54.1471 76.4125 55.2929 74.1287 55.7328C71.8449 56.1728 69.5152 55.8708 67.6521 54.8934C65.789 53.9159 64.5451 52.3431 64.1941 50.5208L72.8051 48.8621L81.4162 47.2033Z" fill="#A2496F"/>
<path d="M77.7308 47.9132C77.9316 48.9556 77.6052 50.0552 76.8234 50.9702C76.0416 51.8853 74.8685 52.5407 73.562 52.7923C72.2556 53.044 70.923 52.8713 69.8572 52.3121C68.7915 51.753 68.0799 50.8533 67.8791 49.8109L72.8049 48.8621L77.7308 47.9132Z" fill="#272320"/>
<path d="M128.234 41.227C126.485 39.6027 123.999 38.9156 121.323 39.3168C118.647 39.718 116 41.1747 113.964 43.3664C111.928 45.5582 110.67 48.3054 110.468 51.0038C110.265 53.7021 111.133 56.1306 112.882 57.7549L120.558 49.491L128.234 41.227Z" fill="#D8AD2A"/>
<path d="M128.512 41.4254C130.269 43.0408 131.15 45.4648 130.961 48.1642C130.772 50.8635 129.528 53.6171 127.503 55.8191C125.479 58.0211 122.839 59.4912 120.165 59.906C117.491 60.3208 115.002 59.6462 113.245 58.0308L120.879 49.7281L128.512 41.4254Z" fill="#FCFDFC"/>
<path d="M124.937 45.3133C125.872 46.1722 126.34 47.4611 126.239 48.8964C126.139 50.3317 125.477 51.7958 124.401 52.9667C123.324 54.1375 121.921 54.9192 120.499 55.1397C119.077 55.3603 117.754 55.0016 116.819 54.1426L120.878 49.728L124.937 45.3133Z" fill="#A2496F"/>
<path d="M123.2 47.2026C123.735 47.694 124.003 48.4313 123.945 49.2523C123.888 50.0733 123.509 50.9109 122.893 51.5806C122.278 52.2504 121.475 52.6975 120.661 52.8237C119.848 52.9498 119.091 52.7447 118.557 52.2533L120.878 49.728L123.2 47.2026Z" fill="#272320"/>
</g>
<defs>
<linearGradient id="paint0_linear_2952_7573" x1="-47.5966" y1="118.414" x2="132" y2="118.541" gradientUnits="userSpaceOnUse">
<stop stop-color="#FAC286"/>
<stop offset="1" stop-color="#8D4556"/>
</linearGradient>
<clipPath id="clip0_2952_7573">
<rect width="132" height="132" fill="white"/>
</clipPath>
</defs>
</svg>
