<svg width="132" height="132" viewBox="0 0 132 132" fill="none" xmlns="http://www.w3.org/2000/svg">
<g clip-path="url(#clip0_2945_5649)">
<rect width="132" height="132" fill="#FD0074"/>
<g filter="url(#filter0_d_2945_5649)">
<ellipse cx="49.6025" cy="59.7556" rx="14.8491" ry="14.5332" fill="#F3FF06"/>
</g>
<g filter="url(#filter1_d_2945_5649)">
<ellipse cx="14.8491" cy="14.5332" rx="14.8491" ry="14.5332" transform="matrix(1 0 0 -1 119.087 55.3057)" fill="#F3FF06"/>
</g>
<ellipse cx="60.9766" cy="69.8652" rx="14.8491" ry="14.5332" fill="#F3FF06"/>
<ellipse cx="14.8491" cy="14.5332" rx="14.8491" ry="14.5332" transform="matrix(1 0 0 -1 130.461 45.196)" fill="#F3FF06"/>
<g filter="url(#filter2_d_2945_5649)">
<ellipse cx="46.1276" cy="84.3978" rx="21.4838" ry="20.8519" fill="#F3FF06"/>
</g>
<g filter="url(#filter3_d_2945_5649)">
<ellipse cx="21.4838" cy="20.8519" rx="21.4838" ry="20.8519" transform="matrix(1 0 0 -1 108.977 36.9817)" fill="#F3FF06"/>
</g>
<g filter="url(#filter4_d_2945_5649)">
<ellipse cx="31.2781" cy="74.2881" rx="14.8491" ry="14.5332" fill="#F3FF06"/>
</g>
<g filter="url(#filter5_d_2945_5649)">
<ellipse cx="14.8491" cy="14.5332" rx="14.8491" ry="14.5332" transform="matrix(1 0 0 -1 100.762 40.7725)" fill="#F3FF06"/>
</g>
<g filter="url(#filter6_d_2945_5649)">
<ellipse cx="75.5098" cy="84.3979" rx="14.8491" ry="14.5332" fill="#F3FF06"/>
</g>
<g filter="url(#filter7_d_2945_5649)">
<ellipse cx="24.3274" cy="95.7729" rx="14.8491" ry="14.5332" fill="#F3FF06"/>
</g>
<g filter="url(#filter8_d_2945_5649)">
<ellipse cx="14.8491" cy="14.5332" rx="14.8491" ry="14.5332" transform="matrix(1 0 0 -1 93.8115 19.2883)" fill="#F3FF06"/>
</g>
<g filter="url(#filter9_d_2945_5649)">
<ellipse cx="90.0426" cy="93.2455" rx="6.00283" ry="5.68689" fill="#F3FF06"/>
</g>
<g filter="url(#filter10_d_2945_5649)">
<ellipse cx="6.00283" cy="75.5516" rx="6.00283" ry="5.68689" fill="#F3FF06"/>
</g>
<g filter="url(#filter11_d_2945_5649)">
<ellipse cx="6.00283" cy="5.68689" rx="6.00283" ry="5.68689" transform="matrix(1 0 0 -1 84.3333 30.6628)" fill="#F3FF06"/>
</g>
<g filter="url(#filter12_d_2945_5649)">
<ellipse cx="24.3275" cy="54.0689" rx="4.73908" ry="4.42314" fill="#F3FF06"/>
</g>
<g filter="url(#filter13_d_2945_5649)">
<ellipse cx="4.73908" cy="4.42314" rx="4.73908" ry="4.42314" transform="matrix(1 0 0 -1 103.922 50.8823)" fill="#F3FF06"/>
</g>
<g filter="url(#filter14_d_2945_5649)">
<ellipse cx="43.9158" cy="84.3979" rx="14.8491" ry="14.5332" fill="#F3FF06"/>
</g>
<g filter="url(#filter15_d_2945_5649)">
<ellipse cx="14.8491" cy="14.5332" rx="14.8491" ry="14.5332" transform="matrix(1 0 0 -1 113.4 30.6628)" fill="#F3FF06"/>
</g>
<rect y="105.111" width="132" height="26.8889" fill="url(#paint0_linear_2945_5649)"/>
<path d="M39.9803 123.144C39.1643 123.144 38.4603 122.964 37.8683 122.604C37.2763 122.236 36.8203 121.728 36.5003 121.08C36.1803 120.424 36.0203 119.664 36.0203 118.8C36.0203 117.944 36.1803 117.188 36.5003 116.532C36.8203 115.876 37.2763 115.368 37.8683 115.008C38.4603 114.64 39.1643 114.456 39.9803 114.456C40.9563 114.456 41.7483 114.692 42.3563 115.164C42.9643 115.636 43.3523 116.3 43.5203 117.156H42.2123C42.0843 116.66 41.8363 116.264 41.4683 115.968C41.1003 115.672 40.6003 115.524 39.9683 115.524C39.4163 115.524 38.9323 115.656 38.5163 115.92C38.1083 116.184 37.7923 116.56 37.5683 117.048C37.3523 117.536 37.2443 118.12 37.2443 118.8C37.2443 119.48 37.3523 120.068 37.5683 120.564C37.7923 121.052 38.1083 121.428 38.5163 121.692C38.9323 121.948 39.4163 122.076 39.9683 122.076C40.6003 122.076 41.1003 121.936 41.4683 121.656C41.8363 121.368 42.0843 120.98 42.2123 120.492H43.5203C43.3523 121.324 42.9643 121.976 42.3563 122.448C41.7483 122.912 40.9563 123.144 39.9803 123.144ZM50.0648 123.144C49.4728 123.144 48.9368 123.028 48.4568 122.796C47.9768 122.556 47.5928 122.196 47.3048 121.716C47.0248 121.228 46.8848 120.608 46.8848 119.856V114.6H48.0848V119.868C48.0848 120.372 48.1688 120.788 48.3368 121.116C48.5048 121.436 48.7368 121.676 49.0328 121.836C49.3368 121.988 49.6888 122.064 50.0888 122.064C50.4968 122.064 50.8448 121.988 51.1328 121.836C51.4288 121.676 51.6568 121.436 51.8168 121.116C51.9848 120.788 52.0688 120.372 52.0688 119.868V114.6H53.2688V119.856C53.2688 120.608 53.1248 121.228 52.8368 121.716C52.5488 122.196 52.1608 122.556 51.6728 122.796C51.1928 123.028 50.6568 123.144 50.0648 123.144ZM56.9495 123V114.6H59.7935C60.4575 114.6 61.0015 114.712 61.4255 114.936C61.8495 115.16 62.1615 115.46 62.3615 115.836C62.5695 116.204 62.6735 116.624 62.6735 117.096C62.6735 117.544 62.5695 117.96 62.3615 118.344C62.1615 118.72 61.8455 119.024 61.4135 119.256C60.9815 119.48 60.4295 119.592 59.7575 119.592H58.1495V123H56.9495ZM61.3655 123L59.5535 119.268H60.8735L62.7575 123H61.3655ZM58.1495 118.68H59.7215C60.3135 118.68 60.7455 118.536 61.0175 118.248C61.2975 117.952 61.4375 117.576 61.4375 117.12C61.4375 116.656 61.3015 116.288 61.0295 116.016C60.7575 115.744 60.3175 115.608 59.7095 115.608H58.1495V118.68ZM66.2503 123V114.6H67.4503V123H66.2503ZM74.9349 123.144C74.1429 123.144 73.4429 122.964 72.8349 122.604C72.2349 122.236 71.7629 121.728 71.4189 121.08C71.0829 120.424 70.9149 119.664 70.9149 118.8C70.9149 117.944 71.0829 117.192 71.4189 116.544C71.7629 115.888 72.2349 115.376 72.8349 115.008C73.4429 114.64 74.1429 114.456 74.9349 114.456C75.7429 114.456 76.4469 114.64 77.0469 115.008C77.6549 115.376 78.1269 115.888 78.4629 116.544C78.7989 117.192 78.9669 117.944 78.9669 118.8C78.9669 119.664 78.7989 120.424 78.4629 121.08C78.1269 121.728 77.6549 122.236 77.0469 122.604C76.4469 122.964 75.7429 123.144 74.9349 123.144ZM74.9349 122.076C75.5029 122.076 75.9949 121.944 76.4109 121.68C76.8349 121.416 77.1629 121.04 77.3949 120.552C77.6269 120.064 77.7429 119.48 77.7429 118.8C77.7429 118.12 77.6269 117.536 77.3949 117.048C77.1629 116.56 76.8349 116.188 76.4109 115.932C75.9949 115.668 75.5029 115.536 74.9349 115.536C74.3749 115.536 73.8829 115.668 73.4589 115.932C73.0429 116.188 72.7189 116.56 72.4869 117.048C72.2549 117.536 72.1389 118.12 72.1389 118.8C72.1389 119.48 72.2549 120.064 72.4869 120.552C72.7189 121.04 73.0429 121.416 73.4589 121.68C73.8829 121.944 74.3749 122.076 74.9349 122.076ZM85.4984 123.144C84.9064 123.144 84.3704 123.028 83.8904 122.796C83.4104 122.556 83.0264 122.196 82.7384 121.716C82.4584 121.228 82.3184 120.608 82.3184 119.856V114.6H83.5184V119.868C83.5184 120.372 83.6024 120.788 83.7704 121.116C83.9384 121.436 84.1704 121.676 84.4664 121.836C84.7704 121.988 85.1224 122.064 85.5224 122.064C85.9304 122.064 86.2784 121.988 86.5664 121.836C86.8624 121.676 87.0904 121.436 87.2504 121.116C87.4184 120.788 87.5024 120.372 87.5024 119.868V114.6H88.7024V119.856C88.7024 120.608 88.5584 121.228 88.2704 121.716C87.9824 122.196 87.5944 122.556 87.1064 122.796C86.6264 123.028 86.0904 123.144 85.4984 123.144ZM95.1311 123.144C94.5231 123.144 93.9871 123.036 93.5231 122.82C93.0591 122.596 92.6991 122.284 92.4431 121.884C92.1871 121.484 92.0551 121.016 92.0471 120.48H93.3191C93.3191 120.784 93.3871 121.064 93.5231 121.32C93.6671 121.568 93.8711 121.768 94.1351 121.92C94.4071 122.064 94.7391 122.136 95.1311 122.136C95.4671 122.136 95.7551 122.08 95.9951 121.968C96.2431 121.856 96.4311 121.704 96.5591 121.512C96.6871 121.312 96.7511 121.084 96.7511 120.828C96.7511 120.54 96.6871 120.304 96.5591 120.12C96.4311 119.928 96.2511 119.768 96.0191 119.64C95.7951 119.512 95.5351 119.4 95.2391 119.304C94.9511 119.208 94.6391 119.104 94.3031 118.992C93.6231 118.768 93.1191 118.484 92.7911 118.14C92.4711 117.796 92.3111 117.348 92.3111 116.796C92.3111 116.324 92.4191 115.916 92.6351 115.572C92.8591 115.22 93.1751 114.948 93.5831 114.756C93.9911 114.556 94.4671 114.456 95.0111 114.456C95.5631 114.456 96.0391 114.556 96.4391 114.756C96.8471 114.956 97.1671 115.232 97.3991 115.584C97.6311 115.936 97.7511 116.348 97.7591 116.82H96.4871C96.4871 116.604 96.4271 116.392 96.3071 116.184C96.1951 115.976 96.0271 115.808 95.8031 115.68C95.5871 115.544 95.3151 115.476 94.9871 115.476C94.7071 115.468 94.4591 115.512 94.2431 115.608C94.0271 115.704 93.8591 115.844 93.7391 116.028C93.6191 116.212 93.5591 116.432 93.5591 116.688C93.5591 116.944 93.6151 117.152 93.7271 117.312C93.8391 117.464 93.9951 117.596 94.1951 117.708C94.4031 117.82 94.6471 117.924 94.9271 118.02C95.2071 118.108 95.5151 118.208 95.8511 118.32C96.2591 118.456 96.6271 118.624 96.9551 118.824C97.2831 119.016 97.5391 119.268 97.7231 119.58C97.9151 119.884 98.0111 120.276 98.0111 120.756C98.0111 121.172 97.9031 121.56 97.6871 121.92C97.4711 122.28 97.1511 122.576 96.7271 122.808C96.3031 123.032 95.7711 123.144 95.1311 123.144Z" fill="white"/>
</g>
<defs>
<filter id="filter0_d_2945_5649" x="30.9622" y="45.2224" width="33.4895" height="30.962" filterUnits="userSpaceOnUse" color-interpolation-filters="sRGB">
<feFlood flood-opacity="0" result="BackgroundImageFix"/>
<feColorMatrix in="SourceAlpha" type="matrix" values="0 0 0 0 0 0 0 0 0 0 0 0 0 0 0 0 0 0 127 0" result="hardAlpha"/>
<feOffset dx="-3.79126" dy="1.89563"/>
<feComposite in2="hardAlpha" operator="out"/>
<feColorMatrix type="matrix" values="0 0 0 0 0.429333 0 0 0 0 0.992157 0 0 0 0 0.380392 0 0 0 1 0"/>
<feBlend mode="normal" in2="BackgroundImageFix" result="effect1_dropShadow_2945_5649"/>
<feBlend mode="normal" in="SourceGraphic" in2="effect1_dropShadow_2945_5649" result="shape"/>
</filter>
<filter id="filter1_d_2945_5649" x="115.295" y="26.2393" width="33.4895" height="30.962" filterUnits="userSpaceOnUse" color-interpolation-filters="sRGB">
<feFlood flood-opacity="0" result="BackgroundImageFix"/>
<feColorMatrix in="SourceAlpha" type="matrix" values="0 0 0 0 0 0 0 0 0 0 0 0 0 0 0 0 0 0 127 0" result="hardAlpha"/>
<feOffset dx="-3.79126" dy="1.89563"/>
<feComposite in2="hardAlpha" operator="out"/>
<feColorMatrix type="matrix" values="0 0 0 0 0.429333 0 0 0 0 0.992157 0 0 0 0 0.380392 0 0 0 1 0"/>
<feBlend mode="normal" in2="BackgroundImageFix" result="effect1_dropShadow_2945_5649"/>
<feBlend mode="normal" in="SourceGraphic" in2="effect1_dropShadow_2945_5649" result="shape"/>
</filter>
<filter id="filter2_d_2945_5649" x="20.8525" y="63.5459" width="46.7588" height="46.127" filterUnits="userSpaceOnUse" color-interpolation-filters="sRGB">
<feFlood flood-opacity="0" result="BackgroundImageFix"/>
<feColorMatrix in="SourceAlpha" type="matrix" values="0 0 0 0 0 0 0 0 0 0 0 0 0 0 0 0 0 0 127 0" result="hardAlpha"/>
<feOffset dx="-3.79126" dy="4.42314"/>
<feComposite in2="hardAlpha" operator="out"/>
<feColorMatrix type="matrix" values="0 0 0 0 0.429333 0 0 0 0 0.992157 0 0 0 0 0.380392 0 0 0 1 0"/>
<feBlend mode="normal" in2="BackgroundImageFix" result="effect1_dropShadow_2945_5649"/>
<feBlend mode="normal" in="SourceGraphic" in2="effect1_dropShadow_2945_5649" result="shape"/>
</filter>
<filter id="filter3_d_2945_5649" x="105.186" y="-4.72217" width="46.7588" height="46.127" filterUnits="userSpaceOnUse" color-interpolation-filters="sRGB">
<feFlood flood-opacity="0" result="BackgroundImageFix"/>
<feColorMatrix in="SourceAlpha" type="matrix" values="0 0 0 0 0 0 0 0 0 0 0 0 0 0 0 0 0 0 127 0" result="hardAlpha"/>
<feOffset dx="-3.79126" dy="4.42314"/>
<feComposite in2="hardAlpha" operator="out"/>
<feColorMatrix type="matrix" values="0 0 0 0 0.429333 0 0 0 0 0.992157 0 0 0 0 0.380392 0 0 0 1 0"/>
<feBlend mode="normal" in2="BackgroundImageFix" result="effect1_dropShadow_2945_5649"/>
<feBlend mode="normal" in="SourceGraphic" in2="effect1_dropShadow_2945_5649" result="shape"/>
</filter>
<filter id="filter4_d_2945_5649" x="12.6377" y="59.7549" width="33.4895" height="30.962" filterUnits="userSpaceOnUse" color-interpolation-filters="sRGB">
<feFlood flood-opacity="0" result="BackgroundImageFix"/>
<feColorMatrix in="SourceAlpha" type="matrix" values="0 0 0 0 0 0 0 0 0 0 0 0 0 0 0 0 0 0 127 0" result="hardAlpha"/>
<feOffset dx="-3.79126" dy="1.89563"/>
<feComposite in2="hardAlpha" operator="out"/>
<feColorMatrix type="matrix" values="0 0 0 0 0.429333 0 0 0 0 0.992157 0 0 0 0 0.380392 0 0 0 1 0"/>
<feBlend mode="normal" in2="BackgroundImageFix" result="effect1_dropShadow_2945_5649"/>
<feBlend mode="normal" in="SourceGraphic" in2="effect1_dropShadow_2945_5649" result="shape"/>
</filter>
<filter id="filter5_d_2945_5649" x="96.9709" y="11.7061" width="33.4895" height="30.962" filterUnits="userSpaceOnUse" color-interpolation-filters="sRGB">
<feFlood flood-opacity="0" result="BackgroundImageFix"/>
<feColorMatrix in="SourceAlpha" type="matrix" values="0 0 0 0 0 0 0 0 0 0 0 0 0 0 0 0 0 0 127 0" result="hardAlpha"/>
<feOffset dx="-3.79126" dy="1.89563"/>
<feComposite in2="hardAlpha" operator="out"/>
<feColorMatrix type="matrix" values="0 0 0 0 0.429333 0 0 0 0 0.992157 0 0 0 0 0.380392 0 0 0 1 0"/>
<feBlend mode="normal" in2="BackgroundImageFix" result="effect1_dropShadow_2945_5649"/>
<feBlend mode="normal" in="SourceGraphic" in2="effect1_dropShadow_2945_5649" result="shape"/>
</filter>
<filter id="filter6_d_2945_5649" x="56.8694" y="69.8647" width="33.4895" height="30.962" filterUnits="userSpaceOnUse" color-interpolation-filters="sRGB">
<feFlood flood-opacity="0" result="BackgroundImageFix"/>
<feColorMatrix in="SourceAlpha" type="matrix" values="0 0 0 0 0 0 0 0 0 0 0 0 0 0 0 0 0 0 127 0" result="hardAlpha"/>
<feOffset dx="-3.79126" dy="1.89563"/>
<feComposite in2="hardAlpha" operator="out"/>
<feColorMatrix type="matrix" values="0 0 0 0 0.429333 0 0 0 0 0.992157 0 0 0 0 0.380392 0 0 0 1 0"/>
<feBlend mode="normal" in2="BackgroundImageFix" result="effect1_dropShadow_2945_5649"/>
<feBlend mode="normal" in="SourceGraphic" in2="effect1_dropShadow_2945_5649" result="shape"/>
</filter>
<filter id="filter7_d_2945_5649" x="5.68701" y="81.2397" width="33.4895" height="30.962" filterUnits="userSpaceOnUse" color-interpolation-filters="sRGB">
<feFlood flood-opacity="0" result="BackgroundImageFix"/>
<feColorMatrix in="SourceAlpha" type="matrix" values="0 0 0 0 0 0 0 0 0 0 0 0 0 0 0 0 0 0 127 0" result="hardAlpha"/>
<feOffset dx="-3.79126" dy="1.89563"/>
<feComposite in2="hardAlpha" operator="out"/>
<feColorMatrix type="matrix" values="0 0 0 0 0.429333 0 0 0 0 0.992157 0 0 0 0 0.380392 0 0 0 1 0"/>
<feBlend mode="normal" in2="BackgroundImageFix" result="effect1_dropShadow_2945_5649"/>
<feBlend mode="normal" in="SourceGraphic" in2="effect1_dropShadow_2945_5649" result="shape"/>
</filter>
<filter id="filter8_d_2945_5649" x="90.0203" y="-9.77808" width="33.4895" height="30.962" filterUnits="userSpaceOnUse" color-interpolation-filters="sRGB">
<feFlood flood-opacity="0" result="BackgroundImageFix"/>
<feColorMatrix in="SourceAlpha" type="matrix" values="0 0 0 0 0 0 0 0 0 0 0 0 0 0 0 0 0 0 127 0" result="hardAlpha"/>
<feOffset dx="-3.79126" dy="1.89563"/>
<feComposite in2="hardAlpha" operator="out"/>
<feColorMatrix type="matrix" values="0 0 0 0 0.429333 0 0 0 0 0.992157 0 0 0 0 0.380392 0 0 0 1 0"/>
<feBlend mode="normal" in2="BackgroundImageFix" result="effect1_dropShadow_2945_5649"/>
<feBlend mode="normal" in="SourceGraphic" in2="effect1_dropShadow_2945_5649" result="shape"/>
</filter>
<filter id="filter9_d_2945_5649" x="80.2485" y="87.5586" width="15.7969" height="13.2694" filterUnits="userSpaceOnUse" color-interpolation-filters="sRGB">
<feFlood flood-opacity="0" result="BackgroundImageFix"/>
<feColorMatrix in="SourceAlpha" type="matrix" values="0 0 0 0 0 0 0 0 0 0 0 0 0 0 0 0 0 0 127 0" result="hardAlpha"/>
<feOffset dx="-3.79126" dy="1.89563"/>
<feComposite in2="hardAlpha" operator="out"/>
<feColorMatrix type="matrix" values="0 0 0 0 0.429333 0 0 0 0 0.992157 0 0 0 0 0.380392 0 0 0 1 0"/>
<feBlend mode="normal" in2="BackgroundImageFix" result="effect1_dropShadow_2945_5649"/>
<feBlend mode="normal" in="SourceGraphic" in2="effect1_dropShadow_2945_5649" result="shape"/>
</filter>
<filter id="filter10_d_2945_5649" x="-2.52751" y="69.8647" width="14.5331" height="12.0057" filterUnits="userSpaceOnUse" color-interpolation-filters="sRGB">
<feFlood flood-opacity="0" result="BackgroundImageFix"/>
<feColorMatrix in="SourceAlpha" type="matrix" values="0 0 0 0 0 0 0 0 0 0 0 0 0 0 0 0 0 0 127 0" result="hardAlpha"/>
<feOffset dx="-2.52751" dy="0.631877"/>
<feComposite in2="hardAlpha" operator="out"/>
<feColorMatrix type="matrix" values="0 0 0 0 0.429333 0 0 0 0 0.992157 0 0 0 0 0.380392 0 0 0 1 0"/>
<feBlend mode="normal" in2="BackgroundImageFix" result="effect1_dropShadow_2945_5649"/>
<feBlend mode="normal" in="SourceGraphic" in2="effect1_dropShadow_2945_5649" result="shape"/>
</filter>
<filter id="filter11_d_2945_5649" x="81.8057" y="19.2891" width="14.5331" height="12.0057" filterUnits="userSpaceOnUse" color-interpolation-filters="sRGB">
<feFlood flood-opacity="0" result="BackgroundImageFix"/>
<feColorMatrix in="SourceAlpha" type="matrix" values="0 0 0 0 0 0 0 0 0 0 0 0 0 0 0 0 0 0 127 0" result="hardAlpha"/>
<feOffset dx="-2.52751" dy="0.631877"/>
<feComposite in2="hardAlpha" operator="out"/>
<feColorMatrix type="matrix" values="0 0 0 0 0.429333 0 0 0 0 0.992157 0 0 0 0 0.380392 0 0 0 1 0"/>
<feBlend mode="normal" in2="BackgroundImageFix" result="effect1_dropShadow_2945_5649"/>
<feBlend mode="normal" in="SourceGraphic" in2="effect1_dropShadow_2945_5649" result="shape"/>
</filter>
<filter id="filter12_d_2945_5649" x="15.7971" y="49.6458" width="13.2695" height="10.7418" filterUnits="userSpaceOnUse" color-interpolation-filters="sRGB">
<feFlood flood-opacity="0" result="BackgroundImageFix"/>
<feColorMatrix in="SourceAlpha" type="matrix" values="0 0 0 0 0 0 0 0 0 0 0 0 0 0 0 0 0 0 127 0" result="hardAlpha"/>
<feOffset dx="-3.79126" dy="1.89563"/>
<feComposite in2="hardAlpha" operator="out"/>
<feColorMatrix type="matrix" values="0 0 0 0 0.429333 0 0 0 0 0.992157 0 0 0 0 0.380392 0 0 0 1 0"/>
<feBlend mode="normal" in2="BackgroundImageFix" result="effect1_dropShadow_2945_5649"/>
<feBlend mode="normal" in="SourceGraphic" in2="effect1_dropShadow_2945_5649" result="shape"/>
</filter>
<filter id="filter13_d_2945_5649" x="100.13" y="42.0361" width="13.2695" height="10.7418" filterUnits="userSpaceOnUse" color-interpolation-filters="sRGB">
<feFlood flood-opacity="0" result="BackgroundImageFix"/>
<feColorMatrix in="SourceAlpha" type="matrix" values="0 0 0 0 0 0 0 0 0 0 0 0 0 0 0 0 0 0 127 0" result="hardAlpha"/>
<feOffset dx="-3.79126" dy="1.89563"/>
<feComposite in2="hardAlpha" operator="out"/>
<feColorMatrix type="matrix" values="0 0 0 0 0.429333 0 0 0 0 0.992157 0 0 0 0 0.380392 0 0 0 1 0"/>
<feBlend mode="normal" in2="BackgroundImageFix" result="effect1_dropShadow_2945_5649"/>
<feBlend mode="normal" in="SourceGraphic" in2="effect1_dropShadow_2945_5649" result="shape"/>
</filter>
<filter id="filter14_d_2945_5649" x="25.2754" y="69.8647" width="33.4895" height="32.2258" filterUnits="userSpaceOnUse" color-interpolation-filters="sRGB">
<feFlood flood-opacity="0" result="BackgroundImageFix"/>
<feColorMatrix in="SourceAlpha" type="matrix" values="0 0 0 0 0 0 0 0 0 0 0 0 0 0 0 0 0 0 127 0" result="hardAlpha"/>
<feOffset dx="-3.79126" dy="3.15938"/>
<feComposite in2="hardAlpha" operator="out"/>
<feColorMatrix type="matrix" values="0 0 0 0 0.429333 0 0 0 0 0.992157 0 0 0 0 0.380392 0 0 0 1 0"/>
<feBlend mode="normal" in2="BackgroundImageFix" result="effect1_dropShadow_2945_5649"/>
<feBlend mode="normal" in="SourceGraphic" in2="effect1_dropShadow_2945_5649" result="shape"/>
</filter>
<filter id="filter15_d_2945_5649" x="109.609" y="1.59644" width="33.4895" height="32.2258" filterUnits="userSpaceOnUse" color-interpolation-filters="sRGB">
<feFlood flood-opacity="0" result="BackgroundImageFix"/>
<feColorMatrix in="SourceAlpha" type="matrix" values="0 0 0 0 0 0 0 0 0 0 0 0 0 0 0 0 0 0 127 0" result="hardAlpha"/>
<feOffset dx="-3.79126" dy="3.15938"/>
<feComposite in2="hardAlpha" operator="out"/>
<feColorMatrix type="matrix" values="0 0 0 0 0.429333 0 0 0 0 0.992157 0 0 0 0 0.380392 0 0 0 1 0"/>
<feBlend mode="normal" in2="BackgroundImageFix" result="effect1_dropShadow_2945_5649"/>
<feBlend mode="normal" in="SourceGraphic" in2="effect1_dropShadow_2945_5649" result="shape"/>
</filter>
<linearGradient id="paint0_linear_2945_5649" x1="0" y1="118.556" x2="132" y2="118.556" gradientUnits="userSpaceOnUse">
<stop stop-color="#FFE006"/>
<stop offset="0.764" stop-color="#FD0074"/>
</linearGradient>
<clipPath id="clip0_2945_5649">
<rect width="132" height="132" fill="white"/>
</clipPath>
</defs>
</svg>
