<svg width="132" height="132" viewBox="0 0 132 132" fill="none" xmlns="http://www.w3.org/2000/svg">
<g clip-path="url(#clip0_2945_5674)">
<rect width="132" height="132" fill="#F1B124"/>
<rect y="106.271" width="133.119" height="25.7288" fill="url(#paint0_linear_2945_5674)"/>
<path d="M27.3372 124.642V116.242H32.6412V117.226H28.5372V119.914H32.2812V120.874H28.5372V123.658H32.6412V124.642H27.3372ZM36.2161 124.642V116.242H37.4161L41.7001 122.686V116.242H42.9001V124.642H41.7001L37.4161 118.198V124.642H36.2161ZM46.6771 124.642V116.242H51.9811V117.226H47.8771V119.914H51.6211V120.874H47.8771V123.658H51.9811V124.642H46.6771ZM55.556 124.642V116.242H58.4C59.064 116.242 59.608 116.354 60.032 116.578C60.456 116.802 60.768 117.102 60.968 117.478C61.176 117.846 61.28 118.266 61.28 118.738C61.28 119.186 61.176 119.602 60.968 119.986C60.768 120.362 60.452 120.666 60.02 120.898C59.588 121.122 59.036 121.234 58.364 121.234H56.756V124.642H55.556ZM59.972 124.642L58.16 120.91H59.48L61.364 124.642H59.972ZM56.756 120.322H58.328C58.92 120.322 59.352 120.178 59.624 119.89C59.904 119.594 60.044 119.218 60.044 118.762C60.044 118.298 59.908 117.93 59.636 117.658C59.364 117.386 58.924 117.25 58.316 117.25H56.756V120.322ZM68.4808 124.786C67.6968 124.786 67.0088 124.606 66.4168 124.246C65.8248 123.886 65.3648 123.382 65.0368 122.734C64.7088 122.086 64.5448 121.33 64.5448 120.466C64.5448 119.61 64.7088 118.854 65.0368 118.198C65.3728 117.542 65.8488 117.03 66.4648 116.662C67.0888 116.286 67.8208 116.098 68.6608 116.098C69.6208 116.098 70.4208 116.33 71.0608 116.794C71.7008 117.25 72.1088 117.886 72.2848 118.702H70.9288C70.8088 118.238 70.5528 117.874 70.1608 117.61C69.7768 117.338 69.2768 117.202 68.6608 117.202C68.0688 117.202 67.5528 117.334 67.1128 117.598C66.6808 117.862 66.3488 118.238 66.1168 118.726C65.8848 119.214 65.7688 119.794 65.7688 120.466C65.7688 121.146 65.8848 121.73 66.1168 122.218C66.3488 122.706 66.6728 123.078 67.0888 123.334C67.5128 123.59 68.0048 123.718 68.5648 123.718C69.4048 123.718 70.0408 123.474 70.4728 122.986C70.9048 122.498 71.1568 121.846 71.2288 121.03H68.9128V120.106H72.4408V124.642H71.3368L71.2408 123.358C71.0488 123.67 70.8248 123.934 70.5688 124.15C70.3208 124.358 70.0248 124.518 69.6808 124.63C69.3448 124.734 68.9448 124.786 68.4808 124.786ZM76.0443 124.642V116.242H81.3483V117.226H77.2443V119.914H80.9883V120.874H77.2443V123.658H81.3483V124.642H76.0443ZM86.8792 124.642V117.226H84.3832V116.242H90.5632V117.226H88.0792V124.642H86.8792ZM93.8138 124.642V116.242H95.0138V124.642H93.8138ZM102.438 124.786C101.622 124.786 100.918 124.606 100.326 124.246C99.7343 123.878 99.2783 123.37 98.9583 122.722C98.6383 122.066 98.4783 121.306 98.4783 120.442C98.4783 119.586 98.6383 118.83 98.9583 118.174C99.2783 117.518 99.7343 117.01 100.326 116.65C100.918 116.282 101.622 116.098 102.438 116.098C103.414 116.098 104.206 116.334 104.814 116.806C105.422 117.278 105.81 117.942 105.978 118.798H104.67C104.542 118.302 104.294 117.906 103.926 117.61C103.558 117.314 103.058 117.166 102.426 117.166C101.874 117.166 101.39 117.298 100.974 117.562C100.566 117.826 100.25 118.202 100.026 118.69C99.8103 119.178 99.7023 119.762 99.7023 120.442C99.7023 121.122 99.8103 121.71 100.026 122.206C100.25 122.694 100.566 123.07 100.974 123.334C101.39 123.59 101.874 123.718 102.426 123.718C103.058 123.718 103.558 123.578 103.926 123.298C104.294 123.01 104.542 122.622 104.67 122.134H105.978C105.81 122.966 105.422 123.618 104.814 124.09C104.206 124.554 103.414 124.786 102.438 124.786Z" fill="white"/>
<path d="M28.541 20.6414L-17.7523 7.87086C-17.8492 7.84413 -17.9493 7.83058 -18.0498 7.83058H-29.8674C-30.3908 7.83058 -30.8442 7.46765 -30.9589 6.95696L-36.7829 -18.9866C-36.8655 -19.3545 -36.7572 -19.7393 -36.4947 -20.0101L-2.85645 -54.7163C-2.2981 -55.2923 -1.33277 -55.1107 -1.02193 -54.3711L29.8697 19.1296C30.2316 19.9907 29.4413 20.8898 28.541 20.6414Z" fill="url(#paint1_linear_2945_5674)"/>
<path d="M71.1222 8.51261L62.644 43.6271L102.915 30.8582L99.7359 0L71.1222 8.51261Z" fill="#FA8E10"/>
<path d="M42.9794 87.6908L51.4575 52.5763L11.1863 65.3452L14.3656 96.2034L42.9794 87.6908Z" fill="#FA8E10"/>
<path d="M92.8477 76.6277L67.6782 87.2548L62.6443 95.0853H112.424L105.153 43.6277L96.2036 53.6955L92.8477 76.6277Z" fill="#FA8E10"/>
</g>
<defs>
<linearGradient id="paint0_linear_2945_5674" x1="0" y1="119.136" x2="133.119" y2="119.136" gradientUnits="userSpaceOnUse">
<stop stop-color="#D87500"/>
<stop offset="1" stop-color="#F19F24"/>
</linearGradient>
<linearGradient id="paint1_linear_2945_5674" x1="-3.0763" y1="-55.9321" x2="-3.0763" y2="21.2543" gradientUnits="userSpaceOnUse">
<stop stop-color="#E97E02"/>
<stop offset="1" stop-color="#FE9213"/>
</linearGradient>
<clipPath id="clip0_2945_5674">
<rect width="132" height="132" fill="white"/>
</clipPath>
</defs>
</svg>
