<svg width="132" height="132" viewBox="0 0 132 132" fill="none" xmlns="http://www.w3.org/2000/svg">
<g clip-path="url(#clip0_2945_6881)">
<rect width="132" height="132" fill="#A81010"/>
<path fill-rule="evenodd" clip-rule="evenodd" d="M57.505 62.3233L57.466 62.3965L57.3478 62.472L57.1472 62.5524L56.8582 62.6404L56.4727 62.7391L55.9794 62.852L55.3643 62.9836L54.6097 63.1388L53.6942 63.3238L52.5927 63.5463L51.276 63.8149L49.7115 64.1405L47.8643 64.5351L45.6993 65.0125L43.1849 65.5875L40.2984 66.2746L37.034 67.0866L33.4127 68.0318L29.4937 69.1103L25.3848 70.31L21.2496 71.6025L17.3059 72.9406L13.8116 74.2585L11.0374 75.4765L9.22718 76.5098L8.55556 77.2819L9.09343 77.7367L10.7931 77.8492L13.4976 77.6283L16.9717 77.1138L20.9435 76.3669L25.1466 75.4589L29.3506 74.4601L33.3791 73.4322L37.1127 72.4238L40.4842 71.4693L43.4676 70.5905L46.0662 69.7987L48.3026 69.0972L50.2093 68.4844L51.8231 67.9554L53.1812 67.5036L54.3181 67.1219L55.265 66.8033L56.0489 66.5414L56.6929 66.3305L57.216 66.166L57.6339 66.0441L57.959 65.962L58.201 65.9178L58.3671 65.9108L58.4622 65.9411L58.4892 66.0096L58.4489 66.1188L58.3405 66.2719L58.1609 66.4736L57.9054 66.7302L57.5667 67.0498L57.1358 67.4421L56.6007 67.9197L55.9471 68.4975L55.1579 69.1934L54.2132 70.0286L53.0908 71.0274L51.7668 72.2171L50.2173 73.6268L48.4204 75.2857L46.3607 77.22L44.0336 79.448L41.4531 81.9735L38.659 84.7775L35.7252 87.8091L32.7645 90.9777L29.9293 94.1486L27.4028 97.1476L25.3813 99.774L24.0464 101.826L23.5346 103.13L23.9096 103.576L25.1488 103.134L27.1464 101.86L29.734 99.8867L32.7105 97.393L35.8743 94.5749L39.0482 91.6179L42.0943 88.6769L44.9185 85.8682L47.467 83.2686L49.7185 80.9203L51.6755 78.839L53.3552 77.0215L54.7835 75.4528L55.9895 74.1116L57.0024 72.9739L57.8496 72.0158L58.5557 71.2149L59.1421 70.5511L59.627 70.007L60.0257 69.5682L60.3506 69.2225L60.6119 68.9606L60.8177 68.7752L60.9745 68.6612L61.0869 68.6156L61.1586 68.6372L61.1919 68.7268L61.1878 68.8871L61.1467 69.1229L61.0676 69.4411L60.949 69.8512L60.788 70.3655L60.581 70.9992L60.3234 71.7713L60.0096 72.7044L59.6332 73.8252L59.1873 75.1646L58.6647 76.7569L58.0589 78.6391L57.3647 80.8482L56.58 83.4173L55.708 86.3698L54.759 89.7113L53.7539 93.4183L52.7261 97.4274L51.723 101.624L50.8054 105.835L50.043 109.835L49.5076 113.359L49.2616 116.135L49.3467 117.922L49.7747 118.556L50.5231 117.979L51.5382 116.254L52.7443 113.548L54.0572 110.101L55.3962 106.183L56.6942 102.054L57.9024 97.9356L58.9911 93.9963L59.9469 90.3482L60.7693 87.0538L61.4658 84.1368L62.0491 81.5932L62.5337 79.4012L62.9344 77.5298L63.2649 75.9439L63.5376 74.6085L63.7634 73.4909L63.9511 72.5615L64.1084 71.7948L64.2416 71.1692L64.3559 70.6667L64.4556 70.273L64.5443 69.9767L64.6252 69.7692L64.701 69.6446L64.7742 69.5994L64.8473 69.6322L64.9225 69.7439L65.0024 69.9379L65.0897 70.2196L65.1874 70.5971L65.2991 71.0813L65.4289 71.6862L65.582 72.4291L65.7645 73.3309L65.9836 74.4167L66.2482 75.7153L66.5687 77.259L66.9573 79.0826L67.4275 81.2212L67.9941 83.7071L68.6717 86.5638L69.4734 89.7988L70.4077 93.3936L71.4757 97.2926L72.6664 101.392L73.9529 105.533L75.2894 109.501L76.6116 113.042L77.8404 115.883L78.8914 117.778L79.6865 118.545L80.168 118.103L80.3078 116.491L80.1124 113.858L79.6193 110.435L78.8884 106.493L77.9906 102.299L76.9968 98.0869L75.9694 94.0389L74.9581 90.2783L73.9985 86.8762L73.1132 83.8614L72.3143 81.2325L71.6057 78.9681L70.9861 77.0363L70.4507 75.4003L69.9931 74.023L69.6061 72.8696L69.2827 71.9085L69.0166 71.1124L68.8018 70.458L68.6338 69.9258L68.5086 69.5L68.4234 69.1678L68.3763 68.9195L68.3664 68.7475L68.3936 68.6469L68.459 68.6145L68.5648 68.6494L68.7142 68.7523L68.9119 68.9261L69.1638 69.1754L69.478 69.5072L69.8641 69.9304L70.3343 70.4568L70.9035 71.1004L71.5892 71.8783L72.4123 72.8099L73.3971 73.9174L74.5704 75.2246L75.9613 76.7555L77.5991 78.5321L79.5105 80.5708L81.7144 82.8771L84.2163 85.4387L86.9992 88.2183L90.0152 91.1449L93.1768 94.1089L96.3532 96.9608L99.3727 99.5193L102.036 101.588L104.14 102.984L105.509 103.565L106.026 103.261L105.653 102.087L104.442 100.144L102.518 97.5962L100.059 94.6428L97.2599 91.4866L94.3081 88.3076L91.3613 85.2469L88.5391 82.4023L85.9212 79.8304L83.5522 77.5548L81.4498 75.5747L79.6119 73.8736L78.0243 72.4261L76.666 71.2034L75.5132 70.1761L74.5417 69.3165L73.7291 68.5999L73.0551 68.0046L72.5022 67.5121L72.0555 67.1071L71.7028 66.7767L71.4346 66.5106L71.2433 66.3006L71.1238 66.1401L71.0728 66.0242L71.089 65.9494L71.1732 65.9131L71.3277 65.9142L71.5572 65.9524L71.8685 66.0284L72.2708 66.1438L72.7762 66.3013L73.3997 66.5045L74.16 66.7579L75.0792 67.0671L76.1838 67.4383L77.5044 67.8785L79.0751 68.3947L80.9327 68.9938L83.1142 69.6809L85.6533 70.4584L88.5745 71.3239L91.885 72.2674L95.5643 73.2692L99.5523 74.2969L103.739 75.3041L107.956 76.2312L111.982 77.0086L115.554 77.5646L118.398 77.8356L120.271 77.7777L121 77.3766L120.519 76.652L118.881 75.6556L116.245 74.4614L112.848 73.1538L108.958 71.814L104.837 70.5106L100.712 69.2938L96.7537 68.1948L93.0799 67.2281L89.7564 66.3953L86.8096 65.689L84.2371 65.0972L82.0184 64.6052L80.1229 64.1983L78.5158 63.8627L77.1618 63.5857L76.0281 63.3566L75.0848 63.1661L74.3061 63.0066L73.67 62.8716L73.1584 62.756L72.7565 62.6553L72.4528 62.5658L72.2385 62.4844L72.1075 62.4083L72.056 62.3349L72.0826 62.2619L72.188 62.1869L72.3752 62.1075L72.6496 62.0209L73.0191 61.9241L73.4943 61.8137L74.0889 61.6855L74.82 61.5344L75.7083 61.3545L76.7783 61.1386L78.0586 60.878L79.5814 60.5623L81.3812 60.1796L83.4933 59.7163L85.9502 59.1579L88.7765 58.4896L91.9813 57.6981L95.5486 56.7744L99.426 55.7167L103.514 54.5349L107.658 53.2545L111.649 51.9197L115.233 50.5935L118.14 49.3539L120.117 48.2857L120.978 47.4676L120.633 46.9597L119.11 46.7924L116.551 46.9622L113.182 47.4336L109.271 48.1481L105.088 49.0353L100.871 50.0241L96.8053 51.0509L93.0189 52.0651L89.5871 53.0299L86.5415 53.9218L83.8827 54.7279L81.5907 55.4437L79.6339 56.0704L77.9759 56.6123L76.5795 57.076L75.4095 57.4683L74.4343 57.7965L73.6261 58.0671L72.9612 58.2857L72.42 58.4574L71.9862 58.5859L71.6471 58.6742L71.3923 58.7243L71.2146 58.7372L71.1084 58.7129L71.0707 58.6506L71.1002 58.5481L71.1976 58.4023L71.3656 58.2087L71.6086 57.9613L71.9335 57.6524L72.349 57.2723L72.8666 56.8093L73.5003 56.2486L74.2666 55.5728L75.1851 54.7613L76.2777 53.7903L77.5679 52.633L79.08 51.2603L80.8361 49.643L82.8534 47.754L85.1382 45.5736L87.6803 43.0949L90.4443 40.3327L93.3624 37.3324L96.328 34.1778L99.1949 30.9964L101.784 27.9571L103.898 25.2575L105.353 23.1016L106.003 21.6686L105.77 21.0817L104.663 21.3844L102.776 22.5328L100.27 24.4058L97.3411 26.8297L94.1944 29.6091L91.0118 32.5553L87.9379 35.5077L85.0738 38.3435L82.4793 40.9801L80.1801 43.3701L78.1771 45.4941L76.4548 47.3529L74.9884 48.9598L73.749 50.3357L72.7072 51.5042L71.8354 52.4893L71.1083 53.3139L70.5041 53.9983L70.0041 54.5603L69.5926 55.0151L69.2567 55.3749L68.9859 55.6496L68.7717 55.8468L68.6075 55.9719L68.4882 56.0283L68.4102 56.0174L68.371 55.9387L68.3691 55.7899L68.4043 55.5666L68.4772 55.2621L68.5894 54.8673L68.7434 54.3706L68.9428 53.7571L69.192 53.0084L69.4965 52.1027L69.8625 51.0137L70.2968 49.7114L70.8067 48.1618L71.3989 46.3282L72.0788 44.1736L72.8491 41.6638L73.7077 38.7732L74.6455 35.493L75.6435 31.8411L76.6705 27.8739L77.6813 23.6975L78.6171 19.4747L79.409 15.4239L79.9851 11.8053L80.2807 8.89316L80.25 6.93537L79.8759 6.11108L79.1757 6.49587L78.1985 8.04667L77.0172 10.6111L75.7156 13.958L74.3759 17.8194L73.0676 21.9309L71.8426 26.0635L70.7336 30.0402L69.7563 33.74L68.9131 37.0932L68.1972 40.0706L67.5968 42.6726L67.0975 44.9187L66.6845 46.8388L66.3437 48.4678L66.0624 49.8408L65.8299 50.9911L65.6366 51.9487L65.4749 52.7397L65.3382 53.3865L65.2213 53.9075L65.1195 54.3177L65.0293 54.6289L64.9474 54.85L64.8709 54.9875L64.7974 55.0453L64.7245 55.0249L64.6498 54.9259L64.5708 54.7453L64.4849 54.4781L64.389 54.1165L64.2799 53.6501L64.1532 53.0655L64.0042 52.3459L63.8269 51.471L63.6142 50.4163L63.3575 49.1537L63.0466 47.6513L62.6698 45.8747L62.2135 43.7885L61.6632 41.3598L61.0043 38.5632L60.2231 35.388L59.3102 31.8479L58.2631 27.9917L57.0906 23.915L55.8168 19.7678L54.4844 15.7555L53.155 12.1288L51.9056 9.15831L50.8208 7.09845L49.9803 6.14396L49.4462 6.39277L49.2515 7.82558L49.3953 10.3094L49.8446 13.6241L50.5422 17.5025L51.4182 21.6734L52.4012 25.8959L53.427 29.9797L54.4436 33.7921L55.4133 37.2542L56.3114 40.3312L57.1245 43.0206L57.8475 45.341L58.4811 47.3234L59.0295 49.004L59.499 50.4201L59.8968 51.607L60.2298 52.5968L60.5047 53.4175L60.7273 54.0931L60.9025 54.6436L61.0342 55.0854L61.1257 55.4317L61.1787 55.6929L61.1946 55.8766L61.1733 55.9883L61.1141 56.0314L61.0149 56.0073L60.8727 55.9153L60.6831 55.7531L60.4403 55.5162L60.1366 55.1982L59.7627 54.7902L59.3068 54.2811L58.7545 53.6572L58.0887 52.902L57.289 51.9963L56.3317 50.9184L55.1904 49.6446L53.8361 48.1509L52.2395 46.4147L50.3732 44.4185L48.2167 42.1545L45.7618 39.6318L43.0213 36.8832L40.0377 33.9737L36.8917 31.0066L33.7071 28.1254L30.6498 25.5071L27.9159 23.3471L25.7098 21.8335L24.214 21.1161L23.5571 21.2779L23.7894 22.3175L24.8738 24.1476L26.6948 26.6121L29.0817 29.5148L31.8396 32.6516L34.7785 35.8376L37.7351 38.9247L40.5835 41.8085L43.2378 44.4261L45.6482 46.7494L47.7934 48.7758L49.6727 50.5198L51.2988 52.0058L52.6921 53.2623L53.876 54.3189L54.8748 55.2034L55.7113 55.9412L56.4061 56.5545L56.9772 57.0623L57.44 57.4803L57.8069 57.8219L58.0881 58.0976L58.2912 58.3161L58.4219 58.4841L58.4837 58.6068L58.4781 58.688L58.4049 58.7302L58.2619 58.735L58.0447 58.7028L57.747 58.6329L57.3599 58.5239L56.8718 58.3733L56.2682 58.1777L55.5312 57.9326L54.639 57.6327L53.5658 57.2719L52.2818 56.8432L50.7533 56.3395L48.944 55.7541L46.8165 55.0812L44.3363 54.3181L41.477 53.4662L38.2279 52.534L34.6045 51.5397L30.6597 50.5134L26.4952 49.4992L22.2692 48.555L18.196 47.7489L14.5334 47.1529L11.5555 46.833L9.51424 46.8367L8.59549 47.1836L8.88398 47.8593L10.3461 48.817L12.8372 49.9852L16.1311 51.2804L19.961 52.6201L24.0611 53.9332L28.1988 55.1663L32.1926 56.2854L35.9173 57.2736L39.2992 58.1275L42.3065 58.8531L44.9376 59.4623L47.2108 59.9692L49.1555 60.3886L50.8062 60.7347L52.1981 61.0203L53.3649 61.2564L54.3367 61.4525L55.14 61.6165L55.7975 61.7549L56.3279 61.8733L56.7464 61.9761L57.065 62.0672L57.2931 62.1497L57.437 62.2265L57.501 62.3001L57.505 62.3233Z" fill="white"/>
<rect y="105.111" width="132" height="26.8889" fill="url(#paint0_linear_2945_6881)"/>
<path d="M35.852 123V114.6H41.372V115.908H37.472V118.104H41.012V119.364H37.472V121.692H41.372V123H35.852ZM44.4393 123L47.0913 118.74L44.4033 114.6H46.2753L48.1233 117.468L49.8153 114.6H51.6393L49.0113 118.812L51.7113 123H49.8393L47.9793 120.084L46.2753 123H44.4393ZM58.0447 123.144C57.2127 123.144 56.4967 122.964 55.8967 122.604C55.2967 122.236 54.8367 121.728 54.5167 121.08C54.1967 120.424 54.0367 119.668 54.0367 118.812C54.0367 117.956 54.1967 117.2 54.5167 116.544C54.8367 115.888 55.2967 115.376 55.8967 115.008C56.4967 114.64 57.2127 114.456 58.0447 114.456C59.0607 114.456 59.8887 114.708 60.5287 115.212C61.1767 115.716 61.5807 116.428 61.7407 117.348H59.9767C59.8727 116.9 59.6567 116.552 59.3287 116.304C59.0007 116.048 58.5687 115.92 58.0327 115.92C57.5447 115.92 57.1247 116.04 56.7727 116.28C56.4207 116.512 56.1487 116.844 55.9567 117.276C55.7727 117.7 55.6807 118.212 55.6807 118.812C55.6807 119.404 55.7727 119.916 55.9567 120.348C56.1487 120.78 56.4207 121.112 56.7727 121.344C57.1247 121.576 57.5447 121.692 58.0327 121.692C58.5687 121.692 58.9967 121.576 59.3167 121.344C59.6447 121.104 59.8647 120.772 59.9767 120.348H61.7407C61.5807 121.22 61.1767 121.904 60.5287 122.4C59.8887 122.896 59.0607 123.144 58.0447 123.144ZM65.1489 123V114.6H66.7689V123H65.1489ZM72.421 123V115.908H69.961V114.6H76.477V115.908H74.029V123H72.421ZM79.6723 123V114.6H85.1923V115.908H81.2923V118.104H84.8323V119.364H81.2923V121.692H85.1923V123H79.6723ZM88.7036 123V114.6H91.3916C92.3676 114.6 93.1716 114.776 93.8036 115.128C94.4356 115.472 94.9036 115.96 95.2076 116.592C95.5196 117.216 95.6756 117.952 95.6756 118.8C95.6756 119.648 95.5196 120.388 95.2076 121.02C94.9036 121.644 94.4356 122.132 93.8036 122.484C93.1716 122.828 92.3676 123 91.3916 123H88.7036ZM90.3236 121.608H91.3076C91.9956 121.608 92.5356 121.496 92.9276 121.272C93.3196 121.048 93.5996 120.728 93.7676 120.312C93.9356 119.888 94.0196 119.384 94.0196 118.8C94.0196 118.208 93.9356 117.704 93.7676 117.288C93.5996 116.864 93.3196 116.54 92.9276 116.316C92.5356 116.092 91.9956 115.98 91.3076 115.98H90.3236V121.608Z" fill="white"/>
</g>
<defs>
<linearGradient id="paint0_linear_2945_6881" x1="0" y1="118.556" x2="132" y2="118.556" gradientUnits="userSpaceOnUse">
<stop/>
<stop offset="1" stop-color="#DD0D0D"/>
</linearGradient>
<clipPath id="clip0_2945_6881">
<rect width="132" height="132" fill="white"/>
</clipPath>
</defs>
</svg>
