<svg width="132" height="132" viewBox="0 0 132 132" fill="none" xmlns="http://www.w3.org/2000/svg">
<g clip-path="url(#clip0_2945_5615)">
<rect width="132" height="132" fill="#FFB701"/>
<circle cx="108" cy="90" r="12" fill="white"/>
<circle cy="83" r="12" fill="white"/>
<circle cx="15" cy="6" r="12" fill="white"/>
<rect y="106" width="132" height="26" fill="url(#paint0_linear_2945_5615)"/>
<path d="M49.228 123V114.6H50.428V123H49.228ZM43.888 123V114.6H45.088V123H43.888ZM44.884 119.208V118.224H49.492V119.208H44.884ZM53.6563 123L56.7523 114.6H58.0603L61.1323 123H59.8603L57.3883 116.04L54.9163 123H53.6563ZM55.0603 120.924L55.3843 119.964H59.3443L59.6683 120.924H55.0603ZM64.3528 123V114.6H67.2088C67.8808 114.6 68.4328 114.712 68.8648 114.936C69.3048 115.16 69.6288 115.464 69.8368 115.848C70.0448 116.224 70.1488 116.656 70.1488 117.144C70.1488 117.608 70.0448 118.032 69.8368 118.416C69.6288 118.8 69.3088 119.108 68.8768 119.34C68.4448 119.564 67.8888 119.676 67.2088 119.676H65.5528V123H64.3528ZM65.5528 118.68H67.1608C67.8008 118.68 68.2528 118.54 68.5168 118.26C68.7888 117.98 68.9248 117.608 68.9248 117.144C68.9248 116.656 68.7888 116.276 68.5168 116.004C68.2528 115.732 67.8008 115.596 67.1608 115.596H65.5528V118.68ZM73.4661 123V114.6H76.3221C76.9941 114.6 77.5461 114.712 77.9781 114.936C78.4181 115.16 78.7421 115.464 78.9501 115.848C79.1581 116.224 79.2621 116.656 79.2621 117.144C79.2621 117.608 79.1581 118.032 78.9501 118.416C78.7421 118.8 78.4221 119.108 77.9901 119.34C77.5581 119.564 77.0021 119.676 76.3221 119.676H74.6661V123H73.4661ZM74.6661 118.68H76.2741C76.9141 118.68 77.3661 118.54 77.6301 118.26C77.9021 117.98 78.0381 117.608 78.0381 117.144C78.0381 116.656 77.9021 116.276 77.6301 116.004C77.3661 115.732 76.9141 115.596 76.2741 115.596H74.6661V118.68ZM84.5622 123V119.88L81.8022 114.6H83.1582L85.2582 118.896H85.0782L87.1782 114.6H88.5222L85.7622 119.88V123H84.5622Z" fill="white"/>
<rect x="26.7148" y="22" width="30.7009" height="64.1308" rx="15.3505" fill="white"/>
<rect x="74.1309" y="38.7148" width="30.7009" height="64.1308" rx="15.3505" transform="rotate(90 74.1309 38.7148)" fill="white"/>
<circle cx="42.0651" cy="53.7243" r="8.52804" fill="#FF6500"/>
<circle cx="74.528" cy="26.528" r="8.52804" fill="white"/>
<circle cx="25.528" cy="94.528" r="8.52804" fill="white"/>
<circle cx="92.7991" cy="36.7991" r="5.79907" fill="white"/>
<circle cx="95.7991" cy="17.7991" r="5.79907" fill="white"/>
<circle cx="71" cy="78" r="5" fill="white"/>
<circle cx="85" cy="61" r="4" fill="white"/>
<circle cx="19" cy="31" r="4" fill="white"/>
</g>
<defs>
<linearGradient id="paint0_linear_2945_5615" x1="0" y1="119" x2="132" y2="119" gradientUnits="userSpaceOnUse">
<stop stop-color="#F16224"/>
<stop offset="1" stop-color="#FFB701"/>
</linearGradient>
<clipPath id="clip0_2945_5615">
<rect width="132" height="132" fill="white"/>
</clipPath>
</defs>
</svg>
