<svg width="132" height="132" viewBox="0 0 132 132" fill="none" xmlns="http://www.w3.org/2000/svg">
<g clip-path="url(#clip0_2945_5658)">
<rect width="132" height="132" fill="#DA73FF"/>
<rect x="115.262" width="118.587" height="26.5989" fill="url(#paint0_linear_2945_5658)"/>
<rect x="89.7712" y="26.5989" width="118.587" height="25.4906" fill="url(#paint1_linear_2945_5658)"/>
<rect x="64.2808" y="52.0889" width="118.587" height="27.7072" fill="url(#paint2_linear_2945_5658)"/>
<rect x="38.79" y="79.7966" width="118.587" height="25.4906" fill="url(#paint3_linear_2945_5658)"/>
<rect y="105.111" width="132" height="26.8889" fill="url(#paint4_linear_2945_5658)"/>
<path d="M34.888 122.834V114.434H36.088V122.834H34.888ZM39.8646 122.834V114.434H41.0646L45.3486 120.878V114.434H46.5486V122.834H45.3486L41.0646 116.39V122.834H39.8646ZM53.0735 122.978C52.4655 122.978 51.9295 122.87 51.4655 122.654C51.0015 122.43 50.6415 122.118 50.3855 121.718C50.1295 121.318 49.9975 120.85 49.9895 120.314H51.2615C51.2615 120.618 51.3295 120.898 51.4655 121.154C51.6095 121.402 51.8135 121.602 52.0775 121.754C52.3495 121.898 52.6815 121.97 53.0735 121.97C53.4095 121.97 53.6975 121.914 53.9375 121.802C54.1855 121.69 54.3735 121.538 54.5015 121.346C54.6295 121.146 54.6935 120.918 54.6935 120.662C54.6935 120.374 54.6295 120.138 54.5015 119.954C54.3735 119.762 54.1935 119.602 53.9615 119.474C53.7375 119.346 53.4775 119.234 53.1815 119.138C52.8935 119.042 52.5815 118.938 52.2455 118.826C51.5655 118.602 51.0615 118.318 50.7335 117.974C50.4135 117.63 50.2535 117.182 50.2535 116.63C50.2535 116.158 50.3615 115.75 50.5775 115.406C50.8015 115.054 51.1175 114.782 51.5255 114.59C51.9335 114.39 52.4095 114.29 52.9535 114.29C53.5055 114.29 53.9815 114.39 54.3815 114.59C54.7895 114.79 55.1095 115.066 55.3415 115.418C55.5735 115.77 55.6935 116.182 55.7015 116.654H54.4295C54.4295 116.438 54.3695 116.226 54.2495 116.018C54.1375 115.81 53.9695 115.642 53.7455 115.514C53.5295 115.378 53.2575 115.31 52.9295 115.31C52.6495 115.302 52.4015 115.346 52.1855 115.442C51.9695 115.538 51.8015 115.678 51.6815 115.862C51.5615 116.046 51.5015 116.266 51.5015 116.522C51.5015 116.778 51.5575 116.986 51.6695 117.146C51.7815 117.298 51.9375 117.43 52.1375 117.542C52.3455 117.654 52.5895 117.758 52.8695 117.854C53.1495 117.942 53.4575 118.042 53.7935 118.154C54.2015 118.29 54.5695 118.458 54.8975 118.658C55.2255 118.85 55.4815 119.102 55.6655 119.414C55.8575 119.718 55.9535 120.11 55.9535 120.59C55.9535 121.006 55.8455 121.394 55.6295 121.754C55.4135 122.114 55.0935 122.41 54.6695 122.642C54.2455 122.866 53.7135 122.978 53.0735 122.978ZM59.4036 122.834V114.434H62.2596C62.9316 114.434 63.4836 114.546 63.9156 114.77C64.3556 114.994 64.6796 115.298 64.8876 115.682C65.0956 116.058 65.1996 116.49 65.1996 116.978C65.1996 117.442 65.0956 117.866 64.8876 118.25C64.6796 118.634 64.3596 118.942 63.9276 119.174C63.4956 119.398 62.9396 119.51 62.2596 119.51H60.6036V122.834H59.4036ZM60.6036 118.514H62.2116C62.8516 118.514 63.3036 118.374 63.5676 118.094C63.8396 117.814 63.9756 117.442 63.9756 116.978C63.9756 116.49 63.8396 116.11 63.5676 115.838C63.3036 115.566 62.8516 115.43 62.2116 115.43H60.6036V118.514ZM68.5169 122.834V114.434H69.7169V122.834H68.5169ZM73.4935 122.834V114.434H76.3375C77.0015 114.434 77.5455 114.546 77.9695 114.77C78.3935 114.994 78.7055 115.294 78.9055 115.67C79.1135 116.038 79.2175 116.458 79.2175 116.93C79.2175 117.378 79.1135 117.794 78.9055 118.178C78.7055 118.554 78.3895 118.858 77.9575 119.09C77.5255 119.314 76.9735 119.426 76.3015 119.426H74.6935V122.834H73.4935ZM77.9095 122.834L76.0975 119.102H77.4175L79.3015 122.834H77.9095ZM74.6935 118.514H76.2655C76.8575 118.514 77.2895 118.37 77.5615 118.082C77.8415 117.786 77.9815 117.41 77.9815 116.954C77.9815 116.49 77.8455 116.122 77.5735 115.85C77.3015 115.578 76.8615 115.442 76.2535 115.442H74.6935V118.514ZM82.7943 122.834V114.434H88.0983V115.418H83.9943V118.106H87.7383V119.066H83.9943V121.85H88.0983V122.834H82.7943ZM91.6732 122.834V114.434H94.1332C95.1092 114.434 95.9132 114.606 96.5452 114.95C97.1852 115.294 97.6572 115.782 97.9612 116.414C98.2732 117.038 98.4292 117.782 98.4292 118.646C98.4292 119.51 98.2732 120.254 97.9612 120.878C97.6572 121.502 97.1852 121.986 96.5452 122.33C95.9132 122.666 95.1092 122.834 94.1332 122.834H91.6732ZM92.8732 121.826H94.0852C94.8612 121.826 95.4732 121.698 95.9212 121.442C96.3772 121.186 96.7012 120.822 96.8932 120.35C97.0932 119.87 97.1932 119.302 97.1932 118.646C97.1932 117.982 97.0932 117.41 96.8932 116.93C96.7012 116.45 96.3772 116.082 95.9212 115.826C95.4732 115.57 94.8612 115.442 94.0852 115.442H92.8732V121.826Z" fill="white"/>
</g>
<defs>
<linearGradient id="paint0_linear_2945_5658" x1="115.262" y1="13.2994" x2="233.848" y2="13.2994" gradientUnits="userSpaceOnUse">
<stop stop-color="#8607B2"/>
<stop offset="1" stop-color="#39034C"/>
</linearGradient>
<linearGradient id="paint1_linear_2945_5658" x1="89.7712" y1="39.3442" x2="208.358" y2="39.3442" gradientUnits="userSpaceOnUse">
<stop stop-color="#8607B2"/>
<stop offset="1" stop-color="#39034C"/>
</linearGradient>
<linearGradient id="paint2_linear_2945_5658" x1="64.2808" y1="65.9424" x2="182.867" y2="65.9424" gradientUnits="userSpaceOnUse">
<stop stop-color="#8607B2"/>
<stop offset="1" stop-color="#39034C"/>
</linearGradient>
<linearGradient id="paint3_linear_2945_5658" x1="38.79" y1="92.5419" x2="157.377" y2="92.5419" gradientUnits="userSpaceOnUse">
<stop stop-color="#8607B2"/>
<stop offset="1" stop-color="#39034C"/>
</linearGradient>
<linearGradient id="paint4_linear_2945_5658" x1="0" y1="118.556" x2="132" y2="118.556" gradientUnits="userSpaceOnUse">
<stop stop-color="#8607B2"/>
<stop offset="1" stop-color="#39034C"/>
</linearGradient>
<clipPath id="clip0_2945_5658">
<rect width="132" height="132" fill="white"/>
</clipPath>
</defs>
</svg>
