<svg width="132" height="132" viewBox="0 0 132 132" fill="none" xmlns="http://www.w3.org/2000/svg">
<g clip-path="url(#clip0_2945_7031)">
<rect width="132" height="132" fill="#F5EBC8"/>
<circle cx="85.5921" cy="99.8294" r="30.5" transform="rotate(-18.4804 85.5921 99.8294)" fill="#8EC5AD"/>
<circle cx="48.8978" cy="84.6797" r="30.5" transform="rotate(-18.4804 48.8978 84.6797)" fill="#8EC5AD"/>
<circle cx="67.8338" cy="37.2305" r="30.5" transform="rotate(-18.4804 67.8338 37.2305)" fill="#8EC5AD"/>
<circle cx="37.4639" cy="22.0755" r="19.5" transform="rotate(-18.4804 37.4639 22.0755)" fill="#8EC5AD"/>
<circle cx="22.3142" cy="58.7699" r="10.5" transform="rotate(-18.4804 22.3142 58.7699)" fill="#8EC5AD"/>
<circle cx="64.9609" cy="3.39637" r="10.5" transform="rotate(-18.4804 64.9609 3.39637)" fill="#8EC5AD"/>
<ellipse cx="15.6388" cy="15.1362" rx="6" ry="7" transform="rotate(-39.5586 15.6388 15.1362)" fill="#8EC5AD"/>
<ellipse cx="49.5292" cy="83.4144" rx="25.5" ry="27.5" transform="rotate(-18.4804 49.5292 83.4144)" fill="#36A4A3"/>
<circle cx="38.0967" cy="22.3913" r="16" transform="rotate(-18.4804 38.0967 22.3913)" fill="#36A4A3"/>
<circle cx="83.0601" cy="96.9854" r="24" transform="rotate(-18.4804 83.0601 96.9854)" fill="#36A4A3"/>
<circle cx="67.2011" cy="36.9148" r="28" transform="rotate(-18.4804 67.2011 36.9148)" fill="#36A4A3"/>
<circle cx="65.278" cy="4.34475" r="9.5" transform="rotate(-18.4804 65.278 4.34475)" fill="#36A4A3"/>
<circle cx="65.5937" cy="3.71241" r="7" transform="rotate(-18.4804 65.5937 3.71241)" fill="#FAC286"/>
<circle cx="37.4639" cy="22.0759" r="11.5" transform="rotate(-18.4804 37.4639 22.0759)" fill="#FAC286"/>
<circle cx="49.2122" cy="82.4661" r="21.5" transform="rotate(-18.4804 49.2122 82.4661)" fill="#FAC286"/>
<circle cx="80.5305" cy="97.3039" r="18.5" transform="rotate(-18.4804 80.5305 97.3039)" fill="#FAC286"/>
<circle cx="66.8855" cy="37.5478" r="18.5" transform="rotate(-18.4804 66.8855 37.5478)" fill="#FAC286"/>
<circle cx="65.5937" cy="3.7123" r="6" transform="rotate(-18.4804 65.5937 3.7123)" fill="#FC9B0C"/>
<circle cx="37.7796" cy="21.4432" r="10" transform="rotate(-18.4804 37.7796 21.4432)" fill="#FC9B0C"/>
<circle cx="49.2124" cy="82.4661" r="18.5" transform="rotate(-18.4804 49.2124 82.4661)" fill="#FC9B0C"/>
<circle cx="79.898" cy="96.9883" r="16" transform="rotate(-18.4804 79.898 96.9883)" fill="#FC9B0C"/>
<circle cx="66.5696" cy="38.1804" r="16" transform="rotate(-18.4804 66.5696 38.1804)" fill="#FC9B0C"/>
<circle cx="64.9609" cy="3.39661" r="3.5" transform="rotate(-18.4804 64.9609 3.39661)" fill="#FF5E60"/>
<ellipse cx="38.254" cy="21.2846" rx="7.5" ry="7" transform="rotate(-18.4804 38.254 21.2846)" fill="#FF5E60"/>
<circle cx="50.1596" cy="80.5679" r="12" transform="rotate(-18.4804 50.1596 80.5679)" fill="#FF5E60"/>
<ellipse cx="77.84" cy="93.9856" rx="13" ry="12.5" transform="rotate(-18.4804 77.84 93.9856)" fill="#FF5E60"/>
<circle cx="65.6226" cy="40.0786" r="11.5" transform="rotate(-18.4804 65.6226 40.0786)" fill="#FF5E60"/>
<circle cx="65.2767" cy="2.76388" r="2" transform="rotate(-18.4804 65.2767 2.76388)" fill="#8D4556"/>
<ellipse cx="38.2539" cy="21.2848" rx="6.5" ry="6" transform="rotate(-18.4804 38.2539 21.2848)" fill="#8D4556"/>
<ellipse cx="51.2639" cy="77.563" rx="10" ry="9.5" transform="rotate(-18.4804 51.2639 77.563)" fill="#8D4556"/>
<ellipse cx="73.411" cy="91.7757" rx="8.5" ry="8" transform="rotate(-18.4804 73.411 91.7757)" fill="#8D4556"/>
<circle cx="64.674" cy="40.3954" r="8.5" transform="rotate(-18.4804 64.674 40.3954)" fill="#8D4556"/>
<circle cx="38.4124" cy="21.759" r="4.5" transform="rotate(-18.4804 38.4124 21.759)" fill="#5F3A46"/>
<circle cx="72.6198" cy="90.9857" r="6" transform="rotate(-18.4804 72.6198 90.9857)" fill="#5F3A46"/>
<circle cx="51.1054" cy="77.0888" r="6" transform="rotate(-18.4804 51.1054 77.0888)" fill="#5F3A46"/>
<circle cx="63.727" cy="42.2936" r="6" transform="rotate(-18.4804 63.727 42.2936)" fill="#5F3A46"/>
<circle cx="65.2766" cy="2.76402" r="1" transform="rotate(-18.4804 65.2766 2.76402)" fill="#5F3A46"/>
<rect y="106.271" width="133.119" height="25.7288" fill="url(#paint0_linear_2945_7031)"/>
<path d="M27.0501 124.642V116.242H28.2501L32.5341 122.686V116.242H33.7341V124.642H32.5341L28.2501 118.198V124.642H27.0501ZM41.219 124.786C40.427 124.786 39.727 124.606 39.119 124.246C38.519 123.878 38.047 123.37 37.703 122.722C37.367 122.066 37.199 121.306 37.199 120.442C37.199 119.586 37.367 118.834 37.703 118.186C38.047 117.53 38.519 117.018 39.119 116.65C39.727 116.282 40.427 116.098 41.219 116.098C42.027 116.098 42.731 116.282 43.331 116.65C43.939 117.018 44.411 117.53 44.747 118.186C45.083 118.834 45.251 119.586 45.251 120.442C45.251 121.306 45.083 122.066 44.747 122.722C44.411 123.37 43.939 123.878 43.331 124.246C42.731 124.606 42.027 124.786 41.219 124.786ZM41.219 123.718C41.787 123.718 42.279 123.586 42.695 123.322C43.119 123.058 43.447 122.682 43.679 122.194C43.911 121.706 44.027 121.122 44.027 120.442C44.027 119.762 43.911 119.178 43.679 118.69C43.447 118.202 43.119 117.83 42.695 117.574C42.279 117.31 41.787 117.178 41.219 117.178C40.659 117.178 40.167 117.31 39.743 117.574C39.327 117.83 39.003 118.202 38.771 118.69C38.539 119.178 38.423 119.762 38.423 120.442C38.423 121.122 38.539 121.706 38.771 122.194C39.003 122.682 39.327 123.058 39.743 123.322C40.167 123.586 40.659 123.718 41.219 123.718ZM51.4465 124.786C50.8385 124.786 50.3025 124.678 49.8385 124.462C49.3745 124.238 49.0145 123.926 48.7585 123.526C48.5025 123.126 48.3705 122.658 48.3625 122.122H49.6345C49.6345 122.426 49.7025 122.706 49.8385 122.962C49.9825 123.21 50.1865 123.41 50.4505 123.562C50.7225 123.706 51.0545 123.778 51.4465 123.778C51.7825 123.778 52.0705 123.722 52.3105 123.61C52.5585 123.498 52.7465 123.346 52.8745 123.154C53.0025 122.954 53.0665 122.726 53.0665 122.47C53.0665 122.182 53.0025 121.946 52.8745 121.762C52.7465 121.57 52.5665 121.41 52.3345 121.282C52.1105 121.154 51.8505 121.042 51.5545 120.946C51.2665 120.85 50.9545 120.746 50.6185 120.634C49.9385 120.41 49.4345 120.126 49.1065 119.782C48.7865 119.438 48.6265 118.99 48.6265 118.438C48.6265 117.966 48.7345 117.558 48.9505 117.214C49.1745 116.862 49.4905 116.59 49.8985 116.398C50.3065 116.198 50.7825 116.098 51.3265 116.098C51.8785 116.098 52.3545 116.198 52.7545 116.398C53.1625 116.598 53.4825 116.874 53.7145 117.226C53.9465 117.578 54.0665 117.99 54.0745 118.462H52.8025C52.8025 118.246 52.7425 118.034 52.6225 117.826C52.5105 117.618 52.3425 117.45 52.1185 117.322C51.9025 117.186 51.6305 117.118 51.3025 117.118C51.0225 117.11 50.7745 117.154 50.5585 117.25C50.3425 117.346 50.1745 117.486 50.0545 117.67C49.9345 117.854 49.8745 118.074 49.8745 118.33C49.8745 118.586 49.9305 118.794 50.0425 118.954C50.1545 119.106 50.3105 119.238 50.5105 119.35C50.7185 119.462 50.9625 119.566 51.2425 119.662C51.5225 119.75 51.8305 119.85 52.1665 119.962C52.5745 120.098 52.9425 120.266 53.2705 120.466C53.5985 120.658 53.8545 120.91 54.0385 121.222C54.2305 121.526 54.3265 121.918 54.3265 122.398C54.3265 122.814 54.2185 123.202 54.0025 123.562C53.7865 123.922 53.4665 124.218 53.0425 124.45C52.6185 124.674 52.0865 124.786 51.4465 124.786ZM59.5686 124.642V117.226H57.0726V116.242H63.2526V117.226H60.7686V124.642H59.5686ZM65.0255 124.642L68.1215 116.242H69.4295L72.5015 124.642H71.2295L68.7575 117.682L66.2855 124.642H65.0255ZM66.4295 122.566L66.7535 121.606H70.7135L71.0375 122.566H66.4295ZM75.722 124.642V116.242H76.922V123.694H80.762V124.642H75.722ZM87.0413 124.786C86.2573 124.786 85.5693 124.606 84.9773 124.246C84.3853 123.886 83.9253 123.382 83.5973 122.734C83.2693 122.086 83.1053 121.33 83.1053 120.466C83.1053 119.61 83.2693 118.854 83.5973 118.198C83.9333 117.542 84.4093 117.03 85.0253 116.662C85.6493 116.286 86.3813 116.098 87.2213 116.098C88.1813 116.098 88.9813 116.33 89.6213 116.794C90.2613 117.25 90.6693 117.886 90.8453 118.702H89.4893C89.3693 118.238 89.1133 117.874 88.7213 117.61C88.3373 117.338 87.8373 117.202 87.2213 117.202C86.6293 117.202 86.1133 117.334 85.6733 117.598C85.2413 117.862 84.9093 118.238 84.6773 118.726C84.4453 119.214 84.3293 119.794 84.3293 120.466C84.3293 121.146 84.4453 121.73 84.6773 122.218C84.9093 122.706 85.2333 123.078 85.6493 123.334C86.0733 123.59 86.5653 123.718 87.1253 123.718C87.9653 123.718 88.6013 123.474 89.0333 122.986C89.4653 122.498 89.7173 121.846 89.7893 121.03H87.4733V120.106H91.0013V124.642H89.8973L89.8013 123.358C89.6093 123.67 89.3853 123.934 89.1293 124.15C88.8813 124.358 88.5853 124.518 88.2413 124.63C87.9053 124.734 87.5053 124.786 87.0413 124.786ZM94.6048 124.642V116.242H95.8048V124.642H94.6048ZM99.0294 124.642L102.125 116.242H103.433L106.505 124.642H105.233L102.761 117.682L100.289 124.642H99.0294ZM100.433 122.566L100.757 121.606H104.717L105.041 122.566H100.433Z" fill="white"/>
</g>
<defs>
<linearGradient id="paint0_linear_2945_7031" x1="-48" y1="119" x2="133.119" y2="119.136" gradientUnits="userSpaceOnUse">
<stop stop-color="#FAC286"/>
<stop offset="1" stop-color="#A82846"/>
</linearGradient>
<clipPath id="clip0_2945_7031">
<rect width="132" height="132" fill="white"/>
</clipPath>
</defs>
</svg>
