<svg width="132" height="132" viewBox="0 0 132 132" fill="none" xmlns="http://www.w3.org/2000/svg">
<g clip-path="url(#clip0_2945_7264)">
<rect width="132" height="132" fill="black"/>
<g filter="url(#filter0_d_2945_7264)">
<circle cx="124.845" cy="101.964" r="15.2692" transform="rotate(-137.974 124.845 101.964)" fill="#F3FF06"/>
</g>
<g filter="url(#filter1_d_2945_7264)">
<circle cx="92.7245" cy="79.9459" r="15.2692" transform="rotate(-137.974 92.7245 79.9459)" fill="#F3FF06"/>
</g>
<g filter="url(#filter2_d_2945_7264)">
<circle cx="89.7245" cy="123.946" r="15.2692" transform="rotate(-137.974 89.7245 123.946)" fill="#F3FF06"/>
</g>
<g filter="url(#filter3_d_2945_7264)">
<circle cx="36.7245" cy="134.946" r="15.2692" transform="rotate(-137.974 36.7245 134.946)" fill="#F3FF06"/>
</g>
<g filter="url(#filter4_d_2945_7264)">
<circle cx="58.3869" cy="101.524" r="14.1798" transform="rotate(-137.974 58.3869 101.524)" fill="#F3FF06"/>
</g>
<g filter="url(#filter5_d_2945_7264)">
<circle cx="5.38694" cy="112.524" r="14.1798" transform="rotate(-137.974 5.38694 112.524)" fill="#F3FF06"/>
</g>
<rect y="106.271" width="133.119" height="25.7288" fill="url(#paint0_linear_2945_7264)"/>
<path d="M9.3548 124.642V116.242H12.2108C12.8828 116.242 13.4348 116.354 13.8668 116.578C14.3068 116.802 14.6308 117.106 14.8388 117.49C15.0468 117.866 15.1508 118.298 15.1508 118.786C15.1508 119.25 15.0468 119.674 14.8388 120.058C14.6308 120.442 14.3108 120.75 13.8788 120.982C13.4468 121.206 12.8908 121.318 12.2108 121.318H10.5548V124.642H9.3548ZM10.5548 120.322H12.1628C12.8028 120.322 13.2548 120.182 13.5188 119.902C13.7908 119.622 13.9268 119.25 13.9268 118.786C13.9268 118.298 13.7908 117.918 13.5188 117.646C13.2548 117.374 12.8028 117.238 12.1628 117.238H10.5548V120.322ZM23.8081 124.642V116.242H25.0081V124.642H23.8081ZM18.4681 124.642V116.242H19.6681V124.642H18.4681ZM19.4641 120.85V119.866H24.0721V120.85H19.4641ZM28.7884 124.642V116.242H29.9884V124.642H28.7884ZM33.765 124.642V116.242H34.965V123.694H38.805V124.642H33.765ZM45.1683 124.786C44.3763 124.786 43.6763 124.606 43.0683 124.246C42.4683 123.878 41.9963 123.37 41.6523 122.722C41.3163 122.066 41.1483 121.306 41.1483 120.442C41.1483 119.586 41.3163 118.834 41.6523 118.186C41.9963 117.53 42.4683 117.018 43.0683 116.65C43.6763 116.282 44.3763 116.098 45.1683 116.098C45.9763 116.098 46.6803 116.282 47.2803 116.65C47.8883 117.018 48.3603 117.53 48.6963 118.186C49.0323 118.834 49.2003 119.586 49.2003 120.442C49.2003 121.306 49.0323 122.066 48.6963 122.722C48.3603 123.37 47.8883 123.878 47.2803 124.246C46.6803 124.606 45.9763 124.786 45.1683 124.786ZM45.1683 123.718C45.7363 123.718 46.2283 123.586 46.6443 123.322C47.0683 123.058 47.3963 122.682 47.6283 122.194C47.8603 121.706 47.9763 121.122 47.9763 120.442C47.9763 119.762 47.8603 119.178 47.6283 118.69C47.3963 118.202 47.0683 117.83 46.6443 117.574C46.2283 117.31 45.7363 117.178 45.1683 117.178C44.6083 117.178 44.1163 117.31 43.6923 117.574C43.2763 117.83 42.9523 118.202 42.7203 118.69C42.4883 119.178 42.3723 119.762 42.3723 120.442C42.3723 121.122 42.4883 121.706 42.7203 122.194C42.9523 122.682 43.2763 123.058 43.6923 123.322C44.1163 123.586 44.6083 123.718 45.1683 123.718ZM55.3958 124.786C54.7878 124.786 54.2518 124.678 53.7878 124.462C53.3238 124.238 52.9638 123.926 52.7078 123.526C52.4518 123.126 52.3198 122.658 52.3118 122.122H53.5838C53.5838 122.426 53.6518 122.706 53.7878 122.962C53.9318 123.21 54.1358 123.41 54.3998 123.562C54.6718 123.706 55.0038 123.778 55.3958 123.778C55.7318 123.778 56.0198 123.722 56.2598 123.61C56.5078 123.498 56.6958 123.346 56.8238 123.154C56.9518 122.954 57.0158 122.726 57.0158 122.47C57.0158 122.182 56.9518 121.946 56.8238 121.762C56.6958 121.57 56.5158 121.41 56.2838 121.282C56.0598 121.154 55.7998 121.042 55.5038 120.946C55.2158 120.85 54.9038 120.746 54.5678 120.634C53.8878 120.41 53.3838 120.126 53.0558 119.782C52.7358 119.438 52.5758 118.99 52.5758 118.438C52.5758 117.966 52.6838 117.558 52.8998 117.214C53.1238 116.862 53.4398 116.59 53.8478 116.398C54.2558 116.198 54.7318 116.098 55.2758 116.098C55.8278 116.098 56.3038 116.198 56.7038 116.398C57.1118 116.598 57.4318 116.874 57.6638 117.226C57.8958 117.578 58.0158 117.99 58.0238 118.462H56.7518C56.7518 118.246 56.6918 118.034 56.5718 117.826C56.4598 117.618 56.2918 117.45 56.0678 117.322C55.8518 117.186 55.5798 117.118 55.2518 117.118C54.9718 117.11 54.7238 117.154 54.5078 117.25C54.2918 117.346 54.1238 117.486 54.0038 117.67C53.8838 117.854 53.8238 118.074 53.8238 118.33C53.8238 118.586 53.8798 118.794 53.9918 118.954C54.1038 119.106 54.2598 119.238 54.4598 119.35C54.6678 119.462 54.9118 119.566 55.1918 119.662C55.4718 119.75 55.7798 119.85 56.1158 119.962C56.5238 120.098 56.8918 120.266 57.2198 120.466C57.5478 120.658 57.8038 120.91 57.9878 121.222C58.1798 121.526 58.2758 121.918 58.2758 122.398C58.2758 122.814 58.1678 123.202 57.9518 123.562C57.7358 123.922 57.4158 124.218 56.9918 124.45C56.5678 124.674 56.0358 124.786 55.3958 124.786ZM65.4339 124.786C64.6419 124.786 63.9419 124.606 63.3339 124.246C62.7339 123.878 62.2619 123.37 61.9179 122.722C61.5819 122.066 61.4139 121.306 61.4139 120.442C61.4139 119.586 61.5819 118.834 61.9179 118.186C62.2619 117.53 62.7339 117.018 63.3339 116.65C63.9419 116.282 64.6419 116.098 65.4339 116.098C66.2419 116.098 66.9459 116.282 67.5459 116.65C68.1539 117.018 68.6259 117.53 68.9619 118.186C69.2979 118.834 69.4659 119.586 69.4659 120.442C69.4659 121.306 69.2979 122.066 68.9619 122.722C68.6259 123.37 68.1539 123.878 67.5459 124.246C66.9459 124.606 66.2419 124.786 65.4339 124.786ZM65.4339 123.718C66.0019 123.718 66.4939 123.586 66.9099 123.322C67.3339 123.058 67.6619 122.682 67.8939 122.194C68.1259 121.706 68.2419 121.122 68.2419 120.442C68.2419 119.762 68.1259 119.178 67.8939 118.69C67.6619 118.202 67.3339 117.83 66.9099 117.574C66.4939 117.31 66.0019 117.178 65.4339 117.178C64.8739 117.178 64.3819 117.31 63.9579 117.574C63.5419 117.83 63.2179 118.202 62.9859 118.69C62.7539 119.178 62.6379 119.762 62.6379 120.442C62.6379 121.122 62.7539 121.706 62.9859 122.194C63.2179 122.682 63.5419 123.058 63.9579 123.322C64.3819 123.586 64.8739 123.718 65.4339 123.718ZM72.9134 124.642V116.242H75.7694C76.4414 116.242 76.9934 116.354 77.4254 116.578C77.8654 116.802 78.1894 117.106 78.3974 117.49C78.6054 117.866 78.7094 118.298 78.7094 118.786C78.7094 119.25 78.6054 119.674 78.3974 120.058C78.1894 120.442 77.8694 120.75 77.4374 120.982C77.0054 121.206 76.4494 121.318 75.7694 121.318H74.1134V124.642H72.9134ZM74.1134 120.322H75.7214C76.3614 120.322 76.8134 120.182 77.0774 119.902C77.3494 119.622 77.4854 119.25 77.4854 118.786C77.4854 118.298 77.3494 117.918 77.0774 117.646C76.8134 117.374 76.3614 117.238 75.7214 117.238H74.1134V120.322ZM87.3667 124.642V116.242H88.5667V124.642H87.3667ZM82.0267 124.642V116.242H83.2267V124.642H82.0267ZM83.0227 120.85V119.866H87.6307V120.85H83.0227ZM92.347 124.642V116.242H93.547V124.642H92.347ZM100.972 124.786C100.156 124.786 99.4515 124.606 98.8595 124.246C98.2675 123.878 97.8115 123.37 97.4915 122.722C97.1715 122.066 97.0115 121.306 97.0115 120.442C97.0115 119.586 97.1715 118.83 97.4915 118.174C97.8115 117.518 98.2675 117.01 98.8595 116.65C99.4515 116.282 100.156 116.098 100.972 116.098C101.948 116.098 102.74 116.334 103.348 116.806C103.956 117.278 104.344 117.942 104.512 118.798H103.204C103.076 118.302 102.828 117.906 102.46 117.61C102.092 117.314 101.592 117.166 100.96 117.166C100.408 117.166 99.9235 117.298 99.5075 117.562C99.0995 117.826 98.7835 118.202 98.5595 118.69C98.3435 119.178 98.2355 119.762 98.2355 120.442C98.2355 121.122 98.3435 121.71 98.5595 122.206C98.7835 122.694 99.0995 123.07 99.5075 123.334C99.9235 123.59 100.408 123.718 100.96 123.718C101.592 123.718 102.092 123.578 102.46 123.298C102.828 123.01 103.076 122.622 103.204 122.134H104.512C104.344 122.966 103.956 123.618 103.348 124.09C102.74 124.554 101.948 124.786 100.972 124.786ZM107.256 124.642L110.352 116.242H111.66L114.732 124.642H113.46L110.988 117.682L108.516 124.642H107.256ZM108.66 122.566L108.984 121.606H112.944L113.268 122.566H108.66ZM117.952 124.642V116.242H119.152V123.694H122.992V124.642H117.952Z" fill="white"/>
<g filter="url(#filter6_d_2945_7264)">
<circle cx="27.0261" cy="80.026" r="14.1798" transform="rotate(-137.974 27.0261 80.026)" fill="#F3FF06"/>
</g>
<g filter="url(#filter7_d_2945_7264)">
<circle cx="130.845" cy="61.9644" r="15.2692" transform="rotate(-137.974 130.845 61.9644)" fill="#F3FF06"/>
</g>
<g filter="url(#filter8_d_2945_7264)">
<circle cx="121.845" cy="145.964" r="15.2692" transform="rotate(-137.974 121.845 145.964)" fill="#F3FF06"/>
</g>
<g filter="url(#filter9_d_2945_7264)">
<circle cx="-1.9739" cy="56.026" r="14.1798" transform="rotate(-137.974 -1.9739 56.026)" fill="#F3FF06"/>
</g>
<g filter="url(#filter10_d_2945_7264)">
<circle cx="135.724" cy="25.9459" r="15.2692" transform="rotate(-137.974 135.724 25.9459)" fill="#F3FF06"/>
</g>
<g filter="url(#filter11_d_2945_7264)">
<circle cx="98.7245" cy="39.9459" r="15.2692" transform="rotate(-137.974 98.7245 39.9459)" fill="#F3FF06"/>
</g>
<g filter="url(#filter12_d_2945_7264)">
<circle cx="104.387" cy="3.52359" r="14.1798" transform="rotate(-137.974 104.387 3.52359)" fill="#F3FF06"/>
</g>
<g filter="url(#filter13_d_2945_7264)">
<circle cx="67.3869" cy="17.5236" r="14.1798" transform="rotate(-137.974 67.3869 17.5236)" fill="#F3FF06"/>
</g>
<g filter="url(#filter14_d_2945_7264)">
<circle cx="61.3869" cy="57.5236" r="14.1798" transform="rotate(-137.974 61.3869 57.5236)" fill="#F3FF06"/>
</g>
<circle cx="73.0261" cy="-17.974" r="14.1798" transform="rotate(-137.974 73.0261 -17.974)" fill="#F3FF06"/>
<g filter="url(#filter16_d_2945_7264)">
<circle cx="36.0261" cy="-3.97397" r="14.1798" transform="rotate(-137.974 36.0261 -3.97397)" fill="#F3FF06"/>
</g>
<g filter="url(#filter17_d_2945_7264)">
<circle cx="30.0261" cy="36.026" r="14.1798" transform="rotate(-137.974 30.0261 36.026)" fill="#F3FF06"/>
</g>
<g filter="url(#filter18_d_2945_7264)">
<circle cx="1.0261" cy="12.026" r="14.1798" transform="rotate(-137.974 1.0261 12.026)" fill="#F3FF06"/>
</g>
</g>
<defs>
<filter id="filter0_d_2945_7264" x="106.852" y="86.6951" width="33.2623" height="31.7303" filterUnits="userSpaceOnUse" color-interpolation-filters="sRGB">
<feFlood flood-opacity="0" result="BackgroundImageFix"/>
<feColorMatrix in="SourceAlpha" type="matrix" values="0 0 0 0 0 0 0 0 0 0 0 0 0 0 0 0 0 0 127 0" result="hardAlpha"/>
<feOffset dx="-2.72349" dy="1.19153"/>
<feComposite in2="hardAlpha" operator="out"/>
<feColorMatrix type="matrix" values="0 0 0 0 0.427451 0 0 0 0 0.0823529 0 0 0 0 0.74902 0 0 0 1 0"/>
<feBlend mode="normal" in2="BackgroundImageFix" result="effect1_dropShadow_2945_7264"/>
<feBlend mode="normal" in="SourceGraphic" in2="effect1_dropShadow_2945_7264" result="shape"/>
</filter>
<filter id="filter1_d_2945_7264" x="74.7316" y="64.6765" width="33.2623" height="31.7303" filterUnits="userSpaceOnUse" color-interpolation-filters="sRGB">
<feFlood flood-opacity="0" result="BackgroundImageFix"/>
<feColorMatrix in="SourceAlpha" type="matrix" values="0 0 0 0 0 0 0 0 0 0 0 0 0 0 0 0 0 0 127 0" result="hardAlpha"/>
<feOffset dx="-2.72349" dy="1.19153"/>
<feComposite in2="hardAlpha" operator="out"/>
<feColorMatrix type="matrix" values="0 0 0 0 0.427451 0 0 0 0 0.0823529 0 0 0 0 0.74902 0 0 0 1 0"/>
<feBlend mode="normal" in2="BackgroundImageFix" result="effect1_dropShadow_2945_7264"/>
<feBlend mode="normal" in="SourceGraphic" in2="effect1_dropShadow_2945_7264" result="shape"/>
</filter>
<filter id="filter2_d_2945_7264" x="71.7316" y="108.677" width="33.2623" height="31.7303" filterUnits="userSpaceOnUse" color-interpolation-filters="sRGB">
<feFlood flood-opacity="0" result="BackgroundImageFix"/>
<feColorMatrix in="SourceAlpha" type="matrix" values="0 0 0 0 0 0 0 0 0 0 0 0 0 0 0 0 0 0 127 0" result="hardAlpha"/>
<feOffset dx="-2.72349" dy="1.19153"/>
<feComposite in2="hardAlpha" operator="out"/>
<feColorMatrix type="matrix" values="0 0 0 0 0.427451 0 0 0 0 0.0823529 0 0 0 0 0.74902 0 0 0 1 0"/>
<feBlend mode="normal" in2="BackgroundImageFix" result="effect1_dropShadow_2945_7264"/>
<feBlend mode="normal" in="SourceGraphic" in2="effect1_dropShadow_2945_7264" result="shape"/>
</filter>
<filter id="filter3_d_2945_7264" x="18.7316" y="119.677" width="33.2623" height="31.7303" filterUnits="userSpaceOnUse" color-interpolation-filters="sRGB">
<feFlood flood-opacity="0" result="BackgroundImageFix"/>
<feColorMatrix in="SourceAlpha" type="matrix" values="0 0 0 0 0 0 0 0 0 0 0 0 0 0 0 0 0 0 127 0" result="hardAlpha"/>
<feOffset dx="-2.72349" dy="1.19153"/>
<feComposite in2="hardAlpha" operator="out"/>
<feColorMatrix type="matrix" values="0 0 0 0 0.427451 0 0 0 0 0.0823529 0 0 0 0 0.74902 0 0 0 1 0"/>
<feBlend mode="normal" in2="BackgroundImageFix" result="effect1_dropShadow_2945_7264"/>
<feBlend mode="normal" in="SourceGraphic" in2="effect1_dropShadow_2945_7264" result="shape"/>
</filter>
<filter id="filter4_d_2945_7264" x="41.4835" y="87.3438" width="31.0834" height="29.5511" filterUnits="userSpaceOnUse" color-interpolation-filters="sRGB">
<feFlood flood-opacity="0" result="BackgroundImageFix"/>
<feColorMatrix in="SourceAlpha" type="matrix" values="0 0 0 0 0 0 0 0 0 0 0 0 0 0 0 0 0 0 127 0" result="hardAlpha"/>
<feOffset dx="-2.72349" dy="1.19153"/>
<feComposite in2="hardAlpha" operator="out"/>
<feColorMatrix type="matrix" values="0 0 0 0 0.427451 0 0 0 0 0.0823529 0 0 0 0 0.74902 0 0 0 1 0"/>
<feBlend mode="normal" in2="BackgroundImageFix" result="effect1_dropShadow_2945_7264"/>
<feBlend mode="normal" in="SourceGraphic" in2="effect1_dropShadow_2945_7264" result="shape"/>
</filter>
<filter id="filter5_d_2945_7264" x="-11.5165" y="98.344" width="31.0834" height="29.5511" filterUnits="userSpaceOnUse" color-interpolation-filters="sRGB">
<feFlood flood-opacity="0" result="BackgroundImageFix"/>
<feColorMatrix in="SourceAlpha" type="matrix" values="0 0 0 0 0 0 0 0 0 0 0 0 0 0 0 0 0 0 127 0" result="hardAlpha"/>
<feOffset dx="-2.72349" dy="1.19153"/>
<feComposite in2="hardAlpha" operator="out"/>
<feColorMatrix type="matrix" values="0 0 0 0 0.427451 0 0 0 0 0.0823529 0 0 0 0 0.74902 0 0 0 1 0"/>
<feBlend mode="normal" in2="BackgroundImageFix" result="effect1_dropShadow_2945_7264"/>
<feBlend mode="normal" in="SourceGraphic" in2="effect1_dropShadow_2945_7264" result="shape"/>
</filter>
<filter id="filter6_d_2945_7264" x="10.1227" y="65.8462" width="31.0834" height="29.5511" filterUnits="userSpaceOnUse" color-interpolation-filters="sRGB">
<feFlood flood-opacity="0" result="BackgroundImageFix"/>
<feColorMatrix in="SourceAlpha" type="matrix" values="0 0 0 0 0 0 0 0 0 0 0 0 0 0 0 0 0 0 127 0" result="hardAlpha"/>
<feOffset dx="-2.72349" dy="1.19153"/>
<feComposite in2="hardAlpha" operator="out"/>
<feColorMatrix type="matrix" values="0 0 0 0 0.427451 0 0 0 0 0.0823529 0 0 0 0 0.74902 0 0 0 1 0"/>
<feBlend mode="normal" in2="BackgroundImageFix" result="effect1_dropShadow_2945_7264"/>
<feBlend mode="normal" in="SourceGraphic" in2="effect1_dropShadow_2945_7264" result="shape"/>
</filter>
<filter id="filter7_d_2945_7264" x="112.852" y="46.6951" width="33.2623" height="31.7303" filterUnits="userSpaceOnUse" color-interpolation-filters="sRGB">
<feFlood flood-opacity="0" result="BackgroundImageFix"/>
<feColorMatrix in="SourceAlpha" type="matrix" values="0 0 0 0 0 0 0 0 0 0 0 0 0 0 0 0 0 0 127 0" result="hardAlpha"/>
<feOffset dx="-2.72349" dy="1.19153"/>
<feComposite in2="hardAlpha" operator="out"/>
<feColorMatrix type="matrix" values="0 0 0 0 0.427451 0 0 0 0 0.0823529 0 0 0 0 0.74902 0 0 0 1 0"/>
<feBlend mode="normal" in2="BackgroundImageFix" result="effect1_dropShadow_2945_7264"/>
<feBlend mode="normal" in="SourceGraphic" in2="effect1_dropShadow_2945_7264" result="shape"/>
</filter>
<filter id="filter8_d_2945_7264" x="103.852" y="130.695" width="33.2623" height="31.7303" filterUnits="userSpaceOnUse" color-interpolation-filters="sRGB">
<feFlood flood-opacity="0" result="BackgroundImageFix"/>
<feColorMatrix in="SourceAlpha" type="matrix" values="0 0 0 0 0 0 0 0 0 0 0 0 0 0 0 0 0 0 127 0" result="hardAlpha"/>
<feOffset dx="-2.72349" dy="1.19153"/>
<feComposite in2="hardAlpha" operator="out"/>
<feColorMatrix type="matrix" values="0 0 0 0 0.427451 0 0 0 0 0.0823529 0 0 0 0 0.74902 0 0 0 1 0"/>
<feBlend mode="normal" in2="BackgroundImageFix" result="effect1_dropShadow_2945_7264"/>
<feBlend mode="normal" in="SourceGraphic" in2="effect1_dropShadow_2945_7264" result="shape"/>
</filter>
<filter id="filter9_d_2945_7264" x="-18.8773" y="41.8462" width="31.0834" height="29.5511" filterUnits="userSpaceOnUse" color-interpolation-filters="sRGB">
<feFlood flood-opacity="0" result="BackgroundImageFix"/>
<feColorMatrix in="SourceAlpha" type="matrix" values="0 0 0 0 0 0 0 0 0 0 0 0 0 0 0 0 0 0 127 0" result="hardAlpha"/>
<feOffset dx="-2.72349" dy="1.19153"/>
<feComposite in2="hardAlpha" operator="out"/>
<feColorMatrix type="matrix" values="0 0 0 0 0.427451 0 0 0 0 0.0823529 0 0 0 0 0.74902 0 0 0 1 0"/>
<feBlend mode="normal" in2="BackgroundImageFix" result="effect1_dropShadow_2945_7264"/>
<feBlend mode="normal" in="SourceGraphic" in2="effect1_dropShadow_2945_7264" result="shape"/>
</filter>
<filter id="filter10_d_2945_7264" x="117.732" y="10.6765" width="33.2623" height="31.7303" filterUnits="userSpaceOnUse" color-interpolation-filters="sRGB">
<feFlood flood-opacity="0" result="BackgroundImageFix"/>
<feColorMatrix in="SourceAlpha" type="matrix" values="0 0 0 0 0 0 0 0 0 0 0 0 0 0 0 0 0 0 127 0" result="hardAlpha"/>
<feOffset dx="-2.72349" dy="1.19153"/>
<feComposite in2="hardAlpha" operator="out"/>
<feColorMatrix type="matrix" values="0 0 0 0 0.427451 0 0 0 0 0.0823529 0 0 0 0 0.74902 0 0 0 1 0"/>
<feBlend mode="normal" in2="BackgroundImageFix" result="effect1_dropShadow_2945_7264"/>
<feBlend mode="normal" in="SourceGraphic" in2="effect1_dropShadow_2945_7264" result="shape"/>
</filter>
<filter id="filter11_d_2945_7264" x="80.7316" y="24.6765" width="33.2623" height="31.7303" filterUnits="userSpaceOnUse" color-interpolation-filters="sRGB">
<feFlood flood-opacity="0" result="BackgroundImageFix"/>
<feColorMatrix in="SourceAlpha" type="matrix" values="0 0 0 0 0 0 0 0 0 0 0 0 0 0 0 0 0 0 127 0" result="hardAlpha"/>
<feOffset dx="-2.72349" dy="1.19153"/>
<feComposite in2="hardAlpha" operator="out"/>
<feColorMatrix type="matrix" values="0 0 0 0 0.427451 0 0 0 0 0.0823529 0 0 0 0 0.74902 0 0 0 1 0"/>
<feBlend mode="normal" in2="BackgroundImageFix" result="effect1_dropShadow_2945_7264"/>
<feBlend mode="normal" in="SourceGraphic" in2="effect1_dropShadow_2945_7264" result="shape"/>
</filter>
<filter id="filter12_d_2945_7264" x="87.4835" y="-10.6562" width="31.0834" height="29.5511" filterUnits="userSpaceOnUse" color-interpolation-filters="sRGB">
<feFlood flood-opacity="0" result="BackgroundImageFix"/>
<feColorMatrix in="SourceAlpha" type="matrix" values="0 0 0 0 0 0 0 0 0 0 0 0 0 0 0 0 0 0 127 0" result="hardAlpha"/>
<feOffset dx="-2.72349" dy="1.19153"/>
<feComposite in2="hardAlpha" operator="out"/>
<feColorMatrix type="matrix" values="0 0 0 0 0.427451 0 0 0 0 0.0823529 0 0 0 0 0.74902 0 0 0 1 0"/>
<feBlend mode="normal" in2="BackgroundImageFix" result="effect1_dropShadow_2945_7264"/>
<feBlend mode="normal" in="SourceGraphic" in2="effect1_dropShadow_2945_7264" result="shape"/>
</filter>
<filter id="filter13_d_2945_7264" x="50.4835" y="3.34375" width="31.0834" height="29.5511" filterUnits="userSpaceOnUse" color-interpolation-filters="sRGB">
<feFlood flood-opacity="0" result="BackgroundImageFix"/>
<feColorMatrix in="SourceAlpha" type="matrix" values="0 0 0 0 0 0 0 0 0 0 0 0 0 0 0 0 0 0 127 0" result="hardAlpha"/>
<feOffset dx="-2.72349" dy="1.19153"/>
<feComposite in2="hardAlpha" operator="out"/>
<feColorMatrix type="matrix" values="0 0 0 0 0.427451 0 0 0 0 0.0823529 0 0 0 0 0.74902 0 0 0 1 0"/>
<feBlend mode="normal" in2="BackgroundImageFix" result="effect1_dropShadow_2945_7264"/>
<feBlend mode="normal" in="SourceGraphic" in2="effect1_dropShadow_2945_7264" result="shape"/>
</filter>
<filter id="filter14_d_2945_7264" x="44.4835" y="43.3438" width="31.0834" height="29.5511" filterUnits="userSpaceOnUse" color-interpolation-filters="sRGB">
<feFlood flood-opacity="0" result="BackgroundImageFix"/>
<feColorMatrix in="SourceAlpha" type="matrix" values="0 0 0 0 0 0 0 0 0 0 0 0 0 0 0 0 0 0 127 0" result="hardAlpha"/>
<feOffset dx="-2.72349" dy="1.19153"/>
<feComposite in2="hardAlpha" operator="out"/>
<feColorMatrix type="matrix" values="0 0 0 0 0.427451 0 0 0 0 0.0823529 0 0 0 0 0.74902 0 0 0 1 0"/>
<feBlend mode="normal" in2="BackgroundImageFix" result="effect1_dropShadow_2945_7264"/>
<feBlend mode="normal" in="SourceGraphic" in2="effect1_dropShadow_2945_7264" result="shape"/>
</filter>
<filter id="filter16_d_2945_7264" x="19.1227" y="-18.1538" width="31.0834" height="29.5511" filterUnits="userSpaceOnUse" color-interpolation-filters="sRGB">
<feFlood flood-opacity="0" result="BackgroundImageFix"/>
<feColorMatrix in="SourceAlpha" type="matrix" values="0 0 0 0 0 0 0 0 0 0 0 0 0 0 0 0 0 0 127 0" result="hardAlpha"/>
<feOffset dx="-2.72349" dy="1.19153"/>
<feComposite in2="hardAlpha" operator="out"/>
<feColorMatrix type="matrix" values="0 0 0 0 0.427451 0 0 0 0 0.0823529 0 0 0 0 0.74902 0 0 0 1 0"/>
<feBlend mode="normal" in2="BackgroundImageFix" result="effect1_dropShadow_2945_7264"/>
<feBlend mode="normal" in="SourceGraphic" in2="effect1_dropShadow_2945_7264" result="shape"/>
</filter>
<filter id="filter17_d_2945_7264" x="13.1227" y="21.8462" width="31.0834" height="29.5511" filterUnits="userSpaceOnUse" color-interpolation-filters="sRGB">
<feFlood flood-opacity="0" result="BackgroundImageFix"/>
<feColorMatrix in="SourceAlpha" type="matrix" values="0 0 0 0 0 0 0 0 0 0 0 0 0 0 0 0 0 0 127 0" result="hardAlpha"/>
<feOffset dx="-2.72349" dy="1.19153"/>
<feComposite in2="hardAlpha" operator="out"/>
<feColorMatrix type="matrix" values="0 0 0 0 0.427451 0 0 0 0 0.0823529 0 0 0 0 0.74902 0 0 0 1 0"/>
<feBlend mode="normal" in2="BackgroundImageFix" result="effect1_dropShadow_2945_7264"/>
<feBlend mode="normal" in="SourceGraphic" in2="effect1_dropShadow_2945_7264" result="shape"/>
</filter>
<filter id="filter18_d_2945_7264" x="-15.8773" y="-2.15381" width="31.0834" height="29.5511" filterUnits="userSpaceOnUse" color-interpolation-filters="sRGB">
<feFlood flood-opacity="0" result="BackgroundImageFix"/>
<feColorMatrix in="SourceAlpha" type="matrix" values="0 0 0 0 0 0 0 0 0 0 0 0 0 0 0 0 0 0 127 0" result="hardAlpha"/>
<feOffset dx="-2.72349" dy="1.19153"/>
<feComposite in2="hardAlpha" operator="out"/>
<feColorMatrix type="matrix" values="0 0 0 0 0.427451 0 0 0 0 0.0823529 0 0 0 0 0.74902 0 0 0 1 0"/>
<feBlend mode="normal" in2="BackgroundImageFix" result="effect1_dropShadow_2945_7264"/>
<feBlend mode="normal" in="SourceGraphic" in2="effect1_dropShadow_2945_7264" result="shape"/>
</filter>
<linearGradient id="paint0_linear_2945_7264" x1="0" y1="119.136" x2="133.119" y2="119.136" gradientUnits="userSpaceOnUse">
<stop stop-color="#6D15BF"/>
<stop offset="1" stop-color="#B7A818"/>
</linearGradient>
<clipPath id="clip0_2945_7264">
<rect width="132" height="132" fill="white"/>
</clipPath>
</defs>
</svg>
