<svg width="132" height="132" viewBox="0 0 132 132" fill="none" xmlns="http://www.w3.org/2000/svg">
<g clip-path="url(#clip0_2945_6761)">
<rect width="132" height="132" fill="#F16224"/>
<path d="M26.8471 126.407C89.4911 124.618 96.9488 70.4751 92.8471 43.6277L55.9318 64.3226C26.2877 68.2379 -34.2309 78.5294 -39.1529 88.3735C-44.075 98.2175 2.79621 117.831 26.8471 126.407Z" fill="#471717"/>
<rect y="106.271" width="133.119" height="25.7288" fill="url(#paint0_linear_2945_6761)"/>
<path d="M35.2005 123V114.6H38.0445C38.7085 114.6 39.2525 114.712 39.6765 114.936C40.1005 115.16 40.4125 115.46 40.6125 115.836C40.8205 116.204 40.9245 116.624 40.9245 117.096C40.9245 117.544 40.8205 117.96 40.6125 118.344C40.4125 118.72 40.0965 119.024 39.6645 119.256C39.2325 119.48 38.6805 119.592 38.0085 119.592H36.4005V123H35.2005ZM39.6165 123L37.8045 119.268H39.1245L41.0085 123H39.6165ZM36.4005 118.68H37.9725C38.5645 118.68 38.9965 118.536 39.2685 118.248C39.5485 117.952 39.6885 117.576 39.6885 117.12C39.6885 116.656 39.5525 116.288 39.2805 116.016C39.0085 115.744 38.5685 115.608 37.9605 115.608H36.4005V118.68ZM44.5013 123V114.6H49.8053V115.584H45.7013V118.272H49.4453V119.232H45.7013V122.016H49.8053V123H44.5013ZM53.3802 123V114.6H54.5802V122.052H58.4202V123H53.3802ZM61.2969 123L64.3929 114.6H65.7009L68.7729 123H67.5009L65.0289 116.04L62.5569 123H61.2969ZM62.7009 120.924L63.0249 119.964H66.9849L67.3089 120.924H62.7009ZM71.5495 123L74.1415 118.752L71.5375 114.6H72.9055L74.9095 117.792L76.7815 114.6H78.1375L75.5455 118.8L78.1615 123H76.7935L74.7895 119.76L72.9055 123H71.5495ZM81.4818 123V114.6H86.7858V115.584H82.6818V118.272H86.4258V119.232H82.6818V122.016H86.7858V123H81.4818ZM90.3607 123V114.6H92.8207C93.7967 114.6 94.6007 114.772 95.2327 115.116C95.8727 115.46 96.3447 115.948 96.6487 116.58C96.9607 117.204 97.1167 117.948 97.1167 118.812C97.1167 119.676 96.9607 120.42 96.6487 121.044C96.3447 121.668 95.8727 122.152 95.2327 122.496C94.6007 122.832 93.7967 123 92.8207 123H90.3607ZM91.5607 121.992H92.7727C93.5487 121.992 94.1607 121.864 94.6087 121.608C95.0647 121.352 95.3887 120.988 95.5807 120.516C95.7807 120.036 95.8807 119.468 95.8807 118.812C95.8807 118.148 95.7807 117.576 95.5807 117.096C95.3887 116.616 95.0647 116.248 94.6087 115.992C94.1607 115.736 93.5487 115.608 92.7727 115.608H91.5607V121.992Z" fill="white"/>
<path d="M-7.83016 78.865C-6.07689 78.865 -4.30726 78.8408 -2.5252 78.7934C-52.3298 55.5768 40.2668 45.6764 92.8478 43.6277C97.6939 60.8581 43.4473 77.5701 -2.5252 78.7934C-2.47406 78.8173 -2.42277 78.8411 -2.37132 78.865L-17.1685 84.8316C-17.5683 85.3891 -18.0634 85.7048 -19.0166 85.5768L-17.1685 84.8316C-16.0362 83.2528 -15.669 79.7348 -7.83016 78.865Z" fill="#250B0B"/>
</g>
<defs>
<linearGradient id="paint0_linear_2945_6761" x1="0" y1="119.136" x2="133.119" y2="119.136" gradientUnits="userSpaceOnUse">
<stop stop-color="#471717"/>
<stop offset="1" stop-color="#F16224"/>
</linearGradient>
<clipPath id="clip0_2945_6761">
<rect width="132" height="132" fill="white"/>
</clipPath>
</defs>
</svg>
