<svg width="140" height="140" viewBox="0 0 140 140" fill="none" xmlns="http://www.w3.org/2000/svg">
<g filter="url(#filter0_d_2945_5624)">
<g clip-path="url(#clip0_2945_5624)">
<rect width="132" height="132" transform="translate(4)" fill="#FD6363"/>
<rect x="4" y="106.271" width="133.119" height="25.7288" fill="url(#paint0_linear_2945_5624)"/>
<path d="M33.0479 123.865V115.465H35.8919C36.5559 115.465 37.0999 115.577 37.5239 115.801C37.9479 116.025 38.2599 116.325 38.4599 116.701C38.6679 117.069 38.7719 117.489 38.7719 117.961C38.7719 118.409 38.6679 118.825 38.4599 119.209C38.2599 119.585 37.9439 119.889 37.5119 120.121C37.0799 120.345 36.5279 120.457 35.8559 120.457H34.2479V123.865H33.0479ZM37.4639 123.865L35.6519 120.133H36.9719L38.8559 123.865H37.4639ZM34.2479 119.545H35.8199C36.4119 119.545 36.8439 119.401 37.1159 119.113C37.3959 118.817 37.5359 118.441 37.5359 117.985C37.5359 117.521 37.3999 117.153 37.1279 116.881C36.8559 116.609 36.4159 116.473 35.8079 116.473H34.2479V119.545ZM46.0567 124.009C45.2647 124.009 44.5647 123.829 43.9567 123.469C43.3567 123.101 42.8847 122.593 42.5407 121.945C42.2047 121.289 42.0367 120.529 42.0367 119.665C42.0367 118.809 42.2047 118.057 42.5407 117.409C42.8847 116.753 43.3567 116.241 43.9567 115.873C44.5647 115.505 45.2647 115.321 46.0567 115.321C46.8647 115.321 47.5687 115.505 48.1687 115.873C48.7767 116.241 49.2487 116.753 49.5847 117.409C49.9207 118.057 50.0887 118.809 50.0887 119.665C50.0887 120.529 49.9207 121.289 49.5847 121.945C49.2487 122.593 48.7767 123.101 48.1687 123.469C47.5687 123.829 46.8647 124.009 46.0567 124.009ZM46.0567 122.941C46.6247 122.941 47.1167 122.809 47.5327 122.545C47.9567 122.281 48.2847 121.905 48.5167 121.417C48.7487 120.929 48.8647 120.345 48.8647 119.665C48.8647 118.985 48.7487 118.401 48.5167 117.913C48.2847 117.425 47.9567 117.053 47.5327 116.797C47.1167 116.533 46.6247 116.401 46.0567 116.401C45.4967 116.401 45.0047 116.533 44.5807 116.797C44.1647 117.053 43.8407 117.425 43.6087 117.913C43.3767 118.401 43.2607 118.985 43.2607 119.665C43.2607 120.345 43.3767 120.929 43.6087 121.417C43.8407 121.905 44.1647 122.281 44.5807 122.545C45.0047 122.809 45.4967 122.941 46.0567 122.941ZM53.5362 123.865V115.465H54.9522L57.7482 121.153L60.5322 115.465H61.9482V123.865H60.7482V117.577L58.2042 122.713H57.2802L54.7362 117.601V123.865H53.5362ZM65.1795 123.865L68.2755 115.465H69.5835L72.6555 123.865H71.3835L68.9115 116.905L66.4395 123.865H65.1795ZM66.5835 121.789L66.9075 120.829H70.8675L71.1915 121.789H66.5835ZM75.876 123.865V115.465H77.076L81.36 121.909V115.465H82.56V123.865H81.36L77.076 117.421V123.865H75.876ZM88.293 123.865V116.449H85.797V115.465H91.977V116.449H89.493V123.865H88.293ZM95.2276 123.865V115.465H96.4276V123.865H95.2276ZM103.852 124.009C103.036 124.009 102.332 123.829 101.74 123.469C101.148 123.101 100.692 122.593 100.372 121.945C100.052 121.289 99.8922 120.529 99.8922 119.665C99.8922 118.809 100.052 118.053 100.372 117.397C100.692 116.741 101.148 116.233 101.74 115.873C102.332 115.505 103.036 115.321 103.852 115.321C104.828 115.321 105.62 115.557 106.228 116.029C106.836 116.501 107.224 117.165 107.392 118.021H106.084C105.956 117.525 105.708 117.129 105.34 116.833C104.972 116.537 104.472 116.389 103.84 116.389C103.288 116.389 102.804 116.521 102.388 116.785C101.98 117.049 101.664 117.425 101.44 117.913C101.224 118.401 101.116 118.985 101.116 119.665C101.116 120.345 101.224 120.933 101.44 121.429C101.664 121.917 101.98 122.293 102.388 122.557C102.804 122.813 103.288 122.941 103.84 122.941C104.472 122.941 104.972 122.801 105.34 122.521C105.708 122.233 105.956 121.845 106.084 121.357H107.392C107.224 122.189 106.836 122.841 106.228 123.313C105.62 123.777 104.828 124.009 103.852 124.009Z" fill="white"/>
<path opacity="0.4" fill-rule="evenodd" clip-rule="evenodd" d="M57.879 53.5638L57.9188 53.9401L57.9603 54.3108L58.0039 54.676L58.0498 55.0361L58.0982 55.3911L58.1491 55.7412L58.2027 56.0868L58.2591 56.428L58.3182 56.7651L58.38 57.0985L58.4445 57.4283L58.5115 57.7549L58.5809 58.0787L58.6526 58.3998L58.7263 58.7186L58.8018 59.0353L58.8788 59.3504L58.9571 59.6639L59.0362 59.9763L59.1159 60.2878L59.1958 60.5986L59.2755 60.9089L59.3546 61.219L59.4327 61.529L59.5093 61.8392L59.5841 62.1496L59.6565 62.4604L59.7262 62.7717L59.7927 63.0837L59.8555 63.3963L59.9143 63.7096L59.9685 64.0236L60.0179 64.3384L60.0619 64.6539L60.1002 64.97L60.1325 65.2867L60.1584 65.604L60.1776 65.9216L60.1898 66.2395L60.1947 66.5576L60.1923 66.8757L60.1822 67.1936L60.1643 67.5112L60.1385 67.8282L60.1048 68.1446L60.0631 68.46L60.0133 68.7744L59.9556 69.0875L59.8897 69.399L59.8159 69.7089L59.7341 70.017L59.6444 70.3229L59.5469 70.6266L59.4417 70.9279L59.3289 71.2265L59.2086 71.5223L59.081 71.8151L58.9463 72.1048L58.8046 72.3911L58.6561 72.6741L58.5011 72.9534L58.3397 73.229L58.1723 73.5008L57.9989 73.7686L57.8199 74.0324L57.6355 74.292L57.446 74.5474L57.2517 74.7986L57.0528 75.0454L56.8496 75.2878L56.6423 75.5258L56.4313 75.7594L56.2169 75.9885L55.9993 76.2132L55.7788 76.4335L55.5557 76.6493L55.3302 76.8608L55.1027 77.068L54.8734 77.2709L54.6425 77.4696L54.4104 77.6642L54.1773 77.8547L53.9434 78.0413L53.709 78.224L53.4743 78.403L53.2395 78.5784L53.0049 78.7503L52.7706 78.9188L52.5369 79.0841L52.3039 79.2463L52.0718 79.4055L51.8408 79.562L51.611 79.7158L51.3826 79.8671L51.1557 80.0161L50.9303 80.1628L50.7066 80.3075L50.4845 80.4502L50.2642 80.5911L50.0457 80.7303L49.829 80.8679L49.614 81.004L49.4008 81.1388L49.1894 81.2723L48.9798 81.4046L48.7718 81.5358L48.5656 81.6659L48.361 81.7952L48.1579 81.9235L47.9564 82.0511L47.7564 82.1779L47.5578 82.304L47.3605 82.4295L47.1645 82.5544L46.9696 82.6788L46.776 82.8026L46.5833 82.926L46.3917 83.0489L46.201 83.1714L46.0111 83.2935L45.8219 83.4152L45.6334 83.5366L45.4456 83.6576L45.2582 83.7782L45.0713 83.8986L44.8848 84.0186L44.6986 84.1383L44.5126 84.2576L44.3267 84.3766L44.141 84.4952L43.9552 84.6134L43.7693 84.7312L43.5833 84.8486L43.397 84.9655L43.2104 85.0819L43.0235 85.1977L42.8361 85.313L42.6482 85.4275L42.4597 85.5414L42.2705 85.6544L42.0807 85.7667L41.89 85.8779L41.6985 85.9882L41.5061 86.0975L41.3128 86.2055L41.1185 86.3123L40.9231 86.4178L40.7267 86.5218L40.5291 86.6243L40.3303 86.7251L40.1304 86.8242L39.9292 86.9214L39.7268 87.0166L39.5231 87.1098L39.3181 87.2008L39.1118 87.2894L38.9042 87.3756L38.6954 87.4592L38.4852 87.5402L38.2737 87.6184L38.061 87.6937L37.8471 87.766L37.6319 87.8351L37.4156 87.9011L37.1981 87.9637L36.9795 88.0229L36.7599 88.0786L36.5392 88.1307L36.3176 88.1791L36.0952 88.2238L35.8719 88.2647L35.6479 88.3017L35.4232 88.3349L35.1979 88.3641L34.972 88.3894L34.7457 88.4107L34.519 88.4281L34.2921 88.4415L34.0649 88.451L33.8375 88.4566L33.6101 88.4583L33.3827 88.4563L33.1554 88.4506L32.9282 88.4413L32.7012 88.4285L32.4744 88.4124L32.2479 88.3932L32.0218 88.3709L31.796 88.3458L31.5706 88.3182L31.3456 88.2881L31.121 88.2559L30.8967 88.2217L30.6728 88.1858L30.4492 88.1485L30.2258 88.11L30.0026 88.0706L29.7795 88.0306L29.5564 87.9901L29.3333 87.9495L29.1099 87.9091L28.8861 87.8691L28.6619 87.8297L28.437 87.7912L28.2113 87.7539L27.9846 87.718L27.7567 87.6836L27.5274 87.6511L27.2965 87.6205L27.0639 87.5921L26.8292 87.566L26.5922 87.5423L26.3528 87.5213L26.1106 87.5028L25.8656 87.4871L25.6173 87.4742L25.3657 87.464L25.1105 87.4566L24.8515 87.452L24.5885 87.4499L24.3213 87.4505L24.0498 87.4535L23.7737 87.4587L23.493 87.466L23.2075 87.4752L22.9171 87.4861L22.6217 87.4985L22.3212 87.512L22.0155 87.5266L21.7045 87.5418L21.3882 87.5576L21.0666 87.5735L20.7396 87.5893L20.4071 87.6048L20.0693 87.6195L19.7261 87.6333L19.3775 87.6458L19.0237 87.6567L18.6646 87.6656L18.3004 87.6724L17.9311 87.6765L17.5569 87.6778L17.1779 87.6758L16.7943 87.6703L16.4061 87.661L16.0137 87.6474L15.6172 87.6294L15.2167 87.6066L14.8126 87.5786L14.4051 87.5452L13.9943 87.5062L13.5807 87.4611L13.1645 87.4097L12.7459 87.3518L12.3253 87.287L11.9029 87.2153L11.4792 87.1362L11.0545 87.0496L10.629 86.9552L10.2032 86.853L9.77744 86.7426L9.35202 86.6239L8.92735 86.4968L8.50379 86.3611L8.08174 86.2167L7.66156 86.0635L7.24364 85.9014L6.82837 85.7303L6.41611 85.5501L6.00725 85.3609L5.60217 85.1625L5.20122 84.9551L4.80478 84.7385L4.41321 84.5128L4.02684 84.2781L3.64603 84.0344L3.27109 83.7818L2.90237 83.5204L2.54015 83.2503L2.18474 82.9715L1.83644 82.6843L1.49551 82.3888L1.16222 82.0851L0.836822 81.7734L0.519543 81.4539L0.210603 81.1267L-0.0897836 80.7921L-0.381428 80.4503L-0.664155 80.1015L-0.937802 79.7459L-1.20222 79.3838L-1.45728 79.0153L-1.70286 78.6408L-1.93887 78.2604L-2.16522 77.8745L-2.38182 77.4832L-2.58863 77.0868L-2.78559 76.6856L-2.97268 76.2799L-3.14987 75.8698L-3.31715 75.4557L-3.47452 75.0378L-3.62199 74.6163L-3.75958 74.1915L-3.88731 73.7637L-4.00522 73.333L-4.11333 72.8998L-4.2117 72.4642L-4.30035 72.0265L-4.37934 71.5869L-4.44871 71.1457L-4.50849 70.7031L-4.55873 70.2592L-4.59949 69.8143L-4.63085 69.3687L-4.6529 68.9225L-4.66576 68.4759L-4.66957 68.0292L-4.66446 67.5824L-4.65061 67.1359L-4.6282 66.6898L-4.59742 66.2441L-4.55848 65.7992L-4.5116 65.3552L-4.45702 64.9121L-4.39499 64.4701L-4.32576 64.0293L-4.2496 63.5898L-4.16678 63.1517L-4.07758 62.7151L-3.98229 62.28L-3.88119 61.8464L-3.77458 61.4145L-3.66275 60.9841L-3.54599 60.5554L-3.42459 60.1283L-3.29883 59.7027L-3.16901 59.2787L-3.03538 58.8562L-2.89823 58.4352L-2.75781 58.0155L-2.61437 57.5971L-2.46815 57.18L-2.31936 56.764L-2.16823 56.349L-2.01494 55.9349L-1.85968 55.5217L-1.7026 55.1091L-1.54386 54.6971L-1.38357 54.2856L-1.22184 53.8744L-1.05876 53.4635L-0.894392 53.0527L-0.728783 52.6418L-0.561955 52.2309L-0.393912 51.8198L-0.224636 51.4084L-0.0540864 50.9966L0.117796 50.5845L0.291089 50.1718L0.465886 49.7586L0.64229 49.3448L0.82041 48.9304L1.00037 48.5155L1.18229 48.0998L1.36633 47.6836L1.55263 47.2667L1.74135 46.8493L1.93268 46.4313L2.12678 46.0128L2.32385 45.5939L2.52408 45.1747L2.72768 44.7553L2.93485 44.3358L3.14581 43.9164L3.36079 43.4971L3.57999 43.0782L3.80363 42.6599L4.03195 42.2424L4.26515 41.8258L4.50345 41.4105L4.74707 40.9966L4.99619 40.5845L5.25103 40.1744L5.51176 39.7667L5.77857 39.3615L6.05161 38.9592L6.33103 38.5601L6.61697 38.1645L6.90954 37.7727L7.20886 37.3851L7.515 37.002L7.82802 36.6236L8.14798 36.2503L8.47488 35.8824L8.80874 35.52L9.14954 35.1636L9.49723 34.8134L9.85174 34.4695L10.213 34.1322L10.5809 33.8017L10.9553 33.4781L11.3361 33.1616L11.7232 32.8523L12.1163 32.5504L12.5153 32.2559L12.9201 31.969L13.3305 31.6897L13.7463 31.4181L14.1673 31.1544L14.5933 30.8984L15.0242 30.6504L15.4598 30.4103L15.8998 30.178L16.3441 29.9537L16.7924 29.7373L17.2447 29.5288L17.7006 29.3282L18.16 29.1353L18.6226 28.9502L19.0884 28.7727L19.557 28.6029L20.0284 28.4405L20.5023 28.2856L20.9786 28.138L21.4571 27.9975L21.9376 27.8641L22.42 27.7377L22.9041 27.6181L23.3898 27.5051L23.877 27.3987L24.3654 27.2988L24.855 27.2051L25.3457 27.1176L25.8374 27.0361L26.33 26.9604L26.8233 26.8906L27.3173 26.8264L27.812 26.7677L28.3072 26.7144L28.8028 26.6665L29.2989 26.6239L29.7954 26.5864L30.2922 26.554L30.7892 26.5266L31.2865 26.5043L31.784 26.487L32.2816 26.4746L32.7793 26.4671L33.2771 26.4647L33.7749 26.4673L34.2728 26.475L34.7706 26.488L35.2682 26.5063L35.7657 26.5302L36.263 26.5599L36.7599 26.5956L37.2565 26.6376L37.7524 26.686L38.2478 26.7413L38.7423 26.8037L39.2358 26.8735L39.7282 26.9511L40.2193 27.0368L40.7088 27.1308L41.1966 27.2337L41.6823 27.3456L42.1657 27.467L42.6466 27.5981L43.1245 27.7392L43.5993 27.8908L44.0706 28.053L44.5381 28.2261L45.0013 28.4104L45.4599 28.6061L45.9136 28.8134L46.362 29.0324L46.8047 29.2634L47.2413 29.5064L47.6715 29.7616L48.0948 30.0288L48.5108 30.3082L48.9193 30.5998L49.3198 30.9034L49.712 31.2189L50.0955 31.5462L50.47 31.8851L50.8353 32.2353L51.1911 32.5966L51.537 32.9687L51.873 33.3511L52.1988 33.7434L52.5142 34.1454L52.8191 34.5565L53.1133 34.9762L53.3969 35.4041L53.6696 35.8397L53.9315 36.2825L54.1826 36.732L54.4228 37.1877L54.6522 37.6489L54.8709 38.1152L55.0789 38.5861L55.2765 39.0609L55.4637 39.5391L55.6406 40.0202L55.8077 40.5036L55.9649 40.9889L56.1127 41.4753L56.2512 41.9625L56.3808 42.4498L56.5018 42.9368L56.6145 43.4231L56.7194 43.908L56.8167 44.3912L56.9068 44.8723L56.9902 45.3507L57.0673 45.8261L57.1386 46.2982L57.2043 46.7665L57.2651 47.2307L57.3213 47.6906L57.3735 48.1458L57.4219 48.5961L57.4672 49.0413L57.5098 49.4812L57.5501 49.9155L57.5885 50.3443L57.6256 50.7673L57.6616 51.1845L57.6971 51.5958L57.7323 52.0011L57.7678 52.4006L57.8039 52.7941L57.8408 53.1819L57.879 53.5638Z" fill="white" fill-opacity="0.74"/>
<path opacity="0.4" fill-rule="evenodd" clip-rule="evenodd" d="M33.1662 51.7249L33.1154 52.0551L33.0631 52.3802L33.0093 52.7005L32.9536 53.0159L32.896 53.3268L32.8362 53.6333L32.7743 53.9356L32.7101 54.2339L32.6437 54.5284L32.5749 54.8194L32.504 55.1072L32.4309 55.392L32.3559 55.6741L32.2789 55.9538L32.2002 56.2313L32.12 56.507L32.0385 56.781L31.956 57.0537L31.8728 57.3252L31.7891 57.596L31.7052 57.8661L31.6216 58.1358L31.5384 58.4053L31.4562 58.6749L31.3753 58.9446L31.296 59.2147L31.2188 59.4852L31.144 59.7564L31.072 60.0282L31.0033 60.3009L30.9381 60.5744L30.8769 60.8488L30.8201 61.1241L30.7679 61.4003L30.7208 61.6775L30.679 61.9554L30.6429 62.2342L30.6127 62.5137L30.5888 62.7939L30.5712 63.0745L30.5602 63.3556L30.5561 63.6369L30.5589 63.9184L30.5687 64.1999L30.5856 64.4811L30.6096 64.762L30.6409 65.0424L30.6793 65.3221L30.725 65.601L30.7778 65.8787L30.8378 66.1553L30.9049 66.4304L30.979 66.704L31.0601 66.9759L31.148 67.2458L31.2427 67.5137L31.344 67.7793L31.4518 68.0426L31.5659 68.3033L31.6862 68.5613L31.8125 68.8166L31.9445 69.0689L32.0822 69.3181L32.2252 69.5642L32.3734 69.807L32.5266 70.0465L32.6845 70.2825L32.8468 70.515L33.0135 70.7439L33.1841 70.9692L33.3585 71.1908L33.5364 71.4087L33.7175 71.6228L33.9016 71.8332L34.0886 72.0399L34.278 72.2428L34.4696 72.442L34.6633 72.6374L34.8588 72.8292L35.0558 73.0174L35.2541 73.202L35.4534 73.3831L35.6536 73.5608L35.8544 73.735L36.0556 73.906L36.2571 74.0738L36.4586 74.2385L36.6598 74.4002L36.8608 74.5591L37.0612 74.7151L37.2609 74.8685L37.4597 75.0194L37.6576 75.1678L37.8544 75.314L38.05 75.4581L38.2442 75.6001L38.4371 75.7401L38.6286 75.8784L38.8186 76.0149L39.0071 76.1499L39.1941 76.2833L39.3795 76.4154L39.5635 76.5461L39.7459 76.6756L39.9268 76.804L40.1062 76.9313L40.2841 77.0576L40.4607 77.183L40.6358 77.3075L40.8097 77.4312L40.9823 77.5542L41.1536 77.6765L41.3238 77.7982L41.4928 77.9193L41.6609 78.0398L41.8279 78.1598L41.994 78.2794L42.1593 78.3984L42.3238 78.5171L42.4876 78.6354L42.6507 78.7533L42.8132 78.8708L42.9752 78.988L43.1367 79.1049L43.2979 79.2215L43.4587 79.3377L43.6193 79.4536L43.7797 79.5692L43.94 79.6845L44.1002 79.7995L44.2605 79.9141L44.4208 80.0284L44.5813 80.1423L44.7421 80.2558L44.9031 80.3688L45.0645 80.4814L45.2263 80.5935L45.3886 80.705L45.5515 80.8159L45.7149 80.9261L45.8791 81.0357L46.0439 81.1445L46.2096 81.2524L46.3761 81.3594L46.5435 81.4655L46.7118 81.5705L46.8811 81.6744L47.0514 81.777L47.2228 81.8784L47.3953 81.9784L47.5689 82.0769L47.7438 82.1738L47.9198 82.269L48.097 82.3625L48.2754 82.4541L48.4551 82.5437L48.6361 82.6312L48.8183 82.7166L49.0018 82.7996L49.1865 82.8803L49.3724 82.9585L49.5596 83.0341L49.748 83.107L49.9376 83.1771L50.1283 83.2443L50.3202 83.3086L50.5131 83.3699L50.7071 83.428L50.902 83.483L51.0979 83.5346L51.2947 83.583L51.4923 83.6281L51.6907 83.6697L51.8898 83.7079L52.0895 83.7426L52.2897 83.7739L52.4905 83.8016L52.6917 83.826L52.8933 83.8468L53.0951 83.8642L53.2972 83.8783L53.4994 83.889L53.7017 83.8964L53.9041 83.9007L54.1064 83.9019L54.3086 83.9001L54.5107 83.8956L54.7126 83.8883L54.9144 83.8786L55.1158 83.8665L55.3171 83.8523L55.5181 83.8362L55.7188 83.8183L55.9194 83.7989L56.1197 83.7782L56.3198 83.7565L56.5198 83.734L56.7198 83.7108L56.9197 83.6874L57.1198 83.6638L57.32 83.6403L57.5206 83.6173L57.7215 83.5948L57.923 83.5732L58.1252 83.5526L58.3282 83.5333L58.5322 83.5155L58.7373 83.4993L58.9438 83.485L59.1518 83.4727L59.3615 83.4625L59.5731 83.4547L59.7868 83.4492L60.0028 83.4462L60.2213 83.4458L60.4424 83.448L60.6665 83.4528L60.8937 83.4603L61.1241 83.4704L61.3579 83.4831L61.5954 83.4983L61.8367 83.5158L62.0818 83.5356L62.331 83.5575L62.5844 83.5813L62.8421 83.6068L63.1042 83.634L63.3707 83.6624L63.6419 83.6921L63.9177 83.7226L64.1981 83.7539L64.4834 83.7856L64.7734 83.8176L65.0683 83.8495L65.368 83.8811L65.6725 83.9121L65.9818 83.9423L66.2959 83.9713L66.6147 83.9989L66.9381 84.0249L67.2662 84.0488L67.5988 84.0705L67.9357 84.0896L68.277 84.1058L68.6224 84.1189L68.9717 84.1285L69.325 84.1343L69.6819 84.1361L70.0422 84.1336L70.4059 84.1265L70.7725 84.1146L71.1421 84.0975L71.5142 84.0749L71.8887 84.0468L72.2652 84.0127L72.6436 83.9725L73.0234 83.9259L73.4046 83.8728L73.7867 83.8128L74.1694 83.7459L74.5524 83.6718L74.9354 83.5903L75.3182 83.5014L75.7003 83.4048L76.0814 83.3004L76.4612 83.1881L76.8394 83.0679L77.2156 82.9396L77.5895 82.8031L77.9607 82.6584L78.329 82.5055L78.6939 82.3442L79.0553 82.1747L79.4126 81.9969L79.7658 81.8108L80.1143 81.6165L80.458 81.414L80.7966 81.2033L81.1297 80.9846L81.4571 80.7579L81.7786 80.5234L82.0938 80.2811L82.4026 80.0312L82.7048 79.7737L83 79.5089L83.2881 79.2369L83.5689 78.9579L83.8423 78.672L84.108 78.3795L84.3659 78.0804L84.6159 77.7751L84.8578 77.4637L85.0916 77.1463L85.3171 76.8233L85.5342 76.4949L85.7429 76.1612L85.9431 75.8225L86.1348 75.4789L86.3178 75.1308L86.4923 74.7784L86.6581 74.4218L86.8152 74.0613L86.9637 73.6971L87.1035 73.3295L87.2347 72.9586L87.3573 72.5847L87.4713 72.208L87.5768 71.8287L87.6736 71.4469L87.762 71.063L87.8419 70.6771L87.9133 70.2894L87.9763 69.9002L88.0309 69.5095L88.0772 69.1176L88.1152 68.7247L88.1451 68.331L88.1669 67.9366L88.1808 67.5417L88.187 67.1466L88.1855 66.7513L88.1765 66.356L88.1603 65.9609L88.1369 65.5661L88.1067 65.1717L88.0698 64.7779L88.0265 64.3848L87.977 63.9925L87.9214 63.601L87.8602 63.2104L87.7934 62.8209L87.7215 62.4324L87.6446 62.045L87.5629 61.6588L87.4769 61.2737L87.3866 60.8897L87.2924 60.507L87.1945 60.1253L87.0932 59.7448L86.9886 59.3654L86.8812 58.987L86.7709 58.6096L86.6582 58.2332L86.5431 57.8576L86.4259 57.4827L86.3068 57.1086L86.1858 56.735L86.0632 56.362L85.9392 55.9894L85.8137 55.6171L85.6869 55.2451L85.5589 54.8732L85.4298 54.5013L85.2995 54.1293L85.1682 53.7572L85.0358 53.3849L84.9024 53.0122L84.7678 52.6391L84.632 52.2656L84.495 51.8916L84.3567 51.5171L84.217 51.1419L84.0758 50.7662L83.933 50.3897L83.7884 50.0127L83.642 49.6349L83.4936 49.2565L83.3431 48.8774L83.1903 48.4977L83.0351 48.1174L82.8772 47.7366L82.7165 47.3554L82.5529 46.9738L82.3861 46.5918L82.2159 46.2098L82.0421 45.8277L81.8645 45.4456L81.683 45.0639L81.4973 44.6826L81.3072 44.3018L81.1126 43.9219L80.9131 43.543L80.7087 43.1653L80.4991 42.7891L80.2842 42.4146L80.0638 42.0421L79.8377 41.6718L79.6058 41.3039L79.368 40.9388L79.1241 40.5767L78.874 40.2179L78.6178 39.8627L78.3551 39.5113L78.0862 39.164L77.8108 38.8211L77.529 38.4827L77.2408 38.1492L76.9462 37.8208L76.6453 37.4976L76.3381 37.1798L76.0247 36.8677L75.7052 36.5613L75.3798 36.2609L75.0486 35.9664L74.7116 35.6782L74.3691 35.3961L74.0211 35.1205L73.6679 34.8513L73.3095 34.5886L72.9462 34.3325L72.5781 34.083L72.2053 33.8403L71.8281 33.6043L71.4465 33.375L71.0609 33.1525L70.6713 32.9367L70.2779 32.7277L69.8809 32.5254L69.4806 32.3299L69.077 32.141L68.6703 31.9587L68.2607 31.7829L67.8484 31.6136L67.4336 31.4507L67.0163 31.2942L66.5968 31.1438L66.1752 30.9996L65.7516 30.8615L65.3262 30.7292L64.8992 30.6028L64.4706 30.4821L64.0405 30.367L63.6092 30.2573L63.1766 30.1531L62.7429 30.0541L62.3082 29.9602L61.8726 29.8714L61.4361 29.7876L60.9989 29.7086L60.5609 29.6344L60.1223 29.5648L59.6831 29.4999L59.2434 29.4395L58.8031 29.3836L58.3624 29.3322L57.9213 29.2852L57.4799 29.2425L57.0381 29.2042L56.596 29.1703L56.1536 29.1408L55.7109 29.1158L55.2681 29.0952L54.8251 29.0794L54.382 29.0682L53.9388 29.062L53.4955 29.061L53.0523 29.0652L52.6093 29.075L52.1664 29.0905L51.7238 29.1122L51.2817 29.1401L50.8401 29.1747L50.3992 29.2162L49.9592 29.2648L49.5202 29.3211L49.0824 29.3851L48.646 29.4573L48.2113 29.5379L47.7784 29.6273L47.3477 29.7257L46.9195 29.8335L46.4938 29.9509L46.0712 30.0781L45.6518 30.2155L45.2361 30.3631L44.8242 30.5213L44.4166 30.6902L44.0135 30.8699L43.6154 31.0605L43.2225 31.2622L42.8352 31.4751L42.4539 31.699L42.0788 31.9341L41.7102 32.1802L41.3486 32.4374L40.9942 32.7054L40.6473 32.9842L40.3081 33.2734L39.977 33.573L39.6541 33.8826L39.3397 34.2019L39.0339 34.5306L38.7369 34.8683L38.4489 35.2146L38.17 35.5692L37.9003 35.9316L37.6399 36.3014L37.3888 36.6781L37.1471 37.0613L36.9148 37.4506L36.6918 37.8454L36.4781 38.2452L36.2738 38.6497L36.0786 39.0582L35.8924 39.4703L35.7152 39.8855L35.5468 40.3033L35.387 40.7233L35.2356 41.1448L35.0923 41.5675L34.957 41.9908L34.8293 42.4143L34.709 42.8376L34.5958 43.2602L34.4894 43.6816L34.3894 44.1016L34.2955 44.5195L34.2073 44.9352L34.1245 45.3482L34.0467 45.7583L33.9735 46.165L33.9045 46.568L33.8394 46.9673L33.7777 47.3623L33.719 47.7531L33.663 48.1392L33.6093 48.5207L33.5574 48.8973L33.507 49.2688L33.4578 49.6353L33.4093 49.9967L33.3611 50.3528L33.3131 50.7036L33.2648 51.0493L33.2159 51.3897L33.1662 51.7249Z" fill="white" fill-opacity="0.74"/>
<path opacity="0.4" fill-rule="evenodd" clip-rule="evenodd" d="M6.36619 54.7842L6.8187 54.9843L7.26351 55.1845L7.70071 55.3851L8.13039 55.5864L8.55273 55.7888L8.96796 55.9925L9.37633 56.1977L9.77812 56.4045L10.1737 56.6132L10.5634 56.8238L10.9475 57.0363L11.3266 57.2506L11.7011 57.4669L12.0714 57.6849L12.4379 57.9044L12.8011 58.1255L13.1615 58.3477L13.5197 58.5709L13.8759 58.7947L14.2308 59.0189L14.5847 59.2431L14.9381 59.4668L15.2915 59.6896L15.6452 59.9112L15.9997 60.131L16.3553 60.3486L16.7124 60.5634L17.0714 60.775L17.4324 60.9828L17.7958 61.1863L18.1618 61.385L18.5305 61.5784L18.9023 61.766L19.2772 61.9471L19.6553 62.1214L20.0367 62.2884L20.4215 62.4476L20.8095 62.5986L21.2009 62.741L21.5955 62.8744L21.9932 62.9985L22.394 63.113L22.7976 63.2176L23.2039 63.3122L23.6126 63.3966L24.0236 63.4706L24.4366 63.5341L24.8514 63.587L25.2678 63.6293L25.6854 63.6609L26.104 63.6819L26.5234 63.6921L26.9433 63.6916L27.3633 63.6806L27.7833 63.659L28.2029 63.6269L28.6219 63.5845L29.0399 63.5319L29.4568 63.4693L29.8722 63.3969L30.2859 63.3148L30.6977 63.2234L31.1072 63.1227L31.5143 63.0131L31.9187 62.8948L32.3203 62.7682L32.7187 62.6334L33.1138 62.4909L33.5055 62.341L33.8935 62.1839L34.2776 62.02L34.6579 61.8497L35.034 61.6733L35.406 61.4911L35.7736 61.3036L36.1369 61.111L36.4957 60.9137L36.85 60.7122L37.1997 60.5067L37.5448 60.2976L37.8853 60.0853L38.2212 59.87L38.5524 59.6523L38.8792 59.4324L39.2013 59.2106L39.519 58.9872L39.8323 58.7627L40.1412 58.5372L40.4458 58.3112L40.7463 58.0848L41.0428 57.8584L41.3352 57.6322L41.6239 57.4065L41.9089 57.1815L42.1903 56.9574L42.4684 56.7344L42.7431 56.5126L43.0147 56.2921L43.2833 56.0731L43.549 55.8556L43.812 55.6397L44.0723 55.4254L44.3303 55.2128L44.5858 55.002L44.8392 54.7928L45.0905 54.5854L45.3398 54.3796L45.5872 54.1755L45.8328 53.973L46.0769 53.7722L46.3193 53.5729L46.5604 53.375L46.8 53.1786L47.0384 52.9835L47.2756 52.7897L47.5117 52.5972L47.7467 52.4057L47.9808 52.2153L48.214 52.0259L48.4463 51.8373L48.6778 51.6496L48.9086 51.4625L49.1387 51.2761L49.3682 51.0902L49.597 50.9047L49.8253 50.7195L50.0531 50.5346L50.2803 50.3498L50.507 50.1651L50.7333 49.9803L50.959 49.7953L51.1843 49.6101L51.4091 49.4245L51.6334 49.2384L51.8572 49.0518L52.0805 48.8644L52.3032 48.6763L52.5253 48.4872L52.7467 48.2971L52.9675 48.1059L53.1874 47.9134L53.4066 47.7196L53.6249 47.5244L53.8422 47.3276L54.0584 47.1291L54.2735 46.9289L54.4874 46.7269L54.6999 46.5229L54.911 46.3169L55.1205 46.1088L55.3284 45.8985L55.5344 45.6859L55.7385 45.471L55.9406 45.2536L56.1404 45.0337L56.3379 44.8113L56.5329 44.5863L56.7253 44.3587L56.9148 44.1284L57.1015 43.8953L57.285 43.6596L57.4653 43.421L57.6423 43.1797L57.8157 42.9357L57.9855 42.6889L58.1514 42.4393L58.3135 42.1871L58.4715 41.9321L58.6253 41.6745L58.7748 41.4143L58.9199 41.1516L59.0605 40.8864L59.1966 40.6187L59.328 40.3488L59.4547 40.0766L59.5767 39.8023L59.6939 39.5259L59.8063 39.2475L59.9139 38.9673L60.0167 38.6854L60.1147 38.4019L60.2081 38.1168L60.2968 37.8303L60.381 37.5426L60.4607 37.2538L60.5362 36.9639L60.6077 36.6731L60.6752 36.3815L60.7391 36.0893L60.7996 35.7965L60.8569 35.5032L60.9114 35.2096L60.9633 34.9156L61.013 34.6213L61.0607 34.3269L61.1069 34.0323L61.1518 33.7376L61.1959 33.4427L61.2395 33.1477L61.2829 32.8525L61.3267 32.5571L61.371 32.2615L61.4165 31.9654L61.4633 31.6689L61.5119 31.3719L61.5626 31.0741L61.6158 30.7756L61.6718 30.4759L61.731 30.1751L61.7937 29.8729L61.8601 29.5691L61.9305 29.2635L62.0051 28.9558L62.0842 28.6457L62.1679 28.3331L62.2564 28.0177L62.3497 27.6991L62.4481 27.3772L62.5514 27.0516L62.6598 26.722L62.7731 26.3883L62.8913 26.05L63.0141 25.7071L63.1416 25.3591L63.2734 25.006L63.4094 24.6473L63.5493 24.283L63.6929 23.9128L63.8399 23.5365L63.99 23.1539L64.1429 22.7648L64.2984 22.3692L64.4559 21.9667L64.6153 21.5574L64.7761 21.141L64.938 20.7175L65.1005 20.2868L65.2632 19.8489L65.4257 19.4036L65.5876 18.951L65.7485 18.4911L65.9078 18.0239L66.0651 17.5494L66.2199 17.0677L66.3719 16.5788L66.5204 16.0828L66.6651 15.58L66.8054 15.0703L66.9408 14.554L67.071 14.0312L67.1954 13.5022L67.3135 12.9672L67.4249 12.4263L67.5291 11.88L67.6256 11.3283L67.7141 10.7717L67.7941 10.2105L67.8651 9.64496L67.9268 9.07543L67.9787 8.50231L68.0205 7.92594L68.0518 7.34674L68.0723 6.76509L68.0816 6.18141L68.0794 5.59612L68.0654 5.00965L68.0394 4.42245L68.001 3.83495L67.9501 3.2476L67.8865 2.66088L67.8098 2.07523L67.7201 1.49111L67.6171 0.908975L67.5007 0.329292L67.3708 -0.247497L67.2274 -0.82094L67.0704 -1.3906L66.8998 -1.95603L66.7156 -2.5168L66.5177 -3.07249L66.3064 -3.6227L66.0815 -4.16701L65.8432 -4.70505L65.5916 -5.23642L65.3269 -5.76077L65.0491 -6.27774L64.7584 -6.787L64.4551 -7.28821L64.1392 -7.78108L63.8111 -8.26531L63.4709 -8.74063L63.1189 -9.20678L62.7553 -9.66351L62.3804 -10.1106L61.9944 -10.5478L61.5977 -10.9751L61.1906 -11.392L60.7733 -11.7987L60.3461 -12.1947L59.9094 -12.5802L59.4634 -12.9549L59.0085 -13.3187L58.545 -13.6716L58.0732 -14.0134L57.5935 -14.3441L57.1061 -14.6637L56.6113 -14.9721L56.1095 -15.2692L55.601 -15.555L55.0861 -15.8295L54.5651 -16.0927L54.0382 -16.3444L53.5058 -16.5847L52.9682 -16.8135L52.4256 -17.0309L51.8784 -17.2369L51.3269 -17.4315L50.7713 -17.6149L50.212 -17.7871L49.6493 -17.9484L49.0834 -18.0988L48.5147 -18.2385L47.9434 -18.3677L47.3699 -18.4866L46.7942 -18.5956L46.2169 -18.6948L45.6379 -18.7845L45.0577 -18.865L44.4765 -18.9367L43.8943 -18.9998L43.3115 -19.0547L42.7282 -19.1017L42.1445 -19.1411L41.5607 -19.1734L40.9767 -19.1989L40.3929 -19.2179L39.8091 -19.2309L39.2256 -19.2382L38.6424 -19.2401L38.0595 -19.237L37.4769 -19.2293L36.8947 -19.2173L36.3128 -19.2013L35.7312 -19.1817L35.15 -19.1587L34.569 -19.1327L33.9881 -19.1038L33.4074 -19.0725L32.8267 -19.0388L32.2459 -19.003L31.6649 -18.9652L31.0836 -18.9257L30.502 -18.8845L29.9198 -18.8418L29.337 -18.7976L28.7534 -18.7519L28.169 -18.7048L27.5836 -18.6563L26.9971 -18.6063L26.4094 -18.5547L25.8204 -18.5014L25.23 -18.4463L24.6381 -18.3894L24.0447 -18.3304L23.4497 -18.2692L22.853 -18.2056L22.2545 -18.1394L21.6544 -18.0704L21.0524 -17.9984L20.4487 -17.9231L19.8432 -17.8443L19.236 -17.7616L18.6271 -17.6748L18.0166 -17.5836L17.4046 -17.4876L16.7911 -17.3866L16.1763 -17.2801L15.5603 -17.1678L14.9433 -17.0494L14.3255 -16.9244L13.7071 -16.7926L13.0883 -16.6536L12.4693 -16.507L11.8504 -16.3524L11.232 -16.1896L10.6142 -16.0181L9.99734 -15.8377L9.38183 -15.648L8.76795 -15.4487L8.15606 -15.2397L7.5465 -15.0205L6.93962 -14.7911L6.33578 -14.5511L5.73534 -14.3004L5.13865 -14.039L4.54606 -13.7665L3.9579 -13.4831L3.37452 -13.1885L2.79622 -12.8829L2.2233 -12.5662L1.65602 -12.2385L1.09465 -11.8998L0.539419 -11.5504L-0.00943633 -11.1903L-0.551703 -10.8197L-1.08716 -10.4387L-1.61563 -10.0474L-2.13692 -9.64613L-2.65085 -9.23501L-3.15727 -8.81423L-3.65604 -8.38402L-4.14702 -7.9446L-4.63011 -7.49619L-5.1052 -7.03903L-5.57221 -6.57338L-6.03107 -6.09948L-6.48173 -5.61758L-6.92415 -5.12795L-7.35831 -4.63087L-7.78419 -4.12657L-8.20182 -3.61534L-8.61119 -3.09745L-9.01235 -2.57316L-9.40535 -2.04272L-9.79024 -1.50642L-10.1671 -0.964499L-10.536 -0.417208L-10.897 0.135201L-11.2502 0.692482L-11.5958 1.25442L-11.9338 1.82078L-12.2644 2.39134L-12.5876 2.9659L-12.9036 3.54427L-13.2125 4.12625L-13.5144 4.71169L-13.8095 5.3004L-14.0978 5.89224L-14.3795 6.48707L-14.6546 7.08474L-14.9233 7.68515L-15.1856 8.28819L-15.4416 8.89375L-15.6914 9.50176L-15.935 10.1121L-16.1725 10.7248L-16.4038 11.3396L-16.629 11.9567L-16.8481 12.5758L-17.0609 13.1971L-17.2675 13.8204L-17.4678 14.4458L-17.6614 15.0731L-17.8483 15.7026L-18.0282 16.334L-18.2008 16.9674L-18.3657 17.6028L-18.5227 18.2402L-18.6713 18.8796L-18.8111 19.5208L-18.9417 20.1639L-19.0627 20.8087L-19.1735 21.4552L-19.2736 22.1033L-19.3626 22.7528L-19.44 23.4036L-19.5051 24.0555L-19.5575 24.7082L-19.5967 25.3617L-19.6221 26.0156L-19.6333 26.6697L-19.6296 27.3236L-19.6107 27.9771L-19.5761 28.6298L-19.5254 29.2814L-19.4581 29.9314L-19.3739 30.5795L-19.2724 31.2252L-19.1534 31.8681L-19.0165 32.5078L-18.8616 33.1437L-18.6885 33.7755L-18.4971 34.4026L-18.2872 35.0246L-18.059 35.641L-17.8125 36.2512L-17.5477 36.8549L-17.2649 37.4516L-16.9643 38.0407L-16.6461 38.6219L-16.3108 39.1948L-15.9587 39.7589L-15.5904 40.3138L-15.2062 40.8593L-14.8068 41.3949L-14.3926 41.9204L-13.9643 42.4355L-13.5224 42.94L-13.0677 43.4335L-12.6007 43.916L-12.1221 44.3872L-11.6327 44.847L-11.1332 45.2953L-10.6243 45.7321L-10.1068 46.1573L-9.58133 46.5709L-9.04883 46.9729L-8.50998 47.3635L-7.96558 47.7427L-7.41642 48.1107L-6.86324 48.4675L-6.30683 48.8135L-5.74793 49.1488L-5.1873 49.4738L-4.62566 49.7886L-4.06374 50.0936L-3.50223 50.3892L-2.9418 50.6757L-2.38311 50.9535L-1.82678 51.2229L-1.27342 51.4845L-0.72359 51.7387L-0.177836 51.9858L0.363341 52.2265L0.899471 52.4612L1.43011 52.6902L1.95488 52.9143L2.4734 53.1338L2.98534 53.3492L3.49043 53.5611L3.98843 53.7698L4.47912 53.976L4.96235 54.1801L5.43798 54.3825L5.90595 54.5838L6.36619 54.7842Z" fill="white" fill-opacity="0.74"/>
<path opacity="0.4" fill-rule="evenodd" clip-rule="evenodd" d="M52.0314 52.7032L52.4053 52.8685L52.7729 53.0339L53.1342 53.1997L53.4893 53.3661L53.8383 53.5333L54.1815 53.7016L54.5189 53.8712L54.851 54.0422L55.1778 54.2146L55.4999 54.3886L55.8174 54.5642L56.1307 54.7414L56.4401 54.9201L56.7461 55.1002L57.049 55.2817L57.3491 55.4644L57.647 55.648L57.9429 55.8325L58.2373 56.0174L58.5306 56.2027L58.8231 56.3879L59.1151 56.5728L59.4072 56.757L59.6995 56.9401L59.9924 57.1217L60.2863 57.3015L60.5814 57.479L60.878 57.6539L61.1764 57.8256L61.4767 57.9938L61.7791 58.158L62.0839 58.3179L62.3911 58.4728L62.701 58.6225L63.0134 58.7666L63.3286 58.9046L63.6466 59.0362L63.9673 59.1609L64.2907 59.2786L64.6168 59.3889L64.9454 59.4914L65.2766 59.586L65.6102 59.6725L65.9459 59.7506L66.2837 59.8204L66.6233 59.8815L66.9647 59.934L67.3074 59.9777L67.6515 60.0127L67.9966 60.0388L68.3426 60.0561L68.6892 60.0646L69.0361 60.0642L69.3833 60.055L69.7303 60.0372L70.0771 60.0107L70.4233 59.9757L70.7688 59.9322L71.1133 59.8805L71.4566 59.8206L71.7985 59.7528L72.1387 59.6772L72.4772 59.594L72.8136 59.5034L73.1478 59.4057L73.4796 59.301L73.8089 59.1897L74.1354 59.0719L74.4591 58.948L74.7797 58.8182L75.0972 58.6828L75.4114 58.542L75.7223 58.3963L76.0297 58.2457L76.3335 58.0907L76.6337 57.9316L76.9302 57.7686L77.2229 57.602L77.5119 57.4322L77.7971 57.2594L78.0785 57.0839L78.3561 56.9061L78.6299 56.7261L78.8999 56.5444L79.1661 56.3611L79.4286 56.1765L79.6875 55.9909L79.9428 55.8046L80.1946 55.6178L80.4429 55.4307L80.6878 55.2436L80.9296 55.0567L81.1681 54.8702L81.4036 54.6843L81.6362 54.4991L81.866 54.3148L82.093 54.1315L82.3174 53.9493L82.5394 53.7683L82.759 53.5885L82.9763 53.4101L83.1915 53.233L83.4046 53.0574L83.6158 52.8831L83.8252 52.7103L84.0328 52.5388L84.2389 52.3688L84.4433 52.2001L84.6463 52.0328L84.848 51.8668L85.0484 51.7021L85.2476 51.5386L85.4456 51.3763L85.6426 51.2151L85.8386 51.0549L86.0337 50.8958L86.228 50.7376L86.4214 50.5803L86.6141 50.4237L86.8061 50.2679L86.9974 50.1127L87.1881 49.9581L87.3783 49.8041L87.5679 49.6504L87.7571 49.4971L87.9457 49.3441L88.1339 49.1913L88.3217 49.0386L88.5091 48.886L88.696 48.7332L88.8826 48.5804L89.0688 48.4273L89.2546 48.2739L89.4399 48.1202L89.6249 47.9659L89.8094 47.8111L89.9934 47.6556L90.1769 47.4993L90.3599 47.3422L90.5423 47.1842L90.7241 47.0252L90.9052 46.865L91.0856 46.7037L91.2652 46.541L91.4439 46.3771L91.6217 46.2116L91.7984 46.0447L91.974 45.8761L92.1485 45.7059L92.3216 45.5339L92.4934 45.3601L92.6637 45.1844L92.8323 45.0068L92.9993 44.8271L93.1645 44.6454L93.3277 44.4616L93.4888 44.2757L93.6478 44.0876L93.8044 43.8973L93.9587 43.7047L94.1103 43.5098L94.2594 43.3127L94.4056 43.1133L94.5489 42.9116L94.6892 42.7077L94.8264 42.5014L94.9603 42.293L95.0908 42.0823L95.2179 41.8694L95.3415 41.6544L95.4614 41.4372L95.5776 41.2181L95.69 40.9969L95.7986 40.7738L95.9034 40.5489L96.0042 40.3222L96.101 40.0938L96.1939 39.8638L96.2828 39.6322L96.3678 39.3992L96.4488 39.1649L96.5259 38.9293L96.5992 38.6926L96.6688 38.4548L96.7347 38.2161L96.7971 37.9766L96.8562 37.7363L96.912 37.4953L96.9648 37.2538L97.0148 37.0119L97.0622 36.7695L97.1072 36.5268L97.1501 36.2839L97.1911 36.0407L97.2305 35.7974L97.2687 35.5539L97.3058 35.3104L97.3422 35.0667L97.3783 34.8229L97.4142 34.579L97.4503 34.3348L97.487 34.0905L97.5245 33.8459L97.5632 33.6009L97.6034 33.3554L97.6453 33.1093L97.6893 32.8626L97.7356 32.615L97.7845 32.3664L97.8363 32.1166L97.8911 31.8656L97.9493 31.613L98.011 31.3587L98.0763 31.1025L98.1455 30.8442L98.2186 30.5835L98.2958 30.3202L98.3771 30.0542L98.4625 29.7851L98.552 29.5128L98.6456 29.2369L98.7433 28.9574L98.8448 28.674L98.9502 28.3865L99.0591 28.0946L99.1715 27.7982L99.2871 27.4972L99.4058 27.1912L99.5272 26.8803L99.6513 26.5641L99.7777 26.2426L99.9061 25.9156L100.036 25.583L100.168 25.2447L100.301 24.9006L100.435 24.5507L100.569 24.1947L100.703 23.8328L100.838 23.4649L100.972 23.0909L101.104 22.7108L101.236 22.3247L101.366 21.9326L101.494 21.5344L101.62 21.1304L101.742 20.7206L101.862 20.305L101.978 19.8838L102.09 19.4572L102.197 19.0252L102.3 18.588L102.398 18.1458L102.49 17.6989L102.576 17.2474L102.656 16.7915L102.729 16.3316L102.795 15.8678L102.854 15.4004L102.905 14.9297L102.948 14.4561L102.982 13.9798L103.008 13.5012L103.025 13.0205L103.033 12.5381L103.031 12.0544L103.019 11.5698L102.998 11.0845L102.966 10.599L102.924 10.1137L102.871 9.62879L102.808 9.14481L102.734 8.6621L102.649 8.18103L102.552 7.70198L102.445 7.22532L102.327 6.75144L102.197 6.28067L102.056 5.81341L101.904 5.34999L101.74 4.89077L101.566 4.43608L101.38 3.98626L101.183 3.54164L100.975 3.10251L100.756 2.66919L100.527 2.24197L100.286 1.82113L100.036 1.40693L99.7746 0.99962L99.5034 0.599454L99.2223 0.206653L98.9314 -0.178565L98.6309 -0.556004L98.3211 -0.925479L98.0022 -1.28682L97.6743 -1.63985L97.3379 -1.98445L96.993 -2.32047L96.64 -2.6478L96.2791 -2.96633L95.9105 -3.27596L95.5346 -3.57662L95.1516 -3.86822L94.7617 -4.15071L94.3652 -4.42403L93.9625 -4.68813L93.5536 -4.94297L93.1389 -5.18851L92.7187 -5.42472L92.2932 -5.65156L91.8626 -5.86901L91.4272 -6.07703L90.9873 -6.27559L90.543 -6.46469L90.0946 -6.64434L89.6424 -6.81456L89.1866 -6.97542L88.7275 -7.12697L88.2653 -7.26932L87.8002 -7.40256L87.3326 -7.52683L86.8626 -7.64228L86.3905 -7.74907L85.9165 -7.84739L85.4408 -7.93742L84.9637 -8.0194L84.4853 -8.09354L84.0058 -8.16009L83.5254 -8.2193L83.0444 -8.27144L82.5627 -8.31679L82.0807 -8.35562L81.5983 -8.38824L81.1158 -8.41492L80.6333 -8.43599L80.1508 -8.45172L79.6684 -8.46244L79.1862 -8.46844L78.7042 -8.47002L78.2225 -8.46748L77.741 -8.46111L77.2599 -8.45118L76.779 -8.43798L76.2984 -8.42176L75.8181 -8.40277L75.3379 -8.38125L74.8579 -8.35743L74.378 -8.3315L73.8981 -8.30366L73.4181 -8.27407L72.938 -8.24288L72.4577 -8.21022L71.977 -8.17619L71.4959 -8.14087L71.0143 -8.10433L70.532 -8.0666L70.0491 -8.02769L69.5653 -7.98758L69.0806 -7.94623L68.5949 -7.90359L68.1082 -7.85956L67.6203 -7.81407L67.1312 -7.76701L66.6408 -7.71825L66.149 -7.66766L65.6559 -7.61511L65.1614 -7.56041L64.6654 -7.50341L64.168 -7.4439L63.6691 -7.38168L63.1687 -7.31653L62.6669 -7.24822L62.1637 -7.1765L61.6592 -7.10112L61.1534 -7.02181L60.6464 -6.93829L60.1383 -6.85028L59.6293 -6.75749L59.1194 -6.65962L58.6089 -6.55638L58.0978 -6.44746L57.5864 -6.33257L57.0749 -6.21141L56.5635 -6.08368L56.0524 -5.94911L55.5419 -5.8074L55.0321 -5.6583L54.5235 -5.50154L54.0162 -5.33689L53.5105 -5.16412L53.0068 -4.98302L52.5052 -4.79339L52.0062 -4.59508L51.51 -4.38794L51.0169 -4.17185L50.5272 -3.94671L50.0412 -3.71245L49.5591 -3.46905L49.0812 -3.21647L48.6077 -2.95475L48.1389 -2.68394L47.675 -2.4041L47.2162 -2.11534L46.7626 -1.81775L46.3145 -1.51145L45.872 -1.19658L45.4352 -0.87326L45.0045 -0.541649L44.5797 -0.201896L44.1612 0.145829L43.7491 0.50135L43.3433 0.864491L42.9441 1.23505L42.5515 1.61284L42.1655 1.99765L41.7863 2.38928L41.4139 2.78752L41.0483 3.19214L40.6895 3.60293L40.3376 4.01968L39.9925 4.44216L39.6542 4.87014L39.3226 5.30341L38.9979 5.74176L38.6798 6.18496L38.3684 6.63279L38.0635 7.08507L37.7652 7.54158L37.4733 8.00211L37.1877 8.46649L36.9084 8.93453L36.6352 9.40603L36.3681 9.88085L36.1069 10.3588L35.8517 10.8398L35.6022 11.3236L35.3583 11.8101L35.12 12.2992L34.8873 12.7907L34.6599 13.2846L34.4379 13.7808L34.2211 14.2792L34.0095 14.7796L33.8031 15.282L33.6018 15.7864L33.4056 16.2927L33.2144 16.8008L33.0283 17.3108L32.8473 17.8224L32.6713 18.3358L32.5006 18.8509L32.3351 19.3677L32.1751 19.8862L32.0207 20.4063L31.872 20.9281L31.7294 21.4516L31.5931 21.9767L31.4634 22.5035L31.3406 23.0318L31.225 23.5617L31.1171 24.0931L31.0171 24.626L30.9255 25.1603L30.8428 25.6959L30.7692 26.2326L30.7053 26.7704L30.6515 27.3091L30.6082 27.8486L30.5758 28.3886L30.5548 28.929L30.5456 29.4695L30.5486 30.0099L30.5642 30.55L30.5928 31.0893L30.6347 31.6278L30.6903 32.1649L30.7599 32.7005L30.8438 33.2341L30.9422 33.7654L31.0553 34.294L31.1833 34.8196L31.3263 35.3417L31.4845 35.86L31.6579 36.374L31.8465 36.8833L32.0503 37.3876L32.2691 37.8865L32.5028 38.3796L32.7512 38.8664L33.0142 39.3467L33.2913 39.8201L33.5822 40.2863L33.8866 40.7449L34.2041 41.1957L34.5342 41.6383L34.8764 42.0726L35.2304 42.4983L35.5955 42.9152L35.9713 43.323L36.3573 43.7217L36.7527 44.1111L37.1572 44.4911L37.57 44.8616L37.9905 45.2225L38.4182 45.5739L38.8524 45.9157L39.2925 46.248L39.7378 46.5707L40.1877 46.8841L40.6415 47.1882L41.0987 47.4831L41.5585 47.769L42.0203 48.0461L42.4836 48.3147L42.9478 48.5748L43.4121 48.8269L43.8762 49.0712L44.3393 49.3079L44.801 49.5374L45.2607 49.7601L45.718 49.9763L46.1724 50.1863L46.6234 50.3906L47.0707 50.5895L47.5137 50.7834L47.9522 50.9727L48.3859 51.1579L48.8144 51.3392L49.2375 51.5173L49.6549 51.6923L50.0664 51.8649L50.4719 52.0353L50.8712 52.2039L51.2643 52.3712L51.651 52.5375L52.0314 52.7032Z" fill="white" fill-opacity="0.74"/>
</g>
</g>
<defs>
<filter id="filter0_d_2945_5624" x="0" y="0" width="140" height="140" filterUnits="userSpaceOnUse" color-interpolation-filters="sRGB">
<feFlood flood-opacity="0" result="BackgroundImageFix"/>
<feColorMatrix in="SourceAlpha" type="matrix" values="0 0 0 0 0 0 0 0 0 0 0 0 0 0 0 0 0 0 127 0" result="hardAlpha"/>
<feOffset dy="4"/>
<feGaussianBlur stdDeviation="2"/>
<feComposite in2="hardAlpha" operator="out"/>
<feColorMatrix type="matrix" values="0 0 0 0 0 0 0 0 0 0 0 0 0 0 0 0 0 0 0.25 0"/>
<feBlend mode="normal" in2="BackgroundImageFix" result="effect1_dropShadow_2945_5624"/>
<feBlend mode="normal" in="SourceGraphic" in2="effect1_dropShadow_2945_5624" result="shape"/>
</filter>
<linearGradient id="paint0_linear_2945_5624" x1="4" y1="119.136" x2="137.119" y2="119.136" gradientUnits="userSpaceOnUse">
<stop stop-color="#FB8D8D"/>
<stop offset="1" stop-color="#F12424"/>
</linearGradient>
<clipPath id="clip0_2945_5624">
<rect width="132" height="132" fill="white" transform="translate(4)"/>
</clipPath>
</defs>
</svg>
