<svg width="132" height="132" viewBox="0 0 132 132" fill="none" xmlns="http://www.w3.org/2000/svg">
<g clip-path="url(#clip0_2945_6748)">
<g clip-path="url(#clip1_2945_6748)">
<rect width="132" height="132" fill="#3C030A"/>
<circle cx="53.2727" cy="10.7769" r="16.7769" fill="#A71020"/>
<circle cx="53.2726" cy="10.777" r="11.4789" fill="#E7E5E8"/>
<circle cx="53.2726" cy="10.7765" r="7.94693" fill="#B3D3D9"/>
<circle cx="53.2726" cy="10.7768" r="4.41496" fill="#070603"/>
<circle cx="96.0827" cy="45.4877" r="14.4628" fill="#A71020"/>
<circle cx="96.0826" cy="45.4876" r="9.89561" fill="#E7E5E8"/>
<circle cx="96.0827" cy="45.4873" r="6.8508" fill="#B3D3D9"/>
<circle cx="96.0826" cy="45.4876" r="3.806" fill="#070603"/>
<circle cx="23.1901" cy="98.7109" r="14.4628" fill="#A71020"/>
<circle cx="23.19" cy="98.7108" r="9.89561" fill="#E7E5E8"/>
<circle cx="23.1902" cy="98.7104" r="6.8508" fill="#B3D3D9"/>
<circle cx="23.19" cy="98.7108" r="3.806" fill="#070603"/>
<circle cx="114.595" cy="97.5536" r="14.4628" fill="#A71020"/>
<circle cx="114.595" cy="97.5536" r="9.89561" fill="#E7E5E8"/>
<circle cx="114.595" cy="97.5534" r="6.8508" fill="#B3D3D9"/>
<circle cx="114.595" cy="97.5536" r="3.806" fill="#070603"/>
<circle cx="49.8016" cy="68.628" r="19.0909" fill="#A71020"/>
<circle cx="49.8017" cy="68.6281" r="13.0622" fill="#E7E5E8"/>
<circle cx="49.8016" cy="68.6275" r="9.04306" fill="#B3D3D9"/>
<circle cx="49.8015" cy="68.6279" r="5.02392" fill="#070603"/>
<circle cx="27.8182" cy="44.3307" r="13.3058" fill="#A71020"/>
<circle cx="27.8183" cy="44.3303" r="9.10396" fill="#E7E5E8"/>
<circle cx="27.8181" cy="44.3301" r="6.30274" fill="#B3D3D9"/>
<circle cx="27.8182" cy="44.3306" r="3.50152" fill="#070603"/>
<circle cx="15.0908" cy="65.157" r="9.83471" fill="#A71020"/>
<circle cx="15.0908" cy="65.157" r="6.72901" fill="#E7E5E8"/>
<circle cx="15.0907" cy="65.1571" r="4.65855" fill="#B3D3D9"/>
<circle cx="15.0908" cy="65.1572" r="2.58808" fill="#070603"/>
<circle cx="66" cy="42.0163" r="9.83471" fill="#A71020"/>
<circle cx="66" cy="42.0164" r="6.72901" fill="#E7E5E8"/>
<circle cx="65.9999" cy="42.0165" r="4.65855" fill="#B3D3D9"/>
<circle cx="65.9999" cy="42.0165" r="2.58808" fill="#070603"/>
<circle cx="98.3967" cy="73.2561" r="9.83471" fill="#A71020"/>
<circle cx="98.3967" cy="73.2561" r="6.72901" fill="#E7E5E8"/>
<circle cx="98.3968" cy="73.2562" r="4.65855" fill="#B3D3D9"/>
<circle cx="98.3967" cy="73.2563" r="2.58808" fill="#070603"/>
<circle cx="83.3555" cy="102.182" r="9.83471" fill="#A71020"/>
<circle cx="83.3555" cy="102.182" r="6.72901" fill="#E7E5E8"/>
<circle cx="83.3556" cy="102.182" r="4.65855" fill="#B3D3D9"/>
<circle cx="83.3554" cy="102.182" r="2.58808" fill="#070603"/>
<circle cx="123.851" cy="40.8596" r="9.83471" fill="#A71020"/>
<circle cx="123.851" cy="40.8594" r="6.72901" fill="#E7E5E8"/>
<circle cx="123.851" cy="40.8595" r="4.65855" fill="#B3D3D9"/>
<circle cx="123.851" cy="40.8596" r="2.58808" fill="#070603"/>
<circle cx="90.2975" cy="13.0909" r="13.3058" fill="#A71020"/>
<circle cx="90.2976" cy="13.0908" r="9.10396" fill="#E7E5E8"/>
<circle cx="90.2974" cy="13.0911" r="6.30274" fill="#B3D3D9"/>
<circle cx="90.2974" cy="13.0909" r="3.50152" fill="#070603"/>
<circle cx="77.5702" cy="64.0002" r="7.52066" fill="#A71020"/>
<circle cx="77.5703" cy="64.0002" r="5.14572" fill="#E7E5E8"/>
<circle cx="77.5702" cy="63.9999" r="3.56242" fill="#B3D3D9"/>
<circle cx="77.5702" cy="64.0001" r="1.97912" fill="#070603"/>
<circle cx="76.4132" cy="83.6696" r="7.52066" fill="#A71020"/>
<circle cx="76.4133" cy="83.6696" r="5.14572" fill="#E7E5E8"/>
<circle cx="76.4132" cy="83.6693" r="3.56242" fill="#B3D3D9"/>
<circle cx="76.4132" cy="83.6695" r="1.97912" fill="#070603"/>
<circle cx="108.81" cy="23.504" r="5.20661" fill="#A71020"/>
<circle cx="108.81" cy="23.5041" r="3.56242" fill="#E7E5E8"/>
<circle cx="108.81" cy="23.5039" r="2.46629" fill="#B3D3D9"/>
<circle cx="108.81" cy="23.5044" r="1.37016" fill="#070603"/>
<circle cx="72.9422" cy="25.8184" r="5.20661" fill="#A71020"/>
<circle cx="72.9423" cy="25.818" r="3.56242" fill="#E7E5E8"/>
<circle cx="72.9421" cy="25.8179" r="2.46629" fill="#B3D3D9"/>
<circle cx="72.9422" cy="25.8184" r="1.37016" fill="#070603"/>
<circle cx="47.4876" cy="37.3883" r="5.20661" fill="#A71020"/>
<circle cx="47.4877" cy="37.3883" r="3.56242" fill="#E7E5E8"/>
<circle cx="47.4875" cy="37.3882" r="2.46629" fill="#B3D3D9"/>
<circle cx="47.4876" cy="37.3887" r="1.37016" fill="#070603"/>
<circle cx="4.6778" cy="39.7027" r="5.20661" fill="#A71020"/>
<circle cx="4.6779" cy="39.7023" r="3.56242" fill="#E7E5E8"/>
<circle cx="4.67772" cy="39.7021" r="2.46629" fill="#B3D3D9"/>
<circle cx="4.67778" cy="39.7027" r="1.37016" fill="#070603"/>
<circle cx="3.52058" cy="84.8267" r="5.20661" fill="#A71020"/>
<circle cx="3.52067" cy="84.8263" r="3.56242" fill="#E7E5E8"/>
<circle cx="3.52049" cy="84.8262" r="2.46629" fill="#B3D3D9"/>
<circle cx="3.52055" cy="84.8267" r="1.37016" fill="#070603"/>
<circle cx="2.36359" cy="110.281" r="5.20661" fill="#A71020"/>
<circle cx="2.36369" cy="110.281" r="3.56242" fill="#E7E5E8"/>
<circle cx="2.36351" cy="110.281" r="2.46629" fill="#B3D3D9"/>
<circle cx="2.36357" cy="110.281" r="1.37016" fill="#070603"/>
<circle cx="93.7686" cy="88.2976" r="4.04959" fill="#A71020"/>
<circle cx="93.7686" cy="88.2971" r="2.77077" fill="#E7E5E8"/>
<circle cx="93.7686" cy="88.2971" r="1.91823" fill="#B3D3D9"/>
<circle cx="93.7686" cy="88.2979" r="1.06568" fill="#070603"/>
<circle cx="99.5537" cy="110.281" r="4.04959" fill="#A71020"/>
<circle cx="99.5537" cy="110.281" r="2.77077" fill="#E7E5E8"/>
<circle cx="99.5537" cy="110.281" r="1.91823" fill="#B3D3D9"/>
<circle cx="99.5537" cy="110.281" r="1.06568" fill="#070603"/>
<circle cx="128.479" cy="111.438" r="4.04959" fill="#A71020"/>
<circle cx="128.479" cy="111.438" r="2.77077" fill="#E7E5E8"/>
<circle cx="128.479" cy="111.438" r="1.91823" fill="#B3D3D9"/>
<circle cx="128.479" cy="111.438" r="1.06568" fill="#070603"/>
<circle cx="69.471" cy="113.752" r="4.04959" fill="#A71020"/>
<circle cx="69.471" cy="113.752" r="2.77077" fill="#E7E5E8"/>
<circle cx="69.471" cy="113.752" r="1.91823" fill="#B3D3D9"/>
<circle cx="69.471" cy="113.752" r="1.06568" fill="#070603"/>
<circle cx="54.4298" cy="103.339" r="12.1488" fill="#A71020"/>
<circle cx="54.4297" cy="103.338" r="8.31231" fill="#E7E5E8"/>
<circle cx="54.4297" cy="103.338" r="5.75468" fill="#B3D3D9"/>
<circle cx="54.4297" cy="103.339" r="3.19704" fill="#070603"/>
<circle cx="127.322" cy="79.0413" r="4.04959" fill="#A71020"/>
<circle cx="127.322" cy="79.041" r="2.77077" fill="#E7E5E8"/>
<circle cx="127.322" cy="79.041" r="1.91823" fill="#B3D3D9"/>
<circle cx="127.322" cy="79.0415" r="1.06568" fill="#070603"/>
<circle cx="121.537" cy="65.1572" r="8.67769" fill="#A71020"/>
<circle cx="121.537" cy="65.1561" r="5.93736" fill="#E7E5E8"/>
<circle cx="121.537" cy="65.1564" r="4.11048" fill="#B3D3D9"/>
<circle cx="121.537" cy="65.1576" r="2.2836" fill="#070603"/>
<circle cx="123.851" cy="10.7767" r="12.1488" fill="#A71020"/>
<circle cx="123.851" cy="10.7759" r="8.31231" fill="#E7E5E8"/>
<circle cx="123.851" cy="10.7759" r="5.75468" fill="#B3D3D9"/>
<circle cx="123.851" cy="10.7781" r="3.19704" fill="#070603"/>
<circle cx="12.7769" cy="10.7769" r="16.7769" fill="#A71020"/>
<circle cx="12.7768" cy="10.777" r="11.4789" fill="#E7E5E8"/>
<circle cx="12.7768" cy="10.7765" r="7.94693" fill="#B3D3D9"/>
<circle cx="12.7768" cy="10.7768" r="4.41496" fill="#070603"/>
<rect y="105.111" width="132" height="26.8889" fill="url(#paint0_linear_2945_6748)"/>
<path d="M40.636 122.978C40.028 122.978 39.492 122.87 39.028 122.654C38.564 122.43 38.204 122.118 37.948 121.718C37.692 121.318 37.56 120.85 37.552 120.314H38.824C38.824 120.618 38.892 120.898 39.028 121.154C39.172 121.402 39.376 121.602 39.64 121.754C39.912 121.898 40.244 121.97 40.636 121.97C40.972 121.97 41.26 121.914 41.5 121.802C41.748 121.69 41.936 121.538 42.064 121.346C42.192 121.146 42.256 120.918 42.256 120.662C42.256 120.374 42.192 120.138 42.064 119.954C41.936 119.762 41.756 119.602 41.524 119.474C41.3 119.346 41.04 119.234 40.744 119.138C40.456 119.042 40.144 118.938 39.808 118.826C39.128 118.602 38.624 118.318 38.296 117.974C37.976 117.63 37.816 117.182 37.816 116.63C37.816 116.158 37.924 115.75 38.14 115.406C38.364 115.054 38.68 114.782 39.088 114.59C39.496 114.39 39.972 114.29 40.516 114.29C41.068 114.29 41.544 114.39 41.944 114.59C42.352 114.79 42.672 115.066 42.904 115.418C43.136 115.77 43.256 116.182 43.264 116.654H41.992C41.992 116.438 41.932 116.226 41.812 116.018C41.7 115.81 41.532 115.642 41.308 115.514C41.092 115.378 40.82 115.31 40.492 115.31C40.212 115.302 39.964 115.346 39.748 115.442C39.532 115.538 39.364 115.678 39.244 115.862C39.124 116.046 39.064 116.266 39.064 116.522C39.064 116.778 39.12 116.986 39.232 117.146C39.344 117.298 39.5 117.43 39.7 117.542C39.908 117.654 40.152 117.758 40.432 117.854C40.712 117.942 41.02 118.042 41.356 118.154C41.764 118.29 42.132 118.458 42.46 118.658C42.788 118.85 43.044 119.102 43.228 119.414C43.42 119.718 43.516 120.11 43.516 120.59C43.516 121.006 43.408 121.394 43.192 121.754C42.976 122.114 42.656 122.41 42.232 122.642C41.808 122.866 41.276 122.978 40.636 122.978ZM50.6141 122.978C49.7981 122.978 49.0941 122.798 48.5021 122.438C47.9101 122.07 47.4541 121.562 47.1341 120.914C46.8141 120.258 46.6541 119.498 46.6541 118.634C46.6541 117.778 46.8141 117.022 47.1341 116.366C47.4541 115.71 47.9101 115.202 48.5021 114.842C49.0941 114.474 49.7981 114.29 50.6141 114.29C51.5901 114.29 52.3821 114.526 52.9901 114.998C53.5981 115.47 53.9861 116.134 54.1541 116.99H52.8461C52.7181 116.494 52.4701 116.098 52.1021 115.802C51.7341 115.506 51.2341 115.358 50.6021 115.358C50.0501 115.358 49.5661 115.49 49.1501 115.754C48.7421 116.018 48.4261 116.394 48.2021 116.882C47.9861 117.37 47.8781 117.954 47.8781 118.634C47.8781 119.314 47.9861 119.902 48.2021 120.398C48.4261 120.886 48.7421 121.262 49.1501 121.526C49.5661 121.782 50.0501 121.91 50.6021 121.91C51.2341 121.91 51.7341 121.77 52.1021 121.49C52.4701 121.202 52.7181 120.814 52.8461 120.326H54.1541C53.9861 121.158 53.5981 121.81 52.9901 122.282C52.3821 122.746 51.5901 122.978 50.6141 122.978ZM56.8985 122.834L59.9945 114.434H61.3025L64.3745 122.834H63.1025L60.6305 115.874L58.1585 122.834H56.8985ZM58.3025 120.758L58.6265 119.798H62.5865L62.9105 120.758H58.3025ZM67.595 122.834V114.434H70.439C71.103 114.434 71.647 114.546 72.071 114.77C72.495 114.994 72.807 115.294 73.007 115.67C73.215 116.038 73.319 116.458 73.319 116.93C73.319 117.378 73.215 117.794 73.007 118.178C72.807 118.554 72.491 118.858 72.059 119.09C71.627 119.314 71.075 119.426 70.403 119.426H68.795V122.834H67.595ZM72.011 122.834L70.199 119.102H71.519L73.403 122.834H72.011ZM68.795 118.514H70.367C70.959 118.514 71.391 118.37 71.663 118.082C71.943 117.786 72.083 117.41 72.083 116.954C72.083 116.49 71.947 116.122 71.675 115.85C71.403 115.578 70.963 115.442 70.355 115.442H68.795V118.514ZM76.8958 122.834V114.434H82.1998V115.418H78.0958V118.106H81.8398V119.066H78.0958V121.85H82.1998V122.834H76.8958ZM85.7747 122.834V114.434H88.2347C89.2107 114.434 90.0147 114.606 90.6467 114.95C91.2867 115.294 91.7587 115.782 92.0627 116.414C92.3747 117.038 92.5307 117.782 92.5307 118.646C92.5307 119.51 92.3747 120.254 92.0627 120.878C91.7587 121.502 91.2867 121.986 90.6467 122.33C90.0147 122.666 89.2107 122.834 88.2347 122.834H85.7747ZM86.9747 121.826H88.1867C88.9627 121.826 89.5747 121.698 90.0227 121.442C90.4787 121.186 90.8027 120.822 90.9947 120.35C91.1947 119.87 91.2947 119.302 91.2947 118.646C91.2947 117.982 91.1947 117.41 90.9947 116.93C90.8027 116.45 90.4787 116.082 90.0227 115.826C89.5747 115.57 88.9627 115.442 88.1867 115.442H86.9747V121.826Z" fill="white"/>
</g>
</g>
<defs>
<linearGradient id="paint0_linear_2945_6748" x1="0" y1="118.556" x2="132" y2="118.556" gradientUnits="userSpaceOnUse">
<stop stop-color="#060608"/>
<stop offset="1" stop-color="#E00E03"/>
</linearGradient>
<clipPath id="clip0_2945_6748">
<rect width="132" height="132" fill="white"/>
</clipPath>
<clipPath id="clip1_2945_6748">
<rect width="132" height="132" fill="white"/>
</clipPath>
</defs>
</svg>
