<svg width="132" height="132" viewBox="0 0 132 132" fill="none" xmlns="http://www.w3.org/2000/svg">
<g clip-path="url(#clip0_2954_7753)">
<g clip-path="url(#clip1_2954_7753)">
<rect width="132" height="132" fill="#F6F6F6"/>
<path d="M-22.9802 129.394C-34.6731 123.009 -28.153 105.17 -15.0988 107.831C-10.1065 108.848 -5.03426 106.492 -2.59247 102.02C3.79245 90.327 21.6306 96.847 18.9702 109.901C17.9528 114.894 20.3096 119.966 24.7813 122.408C36.4741 128.792 29.9541 146.631 16.8999 143.97C11.9076 142.953 6.83533 145.31 4.39354 149.781C-1.99138 161.474 -19.8296 154.954 -17.1691 141.9C-16.1517 136.908 -18.5085 131.835 -22.9802 129.394Z" fill="black"/>
<path d="M108.975 112.364C105.051 99.6324 122.167 91.4004 129.664 102.413C132.531 106.625 137.809 108.475 142.678 106.975C155.41 103.051 163.642 120.167 152.629 127.664C148.417 130.531 146.567 135.809 148.068 140.678C151.991 153.41 134.875 161.642 127.378 150.629C124.511 146.417 119.233 144.567 114.364 146.068C101.632 149.991 93.4004 132.875 104.413 125.378C108.625 122.511 110.475 117.233 108.975 112.364Z" fill="black"/>
<circle cx="31" cy="101" r="5" fill="black"/>
<circle cx="82" cy="104" r="10" fill="black"/>
<circle cx="31" cy="101" r="10" fill="black"/>
<circle cx="120" cy="105" r="3" fill="#F6F6F6"/>
<circle cx="31" cy="101" r="3" fill="#F6F6F6"/>
<rect y="105.111" width="132" height="26.8889" fill="url(#paint0_linear_2954_7753)"/>
<path d="M39.0803 123.144C38.4723 123.144 37.9363 123.036 37.4723 122.82C37.0083 122.596 36.6483 122.284 36.3923 121.884C36.1363 121.484 36.0043 121.016 35.9963 120.48H37.2683C37.2683 120.784 37.3363 121.064 37.4723 121.32C37.6163 121.568 37.8203 121.768 38.0843 121.92C38.3563 122.064 38.6883 122.136 39.0803 122.136C39.4163 122.136 39.7043 122.08 39.9443 121.968C40.1923 121.856 40.3803 121.704 40.5083 121.512C40.6363 121.312 40.7003 121.084 40.7003 120.828C40.7003 120.54 40.6363 120.304 40.5083 120.12C40.3803 119.928 40.2003 119.768 39.9683 119.64C39.7443 119.512 39.4843 119.4 39.1883 119.304C38.9003 119.208 38.5883 119.104 38.2523 118.992C37.5723 118.768 37.0683 118.484 36.7403 118.14C36.4203 117.796 36.2603 117.348 36.2603 116.796C36.2603 116.324 36.3683 115.916 36.5843 115.572C36.8083 115.22 37.1243 114.948 37.5323 114.756C37.9403 114.556 38.4163 114.456 38.9603 114.456C39.5123 114.456 39.9883 114.556 40.3883 114.756C40.7963 114.956 41.1163 115.232 41.3483 115.584C41.5803 115.936 41.7003 116.348 41.7083 116.82H40.4363C40.4363 116.604 40.3763 116.392 40.2563 116.184C40.1443 115.976 39.9763 115.808 39.7523 115.68C39.5363 115.544 39.2643 115.476 38.9363 115.476C38.6563 115.468 38.4083 115.512 38.1923 115.608C37.9763 115.704 37.8083 115.844 37.6883 116.028C37.5683 116.212 37.5083 116.432 37.5083 116.688C37.5083 116.944 37.5643 117.152 37.6763 117.312C37.7883 117.464 37.9443 117.596 38.1443 117.708C38.3523 117.82 38.5963 117.924 38.8763 118.02C39.1563 118.108 39.4643 118.208 39.8003 118.32C40.2083 118.456 40.5763 118.624 40.9043 118.824C41.2323 119.016 41.4883 119.268 41.6723 119.58C41.8643 119.884 41.9603 120.276 41.9603 120.756C41.9603 121.172 41.8523 121.56 41.6363 121.92C41.4203 122.28 41.1003 122.576 40.6763 122.808C40.2523 123.032 39.7203 123.144 39.0803 123.144ZM45.4105 123V114.6H50.7145V115.584H46.6105V118.272H50.3545V119.232H46.6105V122.016H50.7145V123H45.4105ZM54.2894 123V114.6H57.1334C57.7974 114.6 58.3414 114.712 58.7654 114.936C59.1894 115.16 59.5014 115.46 59.7014 115.836C59.9094 116.204 60.0134 116.624 60.0134 117.096C60.0134 117.544 59.9094 117.96 59.7014 118.344C59.5014 118.72 59.1854 119.024 58.7534 119.256C58.3214 119.48 57.7694 119.592 57.0974 119.592H55.4894V123H54.2894ZM58.7054 123L56.8934 119.268H58.2134L60.0974 123H58.7054ZM55.4894 118.68H57.0614C57.6534 118.68 58.0854 118.536 58.3574 118.248C58.6374 117.952 58.7774 117.576 58.7774 117.12C58.7774 116.656 58.6414 116.288 58.3694 116.016C58.0974 115.744 57.6574 115.608 57.0494 115.608H55.4894V118.68ZM63.5901 123V114.6H64.7901V123H63.5901ZM72.2747 123.144C71.4827 123.144 70.7827 122.964 70.1747 122.604C69.5747 122.236 69.1027 121.728 68.7587 121.08C68.4227 120.424 68.2547 119.664 68.2547 118.8C68.2547 117.944 68.4227 117.192 68.7587 116.544C69.1027 115.888 69.5747 115.376 70.1747 115.008C70.7827 114.64 71.4827 114.456 72.2747 114.456C73.0827 114.456 73.7867 114.64 74.3867 115.008C74.9947 115.376 75.4667 115.888 75.8027 116.544C76.1387 117.192 76.3067 117.944 76.3067 118.8C76.3067 119.664 76.1387 120.424 75.8027 121.08C75.4667 121.728 74.9947 122.236 74.3867 122.604C73.7867 122.964 73.0827 123.144 72.2747 123.144ZM72.2747 122.076C72.8427 122.076 73.3347 121.944 73.7507 121.68C74.1747 121.416 74.5027 121.04 74.7347 120.552C74.9667 120.064 75.0827 119.48 75.0827 118.8C75.0827 118.12 74.9667 117.536 74.7347 117.048C74.5027 116.56 74.1747 116.188 73.7507 115.932C73.3347 115.668 72.8427 115.536 72.2747 115.536C71.7147 115.536 71.2227 115.668 70.7987 115.932C70.3827 116.188 70.0587 116.56 69.8267 117.048C69.5947 117.536 69.4787 118.12 69.4787 118.8C69.4787 119.48 69.5947 120.064 69.8267 120.552C70.0587 121.04 70.3827 121.416 70.7987 121.68C71.2227 121.944 71.7147 122.076 72.2747 122.076ZM82.8382 123.144C82.2462 123.144 81.7102 123.028 81.2302 122.796C80.7502 122.556 80.3662 122.196 80.0782 121.716C79.7982 121.228 79.6582 120.608 79.6582 119.856V114.6H80.8582V119.868C80.8582 120.372 80.9422 120.788 81.1102 121.116C81.2782 121.436 81.5102 121.676 81.8062 121.836C82.1102 121.988 82.4622 122.064 82.8622 122.064C83.2702 122.064 83.6182 121.988 83.9062 121.836C84.2022 121.676 84.4302 121.436 84.5902 121.116C84.7582 120.788 84.8422 120.372 84.8422 119.868V114.6H86.0422V119.856C86.0422 120.608 85.8982 121.228 85.6102 121.716C85.3222 122.196 84.9342 122.556 84.4462 122.796C83.9662 123.028 83.4302 123.144 82.8382 123.144ZM92.471 123.144C91.863 123.144 91.327 123.036 90.863 122.82C90.399 122.596 90.039 122.284 89.783 121.884C89.527 121.484 89.395 121.016 89.387 120.48H90.659C90.659 120.784 90.727 121.064 90.863 121.32C91.007 121.568 91.211 121.768 91.475 121.92C91.747 122.064 92.079 122.136 92.471 122.136C92.807 122.136 93.095 122.08 93.335 121.968C93.583 121.856 93.771 121.704 93.899 121.512C94.027 121.312 94.091 121.084 94.091 120.828C94.091 120.54 94.027 120.304 93.899 120.12C93.771 119.928 93.591 119.768 93.359 119.64C93.135 119.512 92.875 119.4 92.579 119.304C92.291 119.208 91.979 119.104 91.643 118.992C90.963 118.768 90.459 118.484 90.131 118.14C89.811 117.796 89.651 117.348 89.651 116.796C89.651 116.324 89.759 115.916 89.975 115.572C90.199 115.22 90.515 114.948 90.923 114.756C91.331 114.556 91.807 114.456 92.351 114.456C92.903 114.456 93.379 114.556 93.779 114.756C94.187 114.956 94.507 115.232 94.739 115.584C94.971 115.936 95.091 116.348 95.099 116.82H93.827C93.827 116.604 93.767 116.392 93.647 116.184C93.535 115.976 93.367 115.808 93.143 115.68C92.927 115.544 92.655 115.476 92.327 115.476C92.047 115.468 91.799 115.512 91.583 115.608C91.367 115.704 91.199 115.844 91.079 116.028C90.959 116.212 90.899 116.432 90.899 116.688C90.899 116.944 90.955 117.152 91.067 117.312C91.179 117.464 91.335 117.596 91.535 117.708C91.743 117.82 91.987 117.924 92.267 118.02C92.547 118.108 92.855 118.208 93.191 118.32C93.599 118.456 93.967 118.624 94.295 118.824C94.623 119.016 94.879 119.268 95.063 119.58C95.255 119.884 95.351 120.276 95.351 120.756C95.351 121.172 95.243 121.56 95.027 121.92C94.811 122.28 94.491 122.576 94.067 122.808C93.643 123.032 93.111 123.144 92.471 123.144Z" fill="white"/>
<path d="M21.9746 55.3641C18.0514 42.6324 35.1671 34.4004 42.664 45.4134C45.531 49.6251 50.8093 51.475 55.6783 49.9747C68.4101 46.0514 76.642 63.1671 65.629 70.664C61.4173 73.5311 59.5674 78.8093 61.0678 83.6783C64.9911 96.4101 47.8754 104.642 40.3784 93.629C37.5114 89.4173 32.2331 87.5674 27.3641 89.0678C14.6324 92.9911 6.40043 75.8754 17.4134 68.3785C21.6251 65.5114 23.475 60.2331 21.9746 55.3641Z" fill="black"/>
<path d="M24.9746 2.36414C21.0514 -10.3676 38.1671 -18.5996 45.664 -7.58657C48.531 -3.37487 53.8093 -1.52496 58.6783 -3.02534C71.4101 -6.94863 79.642 10.1671 68.629 17.664C64.4173 20.5311 62.5674 25.8093 64.0678 30.6783C67.9911 43.4101 50.8754 51.642 43.3784 40.629C40.5114 36.4173 35.2331 34.5674 30.3641 36.0678C17.6324 39.9911 9.40043 22.8754 20.4134 15.3785C24.6251 12.5114 26.475 7.23315 24.9746 2.36414Z" fill="black"/>
<path d="M73.9746 58.3641C70.0514 45.6324 87.1671 37.4004 94.664 48.4134C97.531 52.6251 102.809 54.475 107.678 52.9747C120.41 49.0514 128.642 66.1671 117.629 73.664C113.417 76.5311 111.567 81.8093 113.068 86.6783C116.991 99.4101 99.8754 107.642 92.3784 96.629C89.5114 92.4173 84.2331 90.5674 79.3641 92.0678C66.6324 95.9911 58.4004 78.8754 69.4134 71.3785C73.6251 68.5114 75.475 63.2331 73.9746 58.3641Z" fill="black"/>
<path d="M77.9746 6.36414C74.0514 -6.36762 91.1671 -14.5996 98.664 -3.58657C101.531 0.62513 106.809 2.47504 111.678 0.974656C124.41 -2.94863 132.642 14.1671 121.629 21.664C117.417 24.5311 115.567 29.8093 117.068 34.6783C120.991 47.4101 103.875 55.642 96.3784 44.629C93.5114 40.4173 88.2331 38.5674 83.3641 40.0678C70.6324 43.9911 62.4004 26.8754 73.4134 19.3785C77.6251 16.5114 79.475 11.2331 77.9746 6.36414Z" fill="black"/>
<circle cx="41" cy="69" r="11" fill="#D9D9D9"/>
<circle cx="93" cy="71" r="11" fill="#D9D9D9"/>
<circle cx="98" cy="20" r="11" fill="#D9D9D9"/>
<circle cx="44" cy="15" r="11" fill="#D9D9D9"/>
<circle cx="41" cy="69" r="7" fill="black"/>
<circle cx="98" cy="20" r="7" fill="black"/>
<circle cx="69" cy="45" r="5" fill="black"/>
<circle cx="93" cy="71" r="5" fill="black"/>
<circle cx="64" cy="99" r="5" fill="black"/>
<circle cx="69" cy="45" r="3" fill="#F6F6F6"/>
<circle cx="93" cy="71" r="3" fill="#F6F6F6"/>
<circle cx="64" cy="99" r="3" fill="#F6F6F6"/>
<circle cx="122" cy="49" r="5" fill="black"/>
<circle cx="44" cy="15" r="5" fill="black"/>
</g>
<path d="M129.975 10.3641C126.051 -2.36762 143.167 -10.5996 150.664 0.413431C153.531 4.62513 158.809 6.47504 163.678 4.97466C176.41 1.05137 184.642 18.1671 173.629 25.664C169.417 28.5311 167.567 33.8093 169.068 38.6783C172.991 51.4101 155.875 59.642 148.378 48.629C145.511 44.4173 140.233 42.5674 135.364 44.0678C122.632 47.9911 114.4 30.8754 125.413 23.3785C129.625 20.5114 131.475 15.2331 129.975 10.3641Z" fill="black"/>
<path d="M-28.0254 0.364139C-31.9486 -12.3676 -14.8329 -20.5996 -7.33601 -9.58657C-4.46895 -5.37487 0.809301 -3.52496 5.67831 -5.02534C18.4101 -8.94863 26.642 8.16707 15.629 15.664C11.4173 18.5311 9.56741 23.8093 11.0678 28.6783C14.9911 41.4101 -2.12462 49.642 -9.62156 38.629C-12.4886 34.4173 -17.7669 32.5674 -22.6359 34.0678C-35.3676 37.9911 -43.5996 20.8754 -32.5866 13.3785C-28.3749 10.5114 -26.525 5.23315 -28.0254 0.364139Z" fill="black"/>
<path d="M-31.0254 52.3641C-34.9486 39.6324 -17.8329 31.4004 -10.336 42.4134C-7.46895 46.6251 -2.1907 48.475 2.67831 46.9747C15.4101 43.0514 23.642 60.1671 12.629 67.664C8.41732 70.5311 6.56741 75.8093 8.0678 80.6783C11.9911 93.4101 -5.12462 101.642 -12.6216 90.629C-15.4886 86.4173 -20.7669 84.5674 -25.6359 86.0678C-38.3676 89.9911 -46.5996 72.8754 -35.5866 65.3785C-31.3749 62.5114 -29.525 57.2331 -31.0254 52.3641Z" fill="black"/>
<path d="M126.975 62.3641C123.051 49.6324 140.167 41.4004 147.664 52.4134C150.531 56.6251 155.809 58.475 160.678 56.9747C173.41 53.0514 181.642 70.1671 170.629 77.664C166.417 80.5311 164.567 85.8093 166.068 90.6783C169.991 103.41 152.875 111.642 145.378 100.629C142.511 96.4173 137.233 94.5674 132.364 96.0678C119.632 99.9911 111.4 82.8754 122.413 75.3785C126.625 72.5114 128.475 67.2331 126.975 62.3641Z" fill="black"/>
</g>
<defs>
<linearGradient id="paint0_linear_2954_7753" x1="0" y1="118.556" x2="132" y2="118.556" gradientUnits="userSpaceOnUse">
<stop stop-color="#D9D9D9"/>
<stop offset="0.764"/>
</linearGradient>
<clipPath id="clip0_2954_7753">
<rect width="132" height="132" fill="white"/>
</clipPath>
<clipPath id="clip1_2954_7753">
<rect width="132" height="132" fill="white"/>
</clipPath>
</defs>
</svg>
