<svg width="132" height="132" viewBox="0 0 132 132" fill="none" xmlns="http://www.w3.org/2000/svg">
<g clip-path="url(#clip0_2945_6874)">
<rect width="132" height="132" fill="black"/>
<path fill-rule="evenodd" clip-rule="evenodd" d="M64.3405 32.9158L58.6252 28.9212L28.9861 34.8428L34.7014 38.8374L64.3405 32.9158ZM42.0395 43.9662L44.9146 45.9757L53.1858 41.7392L42.0395 43.9662ZM46.0324 20.1197L51.2872 23.7924L21.6481 29.7141L16.3934 26.0414L46.0324 20.1197ZM139.893 98.0593L145.686 89.7707L143.61 88.32L144.37 90.7803L116.878 96.273L123.982 101.238L139.893 98.0593ZM131.32 106.367L133.179 107.666L134.536 105.724L131.32 106.367ZM38.6944 14.991L31.5903 10.0257L1.95129 15.9474L9.05534 20.9126L38.6944 14.991ZM132.379 80.4701L139.179 85.2226L109.54 91.1442L102.74 86.3917L132.379 80.4701ZM17.4513 0.143546L24.2523 4.89698L-5.38674 10.8186L-11 6.89531L-10.1328 5.65461L17.4513 0.143546ZM125.041 75.3413L118.815 70.9897L96.6618 81.0112L125.041 75.3413ZM10.1133 -4.98522L1.50757 -11L-4.77539 -2.0106L10.1133 -4.98522Z" fill="#F3FF06"/>
<path fill-rule="evenodd" clip-rule="evenodd" d="M83.8857 27.2239L91.4867 23.7022L83.5634 51.4357L76.624 54.6509L84.4164 27.3755L83.8857 27.2239ZM98.2841 44.6154L90.8887 48.0418L98.8119 20.3083L106.207 16.8819L98.2841 44.6154ZM34.2752 50.2092L27.3358 53.4244L19.4126 81.1579L26.352 77.9427L34.2752 50.2092ZM33.6772 74.5489L40.769 71.2631L48.6923 43.5296L41.6004 46.8153L33.6772 74.5489ZM126.816 7.33358L131.067 16.5096L126.814 31.397L119.722 34.6827L127.071 8.95979L124.742 8.2944L126.816 7.33358ZM135.994 27.1437L134.139 28.0031L134.999 24.995L135.994 27.1437ZM77.222 30.3113L69.4694 33.9032L69.9998 34.0547L62.2074 61.3303L69.2988 58.0448L77.222 30.3113ZM12.9184 60.1042L20.0106 56.8183L12.0873 84.5518L4.99519 87.8377L12.9184 60.1042ZM120.32 10.3431L113.533 13.488L105.609 41.2215L112.397 38.0766L120.32 10.3431ZM56.0175 40.1357L62.8054 36.9907L54.8822 64.7242L48.0943 67.8692L56.0175 40.1357ZM5.59321 63.4981L-1.19472 66.643L-8.56884 92.4545L-7.93274 93.8274L-2.33003 91.2316L5.59321 63.4981ZM-17.1111 74.0173L-8.51994 70.0369L-12.5003 83.9691L-17.1111 74.0173Z" fill="#F3FF06"/>
<path fill-rule="evenodd" clip-rule="evenodd" d="M98.5526 56.557L106.153 53.0355L98.2301 80.769L91.2907 83.9842L99.0831 56.7086L98.5526 56.557ZM112.951 73.9487L105.555 77.3751L113.479 49.6416L120.874 46.2152L112.951 73.9487ZM48.9419 79.5425L42.0025 82.7576L34.0793 110.491L41.0187 107.276L48.9419 79.5425ZM48.3439 103.882L55.4357 100.596L63.359 72.8628L56.2671 76.1486L48.3439 103.882ZM141.483 36.6668L145.734 45.8428L141.481 60.7302L134.389 64.016L141.738 38.2929L139.409 37.6275L141.483 36.6668ZM150.661 56.4769L148.806 57.3364L149.665 54.3282L150.661 56.4769ZM91.8887 59.6445L84.1363 63.2363L84.6666 63.3878L76.8741 90.6636L83.9655 87.3781L91.8887 59.6445ZM27.5851 89.4374L34.6773 86.1515L26.754 113.885L19.6619 117.171L27.5851 89.4374ZM134.987 39.6763L128.199 42.8213L120.276 70.5548L127.064 67.4099L134.987 39.6763ZM70.6842 69.4689L77.4721 66.324L69.5489 94.0575L62.761 97.2025L70.6842 69.4689ZM20.2599 92.8313L13.472 95.9763L6.09788 121.788L6.734 123.161L12.3367 120.565L20.2599 92.8313ZM-2.44434 103.351L6.14677 99.3702L2.16647 113.302L-2.44434 103.351Z" fill="#F3FF06"/>
<rect y="106.271" width="133.119" height="25.7288" fill="url(#paint0_linear_2945_6874)"/>
<path d="M34.0188 123.144C33.4108 123.144 32.8748 123.036 32.4108 122.82C31.9468 122.596 31.5868 122.284 31.3308 121.884C31.0748 121.484 30.9428 121.016 30.9348 120.48H32.2068C32.2068 120.784 32.2748 121.064 32.4108 121.32C32.5548 121.568 32.7588 121.768 33.0228 121.92C33.2948 122.064 33.6268 122.136 34.0188 122.136C34.3548 122.136 34.6428 122.08 34.8828 121.968C35.1308 121.856 35.3188 121.704 35.4468 121.512C35.5748 121.312 35.6388 121.084 35.6388 120.828C35.6388 120.54 35.5748 120.304 35.4468 120.12C35.3188 119.928 35.1388 119.768 34.9068 119.64C34.6828 119.512 34.4228 119.4 34.1268 119.304C33.8388 119.208 33.5268 119.104 33.1908 118.992C32.5108 118.768 32.0068 118.484 31.6788 118.14C31.3588 117.796 31.1988 117.348 31.1988 116.796C31.1988 116.324 31.3068 115.916 31.5228 115.572C31.7468 115.22 32.0628 114.948 32.4708 114.756C32.8788 114.556 33.3548 114.456 33.8988 114.456C34.4508 114.456 34.9268 114.556 35.3268 114.756C35.7348 114.956 36.0548 115.232 36.2868 115.584C36.5188 115.936 36.6388 116.348 36.6468 116.82H35.3748C35.3748 116.604 35.3148 116.392 35.1948 116.184C35.0828 115.976 34.9148 115.808 34.6908 115.68C34.4748 115.544 34.2028 115.476 33.8748 115.476C33.5948 115.468 33.3468 115.512 33.1308 115.608C32.9148 115.704 32.7468 115.844 32.6268 116.028C32.5068 116.212 32.4468 116.432 32.4468 116.688C32.4468 116.944 32.5028 117.152 32.6148 117.312C32.7268 117.464 32.8828 117.596 33.0828 117.708C33.2908 117.82 33.5348 117.924 33.8148 118.02C34.0948 118.108 34.4028 118.208 34.7388 118.32C35.1468 118.456 35.5148 118.624 35.8428 118.824C36.1708 119.016 36.4268 119.268 36.6108 119.58C36.8028 119.884 36.8988 120.276 36.8988 120.756C36.8988 121.172 36.7908 121.56 36.5748 121.92C36.3588 122.28 36.0388 122.576 35.6148 122.808C35.1908 123.032 34.6588 123.144 34.0188 123.144ZM42.1409 123V115.584H39.6449V114.6H45.8249V115.584H43.3409V123H42.1409ZM49.0755 123V114.6H51.9195C52.5835 114.6 53.1275 114.712 53.5515 114.936C53.9755 115.16 54.2875 115.46 54.4875 115.836C54.6955 116.204 54.7995 116.624 54.7995 117.096C54.7995 117.544 54.6955 117.96 54.4875 118.344C54.2875 118.72 53.9715 119.024 53.5395 119.256C53.1075 119.48 52.5555 119.592 51.8835 119.592H50.2755V123H49.0755ZM53.4915 123L51.6795 119.268H52.9995L54.8835 123H53.4915ZM50.2755 118.68H51.8475C52.4395 118.68 52.8715 118.536 53.1435 118.248C53.4235 117.952 53.5635 117.576 53.5635 117.12C53.5635 116.656 53.4275 116.288 53.1555 116.016C52.8835 115.744 52.4435 115.608 51.8355 115.608H50.2755V118.68ZM58.3763 123V114.6H63.6803V115.584H59.5763V118.272H63.3203V119.232H59.5763V122.016H63.6803V123H58.3763ZM70.0032 123.144C69.3952 123.144 68.8592 123.036 68.3952 122.82C67.9312 122.596 67.5712 122.284 67.3152 121.884C67.0592 121.484 66.9272 121.016 66.9192 120.48H68.1912C68.1912 120.784 68.2592 121.064 68.3952 121.32C68.5392 121.568 68.7432 121.768 69.0072 121.92C69.2792 122.064 69.6112 122.136 70.0032 122.136C70.3392 122.136 70.6272 122.08 70.8672 121.968C71.1152 121.856 71.3032 121.704 71.4312 121.512C71.5592 121.312 71.6232 121.084 71.6232 120.828C71.6232 120.54 71.5592 120.304 71.4312 120.12C71.3032 119.928 71.1232 119.768 70.8912 119.64C70.6672 119.512 70.4072 119.4 70.1112 119.304C69.8232 119.208 69.5112 119.104 69.1752 118.992C68.4952 118.768 67.9912 118.484 67.6632 118.14C67.3432 117.796 67.1832 117.348 67.1832 116.796C67.1832 116.324 67.2912 115.916 67.5072 115.572C67.7312 115.22 68.0472 114.948 68.4552 114.756C68.8632 114.556 69.3392 114.456 69.8832 114.456C70.4352 114.456 70.9112 114.556 71.3112 114.756C71.7192 114.956 72.0392 115.232 72.2712 115.584C72.5032 115.936 72.6232 116.348 72.6312 116.82H71.3592C71.3592 116.604 71.2992 116.392 71.1792 116.184C71.0672 115.976 70.8992 115.808 70.6752 115.68C70.4592 115.544 70.1872 115.476 69.8592 115.476C69.5792 115.468 69.3312 115.512 69.1152 115.608C68.8992 115.704 68.7312 115.844 68.6112 116.028C68.4912 116.212 68.4312 116.432 68.4312 116.688C68.4312 116.944 68.4872 117.152 68.5992 117.312C68.7112 117.464 68.8672 117.596 69.0672 117.708C69.2752 117.82 69.5192 117.924 69.7992 118.02C70.0792 118.108 70.3872 118.208 70.7232 118.32C71.1312 118.456 71.4992 118.624 71.8272 118.824C72.1552 119.016 72.4112 119.268 72.5952 119.58C72.7872 119.884 72.8832 120.276 72.8832 120.756C72.8832 121.172 72.7752 121.56 72.5592 121.92C72.3432 122.28 72.0232 122.576 71.5992 122.808C71.1752 123.032 70.6432 123.144 70.0032 123.144ZM79.0813 123.144C78.4733 123.144 77.9373 123.036 77.4733 122.82C77.0093 122.596 76.6493 122.284 76.3933 121.884C76.1373 121.484 76.0053 121.016 75.9973 120.48H77.2693C77.2693 120.784 77.3373 121.064 77.4733 121.32C77.6173 121.568 77.8213 121.768 78.0853 121.92C78.3573 122.064 78.6893 122.136 79.0813 122.136C79.4173 122.136 79.7053 122.08 79.9453 121.968C80.1933 121.856 80.3813 121.704 80.5093 121.512C80.6373 121.312 80.7013 121.084 80.7013 120.828C80.7013 120.54 80.6373 120.304 80.5093 120.12C80.3813 119.928 80.2013 119.768 79.9693 119.64C79.7453 119.512 79.4853 119.4 79.1893 119.304C78.9013 119.208 78.5893 119.104 78.2533 118.992C77.5733 118.768 77.0693 118.484 76.7413 118.14C76.4213 117.796 76.2613 117.348 76.2613 116.796C76.2613 116.324 76.3693 115.916 76.5853 115.572C76.8093 115.22 77.1253 114.948 77.5333 114.756C77.9413 114.556 78.4173 114.456 78.9613 114.456C79.5133 114.456 79.9893 114.556 80.3893 114.756C80.7973 114.956 81.1173 115.232 81.3493 115.584C81.5813 115.936 81.7013 116.348 81.7093 116.82H80.4373C80.4373 116.604 80.3773 116.392 80.2573 116.184C80.1453 115.976 79.9773 115.808 79.7533 115.68C79.5373 115.544 79.2653 115.476 78.9373 115.476C78.6573 115.468 78.4093 115.512 78.1933 115.608C77.9773 115.704 77.8093 115.844 77.6893 116.028C77.5693 116.212 77.5093 116.432 77.5093 116.688C77.5093 116.944 77.5653 117.152 77.6773 117.312C77.7893 117.464 77.9453 117.596 78.1453 117.708C78.3533 117.82 78.5973 117.924 78.8773 118.02C79.1573 118.108 79.4653 118.208 79.8013 118.32C80.2093 118.456 80.5773 118.624 80.9053 118.824C81.2333 119.016 81.4893 119.268 81.6733 119.58C81.8653 119.884 81.9613 120.276 81.9613 120.756C81.9613 121.172 81.8533 121.56 81.6373 121.92C81.4213 122.28 81.1013 122.576 80.6773 122.808C80.2533 123.032 79.7213 123.144 79.0813 123.144ZM85.4114 123V114.6H90.7154V115.584H86.6114V118.272H90.3554V119.232H86.6114V122.016H90.7154V123H85.4114ZM94.2903 123V114.6H96.7503C97.7263 114.6 98.5303 114.772 99.1623 115.116C99.8023 115.46 100.274 115.948 100.578 116.58C100.89 117.204 101.046 117.948 101.046 118.812C101.046 119.676 100.89 120.42 100.578 121.044C100.274 121.668 99.8023 122.152 99.1623 122.496C98.5303 122.832 97.7263 123 96.7503 123H94.2903ZM95.4903 121.992H96.7023C97.4783 121.992 98.0903 121.864 98.5383 121.608C98.9943 121.352 99.3183 120.988 99.5103 120.516C99.7103 120.036 99.8103 119.468 99.8103 118.812C99.8103 118.148 99.7103 117.576 99.5103 117.096C99.3183 116.616 98.9943 116.248 98.5383 115.992C98.0903 115.736 97.4783 115.608 96.7023 115.608H95.4903V121.992Z" fill="white"/>
<circle cx="65.9999" cy="13.4445" r="3.66667" fill="#F3FF06"/>
<circle cx="82.5001" cy="5.50011" r="7.94444" fill="#F3FF06"/>
<circle cx="6.72225" cy="29.9444" r="1.83333" fill="#F3FF06"/>
<circle cx="21.9999" cy="41.5556" r="3.66667" fill="#F3FF06"/>
<circle cx="10.389" cy="39.7222" r="1.83333" fill="#F3FF06"/>
<circle cx="72.7223" cy="23.8333" r="1.83333" fill="#F3FF06"/>
<circle cx="94.7223" cy="95.9444" r="1.83333" fill="#F3FF06"/>
<circle cx="81.2777" cy="99.6112" r="1.83333" fill="#F3FF06"/>
<circle cx="2.44455" cy="50.1111" r="4.88889" fill="#F3FF06"/>
</g>
<defs>
<linearGradient id="paint0_linear_2945_6874" x1="0" y1="119.136" x2="133.119" y2="119.136" gradientUnits="userSpaceOnUse">
<stop stop-color="#4B4242"/>
<stop offset="1" stop-color="#F1DD24"/>
</linearGradient>
<clipPath id="clip0_2945_6874">
<rect width="132" height="132" fill="white"/>
</clipPath>
</defs>
</svg>
