<svg width="321" height="107" viewBox="0 0 321 107" fill="none" xmlns="http://www.w3.org/2000/svg">
<path opacity="0.6" d="M72.5005 40.4431V43.76C72.5005 50.0189 71.6198 55.6407 69.8583 60.6253C68.1343 65.5725 65.6794 69.8076 62.4937 73.3305C59.3081 76.816 55.5415 79.4958 51.194 81.3697C46.8465 83.2061 42.0492 84.1244 36.8022 84.1244C31.5177 84.1244 26.683 83.2061 22.298 81.3697C17.9505 79.4958 14.1652 76.816 10.942 73.3305C7.75634 69.8076 5.28276 65.5725 3.52126 60.6253C1.79725 55.6407 0.935246 50.0189 0.935246 43.76V40.4431C0.935246 34.1842 1.79725 28.5624 3.52126 23.5778C5.28276 18.5931 7.7376 14.3581 10.8858 10.8726C14.0715 7.34958 17.8381 4.66986 22.1856 2.83342C26.5706 0.959489 31.4053 0.022526 36.6898 0.022526C41.9368 0.022526 46.734 0.959489 51.0815 2.83342C55.4665 4.66986 59.2518 7.34958 62.4375 10.8726C65.6232 14.3581 68.0968 18.5931 69.8583 23.5778C71.6198 28.5624 72.5005 34.1842 72.5005 40.4431ZM52.487 43.76V40.3307C52.487 36.283 52.1309 32.7225 51.4188 29.6493C50.7442 26.5386 49.7323 23.9338 48.3831 21.835C47.0338 19.7362 45.366 18.1621 43.3797 17.1127C41.4308 16.0259 39.2008 15.4824 36.6898 15.4824C34.0663 15.4824 31.7801 16.0259 29.8312 17.1127C27.8823 18.1621 26.252 19.7362 24.9402 21.835C23.6285 23.9338 22.6353 26.5386 21.9607 29.6493C21.3236 32.7225 21.005 36.283 21.005 40.3307V43.76C21.005 47.7702 21.3236 51.3306 21.9607 54.4414C22.6353 57.5146 23.6285 60.1194 24.9402 62.2556C26.2895 64.3919 27.9385 66.0035 29.8874 67.0904C31.8738 68.1772 34.1787 68.7207 36.8022 68.7207C39.3133 68.7207 41.5432 68.1772 43.4921 67.0904C45.441 66.0035 47.0713 64.3919 48.3831 62.2556C49.7323 60.1194 50.7442 57.5146 51.4188 54.4414C52.1309 51.3306 52.487 47.7702 52.487 43.76ZM79.4715 53.2046V52.024C79.4715 47.564 80.1087 43.4601 81.3829 39.7123C82.6572 35.927 84.5311 32.6476 87.0047 29.8742C89.4783 27.1008 92.5328 24.9458 96.1682 23.4091C99.8036 21.835 104.001 21.048 108.761 21.048C113.558 21.048 117.775 21.835 121.41 23.4091C125.083 24.9458 128.156 27.1008 130.63 29.8742C133.103 32.6476 134.977 35.927 136.251 39.7123C137.526 43.4601 138.163 47.564 138.163 52.024V53.2046C138.163 57.627 137.526 61.7309 136.251 65.5163C134.977 69.2641 133.103 72.5435 130.63 75.3544C128.156 78.1278 125.102 80.2828 121.466 81.8194C117.831 83.356 113.633 84.1244 108.873 84.1244C104.114 84.1244 99.8973 83.356 96.2244 81.8194C92.5515 80.2828 89.4783 78.1278 87.0047 75.3544C84.5311 72.5435 82.6572 69.2641 81.3829 65.5163C80.1087 61.7309 79.4715 57.627 79.4715 53.2046ZM98.4169 52.024V53.2046C98.4169 55.4908 98.5856 57.627 98.9229 59.6134C99.2602 61.5998 99.8224 63.3425 100.609 64.8417C101.396 66.3033 102.465 67.4464 103.814 68.2709C105.163 69.0955 106.85 69.5077 108.873 69.5077C110.86 69.5077 112.509 69.0955 113.821 68.2709C115.17 67.4464 116.238 66.3033 117.025 64.8417C117.812 63.3425 118.374 61.5998 118.712 59.6134C119.049 57.627 119.218 55.4908 119.218 53.2046V52.024C119.218 49.8128 119.049 47.7327 118.712 45.7838C118.374 43.7975 117.812 42.0547 117.025 40.5556C116.238 39.0189 115.17 37.8196 113.821 36.9576C112.471 36.0956 110.785 35.6646 108.761 35.6646C106.775 35.6646 105.107 36.0956 103.758 36.9576C102.446 37.8196 101.396 39.0189 100.609 40.5556C99.8224 42.0547 99.2602 43.7975 98.9229 45.7838C98.5856 47.7327 98.4169 49.8128 98.4169 52.024ZM165.71 33.8656V106.387H146.764V22.1723H164.417L165.71 33.8656ZM203.038 51.8553V53.0359C203.038 57.4584 202.532 61.5623 201.52 65.3476C200.508 69.1329 199.009 72.4311 197.023 75.2419C195.037 78.0528 192.563 80.2453 189.602 81.8194C186.679 83.356 183.287 84.1244 179.427 84.1244C175.791 84.1244 172.662 83.3186 170.038 81.707C167.415 80.0954 165.222 77.8654 163.461 75.0171C161.699 72.1687 160.275 68.9081 159.188 65.2352C158.101 61.5623 157.239 57.6833 156.602 53.5981V52.0802C157.239 47.6952 158.101 43.6288 159.188 39.8809C160.275 36.0956 161.699 32.7975 163.461 29.9866C165.222 27.1757 167.396 24.9832 169.982 23.4091C172.606 21.835 175.735 21.048 179.371 21.048C183.231 21.048 186.623 21.7788 189.546 23.2405C192.507 24.7021 194.98 26.8009 196.967 29.5369C198.991 32.2353 200.508 35.4772 201.52 39.2626C202.532 43.0479 203.038 47.2455 203.038 51.8553ZM184.093 53.0359V51.8553C184.093 49.4942 183.924 47.3392 183.587 45.3903C183.25 43.4039 182.706 41.6799 181.957 40.2183C181.244 38.7566 180.289 37.6322 179.089 36.8452C177.89 36.0581 176.41 35.6646 174.648 35.6646C172.624 35.6646 170.919 35.9832 169.532 36.6203C168.183 37.22 167.096 38.1569 166.272 39.4312C165.485 40.668 164.923 42.2234 164.585 44.0973C164.285 45.9337 164.154 48.0887 164.192 50.5623V55.1722C164.117 58.0206 164.398 60.5316 165.035 62.7054C165.672 64.8417 166.778 66.5094 168.352 67.7088C169.926 68.9081 172.062 69.5077 174.761 69.5077C176.56 69.5077 178.059 69.0955 179.258 68.2709C180.457 67.4089 181.413 66.2284 182.125 64.7292C182.837 63.1926 183.343 61.4311 183.643 59.4447C183.943 57.4584 184.093 55.3221 184.093 53.0359ZM243.346 65.9098C243.346 64.8604 242.99 63.9609 242.278 63.2113C241.604 62.4243 240.404 61.7122 238.68 61.0751C236.956 60.4004 234.539 59.7258 231.428 59.0512C228.467 58.4141 225.675 57.5708 223.052 56.5214C220.466 55.472 218.198 54.1977 216.249 52.6986C214.301 51.1995 212.764 49.4192 211.64 47.3579C210.553 45.2966 210.009 42.9354 210.009 40.2745C210.009 37.6885 210.553 35.2523 211.64 32.9662C212.764 30.6425 214.394 28.5999 216.531 26.8384C218.704 25.0394 221.347 23.634 224.457 22.6221C227.568 21.5727 231.11 21.048 235.082 21.048C240.554 21.048 245.277 21.8913 249.249 23.5778C253.222 25.2268 256.276 27.5505 258.413 30.5488C260.587 33.5096 261.673 36.9389 261.673 40.8366H242.728C242.728 39.3 242.466 37.9883 241.941 36.9014C241.454 35.8145 240.648 34.99 239.524 34.4278C238.399 33.8282 236.9 33.5283 235.026 33.5283C233.714 33.5283 232.515 33.7719 231.428 34.2592C230.379 34.7464 229.536 35.421 228.898 36.283C228.261 37.145 227.943 38.1569 227.943 39.3188C227.943 40.1433 228.13 40.8929 228.505 41.5675C228.917 42.2046 229.536 42.8043 230.36 43.3665C231.185 43.8911 232.234 44.3784 233.508 44.8281C234.783 45.2404 236.319 45.6152 238.118 45.9525C242.203 46.702 246.026 47.7702 249.587 49.1569C253.147 50.5436 256.033 52.5112 258.244 55.0598C260.493 57.6083 261.617 61.0376 261.617 65.3476C261.617 68.0461 260.999 70.5384 259.762 72.8246C258.525 75.0733 256.745 77.0597 254.421 78.7837C252.098 80.4702 249.305 81.7819 246.045 82.7189C242.784 83.6559 239.111 84.1244 235.026 84.1244C229.217 84.1244 224.307 83.0937 220.297 81.0324C216.287 78.9336 213.251 76.3101 211.19 73.1619C209.166 69.9762 208.154 66.7531 208.154 63.4924H225.806C225.881 65.3663 226.331 66.903 227.156 68.1023C228.018 69.3016 229.161 70.1823 230.585 70.7445C232.009 71.3067 233.658 71.5878 235.532 71.5878C237.256 71.5878 238.68 71.3442 239.805 70.857C240.967 70.3697 241.847 69.7139 242.447 68.8893C243.047 68.0273 243.346 67.0341 243.346 65.9098ZM320.421 1.14688L318.004 57.0836H302.6L300.183 1.14688H320.421ZM299.677 74.5111C299.677 71.8127 300.651 69.5639 302.6 67.765C304.549 65.9285 307.079 65.0103 310.189 65.0103C313.3 65.0103 315.811 65.9285 317.723 67.765C319.671 69.5639 320.646 71.8127 320.646 74.5111C320.646 77.2096 319.671 79.477 317.723 81.3135C315.811 83.1124 313.3 84.0119 310.189 84.0119C307.079 84.0119 304.549 83.1124 302.6 81.3135C300.651 79.477 299.677 77.2096 299.677 74.5111Z" fill="url(#paint0_linear_1361_13045)" fill-opacity="0.8"/>
<defs>
<linearGradient id="paint0_linear_1361_13045" x1="289" y1="26.5" x2="177.206" y2="216.841" gradientUnits="userSpaceOnUse">
<stop stop-color="white"/>
<stop offset="1" stop-color="white" stop-opacity="0"/>
</linearGradient>
</defs>
</svg>
