<svg width="133" height="36" viewBox="0 0 133 36" fill="none" xmlns="http://www.w3.org/2000/svg">
<path d="M1 18C1 8.33502 8.83502 0.5 18.5 0.5H114.5C124.165 0.5 132 8.33502 132 18C132 27.665 124.165 35.5 114.5 35.5H18.5C8.83502 35.5 1 27.665 1 18Z" stroke="#E5E5E5"/>
<path d="M28.5133 23.6868C26.96 23.6868 25.4067 23.4401 23.9333 22.9468C23.3733 22.7534 22.9467 22.3601 22.76 21.8468C22.5667 21.3334 22.6333 20.7668 22.94 20.2601L23.7067 18.9868C23.8667 18.7201 24.0133 18.1868 24.0133 17.8734V15.9468C24.0133 13.4668 26.0333 11.4468 28.5133 11.4468C30.9933 11.4468 33.0133 13.4668 33.0133 15.9468V17.8734C33.0133 18.1801 33.16 18.7201 33.32 18.9934L34.08 20.2601C34.3667 20.7401 34.42 21.3201 34.2267 21.8468C34.0333 22.3734 33.6133 22.7734 33.0867 22.9468C31.62 23.4401 30.0667 23.6868 28.5133 23.6868ZM28.5133 12.4468C26.5867 12.4468 25.0133 14.0134 25.0133 15.9468V17.8734C25.0133 18.3601 24.8133 19.0801 24.5667 19.5001L23.8 20.7734C23.6533 21.0201 23.6133 21.2801 23.7 21.5001C23.78 21.7268 23.98 21.9001 24.2533 21.9934C27.04 22.9268 29.9933 22.9268 32.78 21.9934C33.02 21.9134 33.2067 21.7334 33.2933 21.4934C33.38 21.2534 33.36 20.9934 33.2267 20.7734L32.46 19.5001C32.2067 19.0668 32.0133 18.3534 32.0133 17.8668V15.9468C32.0133 14.0134 30.4467 12.4468 28.5133 12.4468Z" fill="white"/>
<path d="M29.7533 12.6266C29.7067 12.6266 29.66 12.62 29.6133 12.6066C29.42 12.5533 29.2333 12.5133 29.0533 12.4866C28.4867 12.4133 27.94 12.4533 27.4267 12.6066C27.24 12.6666 27.04 12.6066 26.9133 12.4666C26.7867 12.3266 26.7467 12.1266 26.82 11.9466C27.0933 11.2466 27.76 10.7866 28.52 10.7866C29.28 10.7866 29.9467 11.24 30.22 11.9466C30.2867 12.1266 30.2533 12.3266 30.1267 12.4666C30.0267 12.5733 29.8867 12.6266 29.7533 12.6266Z" fill="#E5E5E5"/>
<path d="M28.5133 25.2065C27.8533 25.2065 27.2133 24.9399 26.7466 24.4732C26.28 24.0065 26.0133 23.3665 26.0133 22.7065H27.0133C27.0133 23.0999 27.1733 23.4865 27.4533 23.7665C27.7333 24.0465 28.12 24.2065 28.5133 24.2065C29.34 24.2065 30.0133 23.5332 30.0133 22.7065H31.0133C31.0133 24.0865 29.8933 25.2065 28.5133 25.2065Z" fill="#E5E5E5"/>
<path d="M45.452 23V13.2H47.244L51.85 20.102V13.2H53.642V23H51.85L47.244 16.112V23H45.452ZM59.0318 23.168C58.3598 23.168 57.7532 23.014 57.2118 22.706C56.6798 22.398 56.2552 21.9733 55.9378 21.432C55.6298 20.8813 55.4758 20.2467 55.4758 19.528C55.4758 18.8093 55.6345 18.1793 55.9518 17.638C56.2692 17.0873 56.6938 16.658 57.2258 16.35C57.7672 16.042 58.3738 15.888 59.0458 15.888C59.7085 15.888 60.3058 16.042 60.8378 16.35C61.3792 16.658 61.8038 17.0873 62.1118 17.638C62.4292 18.1793 62.5878 18.8093 62.5878 19.528C62.5878 20.2467 62.4292 20.8813 62.1118 21.432C61.8038 21.9733 61.3792 22.398 60.8378 22.706C60.2965 23.014 59.6945 23.168 59.0318 23.168ZM59.0318 21.614C59.4985 21.614 59.9045 21.4413 60.2498 21.096C60.5952 20.7413 60.7678 20.2187 60.7678 19.528C60.7678 18.8373 60.5952 18.3193 60.2498 17.974C59.9045 17.6193 59.5032 17.442 59.0458 17.442C58.5698 17.442 58.1592 17.6193 57.8138 17.974C57.4778 18.3193 57.3098 18.8373 57.3098 19.528C57.3098 20.2187 57.4778 20.7413 57.8138 21.096C58.1592 21.4413 58.5652 21.614 59.0318 21.614ZM67.2106 23C66.4826 23 65.8993 22.8227 65.4606 22.468C65.022 22.1133 64.8026 21.4833 64.8026 20.578V17.554H63.6126V16.056H64.8026L65.0126 14.194H66.5946V16.056H68.4706V17.554H66.5946V20.592C66.5946 20.928 66.6646 21.1613 66.8046 21.292C66.954 21.4133 67.206 21.474 67.5606 21.474H68.4286V23H67.2106ZM71.1752 14.978C70.8486 14.978 70.5779 14.88 70.3632 14.684C70.1579 14.488 70.0552 14.2407 70.0552 13.942C70.0552 13.6433 70.1579 13.4007 70.3632 13.214C70.5779 13.018 70.8486 12.92 71.1752 12.92C71.5019 12.92 71.7679 13.018 71.9732 13.214C72.1879 13.4007 72.2952 13.6433 72.2952 13.942C72.2952 14.2407 72.1879 14.488 71.9732 14.684C71.7679 14.88 71.5019 14.978 71.1752 14.978ZM70.2792 23V16.056H72.0712V23H70.2792ZM74.4636 23V17.554H73.5116V16.056H74.4636V15.244C74.4636 14.404 74.6736 13.8067 75.0936 13.452C75.523 13.0973 76.1016 12.92 76.8296 12.92H77.5996V14.446H77.1096C76.8016 14.446 76.5823 14.5067 76.4516 14.628C76.321 14.7493 76.2556 14.9547 76.2556 15.244V16.056H77.7536V17.554H76.2556V23H74.4636ZM80.2409 26.08L81.8509 22.538H81.4309L78.7289 16.056H80.6749L82.6209 20.942L84.6509 16.056H86.5549L82.1449 26.08H80.2409ZM91.4623 23V16.056H93.0443L93.1983 16.994C93.4223 16.658 93.7163 16.392 94.0803 16.196C94.4537 15.9907 94.883 15.888 95.3683 15.888C96.4417 15.888 97.2023 16.3033 97.6503 17.134C97.9023 16.7513 98.2383 16.448 98.6583 16.224C99.0877 16 99.5543 15.888 100.058 15.888C100.964 15.888 101.659 16.1587 102.144 16.7C102.63 17.2413 102.872 18.0347 102.872 19.08V23H101.08V19.248C101.08 18.6507 100.964 18.1933 100.73 17.876C100.506 17.5587 100.156 17.4 99.6803 17.4C99.195 17.4 98.803 17.5773 98.5043 17.932C98.215 18.2867 98.0703 18.7813 98.0703 19.416V23H96.2783V19.248C96.2783 18.6507 96.1617 18.1933 95.9283 17.876C95.695 17.5587 95.3357 17.4 94.8503 17.4C94.3743 17.4 93.987 17.5773 93.6883 17.932C93.399 18.2867 93.2543 18.7813 93.2543 19.416V23H91.4623ZM108.148 23.168C107.448 23.168 106.827 23.0187 106.286 22.72C105.744 22.4213 105.32 22.0013 105.012 21.46C104.704 20.9187 104.55 20.2933 104.55 19.584C104.55 18.8653 104.699 18.226 104.998 17.666C105.306 17.106 105.726 16.672 106.258 16.364C106.799 16.0467 107.434 15.888 108.162 15.888C108.843 15.888 109.445 16.0373 109.968 16.336C110.49 16.6347 110.896 17.0453 111.186 17.568C111.484 18.0813 111.634 18.6553 111.634 19.29C111.634 19.3927 111.629 19.5 111.62 19.612C111.62 19.724 111.615 19.8407 111.606 19.962H106.328C106.365 20.5033 106.552 20.928 106.888 21.236C107.233 21.544 107.648 21.698 108.134 21.698C108.498 21.698 108.801 21.6187 109.044 21.46C109.296 21.292 109.482 21.0773 109.604 20.816H111.424C111.293 21.2547 111.074 21.656 110.766 22.02C110.467 22.3747 110.094 22.6547 109.646 22.86C109.207 23.0653 108.708 23.168 108.148 23.168ZM108.162 17.344C107.723 17.344 107.336 17.47 107 17.722C106.664 17.9647 106.449 18.338 106.356 18.842H109.814C109.786 18.3847 109.618 18.0207 109.31 17.75C109.002 17.4793 108.619 17.344 108.162 17.344Z" fill="#E5E5E5"/>
</svg>
