<svg width="93" height="36" viewBox="0 0 93 36" fill="none" xmlns="http://www.w3.org/2000/svg">
<path d="M0 18C0 8.05888 8.05887 0 18 0H75C84.9411 0 93 8.05888 93 18C93 27.9411 84.9411 36 75 36H18C8.05887 36 0 27.9411 0 18Z" fill="white"/>
<path d="M30.0487 13.471C28.894 12.8126 27.997 12.3012 27.2686 11.9695C26.5374 11.6364 25.9027 11.4484 25.2856 11.5124C24.3061 11.6141 23.4144 12.1216 22.8334 12.9115C22.4663 13.4104 22.3135 14.0507 22.2398 14.8435C22.1665 15.6331 22.1665 16.6564 22.1665 17.9726V18.0274C22.1665 19.3435 22.1665 20.3669 22.2398 21.1565C22.3135 21.9493 22.4663 22.5896 22.8334 23.0885C23.4144 23.8784 24.3061 24.3859 25.2856 24.4875C25.9027 24.5516 26.5374 24.3635 27.2686 24.0305C27.997 23.6988 28.894 23.1873 30.0487 22.529L30.0955 22.5022C31.2502 21.8439 32.1471 21.3325 32.8024 20.8753C33.4595 20.4168 33.9438 19.9668 34.1978 19.4035C34.6005 18.5102 34.6005 17.4897 34.1978 16.5965C33.9438 16.0331 33.4595 15.5832 32.8024 15.1247C32.1471 14.6675 31.2502 14.1561 30.0955 13.4977L30.0487 13.471Z" fill="black"/>
<path d="M44.952 23V13.2H48.578C49.362 13.2 50.0107 13.3307 50.524 13.592C51.0373 13.8533 51.42 14.2127 51.672 14.67C51.924 15.1273 52.05 15.6407 52.05 16.21C52.05 16.7513 51.9287 17.2507 51.686 17.708C51.4433 18.156 51.0653 18.52 50.552 18.8C50.0387 19.0707 49.3807 19.206 48.578 19.206H46.744V23H44.952ZM46.744 17.75H48.466C49.0913 17.75 49.5393 17.6147 49.81 17.344C50.09 17.064 50.23 16.686 50.23 16.21C50.23 15.7247 50.09 15.3467 49.81 15.076C49.5393 14.796 49.0913 14.656 48.466 14.656H46.744V17.75ZM53.6139 23V12.92H55.4059V23H53.6139ZM59.831 23.168C59.2336 23.168 58.7436 23.0747 58.361 22.888C57.9783 22.692 57.6936 22.4353 57.507 22.118C57.3203 21.8007 57.227 21.4507 57.227 21.068C57.227 20.424 57.479 19.9013 57.983 19.5C58.487 19.0987 59.243 18.898 60.251 18.898H62.015V18.73C62.015 18.254 61.8796 17.904 61.609 17.68C61.3383 17.456 61.0023 17.344 60.601 17.344C60.237 17.344 59.9196 17.4327 59.649 17.61C59.3783 17.778 59.2103 18.03 59.145 18.366H57.395C57.4416 17.862 57.6096 17.4233 57.899 17.05C58.1976 16.6767 58.5803 16.392 59.047 16.196C59.5136 15.9907 60.0363 15.888 60.615 15.888C61.6043 15.888 62.3836 16.1353 62.953 16.63C63.5223 17.1247 63.807 17.8247 63.807 18.73V23H62.281L62.113 21.88C61.9076 22.2533 61.6183 22.5613 61.245 22.804C60.881 23.0467 60.4096 23.168 59.831 23.168ZM60.237 21.768C60.7503 21.768 61.147 21.6 61.427 21.264C61.7163 20.928 61.8983 20.5127 61.973 20.018H60.447C59.971 20.018 59.6303 20.1067 59.425 20.284C59.2196 20.452 59.117 20.662 59.117 20.914C59.117 21.1847 59.2196 21.3947 59.425 21.544C59.6303 21.6933 59.901 21.768 60.237 21.768ZM66.3526 26.08L67.9626 22.538H67.5426L64.8406 16.056H66.7866L68.7326 20.942L70.7626 16.056H72.6666L68.2566 26.08H66.3526Z" fill="black"/>
</svg>
