<svg width="23" height="23" viewBox="0 0 23 23" fill="none" xmlns="http://www.w3.org/2000/svg">
    <path d="M2.26696 14.8197L2.98025 14.5879L2.26696 14.8197ZM1.15645 8.65157L1.87776 8.85703L1.15645 8.65157ZM5.79367 3.96556L5.35283 3.3588L5.79367 3.96556ZM1.26974 8.30291L1.97405 8.56067L1.26974 8.30291ZM5.29064 20.678L4.87234 21.3005L5.29064 20.678ZM4.99405 20.4625L4.53126 21.0527L4.99405 20.4625ZM20.7331 14.8197L20.0198 14.5879L20.7331 14.8197ZM18.006 20.4625L18.4687 21.0527L18.006 20.4625ZM17.7094 20.678L18.1277 21.3005L17.7094 20.678ZM17.2063 3.96556L17.6472 3.3588L17.2063 3.96556ZM21.7303 8.30291L21.026 8.56067L21.7303 8.30291ZM21.8436 8.65157L21.1222 8.85703L21.8436 8.65157ZM11.6833 1.00336L11.6558 1.75286L11.6833 1.00336ZM11.3167 1.00336L11.3442 1.75286L11.3167 1.00336ZM9.50001 16.0697C9.08579 16.0697 8.75001 16.4054 8.75001 16.8197C8.75001 17.2339 9.08579 17.5697 9.50001 17.5697V16.0697ZM13.5 17.5697C13.9142 17.5697 14.25 17.2339 14.25 16.8197C14.25 16.4054 13.9142 16.0697 13.5 16.0697V17.5697ZM2.98025 14.5879C2.46589 13.0049 2.0995 11.874 1.90725 10.9558C1.71861 10.055 1.71454 9.43007 1.87776 8.85703L0.435142 8.44611C0.180922 9.33861 0.222785 10.2303 0.439095 11.2633C0.651798 12.2791 1.04938 13.4994 1.55366 15.0514L2.98025 14.5879ZM5.35283 3.3588C4.03261 4.31799 2.99365 5.07158 2.2245 5.76835C1.44232 6.47693 0.884352 7.17368 0.565421 8.04515L1.97405 8.56067C2.17883 8.00112 2.54942 7.49798 3.23157 6.88002C3.92676 6.25026 4.88791 5.55068 6.23451 4.57232L5.35283 3.3588ZM1.87776 8.85703C1.90622 8.7571 1.93834 8.65824 1.97405 8.56067L0.565421 8.04515C0.517108 8.17717 0.473652 8.31091 0.435142 8.44611L1.87776 8.85703ZM11.5 20.7779C9.83552 20.7779 8.64673 20.7768 7.71414 20.676C6.79905 20.577 6.20349 20.3878 5.70894 20.0555L4.87234 21.3005C5.6426 21.8181 6.50355 22.0538 7.55284 22.1673C8.58464 22.2789 9.86812 22.2779 11.5 22.2779V20.7779ZM1.55366 15.0514C2.05794 16.6034 2.45359 17.8244 2.87858 18.7712C3.31077 19.7341 3.801 20.4801 4.53126 21.0527L5.45684 19.8723C4.98796 19.5046 4.62396 18.9967 4.24704 18.157C3.86292 17.3012 3.4946 16.1709 2.98025 14.5879L1.55366 15.0514ZM5.70894 20.0555C5.62269 19.9975 5.5386 19.9364 5.45684 19.8723L4.53126 21.0527C4.64189 21.1394 4.75566 21.2221 4.87234 21.3005L5.70894 20.0555ZM20.0198 14.5879C19.5054 16.1709 19.1371 17.3012 18.753 18.157C18.3761 18.9967 18.0121 19.5046 17.5432 19.8723L18.4687 21.0527C19.199 20.4801 19.6892 19.7341 20.1214 18.7712C20.5464 17.8244 20.9421 16.6034 21.4464 15.0514L20.0198 14.5879ZM11.5 22.2779C13.1319 22.2779 14.4154 22.2789 15.4472 22.1673C16.4965 22.0538 17.3574 21.8181 18.1277 21.3005L17.2911 20.0555C16.7965 20.3878 16.201 20.577 15.2859 20.676C14.3533 20.7768 13.1645 20.7779 11.5 20.7779V22.2779ZM17.5432 19.8723C17.4614 19.9364 17.3773 19.9975 17.2911 20.0555L18.1277 21.3005C18.2444 21.2221 18.3581 21.1394 18.4687 21.0527L17.5432 19.8723ZM16.7655 4.57232C18.1121 5.55068 19.0733 6.25026 19.7684 6.88002C20.4506 7.49798 20.8212 8.00112 21.026 8.56067L22.4346 8.04515C22.1157 7.17368 21.5577 6.47693 20.7755 5.76835C20.0064 5.07158 18.9674 4.31799 17.6472 3.3588L16.7655 4.57232ZM21.4464 15.0514C21.9506 13.4994 22.3482 12.2791 22.5609 11.2633C22.7772 10.2303 22.8191 9.33861 22.5649 8.44611L21.1222 8.85703C21.2855 9.43007 21.2814 10.055 21.0928 10.9558C20.9005 11.874 20.5341 13.0049 20.0198 14.5879L21.4464 15.0514ZM21.026 8.56067C21.0617 8.65824 21.0938 8.75709 21.1222 8.85703L22.5649 8.44611C22.5264 8.31091 22.4829 8.17717 22.4346 8.04515L21.026 8.56067ZM17.6472 3.3588C16.327 2.3996 15.2892 1.64436 14.3889 1.12818C13.4733 0.603234 12.6382 0.287886 11.7108 0.253865L11.6558 1.75286C12.2512 1.7747 12.8443 1.97167 13.6428 2.42948C14.4566 2.89603 15.4189 3.59396 16.7655 4.57232L17.6472 3.3588ZM6.23451 4.57232C7.5811 3.59396 8.54345 2.89603 9.35722 2.42948C10.1557 1.97167 10.7488 1.7747 11.3442 1.75286L11.2892 0.253865C10.3618 0.287886 9.52676 0.603234 8.61115 1.12818C7.71081 1.64436 6.67305 2.3996 5.35283 3.3588L6.23451 4.57232ZM11.7108 0.253865C11.5703 0.248712 11.4297 0.248712 11.2892 0.253865L11.3442 1.75286C11.448 1.74905 11.552 1.74905 11.6558 1.75286L11.7108 0.253865ZM9.50001 17.5697H13.5V16.0697H9.50001V17.5697Z" fill="#999999"/>
</svg>
