<svg width="164" height="32" viewBox="0 0 164 32" fill="none" xmlns="http://www.w3.org/2000/svg">
<g clip-path="url(#clip0_3555_1450)">
<path d="M91.7759 26.8151C91.5337 26.8151 91.3557 26.7607 91.242 26.6618C91.1284 26.558 91.074 26.3751 91.074 26.1131V7.36781C91.074 7.10581 91.1284 6.92291 91.242 6.8191C91.3557 6.71529 91.5337 6.66585 91.7759 6.66585H93.7978C94.2279 6.66585 94.4898 6.87348 94.5838 7.28378L94.7815 8.0154C95.3451 7.47163 96.0223 7.04155 96.8182 6.72023C97.6141 6.40385 98.4248 6.24072 99.2503 6.24072C101.069 6.24072 102.503 6.90808 103.566 8.23785C104.624 9.56762 105.153 11.367 105.153 13.636C105.153 15.1932 104.891 16.5477 104.367 17.7094C103.843 18.8711 103.131 19.7658 102.231 20.3936C101.331 21.0214 100.303 21.3329 99.1416 21.3329C98.3753 21.3329 97.6437 21.2093 96.9517 20.9671C96.2596 20.7248 95.6664 20.3887 95.1819 19.9537V26.1082C95.1819 26.3702 95.1325 26.5531 95.0287 26.6569C94.9249 26.7607 94.742 26.8101 94.48 26.8101H91.7809L91.7759 26.8151ZM97.9304 18.2433C98.9784 18.2433 99.7546 17.8873 100.249 17.1755C100.743 16.4636 100.995 15.3415 100.995 13.8041C100.995 12.2667 100.753 11.1149 100.264 10.4031C99.7743 9.6912 98.9982 9.33528 97.9304 9.33528C96.9566 9.33528 96.0371 9.58739 95.177 10.0966V17.4869C96.0025 17.9911 96.9171 18.2482 97.9304 18.2482V18.2433Z" fill="white"/>
<path d="M108.608 21.0258C108.366 21.0258 108.188 20.9714 108.074 20.8577C107.96 20.744 107.906 20.5661 107.906 20.3238V7.36723C107.906 7.10523 107.96 6.92233 108.074 6.81852C108.188 6.7147 108.366 6.66527 108.608 6.66527H110.63C111.06 6.66527 111.322 6.87289 111.416 7.28319L111.782 8.80081C112.533 7.97527 113.24 7.39195 113.902 7.04591C114.57 6.69987 115.277 6.52686 116.023 6.52686H116.419C116.681 6.52686 116.868 6.57629 116.982 6.6801C117.096 6.78391 117.15 6.96682 117.15 7.22882V9.59175C117.15 9.83398 117.101 10.0119 116.997 10.1256C116.893 10.2393 116.71 10.2937 116.448 10.2937C116.315 10.2937 116.147 10.2838 115.944 10.2641C115.736 10.2443 115.474 10.2344 115.158 10.2344C114.728 10.2344 114.204 10.2937 113.586 10.4173C112.968 10.5409 112.444 10.6941 112.014 10.882V20.3238C112.014 20.5661 111.96 20.744 111.861 20.8577C111.757 20.9714 111.574 21.0258 111.312 21.0258H108.613H108.608Z" fill="white"/>
<path d="M121.189 4.44576C120.478 4.44576 119.904 4.24802 119.474 3.85749C119.044 3.46202 118.826 2.92814 118.826 2.25584C118.826 1.58354 119.039 1.04965 119.474 0.654181C119.904 0.25871 120.478 0.065918 121.189 0.065918C121.901 0.065918 122.475 0.263653 122.905 0.654181C123.335 1.04965 123.552 1.58354 123.552 2.25584C123.552 2.92814 123.335 3.46202 122.905 3.85749C122.475 4.25296 121.901 4.44576 121.189 4.44576ZM119.84 21.0259C119.598 21.0259 119.42 20.9715 119.306 20.8578C119.192 20.7441 119.138 20.5661 119.138 20.3239V7.3673C119.138 7.1053 119.192 6.92239 119.306 6.81858C119.42 6.71477 119.598 6.66533 119.84 6.66533H122.539C122.801 6.66533 122.984 6.71477 123.088 6.81858C123.191 6.92239 123.241 7.1053 123.241 7.3673V20.3239C123.241 20.5661 123.186 20.7441 123.088 20.8578C122.984 20.9715 122.801 21.0259 122.539 21.0259H119.84Z" fill="white"/>
<path d="M127.423 21.0258C127.18 21.0258 127.002 20.9714 126.889 20.8577C126.775 20.744 126.721 20.566 126.721 20.3238V7.3672C126.721 7.1052 126.775 6.9223 126.889 6.81849C127.002 6.71468 127.18 6.66524 127.423 6.66524H129.445C129.875 6.66524 130.137 6.87287 130.231 7.28317L130.458 8.04445C131.452 7.38698 132.346 6.92724 133.142 6.65536C133.938 6.38347 134.759 6.25 135.599 6.25C137.285 6.25 138.476 6.84815 139.168 8.04939C140.122 7.41169 141.022 6.95196 141.867 6.67019C142.713 6.38841 143.583 6.25 144.482 6.25C145.792 6.25 146.811 6.61581 147.532 7.34743C148.254 8.07905 148.615 9.09739 148.615 10.4123V20.3337C148.615 20.5759 148.561 20.7539 148.462 20.8676C148.358 20.9813 148.175 21.0357 147.913 21.0357H145.214C144.972 21.0357 144.794 20.9813 144.68 20.8676C144.566 20.7539 144.512 20.5759 144.512 20.3337V11.312C144.512 10.0366 143.939 9.39893 142.797 9.39893C141.783 9.39893 140.765 9.64116 139.732 10.1306V20.3337C139.732 20.5759 139.682 20.7539 139.578 20.8676C139.475 20.9813 139.292 21.0357 139.03 21.0357H136.331C136.088 21.0357 135.91 20.9813 135.797 20.8676C135.683 20.7539 135.629 20.5759 135.629 20.3337V11.312C135.629 10.0366 135.055 9.39893 133.913 9.39893C132.865 9.39893 131.832 9.65105 130.824 10.1553V20.3288C130.824 20.571 130.769 20.7489 130.67 20.8626C130.567 20.9763 130.384 21.0307 130.122 21.0307H127.423V21.0258Z" fill="white"/>
<path d="M158.363 21.4457C156.04 21.4457 154.255 20.808 153.009 19.5326C151.764 18.2572 151.141 16.4331 151.141 14.0504C151.141 11.6676 151.779 9.70512 153.054 8.31603C154.329 6.93188 156.099 6.23486 158.368 6.23486C160.113 6.23486 161.473 6.65505 162.456 7.50037C163.44 8.34569 163.929 9.46784 163.929 10.8718C163.929 12.2757 163.4 13.3385 162.343 14.0602C161.285 14.782 159.723 15.1428 157.661 15.1428C156.593 15.1428 155.664 15.039 154.878 14.8314C154.992 16.087 155.372 16.9867 156.015 17.5305C156.663 18.0743 157.641 18.3462 158.951 18.3462C159.475 18.3462 159.985 18.3115 160.484 18.2473C160.978 18.183 161.67 18.0347 162.55 17.8123C162.605 17.7925 162.664 17.7777 162.718 17.7678C162.773 17.7579 162.822 17.7529 162.857 17.7529C163.173 17.7529 163.336 17.9705 163.336 18.4005V19.6957C163.336 19.9972 163.297 20.2049 163.213 20.3284C163.129 20.452 162.965 20.5558 162.718 20.6498C161.349 21.1738 159.896 21.4358 158.363 21.4358V21.4457ZM157.439 12.6217C158.393 12.6217 159.085 12.4784 159.52 12.1867C159.95 11.895 160.167 11.4501 160.167 10.852C160.167 9.67051 159.466 9.08225 158.062 9.08225C156.262 9.08225 155.224 10.1896 154.942 12.3993C155.694 12.5476 156.524 12.6267 157.444 12.6267L157.439 12.6217Z" fill="white"/>
<path fill-rule="evenodd" clip-rule="evenodd" d="M52.8614 26.1575C47.9921 29.7513 40.928 31.6644 34.8477 31.6644C26.3253 31.6644 18.6482 28.5154 12.8397 23.2705C12.385 22.8602 12.7903 22.2967 13.339 22.613C19.6072 26.2613 27.3535 28.4561 35.3569 28.4561C40.755 28.4561 46.692 27.334 52.1545 25.0205C52.98 24.6695 53.6671 25.5642 52.8614 26.1575Z" fill="white"/>
<path fill-rule="evenodd" clip-rule="evenodd" d="M54.8884 23.8438C54.2655 23.0479 50.7705 23.4681 49.1985 23.6559C48.724 23.7152 48.6498 23.2951 49.0799 22.9984C51.868 21.0409 56.4357 21.6044 56.9695 22.2619C57.5034 22.9243 56.8311 27.5019 54.2161 29.6918C53.8157 30.0279 53.4301 29.85 53.608 29.4051C54.1963 27.9369 55.5112 24.6495 54.8884 23.8487V23.8438Z" fill="white"/>
<path fill-rule="evenodd" clip-rule="evenodd" d="M49.3123 9.15673V7.25353C49.3123 6.96187 49.5298 6.76908 49.7968 6.77402H58.3291C58.6009 6.77402 58.8185 6.97175 58.8185 7.25353V8.88484C58.8185 9.15673 58.5861 9.5176 58.1758 10.0811L53.7564 16.3889C55.3976 16.3494 57.1328 16.5965 58.6207 17.432C58.9569 17.6198 59.0459 17.9016 59.0755 18.1735V20.2052C59.0755 20.487 58.769 20.8083 58.4477 20.6402C55.8228 19.266 52.3377 19.1127 49.4359 20.655C49.1393 20.8132 48.8279 20.4919 48.8279 20.2151V18.2872C48.8279 17.9757 48.8328 17.4517 49.1443 16.9772L54.2656 9.63129H49.8067C49.5348 9.63129 49.3173 9.4385 49.3123 9.15179V9.15673Z" fill="white"/>
<path fill-rule="evenodd" clip-rule="evenodd" d="M66.1839 9.24572C64.2708 9.24572 64.1472 11.8509 64.1472 13.4773C64.1472 15.1036 64.1225 18.5788 66.1592 18.5788C68.1959 18.5788 68.2651 15.7759 68.2651 14.0655C68.2651 12.9434 68.2156 11.5988 67.8745 10.5359C67.5829 9.61153 67.0045 9.24572 66.179 9.24572H66.1839ZM66.1592 6.52686C70.0101 6.52686 72.0912 9.83398 72.0912 14.0359C72.0912 18.2377 69.7926 21.3224 66.1592 21.3224C62.5258 21.3224 60.321 18.0153 60.321 13.8974C60.321 9.7796 62.4022 6.52686 66.1592 6.52686Z" fill="white"/>
<path fill-rule="evenodd" clip-rule="evenodd" d="M45.1301 21.0111C44.9571 21.1643 44.6457 21.1693 44.5172 21.0704C43.6323 20.3833 43.0292 19.3402 43.0292 19.3402C41.6055 20.7936 40.5971 21.2286 38.7532 21.2286C36.5682 21.2286 34.8677 19.879 34.8677 17.1849C34.8677 15.079 36.0096 13.6454 37.636 12.9435C39.0448 12.3256 41.0123 12.2119 42.5151 12.0438C42.5151 12.0438 42.6387 10.4174 42.1987 9.8242C41.8576 9.36447 41.2743 9.1519 40.7404 9.1519C39.7765 9.1519 38.8471 9.67096 38.6642 10.6794C38.6098 10.9661 38.3973 11.2084 38.1748 11.1836L35.6883 10.9167C35.4955 10.8969 35.2384 10.6992 35.3027 10.3729C35.8811 7.32285 38.6345 6.39844 41.1062 6.39844C42.3668 6.39844 44.0179 6.73459 45.0164 7.68866C46.277 8.87013 46.1584 10.4421 46.1584 12.1575V16.2012C46.1584 17.4172 46.6626 17.9511 47.1372 18.6037C47.3003 18.8409 47.3398 19.1227 47.1273 19.2957C46.5983 19.7406 45.1301 21.0111 45.1301 21.0111ZM42.5101 14.6836C42.5101 15.6969 42.5349 16.5373 42.0257 17.437C41.6154 18.1686 40.9579 18.6185 40.2312 18.6185C39.2376 18.6185 38.6543 17.8621 38.6543 16.7351C38.6543 14.5254 40.6366 14.1249 42.5151 14.1249V14.6885L42.5101 14.6836Z" fill="white"/>
<path fill-rule="evenodd" clip-rule="evenodd" d="M11.1101 21.0111C10.9371 21.1643 10.6257 21.1693 10.4971 21.0704C9.61228 20.3833 9.00918 19.3402 9.00918 19.3402C7.58549 20.7936 6.57704 21.2286 4.73316 21.2286C2.54818 21.2286 0.847656 19.879 0.847656 17.1849C0.847656 15.079 1.98958 13.6454 3.61595 12.9435C5.02482 12.3256 6.99228 12.2119 8.49507 12.0438C8.49507 12.0438 8.61866 10.4174 8.17869 9.8242C7.8376 9.36447 7.25428 9.1519 6.7204 9.1519C5.75644 9.1519 4.82708 9.67096 4.64418 10.6794C4.5898 10.9661 4.37723 11.2084 4.15478 11.1836L1.66826 10.9167C1.47547 10.8969 1.21841 10.6992 1.28267 10.3729C1.86105 7.32285 4.61451 6.39844 7.08621 6.39844C8.34677 6.39844 9.99786 6.73459 10.9964 7.68866C12.257 8.87013 12.1383 10.4421 12.1383 12.1575V16.2012C12.1383 17.4172 12.6426 17.9511 13.1171 18.6037C13.2803 18.8409 13.3198 19.1227 13.1072 19.2957C12.5783 19.7406 11.1101 21.0111 11.1101 21.0111ZM8.49507 14.6836C8.49507 15.6969 8.51979 16.5373 8.01062 17.437C7.60032 18.1686 6.94285 18.6185 6.21617 18.6185C5.22255 18.6185 4.63923 17.8621 4.63923 16.7351C4.63923 14.5254 6.62153 14.1249 8.50001 14.1249V14.6885L8.49507 14.6836Z" fill="white"/>
<path fill-rule="evenodd" clip-rule="evenodd" d="M18.698 13.5069C18.698 11.9646 18.6238 9.83398 20.4924 9.83398C22.361 9.83398 22.0891 12.019 22.0891 13.5069V20.5661C22.0891 20.8231 22.2968 21.0258 22.5588 21.0456H25.1491C25.4259 21.0456 25.6484 20.833 25.6484 20.5661V13.5069C25.6484 12.7506 25.6237 11.6284 25.8906 10.9561C26.1575 10.2838 26.8101 9.86364 27.4428 9.86364C28.1942 9.86364 28.7726 10.1158 28.9703 11.0154C29.0939 11.5493 29.0445 12.9483 29.0445 13.5069V20.5661C29.0445 20.8231 29.2521 21.0258 29.5092 21.0456H32.0995C32.3763 21.0456 32.5988 20.833 32.5988 20.5661V12.1623C32.5988 10.7337 32.7718 9.1073 31.9462 7.98515C31.2196 6.9767 30.0332 6.52686 28.9407 6.52686C27.4132 6.52686 25.9845 7.31285 25.3567 8.9936C24.63 7.31285 23.6117 6.52686 21.9903 6.52686C20.3688 6.52686 19.2071 7.31285 18.5744 8.9936H18.525V7.29308C18.525 7.02614 18.3074 6.80863 18.0405 6.80863H15.6182C15.3513 6.80863 15.1338 7.02614 15.1338 7.29308V20.5611C15.1338 20.8281 15.3513 21.0456 15.6182 21.0456H18.2086C18.4755 21.0456 18.693 20.8281 18.693 20.5611V13.5069H18.698Z" fill="white"/>
<path fill-rule="evenodd" clip-rule="evenodd" d="M77.5934 20.5615C77.5934 20.8285 77.3759 21.046 77.109 21.046H74.5186C74.2517 21.046 74.0342 20.8285 74.0342 20.5615V7.29351C74.0342 7.02656 74.2517 6.80906 74.5186 6.80906H76.9162C77.1979 6.80906 77.4006 7.03645 77.4006 7.1897V9.22143H77.4501C78.1767 7.39732 79.1951 6.53223 80.9846 6.53223C82.1463 6.53223 83.2882 6.95241 84.0149 8.10422C84.6921 9.16705 84.6921 10.9615 84.6921 12.2517V20.6308C84.6625 20.868 84.4499 21.0509 84.1928 21.0509H81.5926C81.3504 21.0361 81.1576 20.8582 81.1329 20.6308V12.5829C81.1329 9.88878 80.1047 9.80969 79.5115 9.80969C78.8194 9.80969 78.2608 10.3485 78.0185 10.8527C77.6577 11.6635 77.5984 12.4989 77.5984 13.3936V20.5615H77.5934Z" fill="white"/>
</g>
<defs>
<clipPath id="clip0_3555_1450">
<rect width="163.082" height="31.6031" fill="white" transform="translate(0.847412 0.0610352)"/>
</clipPath>
</defs>
</svg>
