<svg width="36" height="36" viewBox="0 0 36 36" fill="none" xmlns="http://www.w3.org/2000/svg">
<rect x="0.198486" y="0.503418" width="35.1145" height="35.1145" rx="5.01636" fill="#0099FF"/>
<g clip-path="url(#clip0_3584_2280)">
<path d="M8.06842 11.9565C8.42498 11.9565 8.68827 11.8351 8.85732 11.5931C9.02637 11.3512 9.1109 10.9684 9.1109 10.4457C9.1109 9.92303 9.02832 9.5315 8.86218 9.28861C8.69605 9.04669 8.43178 8.92525 8.06842 8.92525C7.73712 8.92525 7.42428 9.01171 7.13184 9.18368V11.6981C7.41262 11.87 7.72449 11.9565 8.06842 11.9565ZM5.97472 14.8721C5.89214 14.8721 5.83093 14.8546 5.79304 14.8197C5.75515 14.7847 5.73572 14.7225 5.73572 14.6331V8.25682C5.73572 8.16743 5.75515 8.10525 5.79304 8.07028C5.83093 8.0353 5.89214 8.01781 5.97472 8.01781H6.66258C6.80929 8.01781 6.89867 8.08777 6.93073 8.22767L6.99777 8.47639C7.18916 8.29179 7.41942 8.14509 7.69049 8.03627C7.96155 7.92843 8.2365 7.87402 8.51728 7.87402C9.13519 7.87402 9.62485 8.1004 9.98433 8.55314C10.3438 9.00588 10.5245 9.61796 10.5245 10.3884C10.5245 10.9179 10.4351 11.3794 10.2564 11.7748C10.0776 12.1702 9.83568 12.4743 9.52964 12.6881C9.2236 12.9018 8.87287 13.0087 8.47842 13.0087C8.21707 13.0087 7.96835 12.9669 7.73226 12.8843C7.49617 12.8017 7.29603 12.6871 7.1299 12.5404V14.6341C7.1299 14.7235 7.11241 14.7857 7.07743 14.8206C7.04246 14.8556 6.98028 14.8731 6.8909 14.8731H5.97278H5.97472V14.8721Z" fill="black"/>
<path d="M11.6816 12.9028C11.599 12.9028 11.5378 12.8834 11.4999 12.8455C11.4621 12.8076 11.4426 12.7464 11.4426 12.6638V8.25682C11.4426 8.16744 11.4621 8.10526 11.4999 8.07028C11.5378 8.0353 11.599 8.01782 11.6816 8.01782H12.3695C12.5162 8.01782 12.6056 8.08777 12.6376 8.22767L12.762 8.74357C13.0165 8.46279 13.2575 8.26362 13.4839 8.14606C13.7102 8.0285 13.9502 7.96924 14.2057 7.96924H14.3398C14.4292 7.96924 14.4923 7.98673 14.5312 8.0217C14.5691 8.05668 14.5885 8.11886 14.5885 8.20824V9.01172C14.5885 9.0943 14.571 9.15551 14.5361 9.1934C14.5011 9.23129 14.4389 9.25072 14.3495 9.25072C14.3048 9.25072 14.2475 9.2478 14.1776 9.241C14.1076 9.23517 14.0182 9.23129 13.9104 9.23129C13.7637 9.23129 13.5849 9.25169 13.375 9.29347C13.1652 9.33524 12.9864 9.38771 12.8397 9.45086V12.6628C12.8397 12.7454 12.8222 12.8066 12.7873 12.8445C12.7523 12.8824 12.6901 12.9018 12.6007 12.9018H11.6816V12.9028Z" fill="black"/>
<path d="M15.4416 12.9027C15.359 12.9027 15.2978 12.8833 15.2599 12.8454C15.222 12.8075 15.2026 12.7463 15.2026 12.6637V8.25672C15.2026 8.16733 15.222 8.10515 15.2599 8.07018C15.2978 8.0352 15.359 8.01771 15.4416 8.01771H16.3597C16.4491 8.01771 16.5113 8.0352 16.5462 8.07018C16.5812 8.10515 16.5987 8.16733 16.5987 8.25672V12.6637C16.5987 12.7463 16.5812 12.8075 16.5462 12.8454C16.5113 12.8833 16.4491 12.9027 16.3597 12.9027H15.4416ZM15.9002 7.26282C15.6582 7.26282 15.4639 7.19578 15.3172 7.0617C15.1705 6.92763 15.0977 6.74595 15.0977 6.51666C15.0977 6.28737 15.1705 6.10569 15.3172 5.97162C15.4639 5.83755 15.6582 5.77051 15.9002 5.77051C16.1421 5.77051 16.3364 5.83755 16.4831 5.97162C16.6298 6.10569 16.7027 6.28737 16.7027 6.51666C16.7027 6.74595 16.6288 6.92763 16.4831 7.0617C16.3364 7.19578 16.1421 7.26282 15.9002 7.26282Z" fill="black"/>
<path d="M18.0006 12.9028C17.918 12.9028 17.8568 12.8834 17.8189 12.8455C17.781 12.8076 17.7616 12.7464 17.7616 12.6638V8.25682C17.7616 8.16743 17.781 8.10525 17.8189 8.07028C17.8568 8.0353 17.918 8.01781 18.0006 8.01781H18.6885C18.8352 8.01781 18.9245 8.08777 18.9566 8.22767L19.0334 8.4861C19.3715 8.26265 19.6756 8.10525 19.9466 8.01296C20.2177 7.92066 20.4965 7.87402 20.7831 7.87402C21.3563 7.87402 21.7615 8.07805 21.9976 8.4861C22.323 8.26945 22.6281 8.11303 22.9157 8.01781C23.2023 7.9226 23.4986 7.87402 23.8047 7.87402C24.2506 7.87402 24.5965 7.99838 24.8423 8.2471C25.0871 8.49582 25.2105 8.84266 25.2105 9.28958V12.6638C25.2105 12.7464 25.193 12.8076 25.158 12.8455C25.1231 12.8834 25.0609 12.9028 24.9715 12.9028H24.0534C23.9708 12.9028 23.9096 12.8834 23.8717 12.8455C23.8338 12.8076 23.8144 12.7464 23.8144 12.6638V9.59465C23.8144 9.16133 23.6201 8.94468 23.2315 8.94468C22.8875 8.94468 22.5397 9.02726 22.189 9.19339V12.6638C22.189 12.7464 22.1715 12.8076 22.1365 12.8455C22.1015 12.8834 22.0394 12.9028 21.95 12.9028H21.0319C20.9493 12.9028 20.8881 12.8834 20.8502 12.8455C20.8123 12.8076 20.7928 12.7464 20.7928 12.6638V9.59465C20.7928 9.16133 20.5985 8.94468 20.2099 8.94468C19.8534 8.94468 19.5026 9.03115 19.1587 9.20311V12.6638C19.1587 12.7464 19.1412 12.8076 19.1062 12.8455C19.0713 12.8834 19.0091 12.9028 18.9197 12.9028H18.0006Z" fill="black"/>
<path d="M29.0705 9.47243C29.0705 9.00608 28.7421 8.87298 28.337 8.87298C28.0708 8.87298 27.8124 8.96917 27.6365 9.16251C27.4646 9.35099 27.3587 9.63662 27.313 9.99707C27.313 9.99707 28.029 10.1273 28.5478 10.0418C28.817 9.99707 29.0715 9.84842 29.0715 9.4734H29.0705V9.47243ZM28.4895 13.0555C27.7104 13.0555 27.1177 12.8738 26.6416 12.389C26.3288 12.0713 26.0344 11.4806 26.0344 10.4692C26.0344 9.65314 26.2929 9.03037 26.7135 8.57763C27.1342 8.12488 27.7764 7.91309 28.3836 7.91309C29.1415 7.91309 29.5913 8.08505 29.9352 8.42898C29.9916 8.48533 30.3374 8.84286 30.3374 9.41705C30.3374 9.61428 30.3433 9.81928 30.2082 10.1059C30.1169 10.3002 29.977 10.4216 29.941 10.4556C29.3775 10.9715 28.2719 10.9375 27.8988 10.9162L27.2936 10.8239C27.3334 11.2436 27.4509 11.5729 27.7074 11.7595C27.9494 11.9353 28.2136 12.0092 28.7548 12.0092C29.0258 12.0092 29.3882 11.9548 29.8536 11.8333C29.8789 11.8265 29.9274 11.8139 29.944 11.8119C29.9546 11.81 30.0003 11.8051 30.0324 11.8158C30.0829 11.8333 30.1412 11.8819 30.1412 12.0198V12.46C30.1412 12.562 30.1295 12.6339 30.1014 12.6747C30.0722 12.7165 30.0159 12.7563 29.9323 12.7883C29.4475 12.9671 28.9957 13.0546 28.4905 13.0546H28.4895V13.0555Z" fill="black"/>
<path d="M23.116 18.5774C23.116 18.0799 22.7653 17.9371 22.3329 17.9371C22.0483 17.9371 21.7733 18.0401 21.5848 18.2461C21.4012 18.4472 21.2875 18.7522 21.2399 19.136C21.2399 19.136 22.0045 19.2749 22.5573 19.1836C22.844 19.136 23.116 18.9767 23.116 18.5774ZM22.4961 22.4014C21.6645 22.4014 21.032 22.2071 20.5239 21.6902C20.1906 21.3511 19.8759 20.7206 19.8759 19.6412C19.8759 18.7707 20.1518 18.1052 20.6006 17.6223C21.0495 17.1395 21.7354 16.9131 22.3825 16.9131C23.1918 16.9131 23.6717 17.0967 24.039 17.464C24.0992 17.5242 24.4684 17.906 24.4684 18.5181C24.4684 18.7289 24.4752 18.9475 24.3304 19.2536C24.2323 19.4605 24.0837 19.5907 24.0448 19.6266C23.4434 20.1775 22.2639 20.1406 21.8646 20.1182L21.2185 20.0201C21.2603 20.468 21.3866 20.8187 21.6606 21.0189C21.9181 21.2064 22.2008 21.2861 22.7789 21.2861C23.0684 21.2861 23.4541 21.2278 23.9515 21.0985C23.9787 21.0917 24.0302 21.0781 24.0487 21.0752C24.0603 21.0733 24.1089 21.0684 24.1429 21.0791C24.1973 21.0976 24.2585 21.1491 24.2585 21.2967V21.766C24.2585 21.8748 24.2459 21.9516 24.2158 21.9953C24.1847 22.04 24.1245 22.0827 24.0361 22.1167C23.5192 22.3072 23.0363 22.4004 22.4971 22.4004H22.4961V22.4014Z" fill="black"/>
<path d="M7.64975 22.2378C7.58174 22.2378 7.52539 22.229 7.48167 22.2125C7.43698 22.196 7.40006 22.1688 7.36897 22.1309C7.33788 22.094 7.30971 22.0405 7.28251 21.9725L5.53759 17.4325C5.51719 17.3781 5.4997 17.3304 5.4861 17.2896C5.4725 17.2488 5.4657 17.2119 5.4657 17.1769C5.4657 17.0749 5.53371 17.0234 5.66972 17.0234H6.68986C6.79867 17.0234 6.87834 17.0438 6.92983 17.0846C6.98035 17.1255 7.02019 17.1935 7.04739 17.2887L8.09861 20.8999L9.17024 17.2887C9.19744 17.1935 9.2363 17.1255 9.28779 17.0846C9.33929 17.0438 9.41895 17.0234 9.52777 17.0234H10.5178C10.6538 17.0234 10.7218 17.0749 10.7218 17.1769C10.7218 17.2109 10.715 17.2488 10.7014 17.2896C10.6878 17.3304 10.6703 17.3781 10.6499 17.4325L8.905 21.9725C8.8778 22.0405 8.84865 22.093 8.81853 22.1309C8.78744 22.1688 8.75247 22.196 8.71166 22.2125C8.67086 22.23 8.61256 22.2378 8.53775 22.2378H7.64975Z" fill="black"/>
<path d="M11.6098 22.2376C11.5214 22.2376 11.4573 22.2172 11.4165 22.1764C11.3757 22.1356 11.3552 22.0715 11.3552 21.9821V17.2788C11.3552 17.1836 11.3757 17.1175 11.4165 17.0796C11.4573 17.0427 11.5214 17.0233 11.6098 17.0233H12.5891C12.6843 17.0233 12.7504 17.0417 12.7883 17.0796C12.8252 17.1175 12.8446 17.1836 12.8446 17.2788V21.9821C12.8446 22.0705 12.8262 22.1356 12.7883 22.1764C12.7504 22.2172 12.6843 22.2376 12.5891 22.2376H11.6098ZM12.0995 16.2188C11.841 16.2188 11.6331 16.1469 11.4767 16.0041C11.3203 15.8613 11.2416 15.667 11.2416 15.4222C11.2416 15.1773 11.3193 14.983 11.4767 14.8402C11.6331 14.6974 11.8401 14.6255 12.0995 14.6255C12.3589 14.6255 12.5648 14.6974 12.7222 14.8402C12.8786 14.983 12.9564 15.1773 12.9564 15.4222C12.9564 15.667 12.8777 15.8613 12.7222 16.0041C12.5658 16.1469 12.3579 16.2188 12.0995 16.2188Z" fill="black"/>
<path d="M16.453 21.228C16.7794 21.228 17.0923 21.1328 17.3915 20.9424V18.2492C17.0991 18.0792 16.762 17.9937 16.3811 17.9937C16.0207 17.9937 15.7515 18.1278 15.5747 18.3969C15.3979 18.666 15.3095 19.0721 15.3095 19.6162C15.3095 20.1603 15.4027 20.5654 15.5903 20.8306C15.7768 21.0959 16.0644 21.229 16.452 21.229L16.453 21.228ZM15.9633 22.3502C15.5213 22.3502 15.1365 22.2365 14.8101 22.0082C14.4837 21.7808 14.234 21.4641 14.0601 21.059C13.8862 20.6548 13.7997 20.1865 13.7997 19.656C13.7997 18.8127 13.9998 18.1375 14.402 17.6313C14.8033 17.1251 15.3338 16.8716 15.9935 16.8716C16.5307 16.8716 16.9961 17.0251 17.3915 17.3311V14.944C17.3915 14.8488 17.4119 14.7827 17.4527 14.7448C17.4935 14.7079 17.5577 14.6885 17.647 14.6885H18.6264C18.7216 14.6885 18.7876 14.7069 18.8255 14.7448C18.8625 14.7827 18.8819 14.8488 18.8819 14.944V21.9839C18.8819 22.0723 18.8634 22.1374 18.8255 22.1782C18.7876 22.219 18.7216 22.2394 18.6264 22.2394H17.8103C17.7287 22.2394 17.6655 22.2229 17.6218 22.1879C17.5771 22.1539 17.545 22.0956 17.5246 22.014L17.4634 21.7789C17.0418 22.1597 16.5414 22.3502 15.9633 22.3502Z" fill="black"/>
<path d="M27.757 21.2484C28.4711 21.2484 28.8286 20.7073 28.8286 19.6259C28.8286 18.5446 28.4711 18.0141 27.757 18.0141C27.0429 18.0141 26.6853 18.5514 26.6853 19.6259C26.6853 20.7005 27.0419 21.2484 27.757 21.2484ZM27.757 22.391C26.9477 22.391 26.3152 22.1481 25.8595 21.6613C25.4039 21.1756 25.1755 20.4965 25.1755 19.6259C25.1755 18.7554 25.4039 18.087 25.8595 17.6012C26.3152 17.1154 26.9477 16.8716 27.757 16.8716C28.5663 16.8716 29.1987 17.1145 29.6544 17.6012C30.1101 18.088 30.3384 18.7622 30.3384 19.6259C30.3384 20.4897 30.1101 21.1746 29.6544 21.6613C29.1987 22.1481 28.5663 22.391 27.757 22.391Z" fill="black"/>
<path fill-rule="evenodd" clip-rule="evenodd" d="M5.94067 24.8863V24.9601C5.95039 25.0233 5.98342 25.0903 6.0456 25.1505C9.24882 28.2673 13.4799 30.1395 18.1784 30.1395C21.5312 30.1395 25.4252 29.0028 28.1116 26.8683C28.5556 26.5127 28.1757 25.9841 27.722 26.1911C24.7111 27.5678 21.4389 28.2343 18.4611 28.2343C14.0483 28.2343 9.7754 26.9295 6.32152 24.7629C6.25934 24.724 6.20008 24.7065 6.14859 24.7065C6.03686 24.7065 5.95622 24.7843 5.94067 24.8853" fill="black"/>
<path fill-rule="evenodd" clip-rule="evenodd" d="M25.8965 25.2229C25.8013 25.2948 25.7508 25.3784 25.7421 25.4483V25.492C25.7537 25.5737 25.8295 25.6281 25.9636 25.6115C26.8283 25.4998 28.7558 25.2521 29.0988 25.7252C29.4427 26.1974 28.717 28.1454 28.3934 29.012C28.2963 29.2733 28.5061 29.3812 28.7267 29.181C30.1685 27.8879 30.5406 25.1763 30.2442 24.7848C30.1034 24.5972 29.4417 24.4224 28.6227 24.4224C27.7474 24.4224 26.6913 24.6225 25.8975 25.222" fill="black"/>
</g>
<defs>
<clipPath id="clip0_3584_2280">
<rect width="24.8728" height="24.3685" fill="white" transform="translate(5.4657 5.77051)"/>
</clipPath>
</defs>
</svg>
