<svg width="186" height="90" viewBox="0 0 186 90" fill="none" xmlns="http://www.w3.org/2000/svg">
<g clip-path="url(#clip0_2143_2743)">
<g clip-path="url(#clip1_2143_2743)">
<path d="M130.5 57.2857C130.5 57.1428 130.5 56.9286 130.5 56.7857C130.5 56.2857 130.5 55.7857 130.429 55.2857C130.429 54.6428 130.286 54 130.214 53.3571C130.214 53.0714 130.143 52.8571 130.071 52.5714C130 52 129.857 51.4286 129.714 50.8571C129.643 50.5 129.5 50.1428 129.429 49.7143C129.357 49.4286 129.286 49.1428 129.214 48.8571C129.143 48.5714 129 48.2143 128.929 47.9286C128.714 47.2143 128.429 46.5714 128.143 45.9286C128 45.6428 127.929 45.4286 127.786 45.1428C127.643 44.8571 127.5 44.5714 127.357 44.2857C127.214 44 127.071 43.7143 126.929 43.4286C126.786 43.2143 126.643 42.9286 126.5 42.7143C126.5 42.7143 126.5 42.6428 126.429 42.5714C126.286 42.2857 126.071 42 125.929 41.7143C125.786 41.4286 125.571 41.2143 125.429 40.9286C125.143 40.4286 124.786 40 124.429 39.5714C124.286 39.3571 124.143 39.2143 124 39.0714C123.929 38.9286 123.786 38.7857 123.714 38.7143C123.5 38.4286 123.286 38.1428 123.071 37.9286C122.786 37.6428 122.5 37.3571 122.286 37.0714C122.071 36.8571 121.857 36.5714 121.571 36.3571C121.429 36.2143 121.286 36.0714 121.143 36C121 35.8571 120.857 35.7143 120.714 35.5714C120.643 35.5 120.5 35.3571 120.429 35.2857C120.286 35.1428 120.071 35 119.929 34.8571C119.786 34.7143 119.643 34.6428 119.5 34.5C119.214 34.2857 118.929 34.0714 118.714 33.8571C118.429 33.6428 118.143 33.4286 117.786 33.1428C117.786 33.1428 117.643 33.0714 117.571 33C117.357 32.8571 117.143 32.7143 116.929 32.5714C116.786 32.5 116.714 32.4286 116.571 32.3571C116.357 32.2143 116.071 32.0714 115.857 31.9286C115.857 31.9286 115.714 31.8571 115.643 31.7857C115.357 31.6428 115.143 31.5 114.857 31.3571C114.786 31.3571 114.643 31.2143 114.571 31.2143C114.214 31 113.929 30.8571 113.571 30.7143C113.286 30.5714 113 30.4286 112.714 30.2857C112.5 30.2143 112.357 30.0714 112.143 30C111.929 29.9286 111.786 29.8571 111.571 29.7857C111.429 29.7857 111.357 29.7143 111.214 29.6428C110.929 29.5 110.643 29.4286 110.286 29.2857C110.286 29.2857 110.214 29.2857 110.143 29.2857C109.786 29.1428 109.357 29 109 28.9286C106.143 28.0714 103.071 27.5714 99.9285 27.5714C96.7857 27.5714 99.4285 27.5714 99.2142 27.5714C96.8571 27.5714 94.5714 27.9286 92.3571 28.5C91.9999 28.5714 91.7142 28.6428 91.3571 28.7857C90.9999 28.9286 90.5714 29 90.2142 29.1428C77.9999 33.2143 69.2142 44.7857 69.2142 58.3571C69.2142 71.9286 69.2142 58.8571 69.2142 59.1428C69.2142 61 69.4999 62.7857 69.8571 64.5714C69.9285 64.9286 69.9999 65.3571 70.1428 65.7143C70.2142 66.0714 70.3571 66.5 70.4285 66.8571C70.4999 67.2143 70.6428 67.5714 70.7857 68C70.9285 68.3571 70.9999 68.7143 71.1428 69.0714C71.2142 69.3571 71.3571 69.6428 71.4999 69.9286C71.4999 70.0714 71.5714 70.2143 71.6428 70.3571C71.7142 70.5714 71.7857 70.7857 71.9285 70.9286C71.9999 71.0714 72.0714 71.2857 72.1428 71.4286C72.2857 71.7143 72.4285 72 72.5714 72.3571C72.7142 72.5714 72.8571 72.8571 72.9285 73.0714C72.9285 73.2143 73.0714 73.2857 73.1428 73.4286C73.2857 73.7143 73.4285 74 73.6428 74.2857C73.9999 74.9285 74.3571 75.5 74.7857 76.0714C74.8571 76.2143 74.9999 76.3571 75.0714 76.4285C75.3571 76.8571 75.7142 77.2857 76.0714 77.7143C76.1428 77.8571 76.2857 78 76.3571 78.0714C76.4999 78.2857 76.6428 78.4286 76.8571 78.6428L77.1428 79C77.2857 79.2143 77.4999 79.3571 77.6428 79.5714C77.7857 79.7143 77.9285 79.8571 78.0714 80C78.2857 80.2143 78.4999 80.5 78.7857 80.7143C78.9999 80.9285 79.1428 81.0714 79.3571 81.2143C79.5714 81.4286 79.7857 81.6428 80.0714 81.7857C80.2142 81.9285 80.3571 82 80.4999 82.1428C80.7142 82.2857 80.8571 82.4286 81.0714 82.5714C81.2142 82.6428 81.2857 82.7857 81.4285 82.8571C81.6428 83 81.8571 83.2143 82.0714 83.3571C82.3571 83.5714 82.7142 83.7857 82.9999 84C83.2142 84.1428 83.4285 84.2857 83.7142 84.4286C84.1428 84.7143 84.6428 85 85.1428 85.2857C85.4285 85.4286 85.7142 85.5714 85.9999 85.7143C86.3571 85.9285 86.6428 86.0714 86.9999 86.2143C87.3571 86.4286 87.7857 86.5714 88.1428 86.7143C88.4285 86.8571 88.6428 86.9286 88.9285 87.0714C89.3571 87.2143 89.7142 87.3571 90.1428 87.5C90.4999 87.6428 90.7857 87.7143 91.1428 87.7857C91.2142 87.7857 91.3571 87.7857 91.4285 87.8571C91.7142 87.9285 91.9999 88 92.2857 88.0714C92.3571 88.0714 92.4285 88.0714 92.5714 88.0714C92.9285 88.1428 93.2142 88.2143 93.5714 88.2857C93.9285 88.3571 94.2857 88.4286 94.7142 88.5C96.4999 88.7857 98.3571 89 100.214 89C102.071 89 103.571 88.8571 105.143 88.5714C107.214 88.2143 109.214 87.7143 111.071 87C111.643 86.7857 112.143 86.5714 112.714 86.3571C123.286 81.6428 130.714 71.2143 131 59C131 58.8571 131 58.6428 131 58.5C131 58.4286 131 58.2857 131 58.2143C131 58 131 57.7143 131 57.5L130.5 57.2857ZM96.1428 72.9285C89.4285 71.2857 84.4285 65.2143 84.4285 58C84.4285 50.7857 84.4999 56 84.7142 55C84.7142 54.8571 84.7142 54.7143 84.7857 54.5714C84.7857 54.4286 84.7857 54.2857 84.8571 54.1428C84.9285 53.8571 84.9999 53.5714 85.1428 53.2143C85.1428 53 85.2857 52.8571 85.3571 52.6428C85.4285 52.4286 85.4999 52.2143 85.5714 52.0714C85.5714 51.9286 85.6428 51.8571 85.7142 51.7143C85.7142 51.5714 85.8571 51.4286 85.9285 51.2857C85.9285 51.2857 85.9285 51.2857 85.9285 51.2143C85.9999 51 86.1428 50.7857 86.2142 50.5714C86.3571 50.3571 86.4285 50.1428 86.5714 49.9286C86.6428 49.7143 86.7857 49.5714 86.9285 49.4286C86.9285 49.4286 86.9999 49.2857 87.0714 49.2857C87.1428 49.1428 87.2857 49 87.3571 48.8571C87.3571 48.8571 87.3571 48.7857 87.4285 48.7143C87.4999 48.5714 87.6428 48.4286 87.7857 48.2857C87.7857 48.2143 87.9285 48.1428 87.9999 48.0714C88.0714 47.9286 88.2142 47.7857 88.3571 47.7143C88.3571 47.7143 88.3571 47.7143 88.3571 47.6428C88.4999 47.5 88.6428 47.3571 88.7857 47.2143C88.7857 47.2143 88.7857 47.2143 88.8571 47.1428C88.9999 47 89.2142 46.7857 89.3571 46.6428C89.4999 46.5 89.6428 46.4286 89.7857 46.2857C89.8571 46.2143 89.9999 46.1428 90.0714 46.0714C90.0714 46.0714 90.2142 45.9286 90.2857 45.9286C90.4285 45.8571 90.4999 45.7143 90.6428 45.6428C90.6428 45.6428 90.7857 45.5714 90.8571 45.5C90.9999 45.4286 91.0714 45.2857 91.2142 45.2143C91.2857 45.2143 91.4285 45.0714 91.5714 45C92.0714 44.7143 92.5714 44.4286 93.0714 44.1428C93.2142 44.0714 93.3571 44 93.4999 43.9286C94.2857 43.5714 95.0714 43.2857 95.8571 43.1428C96.0714 43.1428 96.2142 43.0714 96.4285 43C96.7142 43 96.9999 42.8571 97.3571 42.8571C97.8571 42.7857 98.2857 42.7143 98.7857 42.7143C98.7857 42.7143 98.8571 42.7143 98.9285 42.7143C99.1428 42.7143 99.4285 42.7143 99.6428 42.7143C101.786 42.7143 103.786 43.1428 105.643 43.9286C111.143 46.2857 115 51.7143 115 58.0714C115 64.4286 114.857 60.2857 114.643 61.3571C114.5 62 114.286 62.6428 114.071 63.2857C114.071 63.4286 114 63.5 113.929 63.6428C113.929 63.7857 113.857 63.8571 113.786 64C113.786 64.1428 113.643 64.3571 113.571 64.5C113.5 64.7143 113.429 64.8571 113.286 65C113.214 65.2143 113.071 65.3571 113 65.5714C113 65.5714 113 65.5714 113 65.6428C112.929 65.7857 112.786 66 112.714 66.1428C112.5 66.5 112.214 66.8571 112 67.2143C111.857 67.3571 111.714 67.5714 111.643 67.7143C111.5 67.8571 111.357 68 111.214 68.2143C111.071 68.3571 110.929 68.5 110.786 68.7143C110.643 68.8571 110.571 68.9286 110.429 69.0714C110.286 69.2143 110.143 69.3571 110 69.5C109.929 69.5714 109.786 69.6428 109.714 69.7857C109.286 70.1428 108.857 70.5 108.429 70.7857C108.286 70.8571 108.143 71 108 71.0714C107.857 71.1428 107.714 71.2857 107.571 71.3571C107.429 71.4286 107.286 71.5 107.143 71.6428C106.5 72 105.857 72.2857 105.143 72.5714C105 72.5714 104.929 72.6428 104.786 72.7143C104.286 72.9286 103.714 73.0714 103.214 73.2143C103.143 73.2143 103 73.2143 102.929 73.2857C102.786 73.2857 102.571 73.2857 102.429 73.3571C102.286 73.3571 102.214 73.3571 102.071 73.3571C101.786 73.3571 101.571 73.3571 101.286 73.4286H101.143C101 73.4286 100.929 73.4286 100.786 73.4286C100.786 73.4286 100.786 73.4286 100.714 73.4286C100.571 73.4286 100.429 73.4286 100.286 73.4286C100.143 73.4286 99.9285 73.4286 99.7857 73.4286C98.4999 73.4286 97.2857 73.2857 96.1428 73V72.9285Z" fill="#DA0C15"/>
<path d="M46.1429 -0.0714111V31.2857C41.6429 28.6429 36.3571 27.1429 30.7857 27.1429C13.7857 27.2143 0 41 0 58C0 75 13.7857 88.7857 30.7857 88.7857C47.7857 88.7857 31.2857 88.7857 31.5714 88.7857C31.9286 88.7857 32.2857 88.7857 32.7143 88.7857C32.8571 88.7857 33 88.7857 33.2143 88.7857C33.5714 88.7857 34 88.7857 34.3571 88.6429C34.6429 88.6429 34.9286 88.6429 35.2143 88.5C35.3571 88.5 35.5714 88.5 35.7143 88.4286C38.2143 88.0714 40.5714 87.3572 42.7857 86.4286C43 86.3572 43.2143 86.2143 43.5 86.1429C54.2143 81.2857 61.6429 70.5714 61.6429 58.0714V-0.0714111H46.2143H46.1429ZM31.7143 73.3572C31.7143 73.3572 31.5714 73.3572 31.5 73.3572C31.2857 73.3572 31 73.3572 30.7857 73.3572C22.2857 73.3572 15.4286 66.5 15.4286 58C15.4286 49.5 22.2857 42.6429 30.7857 42.6429C39.2857 42.6429 46.1429 49.5 46.1429 58C46.1429 66.5 43.5 67.8572 39.5714 70.6429C37.3571 72.2143 34.6429 73.1429 31.7857 73.3572H31.7143Z" fill="#DA0C15"/>
<path d="M187.429 33.5715L179.5 47.0715C176.714 44.2858 172.929 42.6429 168.714 42.6429C164.5 42.6429 168.214 42.6429 168 42.6429C168 42.6429 167.929 42.6429 167.857 42.6429C159.786 43.0715 153.357 49.7858 153.357 58.0001V88.7858H137.929V58.0001C137.929 43.9286 147.357 32.0715 160.286 28.3572C160.286 28.3572 160.357 28.3572 160.429 28.3572C162.857 27.7144 165.357 27.2858 168 27.2144C168.214 27.2144 168.5 27.2144 168.714 27.2144C175.786 27.2144 182.286 29.5715 187.429 33.5715Z" fill="#DA0C15"/>
<path d="M96.1429 72.9286L94.2857 88.2857C80.1429 85.7143 69.3571 73.5714 69 58.7857L83.5714 40.9286L99.7857 42.5714C91.2857 42.5714 84.4286 49.4286 84.4286 57.9286C84.4286 66.4286 89.4286 71.2143 96.1429 72.8572V72.9286Z" fill="url(#paint0_linear_2143_2743)"/>
<path d="M99.7145 42.6429V27.2144C68.9287 27.2144 50.5716 73.3572 30.7859 73.3572V88.7858C61.5716 88.7858 76.7859 42.6429 99.7145 42.6429Z" fill="#DA0C15"/>
<path d="M130.5 58C130.5 58.0714 130.5 58.2143 130.5 58.2857C130.5 58.4286 130.5 58.6428 130.5 58.7857L108.357 82L99.7141 73.3571C107.071 73.3571 113.214 68.2143 114.714 61.2857C114.928 60.2143 115.071 59.1428 115.071 58C115.071 51.6428 111.214 46.1428 105.714 43.8571L108.786 28.5714C121.357 32.4286 130.5 44.1428 130.5 58Z" fill="url(#paint1_linear_2143_2743)"/>
<path d="M168.714 42.6429V27.2144C137.929 27.2144 119.572 73.3572 99.7859 73.3572V88.7858C130.572 88.7858 145.786 42.6429 168.714 42.6429Z" fill="#DA0C15"/>
</g>
</g>
<defs>
<linearGradient id="paint0_linear_2143_2743" x1="80.5" y1="52.0714" x2="96.0714" y2="69.0714" gradientUnits="userSpaceOnUse">
<stop stop-color="#8A1812"/>
<stop offset="0.2" stop-color="#921612"/>
<stop offset="0.5" stop-color="#AA1313"/>
<stop offset="0.8" stop-color="#D10D14"/>
<stop offset="0.9" stop-color="#DA0C15"/>
</linearGradient>
<linearGradient id="paint1_linear_2143_2743" x1="118.714" y1="62.2857" x2="103" y2="48.8571" gradientUnits="userSpaceOnUse">
<stop stop-color="#8A1812"/>
<stop offset="0.2" stop-color="#921612"/>
<stop offset="0.5" stop-color="#AA1313"/>
<stop offset="0.8" stop-color="#D10D14"/>
<stop offset="0.9" stop-color="#DA0C15"/>
</linearGradient>
<clipPath id="clip0_2143_2743">
<rect width="186" height="90" fill="white"/>
</clipPath>
<clipPath id="clip1_2143_2743">
<rect width="187.143" height="90" fill="white"/>
</clipPath>
</defs>
</svg>
