<svg width="62" height="30" viewBox="0 0 62 30" fill="none" xmlns="http://www.w3.org/2000/svg">
<g clip-path="url(#clip0_2143_2746)">
<g clip-path="url(#clip1_2143_2746)">
<path d="M43.5 19.0952C43.5 19.0476 43.5 18.9761 43.5 18.9285C43.5 18.7619 43.5 18.5952 43.4762 18.4285C43.4762 18.2142 43.4286 18 43.4048 17.7857C43.4048 17.6904 43.381 17.619 43.3572 17.5238C43.3333 17.3333 43.2857 17.1428 43.2381 16.9523C43.2143 16.8333 43.1667 16.7142 43.1429 16.5714C43.1191 16.4761 43.0952 16.3809 43.0714 16.2857C43.0476 16.1904 43 16.0714 42.9762 15.9761C42.9048 15.738 42.8095 15.5238 42.7143 15.3095C42.6667 15.2142 42.6429 15.1428 42.5952 15.0476C42.5476 14.9523 42.5 14.8571 42.4524 14.7619C42.4048 14.6666 42.3572 14.5714 42.3095 14.4761C42.2619 14.4047 42.2143 14.3095 42.1667 14.238C42.1667 14.238 42.1667 14.2142 42.1429 14.1904C42.0953 14.0952 42.0238 14 41.9762 13.9047C41.9286 13.8095 41.8572 13.738 41.8095 13.6428C41.7143 13.4761 41.5953 13.3333 41.4762 13.1904C41.4286 13.119 41.381 13.0714 41.3333 13.0238C41.3095 12.9761 41.2619 12.9285 41.2381 12.9047C41.1667 12.8095 41.0953 12.7142 41.0238 12.6428C40.9286 12.5476 40.8333 12.4523 40.7619 12.3571C40.6905 12.2857 40.6191 12.1904 40.5238 12.119C40.4762 12.0714 40.4286 12.0238 40.381 12C40.3333 11.9523 40.2857 11.9047 40.2381 11.8571C40.2143 11.8333 40.1667 11.7857 40.1429 11.7619C40.0953 11.7142 40.0238 11.6666 39.9762 11.619C39.9286 11.5714 39.881 11.5476 39.8333 11.5C39.7381 11.4285 39.6429 11.3571 39.5714 11.2857C39.4762 11.2142 39.381 11.1428 39.2619 11.0476C39.2619 11.0476 39.2143 11.0238 39.1905 11C39.1191 10.9523 39.0476 10.9047 38.9762 10.8571C38.9286 10.8333 38.9048 10.8095 38.8572 10.7857C38.7857 10.738 38.6905 10.6904 38.6191 10.6428C38.6191 10.6428 38.5714 10.619 38.5476 10.5952C38.4524 10.5476 38.381 10.5 38.2857 10.4523C38.2619 10.4523 38.2143 10.4047 38.1905 10.4047C38.0714 10.3333 37.9762 10.2857 37.8572 10.238C37.7619 10.1904 37.6667 10.1428 37.5714 10.0952C37.5 10.0714 37.4524 10.0238 37.381 9.99995C37.3095 9.97614 37.2619 9.95233 37.1905 9.92852C37.1429 9.92852 37.1191 9.90471 37.0714 9.88091C36.9762 9.83329 36.881 9.80948 36.7619 9.76186C36.7619 9.76186 36.7381 9.76186 36.7143 9.76186C36.5953 9.71424 36.4524 9.66662 36.3333 9.64281C35.381 9.3571 34.3572 9.19043 33.3095 9.19043C32.2619 9.19043 33.1429 9.19043 33.0714 9.19043C32.2857 9.19043 31.5238 9.30948 30.7857 9.49995C30.6667 9.52376 30.5714 9.54757 30.4524 9.59519C30.3333 9.64281 30.1905 9.66662 30.0714 9.71424C26 11.0714 23.0714 14.9285 23.0714 19.4523C23.0714 23.9761 23.0714 19.619 23.0714 19.7142C23.0714 20.3333 23.1667 20.9285 23.2857 21.5238C23.3095 21.6428 23.3333 21.7857 23.381 21.9047C23.4048 22.0238 23.4524 22.1666 23.4762 22.2857C23.5 22.4047 23.5476 22.5238 23.5953 22.6666C23.6429 22.7857 23.6667 22.9047 23.7143 23.0238C23.7381 23.119 23.7857 23.2142 23.8333 23.3095C23.8333 23.3571 23.8572 23.4047 23.881 23.4523C23.9048 23.5238 23.9286 23.5952 23.9762 23.6428C24 23.6904 24.0238 23.7619 24.0476 23.8095C24.0953 23.9047 24.1429 24 24.1905 24.119C24.2381 24.1904 24.2857 24.2857 24.3095 24.3571C24.3095 24.4047 24.3572 24.4285 24.381 24.4761C24.4286 24.5714 24.4762 24.6666 24.5476 24.7619C24.6667 24.9761 24.7857 25.1666 24.9286 25.3571C24.9524 25.4047 25 25.4523 25.0238 25.4761C25.1191 25.619 25.2381 25.7619 25.3572 25.9047C25.381 25.9523 25.4286 26 25.4524 26.0238C25.5 26.0952 25.5476 26.1428 25.6191 26.2142L25.7143 26.3333C25.7619 26.4047 25.8333 26.4523 25.881 26.5238C25.9286 26.5714 25.9762 26.619 26.0238 26.6666C26.0953 26.738 26.1667 26.8333 26.2619 26.9047C26.3333 26.9761 26.381 27.0238 26.4524 27.0714C26.5238 27.1428 26.5953 27.2142 26.6905 27.2619C26.7381 27.3095 26.7857 27.3333 26.8333 27.3809C26.9048 27.4285 26.9524 27.4761 27.0238 27.5238C27.0714 27.5476 27.0953 27.5952 27.1429 27.619C27.2143 27.6666 27.2857 27.738 27.3572 27.7857C27.4524 27.8571 27.5714 27.9285 27.6667 28C27.7381 28.0476 27.8095 28.0952 27.9048 28.1428C28.0476 28.238 28.2143 28.3333 28.381 28.4285C28.4762 28.4761 28.5714 28.5238 28.6667 28.5714C28.7857 28.6428 28.881 28.6904 29 28.738C29.1191 28.8095 29.2619 28.8571 29.381 28.9047C29.4762 28.9523 29.5476 28.9761 29.6429 29.0238C29.7857 29.0714 29.9048 29.119 30.0476 29.1666C30.1667 29.2142 30.2619 29.238 30.381 29.2619C30.4048 29.2619 30.4524 29.2619 30.4762 29.2857C30.5714 29.3095 30.6667 29.3333 30.7619 29.3571C30.7857 29.3571 30.8095 29.3571 30.8572 29.3571C30.9762 29.3809 31.0714 29.4047 31.1905 29.4285C31.3095 29.4523 31.4286 29.4761 31.5714 29.5C32.1667 29.5952 32.7857 29.6666 33.4048 29.6666C34.0238 29.6666 34.5238 29.619 35.0476 29.5238C35.7381 29.4047 36.4048 29.238 37.0238 29C37.2143 28.9285 37.381 28.8571 37.5714 28.7857C41.0953 27.2142 43.5714 23.738 43.6667 19.6666C43.6667 19.619 43.6667 19.5476 43.6667 19.5C43.6667 19.4761 43.6667 19.4285 43.6667 19.4047C43.6667 19.3333 43.6667 19.238 43.6667 19.1666L43.5 19.0952ZM32.0476 24.3095C29.8095 23.7619 28.1429 21.738 28.1429 19.3333C28.1429 16.9285 28.1667 18.6666 28.2381 18.3333C28.2381 18.2857 28.2381 18.238 28.2619 18.1904C28.2619 18.1428 28.2619 18.0952 28.2857 18.0476C28.3095 17.9523 28.3333 17.8571 28.381 17.738C28.381 17.6666 28.4286 17.619 28.4524 17.5476C28.4762 17.4761 28.5 17.4047 28.5238 17.3571C28.5238 17.3095 28.5476 17.2857 28.5714 17.238C28.5714 17.1904 28.6191 17.1428 28.6429 17.0952C28.6429 17.0952 28.6429 17.0952 28.6429 17.0714C28.6667 17 28.7143 16.9285 28.7381 16.8571C28.7857 16.7857 28.8095 16.7142 28.8572 16.6428C28.881 16.5714 28.9286 16.5238 28.9762 16.4761C28.9762 16.4761 29 16.4285 29.0238 16.4285C29.0476 16.3809 29.0953 16.3333 29.1191 16.2857C29.1191 16.2857 29.1191 16.2619 29.1429 16.238C29.1667 16.1904 29.2143 16.1428 29.2619 16.0952C29.2619 16.0714 29.3095 16.0476 29.3333 16.0238C29.3572 15.9761 29.4048 15.9285 29.4524 15.9047C29.4524 15.9047 29.4524 15.9047 29.4524 15.8809C29.5 15.8333 29.5476 15.7857 29.5953 15.738C29.5953 15.738 29.5953 15.738 29.6191 15.7142C29.6667 15.6666 29.7381 15.5952 29.7857 15.5476C29.8333 15.5 29.881 15.4761 29.9286 15.4285C29.9524 15.4047 30 15.3809 30.0238 15.3571C30.0238 15.3571 30.0714 15.3095 30.0953 15.3095C30.1429 15.2857 30.1667 15.238 30.2143 15.2142C30.2143 15.2142 30.2619 15.1904 30.2857 15.1666C30.3333 15.1428 30.3572 15.0952 30.4048 15.0714C30.4286 15.0714 30.4762 15.0238 30.5238 15C30.6905 14.9047 30.8572 14.8095 31.0238 14.7142C31.0714 14.6904 31.1191 14.6666 31.1667 14.6428C31.4286 14.5238 31.6905 14.4285 31.9524 14.3809C32.0238 14.3809 32.0714 14.3571 32.1429 14.3333C32.2381 14.3333 32.3333 14.2857 32.4524 14.2857C32.6191 14.2619 32.7619 14.238 32.9286 14.238C32.9286 14.238 32.9524 14.238 32.9762 14.238C33.0476 14.238 33.1429 14.238 33.2143 14.238C33.9286 14.238 34.5952 14.3809 35.2143 14.6428C37.0476 15.4285 38.3333 17.238 38.3333 19.3571C38.3333 21.4761 38.2857 20.0952 38.2143 20.4523C38.1667 20.6666 38.0953 20.8809 38.0238 21.0952C38.0238 21.1428 38 21.1666 37.9762 21.2142C37.9762 21.2619 37.9524 21.2857 37.9286 21.3333C37.9286 21.3809 37.881 21.4523 37.8572 21.5C37.8333 21.5714 37.8095 21.619 37.7619 21.6666C37.7381 21.738 37.6905 21.7857 37.6667 21.8571C37.6667 21.8571 37.6667 21.8571 37.6667 21.8809C37.6429 21.9285 37.5953 22 37.5714 22.0476C37.5 22.1666 37.4048 22.2857 37.3333 22.4047C37.2857 22.4523 37.2381 22.5238 37.2143 22.5714C37.1667 22.619 37.1191 22.6666 37.0714 22.738C37.0238 22.7857 36.9762 22.8333 36.9286 22.9047C36.881 22.9523 36.8572 22.9761 36.8095 23.0238C36.7619 23.0714 36.7143 23.119 36.6667 23.1666C36.6429 23.1904 36.5953 23.2142 36.5714 23.2619C36.4286 23.3809 36.2857 23.5 36.1429 23.5952C36.0953 23.619 36.0476 23.6666 36 23.6904C35.9524 23.7142 35.9048 23.7619 35.8572 23.7857C35.8095 23.8095 35.7619 23.8333 35.7143 23.8809C35.5 24 35.2857 24.0952 35.0476 24.1904C35 24.1904 34.9762 24.2142 34.9286 24.238C34.7619 24.3095 34.5714 24.3571 34.4048 24.4047C34.381 24.4047 34.3333 24.4047 34.3095 24.4285C34.2619 24.4285 34.1905 24.4285 34.1429 24.4523C34.0952 24.4523 34.0714 24.4523 34.0238 24.4523C33.9286 24.4523 33.8572 24.4523 33.7619 24.4761H33.7143C33.6667 24.4761 33.6429 24.4761 33.5953 24.4761C33.5953 24.4761 33.5953 24.4761 33.5714 24.4761C33.5238 24.4761 33.4762 24.4761 33.4286 24.4761C33.381 24.4761 33.3095 24.4761 33.2619 24.4761C32.8333 24.4761 32.4286 24.4285 32.0476 24.3333V24.3095Z" fill="#DA0C15"/>
<path d="M15.381 -0.0238037V10.4286C13.881 9.54763 12.119 9.04762 10.2619 9.04762C4.59524 9.07143 0 13.6667 0 19.3333C0 25 4.59524 29.5952 10.2619 29.5952C15.9286 29.5952 10.4286 29.5952 10.5238 29.5952C10.6429 29.5952 10.7619 29.5952 10.9048 29.5952C10.9524 29.5952 11 29.5952 11.0714 29.5952C11.1905 29.5952 11.3333 29.5952 11.4524 29.5476C11.5476 29.5476 11.6429 29.5476 11.7381 29.5C11.7857 29.5 11.8571 29.5 11.9048 29.4762C12.7381 29.3571 13.5238 29.1191 14.2619 28.8095C14.3333 28.7857 14.4048 28.7381 14.5 28.7143C18.0714 27.0952 20.5476 23.5238 20.5476 19.3571V-0.0238037H15.4048H15.381ZM10.5714 24.4524C10.5714 24.4524 10.5238 24.4524 10.5 24.4524C10.4286 24.4524 10.3333 24.4524 10.2619 24.4524C7.42857 24.4524 5.14286 22.1667 5.14286 19.3333C5.14286 16.5 7.42857 14.2143 10.2619 14.2143C13.0952 14.2143 15.381 16.5 15.381 19.3333C15.381 22.1667 14.5 22.6191 13.1905 23.5476C12.4524 24.0714 11.5476 24.381 10.5952 24.4524H10.5714Z" fill="#DA0C15"/>
<path d="M62.4762 11.1905L59.8333 15.6905C58.9048 14.7619 57.6429 14.2143 56.2381 14.2143C54.8333 14.2143 56.0714 14.2143 56 14.2143C56 14.2143 55.9762 14.2143 55.9524 14.2143C53.2619 14.3571 51.1191 16.5952 51.1191 19.3333V29.5952H45.9762V19.3333C45.9762 14.6428 49.1191 10.6905 53.4286 9.45236C53.4286 9.45236 53.4524 9.45236 53.4762 9.45236C54.2857 9.23808 55.1191 9.09522 56 9.07141C56.0714 9.07141 56.1667 9.07141 56.2381 9.07141C58.5952 9.07141 60.7619 9.85712 62.4762 11.1905Z" fill="#DA0C15"/>
<path d="M32.0476 24.3095L31.4286 29.4285C26.7143 28.5714 23.119 24.5238 23 19.5952L27.8571 13.6428L33.2619 14.1904C30.4286 14.1904 28.1429 16.4762 28.1429 19.3095C28.1429 22.1428 29.8095 23.7381 32.0476 24.2857V24.3095Z" fill="url(#paint0_linear_2143_2746)"/>
<path d="M33.2381 14.2143V9.07141C22.9762 9.07141 16.8571 24.4524 10.2619 24.4524V29.5952C20.5238 29.5952 25.5952 14.2143 33.2381 14.2143Z" fill="#DA0C15"/>
<path d="M43.5 19.3333C43.5 19.3571 43.5 19.4048 43.5 19.4286C43.5 19.4762 43.5 19.5476 43.5 19.5952L36.119 27.3333L33.2381 24.4524C35.6905 24.4524 37.7381 22.7381 38.2381 20.4286C38.3095 20.0714 38.3571 19.7143 38.3571 19.3333C38.3571 17.2143 37.0714 15.3809 35.2381 14.619L36.2619 9.5238C40.4524 10.8095 43.5 14.7143 43.5 19.3333Z" fill="url(#paint1_linear_2143_2746)"/>
<path d="M56.2381 14.2143V9.07141C45.9762 9.07141 39.8571 24.4524 33.2619 24.4524V29.5952C43.5238 29.5952 48.5952 14.2143 56.2381 14.2143Z" fill="#DA0C15"/>
</g>
</g>
<defs>
<linearGradient id="paint0_linear_2143_2746" x1="26.8333" y1="17.3571" x2="32.0238" y2="23.0238" gradientUnits="userSpaceOnUse">
<stop stop-color="#8A1812"/>
<stop offset="0.2" stop-color="#921612"/>
<stop offset="0.5" stop-color="#AA1313"/>
<stop offset="0.8" stop-color="#D10D14"/>
<stop offset="0.9" stop-color="#DA0C15"/>
</linearGradient>
<linearGradient id="paint1_linear_2143_2746" x1="39.5714" y1="20.7619" x2="34.3333" y2="16.2857" gradientUnits="userSpaceOnUse">
<stop stop-color="#8A1812"/>
<stop offset="0.2" stop-color="#921612"/>
<stop offset="0.5" stop-color="#AA1313"/>
<stop offset="0.8" stop-color="#D10D14"/>
<stop offset="0.9" stop-color="#DA0C15"/>
</linearGradient>
<clipPath id="clip0_2143_2746">
<rect width="62" height="30" fill="white"/>
</clipPath>
<clipPath id="clip1_2143_2746">
<rect width="62.381" height="30" fill="white"/>
</clipPath>
</defs>
</svg>
