<svg width="31" height="16" viewBox="0 0 31 16" fill="none" xmlns="http://www.w3.org/2000/svg">
<g clip-path="url(#clip0_2143_2745)">
<g clip-path="url(#clip1_2143_2745)">
<path d="M21.75 10.0476C21.75 10.0238 21.75 9.98807 21.75 9.96426C21.75 9.88093 21.75 9.7976 21.7381 9.71426C21.7381 9.60712 21.7143 9.49998 21.7024 9.39283C21.7024 9.34521 21.6905 9.3095 21.6786 9.26188C21.6667 9.16664 21.6428 9.07141 21.619 8.97617C21.6071 8.91664 21.5833 8.85712 21.5714 8.78569C21.5595 8.73807 21.5476 8.69045 21.5357 8.64283C21.5238 8.59521 21.5 8.53569 21.4881 8.48807C21.4524 8.36902 21.4048 8.26188 21.3571 8.15474C21.3333 8.10712 21.3214 8.0714 21.2976 8.02379C21.2738 7.97617 21.25 7.92855 21.2262 7.88093C21.2024 7.83331 21.1786 7.78569 21.1548 7.73807C21.1309 7.70236 21.1071 7.65474 21.0833 7.61902C21.0833 7.61902 21.0833 7.60712 21.0714 7.59521C21.0476 7.5476 21.0119 7.49998 20.9881 7.45236C20.9643 7.40474 20.9286 7.36902 20.9048 7.32141C20.8571 7.23807 20.7976 7.16664 20.7381 7.09521C20.7143 7.0595 20.6905 7.03569 20.6667 7.01188C20.6548 6.98807 20.6309 6.96426 20.619 6.95236C20.5833 6.90474 20.5476 6.85712 20.5119 6.82141C20.4643 6.77379 20.4167 6.72617 20.3809 6.67855C20.3452 6.64283 20.3095 6.59521 20.2619 6.5595C20.2381 6.53569 20.2143 6.51188 20.1905 6.49998C20.1667 6.47617 20.1428 6.45236 20.119 6.42855C20.1071 6.41664 20.0833 6.39283 20.0714 6.38093C20.0476 6.35712 20.0119 6.33331 19.9881 6.3095C19.9643 6.28569 19.9405 6.27379 19.9167 6.24998C19.869 6.21426 19.8214 6.17855 19.7857 6.14283C19.7381 6.10712 19.6905 6.07141 19.6309 6.02379C19.6309 6.02379 19.6071 6.01188 19.5952 5.99998C19.5595 5.97617 19.5238 5.95236 19.4881 5.92855C19.4643 5.91664 19.4524 5.90474 19.4286 5.89283C19.3928 5.86902 19.3452 5.84521 19.3095 5.82141C19.3095 5.82141 19.2857 5.8095 19.2738 5.7976C19.2262 5.77379 19.1905 5.74998 19.1428 5.72617C19.1309 5.72617 19.1071 5.70236 19.0952 5.70236C19.0357 5.66664 18.9881 5.64283 18.9286 5.61902C18.8809 5.59521 18.8333 5.57141 18.7857 5.5476C18.75 5.53569 18.7262 5.51188 18.6905 5.49998C18.6548 5.48807 18.6309 5.47617 18.5952 5.46426C18.5714 5.46426 18.5595 5.45236 18.5357 5.44045C18.4881 5.41664 18.4405 5.40474 18.3809 5.38093C18.3809 5.38093 18.369 5.38093 18.3571 5.38093C18.2976 5.35712 18.2262 5.33331 18.1667 5.32141C17.6905 5.17855 17.1786 5.09521 16.6548 5.09521C16.1309 5.09521 16.5714 5.09521 16.5357 5.09521C16.1428 5.09521 15.7619 5.15474 15.3928 5.24998C15.3333 5.26188 15.2857 5.27379 15.2262 5.2976C15.1667 5.32141 15.0952 5.33331 15.0357 5.35712C13 6.03569 11.5357 7.96426 11.5357 10.2262C11.5357 12.4881 11.5357 10.3095 11.5357 10.3571C11.5357 10.6666 11.5833 10.9643 11.6428 11.2619C11.6548 11.3214 11.6667 11.3928 11.6905 11.4524C11.7024 11.5119 11.7262 11.5833 11.7381 11.6428C11.75 11.7024 11.7738 11.7619 11.7976 11.8333C11.8214 11.8928 11.8333 11.9524 11.8571 12.0119C11.869 12.0595 11.8928 12.1071 11.9167 12.1547C11.9167 12.1785 11.9286 12.2024 11.9405 12.2262C11.9524 12.2619 11.9643 12.2976 11.9881 12.3214C12 12.3452 12.0119 12.3809 12.0238 12.4047C12.0476 12.4524 12.0714 12.5 12.0952 12.5595C12.119 12.5952 12.1428 12.6428 12.1548 12.6785C12.1548 12.7024 12.1786 12.7143 12.1905 12.7381C12.2143 12.7857 12.2381 12.8333 12.2738 12.8809C12.3333 12.9881 12.3928 13.0833 12.4643 13.1785C12.4762 13.2024 12.5 13.2262 12.5119 13.2381C12.5595 13.3095 12.619 13.3809 12.6786 13.4524C12.6905 13.4762 12.7143 13.5 12.7262 13.5119C12.75 13.5476 12.7738 13.5714 12.8095 13.6071L12.8571 13.6666C12.8809 13.7024 12.9167 13.7262 12.9405 13.7619C12.9643 13.7857 12.9881 13.8095 13.0119 13.8333C13.0476 13.869 13.0833 13.9166 13.1309 13.9524C13.1667 13.9881 13.1905 14.0119 13.2262 14.0357C13.2619 14.0714 13.2976 14.1071 13.3452 14.1309C13.369 14.1547 13.3928 14.1666 13.4167 14.1905C13.4524 14.2143 13.4762 14.2381 13.5119 14.2619C13.5357 14.2738 13.5476 14.2976 13.5714 14.3095C13.6071 14.3333 13.6428 14.369 13.6786 14.3928C13.7262 14.4285 13.7857 14.4643 13.8333 14.5C13.869 14.5238 13.9048 14.5476 13.9524 14.5714C14.0238 14.619 14.1071 14.6666 14.1905 14.7143C14.2381 14.7381 14.2857 14.7619 14.3333 14.7857C14.3928 14.8214 14.4405 14.8452 14.5 14.869C14.5595 14.9047 14.6309 14.9285 14.6905 14.9524C14.7381 14.9762 14.7738 14.9881 14.8214 15.0119C14.8928 15.0357 14.9524 15.0595 15.0238 15.0833C15.0833 15.1071 15.1309 15.119 15.1905 15.1309C15.2024 15.1309 15.2262 15.1309 15.2381 15.1428C15.2857 15.1547 15.3333 15.1666 15.3809 15.1785C15.3928 15.1785 15.4048 15.1785 15.4286 15.1785C15.4881 15.1905 15.5357 15.2024 15.5952 15.2143C15.6548 15.2262 15.7143 15.2381 15.7857 15.25C16.0833 15.2976 16.3928 15.3333 16.7024 15.3333C17.0119 15.3333 17.2619 15.3095 17.5238 15.2619C17.869 15.2024 18.2024 15.119 18.5119 15C18.6071 14.9643 18.6905 14.9285 18.7857 14.8928C20.5476 14.1071 21.7857 12.369 21.8333 10.3333C21.8333 10.3095 21.8333 10.2738 21.8333 10.25C21.8333 10.2381 21.8333 10.2143 21.8333 10.2024C21.8333 10.1666 21.8333 10.119 21.8333 10.0833L21.75 10.0476ZM16.0238 12.6547C14.9048 12.3809 14.0714 11.369 14.0714 10.1666C14.0714 8.96426 14.0833 9.83331 14.119 9.66664C14.119 9.64283 14.119 9.61902 14.1309 9.59521C14.1309 9.5714 14.1309 9.5476 14.1428 9.52379C14.1548 9.47617 14.1667 9.42855 14.1905 9.36902C14.1905 9.33331 14.2143 9.3095 14.2262 9.27379C14.2381 9.23807 14.25 9.20236 14.2619 9.17855C14.2619 9.15474 14.2738 9.14283 14.2857 9.11902C14.2857 9.09521 14.3095 9.07141 14.3214 9.0476C14.3214 9.0476 14.3214 9.0476 14.3214 9.03569C14.3333 8.99998 14.3571 8.96426 14.369 8.92855C14.3928 8.89283 14.4048 8.85712 14.4286 8.8214C14.4405 8.78569 14.4643 8.76188 14.4881 8.73807C14.4881 8.73807 14.5 8.71426 14.5119 8.71426C14.5238 8.69045 14.5476 8.66664 14.5595 8.64283C14.5595 8.64283 14.5595 8.63093 14.5714 8.61902C14.5833 8.59521 14.6071 8.5714 14.6309 8.5476C14.6309 8.53569 14.6548 8.52379 14.6667 8.51188C14.6786 8.48807 14.7024 8.46426 14.7262 8.45236C14.7262 8.45236 14.7262 8.45236 14.7262 8.44045C14.75 8.41664 14.7738 8.39283 14.7976 8.36902C14.7976 8.36902 14.7976 8.36902 14.8095 8.35712C14.8333 8.33331 14.869 8.2976 14.8928 8.27379C14.9167 8.24998 14.9405 8.23807 14.9643 8.21426C14.9762 8.20236 15 8.19045 15.0119 8.17855C15.0119 8.17855 15.0357 8.15474 15.0476 8.15474C15.0714 8.14283 15.0833 8.11902 15.1071 8.10712C15.1071 8.10712 15.1309 8.09521 15.1428 8.08331C15.1667 8.0714 15.1786 8.0476 15.2024 8.03569C15.2143 8.03569 15.2381 8.01188 15.2619 7.99998C15.3452 7.95236 15.4286 7.90474 15.5119 7.85712C15.5357 7.84521 15.5595 7.83331 15.5833 7.8214C15.7143 7.76188 15.8452 7.71426 15.9762 7.69045C16.0119 7.69045 16.0357 7.67855 16.0714 7.66664C16.119 7.66664 16.1667 7.64283 16.2262 7.64283C16.3095 7.63093 16.3809 7.61902 16.4643 7.61902C16.4643 7.61902 16.4762 7.61902 16.4881 7.61902C16.5238 7.61902 16.5714 7.61902 16.6071 7.61902C16.9643 7.61902 17.2976 7.69045 17.6071 7.8214C18.5238 8.21426 19.1667 9.11902 19.1667 10.1785C19.1667 11.2381 19.1428 10.5476 19.1071 10.7262C19.0833 10.8333 19.0476 10.9405 19.0119 11.0476C19.0119 11.0714 19 11.0833 18.9881 11.1071C18.9881 11.1309 18.9762 11.1428 18.9643 11.1666C18.9643 11.1905 18.9405 11.2262 18.9286 11.25C18.9167 11.2857 18.9048 11.3095 18.8809 11.3333C18.869 11.369 18.8452 11.3928 18.8333 11.4285C18.8333 11.4285 18.8333 11.4285 18.8333 11.4405C18.8214 11.4643 18.7976 11.5 18.7857 11.5238C18.75 11.5833 18.7024 11.6428 18.6667 11.7024C18.6428 11.7262 18.619 11.7619 18.6071 11.7857C18.5833 11.8095 18.5595 11.8333 18.5357 11.869C18.5119 11.8928 18.4881 11.9166 18.4643 11.9524C18.4405 11.9762 18.4286 11.9881 18.4048 12.0119C18.3809 12.0357 18.3571 12.0595 18.3333 12.0833C18.3214 12.0952 18.2976 12.1071 18.2857 12.1309C18.2143 12.1905 18.1428 12.25 18.0714 12.2976C18.0476 12.3095 18.0238 12.3333 18 12.3452C17.9762 12.3571 17.9524 12.3809 17.9286 12.3928C17.9048 12.4047 17.8809 12.4166 17.8571 12.4405C17.75 12.5 17.6428 12.5476 17.5238 12.5952C17.5 12.5952 17.4881 12.6071 17.4643 12.619C17.3809 12.6547 17.2857 12.6785 17.2024 12.7024C17.1905 12.7024 17.1667 12.7024 17.1548 12.7143C17.1309 12.7143 17.0952 12.7143 17.0714 12.7262C17.0476 12.7262 17.0357 12.7262 17.0119 12.7262C16.9643 12.7262 16.9286 12.7262 16.8809 12.7381H16.8571C16.8333 12.7381 16.8214 12.7381 16.7976 12.7381C16.7976 12.7381 16.7976 12.7381 16.7857 12.7381C16.7619 12.7381 16.7381 12.7381 16.7143 12.7381C16.6905 12.7381 16.6548 12.7381 16.6309 12.7381C16.4167 12.7381 16.2143 12.7143 16.0238 12.6666V12.6547Z" fill="#DA0C15"/>
<path d="M7.69048 0.488037V5.71423C6.94048 5.27375 6.05952 5.02375 5.13095 5.02375C2.29762 5.03566 0 7.33328 0 10.1666C0 12.9999 2.29762 15.2976 5.13095 15.2976C7.96428 15.2976 5.21429 15.2976 5.2619 15.2976C5.32143 15.2976 5.38095 15.2976 5.45238 15.2976C5.47619 15.2976 5.5 15.2976 5.53571 15.2976C5.59524 15.2976 5.66667 15.2976 5.72619 15.2738C5.77381 15.2738 5.82143 15.2738 5.86905 15.2499C5.89286 15.2499 5.92857 15.2499 5.95238 15.238C6.36905 15.1785 6.7619 15.0595 7.13095 14.9047C7.16667 14.8928 7.20238 14.869 7.25 14.8571C9.03571 14.0476 10.2738 12.2618 10.2738 10.1785V0.488037H7.70238H7.69048ZM5.28571 12.7261C5.28571 12.7261 5.2619 12.7261 5.25 12.7261C5.21429 12.7261 5.16667 12.7261 5.13095 12.7261C3.71429 12.7261 2.57143 11.5833 2.57143 10.1666C2.57143 8.74994 3.71429 7.60708 5.13095 7.60708C6.54762 7.60708 7.69048 8.74994 7.69048 10.1666C7.69048 11.5833 7.25 11.8095 6.59524 12.2738C6.22619 12.5357 5.77381 12.6904 5.29762 12.7261H5.28571Z" fill="#DA0C15"/>
<path d="M31.2381 6.09517L29.9167 8.34517C29.4524 7.88088 28.8214 7.60707 28.119 7.60707C27.4167 7.60707 28.0357 7.60707 28 7.60707C28 7.60707 27.9881 7.60707 27.9762 7.60707C26.631 7.6785 25.5595 8.79755 25.5595 10.1666V15.2975H22.9881V10.1666C22.9881 7.82136 24.5595 5.84517 26.7143 5.22612C26.7143 5.22612 26.7262 5.22612 26.7381 5.22612C27.1429 5.11898 27.5595 5.04755 28 5.03564C28.0357 5.03564 28.0833 5.03564 28.119 5.03564C29.2976 5.03564 30.381 5.4285 31.2381 6.09517Z" fill="#DA0C15"/>
<path d="M16.0238 12.6547L15.7143 15.2143C13.3571 14.7857 11.5595 12.7619 11.5 10.2976L13.9286 7.32141L16.631 7.59522C15.2143 7.59522 14.0714 8.73808 14.0714 10.1547C14.0714 11.5714 14.9048 12.369 16.0238 12.6428V12.6547Z" fill="url(#paint0_linear_2143_2745)"/>
<path d="M16.6191 7.60707V5.03564C11.4881 5.03564 8.4286 12.7261 5.13098 12.7261V15.2975C10.2619 15.2975 12.7976 7.60707 16.6191 7.60707Z" fill="#DA0C15"/>
<path d="M21.75 10.1666C21.75 10.1785 21.75 10.2023 21.75 10.2142C21.75 10.238 21.75 10.2737 21.75 10.2976L18.0595 14.1666L16.619 12.7261C17.8452 12.7261 18.869 11.869 19.119 10.7142C19.1547 10.5357 19.1785 10.3571 19.1785 10.1666C19.1785 9.10708 18.5357 8.19041 17.619 7.80946L18.1309 5.26184C20.2262 5.9047 21.75 7.85708 21.75 10.1666Z" fill="url(#paint1_linear_2143_2745)"/>
<path d="M28.1191 7.60707V5.03564C22.9881 5.03564 19.9286 12.7261 16.631 12.7261V15.2975C21.7619 15.2975 24.2976 7.60707 28.1191 7.60707Z" fill="#DA0C15"/>
</g>
</g>
<defs>
<linearGradient id="paint0_linear_2143_2745" x1="13.4167" y1="9.17855" x2="16.0119" y2="12.0119" gradientUnits="userSpaceOnUse">
<stop stop-color="#8A1812"/>
<stop offset="0.2" stop-color="#921612"/>
<stop offset="0.5" stop-color="#AA1313"/>
<stop offset="0.8" stop-color="#D10D14"/>
<stop offset="0.9" stop-color="#DA0C15"/>
</linearGradient>
<linearGradient id="paint1_linear_2143_2745" x1="19.7857" y1="10.8809" x2="17.1666" y2="8.64279" gradientUnits="userSpaceOnUse">
<stop stop-color="#8A1812"/>
<stop offset="0.2" stop-color="#921612"/>
<stop offset="0.5" stop-color="#AA1313"/>
<stop offset="0.8" stop-color="#D10D14"/>
<stop offset="0.9" stop-color="#DA0C15"/>
</linearGradient>
<clipPath id="clip0_2143_2745">
<rect width="31" height="15" fill="white" transform="translate(0 0.5)"/>
</clipPath>
<clipPath id="clip1_2143_2745">
<rect width="31.1905" height="15" fill="white" transform="translate(0 0.5)"/>
</clipPath>
</defs>
</svg>
