<svg width="124" height="60" viewBox="0 0 124 60" fill="none" xmlns="http://www.w3.org/2000/svg">
<g clip-path="url(#clip0_2143_2744)">
<g clip-path="url(#clip1_2143_2744)">
<path d="M87.0002 38.1905C87.0002 38.0953 87.0002 37.9524 87.0002 37.8572C87.0002 37.5238 87.0002 37.1905 86.9526 36.8572C86.9526 36.4286 86.8574 36 86.8097 35.5715C86.8097 35.381 86.7621 35.2381 86.7145 35.0476C86.6669 34.6667 86.5716 34.2857 86.4764 33.9048C86.4288 33.6667 86.3335 33.4286 86.2859 33.1429C86.2383 32.9524 86.1907 32.7619 86.1431 32.5715C86.0954 32.381 86.0002 32.1429 85.9526 31.9524C85.8097 31.4762 85.6193 31.0476 85.4288 30.6191C85.3335 30.4286 85.2859 30.2857 85.1907 30.0953C85.0954 29.9048 85.0002 29.7143 84.905 29.5238C84.8097 29.3334 84.7145 29.1429 84.6193 28.9524C84.524 28.8096 84.4288 28.6191 84.3335 28.4762C84.3335 28.4762 84.3335 28.4286 84.2859 28.381C84.1907 28.1905 84.0478 28 83.9526 27.8096C83.8574 27.6191 83.7145 27.4762 83.6193 27.2857C83.4288 26.9524 83.1907 26.6667 82.9526 26.381C82.8573 26.2381 82.7621 26.1429 82.6669 26.0476C82.6193 25.9524 82.524 25.8572 82.4764 25.8096C82.3335 25.6191 82.1907 25.4286 82.0478 25.2857C81.8574 25.0953 81.6669 24.9048 81.524 24.7143C81.3812 24.5715 81.2383 24.381 81.0478 24.2381C80.9526 24.1429 80.8574 24.0476 80.7621 24C80.6669 23.9048 80.5716 23.8096 80.4764 23.7143C80.4288 23.6667 80.3335 23.5715 80.2859 23.5238C80.1907 23.4286 80.0478 23.3334 79.9526 23.2381C79.8573 23.1429 79.7621 23.0953 79.6669 23C79.4764 22.8572 79.2859 22.7143 79.1431 22.5715C78.9526 22.4286 78.7621 22.2857 78.524 22.0953C78.524 22.0953 78.4288 22.0476 78.3812 22C78.2383 21.9048 78.0954 21.8096 77.9526 21.7143C77.8573 21.6667 77.8097 21.6191 77.7145 21.5715C77.5716 21.4762 77.3812 21.381 77.2383 21.2857C77.2383 21.2857 77.1431 21.2381 77.0954 21.1905C76.905 21.0953 76.7621 21 76.5716 20.9048C76.524 20.9048 76.4288 20.8096 76.3812 20.8096C76.1431 20.6667 75.9526 20.5715 75.7145 20.4762C75.524 20.381 75.3335 20.2857 75.1431 20.1905C75.0002 20.1429 74.905 20.0476 74.7621 20C74.6193 19.9524 74.524 19.9048 74.3812 19.8572C74.2859 19.8572 74.2383 19.8096 74.1431 19.7619C73.9526 19.6667 73.7621 19.6191 73.524 19.5238C73.524 19.5238 73.4764 19.5238 73.4288 19.5238C73.1907 19.4286 72.905 19.3334 72.6669 19.2857C70.7621 18.7143 68.7145 18.381 66.6193 18.381C64.524 18.381 66.2859 18.381 66.1431 18.381C64.5716 18.381 63.0478 18.6191 61.5716 19C61.3335 19.0476 61.1431 19.0953 60.905 19.1905C60.6669 19.2857 60.3812 19.3334 60.1431 19.4286C52.0002 22.1429 46.1431 29.8572 46.1431 38.9048C46.1431 47.9524 46.1431 39.2381 46.1431 39.4286C46.1431 40.6667 46.3335 41.8572 46.5716 43.0476C46.6193 43.2857 46.6669 43.5715 46.7621 43.8095C46.8097 44.0476 46.905 44.3334 46.9526 44.5715C47.0002 44.8095 47.0954 45.0476 47.1907 45.3334C47.2859 45.5715 47.3335 45.8096 47.4288 46.0476C47.4764 46.2381 47.5716 46.4286 47.6669 46.6191C47.6669 46.7143 47.7145 46.8095 47.7621 46.9048C47.8097 47.0476 47.8573 47.1905 47.9526 47.2857C48.0002 47.381 48.0478 47.5238 48.0954 47.6191C48.1907 47.8095 48.2859 48 48.3812 48.2381C48.4764 48.381 48.5716 48.5715 48.6193 48.7143C48.6193 48.8096 48.7145 48.8572 48.7621 48.9524C48.8574 49.1429 48.9526 49.3334 49.0954 49.5238C49.3335 49.9524 49.5716 50.3334 49.8573 50.7143C49.905 50.8095 50.0002 50.9048 50.0478 50.9524C50.2383 51.2381 50.4764 51.5238 50.7145 51.8096C50.7621 51.9048 50.8574 52 50.905 52.0476C51.0002 52.1905 51.0954 52.2857 51.2383 52.4286L51.4288 52.6667C51.524 52.8096 51.6669 52.9048 51.7621 53.0476C51.8573 53.1429 51.9526 53.2381 52.0478 53.3334C52.1907 53.4762 52.3335 53.6667 52.524 53.8095C52.6669 53.9524 52.7621 54.0476 52.905 54.1429C53.0478 54.2857 53.1907 54.4286 53.3812 54.5238C53.4764 54.6191 53.5716 54.6667 53.6669 54.7619C53.8097 54.8572 53.905 54.9524 54.0478 55.0476C54.1431 55.0953 54.1907 55.1905 54.2859 55.2381C54.4288 55.3334 54.5716 55.4762 54.7145 55.5715C54.905 55.7143 55.1431 55.8572 55.3335 56C55.4764 56.0953 55.6193 56.1905 55.8097 56.2857C56.0954 56.4762 56.4288 56.6667 56.7621 56.8572C56.9526 56.9524 57.1431 57.0476 57.3335 57.1429C57.5716 57.2857 57.7621 57.381 58.0002 57.4762C58.2383 57.6191 58.524 57.7143 58.7621 57.8096C58.9526 57.9048 59.0954 57.9524 59.2859 58.0476C59.5716 58.1429 59.8097 58.2381 60.0954 58.3334C60.3335 58.4286 60.524 58.4762 60.7621 58.5238C60.8097 58.5238 60.905 58.5238 60.9526 58.5715C61.1431 58.6191 61.3335 58.6667 61.524 58.7143C61.5716 58.7143 61.6193 58.7143 61.7145 58.7143C61.9526 58.7619 62.1431 58.8096 62.3812 58.8572C62.6193 58.9048 62.8574 58.9524 63.1431 59C64.3335 59.1905 65.5716 59.3334 66.8097 59.3334C68.0478 59.3334 69.0478 59.2381 70.0954 59.0476C71.4764 58.8095 72.8097 58.4762 74.0478 58C74.4288 57.8572 74.7621 57.7143 75.1431 57.5715C82.1907 54.4286 87.1431 47.4762 87.3335 39.3334C87.3335 39.2381 87.3335 39.0953 87.3335 39C87.3335 38.9524 87.3335 38.8572 87.3335 38.8096C87.3335 38.6667 87.3335 38.4762 87.3335 38.3334L87.0002 38.1905ZM64.0954 48.6191C59.6193 47.5238 56.2859 43.4762 56.2859 38.6667C56.2859 33.8572 56.3335 37.3334 56.4764 36.6667C56.4764 36.5715 56.4764 36.4762 56.524 36.381C56.524 36.2857 56.524 36.1905 56.5716 36.0953C56.6193 35.9048 56.6669 35.7143 56.7621 35.4762C56.7621 35.3334 56.8574 35.2381 56.905 35.0953C56.9526 34.9524 57.0002 34.8096 57.0478 34.7143C57.0478 34.6191 57.0954 34.5715 57.1431 34.4762C57.1431 34.381 57.2383 34.2857 57.2859 34.1905C57.2859 34.1905 57.2859 34.1905 57.2859 34.1429C57.3335 34 57.4288 33.8572 57.4764 33.7143C57.5716 33.5715 57.6193 33.4286 57.7145 33.2857C57.7621 33.1429 57.8574 33.0476 57.9526 32.9524C57.9526 32.9524 58.0002 32.8572 58.0478 32.8572C58.0954 32.7619 58.1907 32.6667 58.2383 32.5715C58.2383 32.5715 58.2383 32.5238 58.2859 32.4762C58.3335 32.381 58.4288 32.2857 58.524 32.1905C58.524 32.1429 58.6193 32.0953 58.6669 32.0476C58.7145 31.9524 58.8097 31.8572 58.905 31.8096C58.905 31.8096 58.905 31.8096 58.905 31.7619C59.0002 31.6667 59.0954 31.5715 59.1907 31.4762C59.1907 31.4762 59.1907 31.4762 59.2383 31.4286C59.3335 31.3334 59.4764 31.1905 59.5716 31.0953C59.6669 31 59.7621 30.9524 59.8574 30.8572C59.905 30.8096 60.0002 30.7619 60.0478 30.7143C60.0478 30.7143 60.1431 30.6191 60.1907 30.6191C60.2859 30.5715 60.3335 30.4762 60.4288 30.4286C60.4288 30.4286 60.524 30.381 60.5716 30.3334C60.6669 30.2857 60.7145 30.1905 60.8097 30.1429C60.8574 30.1429 60.9526 30.0476 61.0478 30C61.3812 29.8096 61.7145 29.6191 62.0478 29.4286C62.1431 29.381 62.2383 29.3334 62.3335 29.2857C62.8573 29.0476 63.3812 28.8572 63.905 28.7619C64.0478 28.7619 64.1431 28.7143 64.2859 28.6667C64.4764 28.6667 64.6669 28.5715 64.905 28.5715C65.2383 28.5238 65.524 28.4762 65.8574 28.4762C65.8574 28.4762 65.905 28.4762 65.9526 28.4762C66.0954 28.4762 66.2859 28.4762 66.4288 28.4762C67.8574 28.4762 69.1907 28.7619 70.4288 29.2857C74.0954 30.8572 76.6669 34.4762 76.6669 38.7143C76.6669 42.9524 76.5716 40.1905 76.4288 40.9048C76.3335 41.3334 76.1907 41.7619 76.0478 42.1905C76.0478 42.2857 76.0002 42.3334 75.9526 42.4286C75.9526 42.5238 75.905 42.5715 75.8574 42.6667C75.8574 42.7619 75.7621 42.9048 75.7145 43C75.6669 43.1429 75.6193 43.2381 75.524 43.3334C75.4764 43.4762 75.3812 43.5715 75.3335 43.7143C75.3335 43.7143 75.3335 43.7143 75.3335 43.7619C75.2859 43.8572 75.1907 44 75.1431 44.0953C75.0002 44.3334 74.8097 44.5715 74.6669 44.8095C74.5716 44.9048 74.4764 45.0476 74.4288 45.1429C74.3335 45.2381 74.2383 45.3334 74.1431 45.4762C74.0478 45.5715 73.9526 45.6667 73.8574 45.8096C73.7621 45.9048 73.7145 45.9524 73.6193 46.0476C73.524 46.1429 73.4288 46.2381 73.3335 46.3334C73.2859 46.381 73.1907 46.4286 73.1431 46.5238C72.8574 46.7619 72.5716 47 72.2859 47.1905C72.1907 47.2381 72.0954 47.3334 72.0002 47.381C71.905 47.4286 71.8097 47.5238 71.7145 47.5715C71.6193 47.6191 71.524 47.6667 71.4288 47.7619C71.0002 48 70.5716 48.1905 70.0954 48.381C70.0002 48.381 69.9526 48.4286 69.8573 48.4762C69.524 48.6191 69.1431 48.7143 68.8097 48.8095C68.7621 48.8095 68.6669 48.8095 68.6193 48.8572C68.524 48.8572 68.3812 48.8572 68.2859 48.9048C68.1907 48.9048 68.1431 48.9048 68.0478 48.9048C67.8573 48.9048 67.7145 48.9048 67.524 48.9524H67.4288C67.3335 48.9524 67.2859 48.9524 67.1907 48.9524C67.1907 48.9524 67.1907 48.9524 67.1431 48.9524C67.0478 48.9524 66.9526 48.9524 66.8573 48.9524C66.7621 48.9524 66.6193 48.9524 66.524 48.9524C65.6669 48.9524 64.8574 48.8572 64.0954 48.6667V48.6191Z" fill="#DA0C15"/>
<path d="M30.7619 -0.0476074V20.8572C27.7619 19.0953 24.2381 18.0952 20.5238 18.0952C9.19048 18.1429 0 27.3333 0 38.6667C0 50 9.19048 59.1905 20.5238 59.1905C31.8571 59.1905 20.8571 59.1905 21.0476 59.1905C21.2857 59.1905 21.5238 59.1905 21.8095 59.1905C21.9048 59.1905 22 59.1905 22.1429 59.1905C22.381 59.1905 22.6667 59.1905 22.9048 59.0952C23.0952 59.0952 23.2857 59.0952 23.4762 59C23.5714 59 23.7143 59 23.8095 58.9524C25.4762 58.7143 27.0476 58.2381 28.5238 57.6191C28.6667 57.5714 28.8095 57.4762 29 57.4286C36.1429 54.1905 41.0952 47.0476 41.0952 38.7143V-0.0476074H30.8095H30.7619ZM21.1429 48.9048C21.1429 48.9048 21.0476 48.9048 21 48.9048C20.8571 48.9048 20.6667 48.9048 20.5238 48.9048C14.8571 48.9048 10.2857 44.3333 10.2857 38.6667C10.2857 33 14.8571 28.4286 20.5238 28.4286C26.1905 28.4286 30.7619 33 30.7619 38.6667C30.7619 44.3333 29 45.2381 26.381 47.0952C24.9048 48.1429 23.0952 48.7619 21.1905 48.9048H21.1429Z" fill="#DA0C15"/>
<path d="M124.952 22.3809L119.666 31.3809C117.809 29.5238 115.285 28.4285 112.476 28.4285C109.666 28.4285 112.143 28.4285 112 28.4285C112 28.4285 111.952 28.4285 111.905 28.4285C106.524 28.7142 102.238 33.1904 102.238 38.6666V59.1904H91.9521V38.6666C91.9521 29.2857 98.2379 21.3809 106.857 18.9047C106.857 18.9047 106.905 18.9047 106.952 18.9047C108.571 18.4762 110.238 18.1904 112 18.1428C112.143 18.1428 112.333 18.1428 112.476 18.1428C117.19 18.1428 121.524 19.7142 124.952 22.3809Z" fill="#DA0C15"/>
<path d="M64.0952 48.6191L62.8571 58.8572C53.4286 57.1429 46.2381 49.0477 46 39.1905L55.7143 27.2858L66.5238 28.381C60.8571 28.381 56.2857 32.9524 56.2857 38.6191C56.2857 44.2858 59.619 47.4762 64.0952 48.5715V48.6191Z" fill="url(#paint0_linear_2143_2744)"/>
<path d="M66.4763 28.4285V18.1428C45.9525 18.1428 33.7144 48.9047 20.5239 48.9047V59.1904C41.0477 59.1904 51.1906 28.4285 66.4763 28.4285Z" fill="#DA0C15"/>
<path d="M86.9999 38.6667C86.9999 38.7143 86.9999 38.8095 86.9999 38.8571C86.9999 38.9524 86.9999 39.0952 86.9999 39.1905L72.238 54.6667L66.4761 48.9048C71.3808 48.9048 75.4761 45.4762 76.4761 40.8571C76.6189 40.1428 76.7142 39.4286 76.7142 38.6667C76.7142 34.4286 74.1427 30.7619 70.4761 29.2381L72.5237 19.0476C80.9046 21.619 86.9999 29.4286 86.9999 38.6667Z" fill="url(#paint1_linear_2143_2744)"/>
<path d="M112.476 28.4285V18.1428C91.9525 18.1428 79.7144 48.9047 66.5239 48.9047V59.1904C87.0477 59.1904 97.1906 28.4285 112.476 28.4285Z" fill="#DA0C15"/>
</g>
</g>
<defs>
<linearGradient id="paint0_linear_2143_2744" x1="53.6667" y1="34.7143" x2="64.0476" y2="46.0477" gradientUnits="userSpaceOnUse">
<stop stop-color="#8A1812"/>
<stop offset="0.2" stop-color="#921612"/>
<stop offset="0.5" stop-color="#AA1313"/>
<stop offset="0.8" stop-color="#D10D14"/>
<stop offset="0.9" stop-color="#DA0C15"/>
</linearGradient>
<linearGradient id="paint1_linear_2143_2744" x1="79.1427" y1="41.5238" x2="68.6666" y2="32.5714" gradientUnits="userSpaceOnUse">
<stop stop-color="#8A1812"/>
<stop offset="0.2" stop-color="#921612"/>
<stop offset="0.5" stop-color="#AA1313"/>
<stop offset="0.8" stop-color="#D10D14"/>
<stop offset="0.9" stop-color="#DA0C15"/>
</linearGradient>
<clipPath id="clip0_2143_2744">
<rect width="124" height="60" fill="white"/>
</clipPath>
<clipPath id="clip1_2143_2744">
<rect width="124.762" height="60" fill="white"/>
</clipPath>
</defs>
</svg>
