<svg width="114" height="183" viewBox="0 0 114 183" fill="none" xmlns="http://www.w3.org/2000/svg">
<g filter="url(#filter0_d_3_2769)">
<path d="M75.9878 43.503C73.3895 42.6734 85.6204 73.8089 85.6204 73.8089C81.5176 62.854 76.4985 49.4203 80.5249 47.3166C82.0101 46.5418 83.1728 46.4315 84.0455 46.6005C82.7052 48.5527 84.1282 51.7671 84.6666 52.7234C85.3404 53.9231 87.8341 53.0288 87.8376 53.0281C89.1519 56.8944 91.1855 62.5649 93.6793 68.4907C98.168 79.1481 94.9452 81.9835 94.9452 81.9835L102.144 89.461L82.5542 107.408L75.9059 100.488C75.9059 100.488 67.6914 101.256 63.9607 97.9854L75.9872 43.4996L75.9878 43.503Z" fill="#777DBE"/>
<path d="M38.1013 30.6412C38.1013 30.6412 32.4844 26.0605 29.3056 29.8622C26.1235 33.6646 29.7882 37.1816 31.7176 38.6609C33.651 40.143 40.7549 44.4378 40.7549 44.4378L38.1006 30.6378L38.1013 30.6412Z" fill="#777DBE"/>
<rect width="45.1369" height="78.323" rx="6.44813" transform="matrix(-1 -1.12578e-08 -1.12578e-08 1 82.6638 19.3717)" fill="url(#paint0_linear_3_2769)"/>
<rect x="54.5685" y="23.0564" width="11.0539" height="1.84232" rx="0.921161" fill="#101762"/>
<path d="M102.144 89.4643L94.9459 81.9868C94.9459 81.9868 98.1652 79.1521 93.68 68.4941C89.1948 57.8361 86.1932 47.9987 86.1932 47.9987C86.1932 47.9987 84.548 45.2134 80.525 47.3165C76.4986 49.4202 81.5177 62.854 85.6204 73.8088C85.6204 73.8088 86.5306 77.3984 89.129 78.2279" fill="#777DBE"/>
<path d="M102.144 89.4643L94.9459 81.9868C94.9459 81.9868 98.1652 79.1521 93.68 68.4941C89.1948 57.8361 86.1932 47.9987 86.1932 47.9987C86.1932 47.9987 84.548 45.2134 80.525 47.3165C76.4986 49.4202 81.5177 62.854 85.6204 73.8088C85.6204 73.8088 86.5306 77.3984 89.129 78.2279" stroke="#777DBE" stroke-width="0.654432" stroke-miterlimit="10"/>
<path opacity="0.3" d="M84.6666 52.7234C84.1282 51.7671 82.7052 48.5527 84.0455 46.6005C85.5405 46.8907 86.1932 47.9988 86.1932 47.9988C86.1932 47.9988 86.7864 49.9407 87.8341 53.0288C87.8341 53.0288 85.337 53.9238 84.6632 52.7241L84.6666 52.7234Z" fill="url(#paint1_linear_3_2769)"/>
<path d="M116.708 145.096C117.221 145.607 118.048 145.593 118.546 145.069L139.101 123.295C139.6 122.771 139.585 121.919 139.072 121.408L103.249 85.7355C102.736 85.2245 101.909 85.2381 101.411 85.7629L80.8555 107.533C80.3573 108.058 80.3722 108.909 80.8852 109.42L116.708 145.093L116.708 145.096Z" fill="#6067B0"/>
<path d="M34.3863 53.7341C35.8595 53.192 37.3667 53.767 38.818 54.5301C41.9966 56.2016 45.7084 58.7099 45.2087 61.1988C44.709 63.6877 41.7538 68.3751 36.1414 64.6656C34.2208 63.3973 31.1622 61.5573 30.9325 58.9996C30.7647 57.1318 32.1143 55.1176 33.6051 54.1325C33.863 53.9624 34.1248 53.8305 34.3863 53.7341Z" fill="#777DBE"/>
<path d="M35.326 42.1248C36.7626 41.6322 38.1764 42.1083 39.6086 42.8644C42.6886 44.4839 46.2903 46.9177 45.8042 49.3295C45.3181 51.7413 42.4527 56.2875 37.0114 52.6939C35.1275 51.4504 32.0258 49.5337 31.9101 46.9789C31.8357 45.32 33.0344 43.4801 34.3845 42.593C34.6994 42.3871 35.0139 42.2344 35.326 42.1248Z" fill="#777DBE"/>
<path opacity="0.3" d="M37.6106 50.317L41.1577 45.7213C41.1577 45.7213 44.7889 47.3128 44.359 49.6855C43.9292 52.0581 40.785 54.141 37.6106 50.317Z" fill="url(#paint2_linear_3_2769)"/>
<path d="M34.9974 66.2007C35.6134 65.9936 36.276 65.937 36.9311 66.0805C39.3385 66.5993 43.6297 69.1345 43.3081 72.0145C43.1246 73.6591 41.9031 75.436 40.3902 76.085C38.6513 76.8307 36.8575 76.2399 35.339 75.2381C33.65 74.1237 32.1254 72.9423 31.9264 70.6729C31.7538 68.7068 33.1865 66.8113 34.9981 66.2041L34.9974 66.2007Z" fill="#777DBE"/>
<path opacity="0.3" d="M36.169 73.5081L39.2412 69.0604C39.2412 69.0604 42.3054 70.4136 41.9054 72.6281C41.5054 74.8425 38.6377 76.4646 36.1724 73.5074L36.169 73.5081Z" fill="url(#paint3_linear_3_2769)"/>
<path opacity="0.3" d="M36.9416 62.7073L40.8273 57.3836C40.8273 57.3836 44.0101 59.1323 43.5802 61.5049C43.1504 63.8775 40.1153 66.5279 36.9416 62.7073Z" fill="url(#paint4_linear_3_2769)"/>
<path opacity="0.15" d="M47.6598 33.5684C47.6598 32.0422 48.8971 30.8049 50.4233 30.8049H69.7677C71.2939 30.8049 72.5312 32.0422 72.5312 33.5684V37.2531C72.5312 38.7793 71.2939 40.0165 69.7677 40.0165H47.6598V33.5684Z" fill="#A8C7FA"/>
<g opacity="0.35">
<path d="M52.1505 34.3745L54.2231 36.4471" stroke="white" stroke-width="0.345435" stroke-linecap="round" stroke-linejoin="round"/>
<path d="M52.1505 36.4471L54.2231 34.3745" stroke="white" stroke-width="0.345435" stroke-linecap="round" stroke-linejoin="round"/>
<path d="M56.7563 34.3745L58.8289 36.4471" stroke="white" stroke-width="0.345435" stroke-linecap="round" stroke-linejoin="round"/>
<path d="M56.7563 36.4471L58.8289 34.3745" stroke="white" stroke-width="0.345435" stroke-linecap="round" stroke-linejoin="round"/>
<path d="M61.3621 34.3745L63.4347 36.4471" stroke="white" stroke-width="0.345435" stroke-linecap="round" stroke-linejoin="round"/>
<path d="M61.3621 36.4471L63.4347 34.3745" stroke="white" stroke-width="0.345435" stroke-linecap="round" stroke-linejoin="round"/>
<path d="M65.9679 34.3745L68.0405 36.4471" stroke="white" stroke-width="0.345435" stroke-linecap="round" stroke-linejoin="round"/>
<path d="M65.9679 36.4471L68.0405 34.3745" stroke="white" stroke-width="0.345435" stroke-linecap="round" stroke-linejoin="round"/>
</g>
<path d="M46.7387 40.4771C47.8227 40.0626 47.7787 38.0822 47.7787 37.2531C48.3765 37.7137 49.798 39.3786 49.4472 39.6826C49.0089 40.0971 48.2531 40.4771 46.7387 40.4771Z" fill="#323C85"/>
</g>
<defs>
<filter id="filter0_d_3_2769" x="-4.63483" y="-7.42322" width="175.27" height="195.333" filterUnits="userSpaceOnUse" color-interpolation-filters="sRGB">
<feFlood flood-opacity="0" result="BackgroundImageFix"/>
<feColorMatrix in="SourceAlpha" type="matrix" values="0 0 0 0 0 0 0 0 0 0 0 0 0 0 0 0 0 0 127 0" result="hardAlpha"/>
<feOffset dy="9.21161"/>
<feGaussianBlur stdDeviation="13.8174"/>
<feComposite in2="hardAlpha" operator="out"/>
<feColorMatrix type="matrix" values="0 0 0 0 0 0 0 0 0 0 0 0 0 0 0 0 0 0 0.3 0"/>
<feBlend mode="normal" in2="BackgroundImageFix" result="effect1_dropShadow_3_2769"/>
<feBlend mode="normal" in="SourceGraphic" in2="effect1_dropShadow_3_2769" result="shape"/>
</filter>
<linearGradient id="paint0_linear_3_2769" x1="49.5537" y1="63.0995" x2="-3.09131" y2="33.1598" gradientUnits="userSpaceOnUse">
<stop stop-color="#181F68"/>
<stop offset="1" stop-color="#1F2673"/>
</linearGradient>
<linearGradient id="paint1_linear_3_2769" x1="84.7663" y1="46.4618" x2="86.1051" y2="53.4225" gradientUnits="userSpaceOnUse">
<stop stop-color="white"/>
<stop offset="1" stop-color="#D0D4FF" stop-opacity="0.7"/>
</linearGradient>
<linearGradient id="paint2_linear_3_2769" x1="40.2696" y1="45.8921" x2="41.5266" y2="52.4278" gradientUnits="userSpaceOnUse">
<stop stop-color="white"/>
<stop offset="1" stop-color="#D0D4FF" stop-opacity="0.7"/>
</linearGradient>
<linearGradient id="paint3_linear_3_2769" x1="38.3746" y1="69.2271" x2="39.5001" y2="75.0793" gradientUnits="userSpaceOnUse">
<stop stop-color="white"/>
<stop offset="1" stop-color="#D0D4FF" stop-opacity="0.7"/>
</linearGradient>
<linearGradient id="paint4_linear_3_2769" x1="39.4877" y1="57.6412" x2="40.8207" y2="64.5718" gradientUnits="userSpaceOnUse">
<stop stop-color="white"/>
<stop offset="1" stop-color="#D0D4FF" stop-opacity="0.7"/>
</linearGradient>
</defs>
</svg>
