<svg width="25" height="24" viewBox="0 0 25 24" fill="none" xmlns="http://www.w3.org/2000/svg">
<path fill-rule="evenodd" clip-rule="evenodd" d="M23.1875 11.25C22.2338 11.25 21.3132 10.7364 20.6054 9.79263C19.8974 8.84869 19.4373 7.51026 19.4373 6H17.9373C17.9373 7.80345 18.4847 9.46502 19.4054 10.6927C19.5528 10.8892 19.7108 11.0756 19.8783 11.25L1.24991 11.25H0.49991V12.75H1.24991L19.8781 12.75C19.7106 12.9244 19.5527 13.1108 19.4052 13.3074C18.4845 14.535 17.9371 16.1966 17.9371 18H19.4371C19.4371 16.4897 19.8972 15.1513 20.6052 14.2074C21.3121 13.2649 22.2311 12.7514 23.1834 12.75L23.1854 12.75C23.1861 12.75 23.1868 12.75 23.1875 12.75L23.75 12.75H24.5L24.5 11.25H23.75L23.1875 11.25Z" fill="#666666"/>
</svg>
