<svg width="265" height="360" viewBox="0 0 265 360" fill="none" xmlns="http://www.w3.org/2000/svg">
<g style="mix-blend-mode:lighten" opacity="0.7" clip-path="url(#clip0_2058_23692)">
<path d="M76.1925 325.783L67.0055 310.034L57.8236 294.295H76.1926H94.5567L85.3749 310.034L85.3749 310.034L76.1925 325.783Z" stroke="#1722AD" stroke-width="0.784314"/>
<path d="M266.667 294.295H285.031L275.854 310.034L275.854 310.034L266.667 325.783L257.48 310.034L257.48 310.034L248.302 294.295H266.667Z" stroke="#FF44BE" stroke-width="0.784314"/>
<path d="M134.016 294.295H152.38H170.745L161.567 310.034L161.567 310.034L152.38 325.783L143.198 310.034L143.198 310.034L134.016 294.295Z" stroke="#1722AD" stroke-width="0.784314"/>
<path d="M143.198 244.721L134.016 228.986H152.38H170.744L161.567 244.721L161.567 244.721L152.38 260.47L143.198 244.721L143.198 244.721Z" stroke="#1722AD" stroke-width="0.784314"/>
<path d="M38.094 326.562L47.6198 342.891L57.1409 359.216L66.6668 342.891L76.1926 326.562H57.1409H38.094Z" fill="#FCDED8"/>
<path d="M256.802 179.808L265.984 195.543H247.62H229.255L238.433 179.808L238.433 179.808L247.62 164.059L256.802 179.808L256.802 179.808Z" stroke="#1722AD" stroke-width="0.784314"/>
<path d="M181.292 212.462L181.292 212.462L190.474 196.713L199.661 212.462L208.843 228.202H190.474H172.11L181.292 212.462Z" stroke="#1722AD" stroke-width="0.784314"/>
<path d="M237.755 212.462L237.755 212.462L246.937 228.202H228.573H210.208L219.386 212.462L219.386 212.462L228.573 196.713L237.755 212.462Z" stroke="#1722AD" stroke-width="0.784314"/>
<path d="M104.422 245.116L113.603 260.856H95.2393H76.875L86.0522 245.116L86.0523 245.116L95.2392 229.372L104.422 245.116L104.422 245.116Z" stroke="#1722AD" stroke-width="0.784314"/>
<path d="M189.792 260.856H171.427H153.063L162.245 245.116L162.245 245.116L171.427 229.372L180.614 245.116L180.614 245.116L189.792 260.856Z" stroke="#2C41FE" stroke-width="0.784314"/>
<path d="M218.708 245.116L227.89 260.856H209.526H191.157L200.339 245.116L200.339 245.116L209.526 229.372L218.708 245.116L218.708 245.116Z" stroke="#1722AD" stroke-width="0.784314"/>
<path d="M265.984 260.856H247.62H229.255L238.433 245.116L238.433 245.116L247.62 229.372L256.802 245.116L256.802 245.116L265.984 260.856Z" stroke="#4380FF" stroke-width="0.784314"/>
<path d="M181.292 277.775L190.474 262.026L199.661 277.775L199.661 277.775L208.843 293.51H190.474H172.11L181.292 277.775L181.292 277.775Z" stroke="#1722AD" stroke-width="0.784314"/>
<path d="M275.854 277.775L275.854 277.775L285.031 293.51H266.667H248.302L257.48 277.775L257.48 277.775L266.667 262.026L275.854 277.775Z" stroke="#1722AD" stroke-width="0.784314"/>
<path d="M37.4113 326.169H19.0469H0.68277L9.86458 310.429L9.86462 310.429L19.047 294.681L28.234 310.429L28.2341 310.429L37.4113 326.169Z" stroke="#1722AD" stroke-width="0.784314"/>
<path d="M142.52 310.429L142.52 310.429L151.698 326.169H133.333H114.969L124.146 310.429L124.146 310.429L133.333 294.681L142.52 310.429Z" stroke="#F7AAFC" stroke-width="0.784314"/>
<path d="M227.89 326.169H209.526H191.157L200.339 310.429L209.526 294.681L218.708 310.429L218.708 310.429L227.89 326.169Z" stroke="#2C41FE" stroke-width="0.784314"/>
<path d="M256.802 310.429L256.802 310.429L265.984 326.169H247.62H229.255L238.433 310.429L238.433 310.429L247.62 294.681L256.802 310.429Z" stroke="#B6CACE" stroke-width="0.784314"/>
<path d="M114.286 326.562L104.761 342.891L95.2395 359.216H114.286H133.333L123.808 342.891L114.286 326.562Z" fill="#B6CACE"/>
<path d="M190.474 326.562L180.953 342.891L171.427 359.216H190.474H209.526L200 342.891L190.474 326.562Z" fill="#B6CACE"/>
<path d="M247.62 359.216L238.094 342.891L228.573 326.562L219.047 342.891L209.526 359.216H228.573H247.62Z" fill="#6D827B"/>
</g>
<defs>
<clipPath id="clip0_2058_23692">
<rect width="400" height="359.216" fill="white"/>
</clipPath>
</defs>
</svg>
