<svg width="114" height="183" viewBox="0 0 114 183" fill="none" xmlns="http://www.w3.org/2000/svg">
<g filter="url(#filter0_d_3_2740)">
<path d="M75.9878 43.5029C73.3895 42.6733 85.6204 73.8088 85.6204 73.8088C81.5176 62.8539 76.4985 49.4202 80.5249 47.3165C82.0101 46.5416 83.1728 46.4314 84.0455 46.6003C82.7052 48.5525 84.1282 51.767 84.6666 52.7233C85.3404 53.923 87.8341 53.0286 87.8376 53.028C89.1519 56.8943 91.1855 62.5648 93.6793 68.4906C98.168 79.148 94.9452 81.9833 94.9452 81.9833L102.144 89.4609L82.5542 107.408L75.9059 100.487C75.9059 100.487 67.6914 101.256 63.9607 97.9853L75.9872 43.4994L75.9878 43.5029Z" fill="#777DBE"/>
<path d="M38.1013 30.6411C38.1013 30.6411 32.4844 26.0604 29.3056 29.8621C26.1235 33.6645 29.7882 37.1815 31.7176 38.6608C33.651 40.1429 40.7549 44.4376 40.7549 44.4376L38.1006 30.6377L38.1013 30.6411Z" fill="#777DBE"/>
<rect width="45.1369" height="78.323" rx="6.44813" transform="matrix(-1 -1.12578e-08 -1.12578e-08 1 82.6638 19.3718)" fill="url(#paint0_linear_3_2740)"/>
<rect x="54.5685" y="23.0564" width="11.0539" height="1.84232" rx="0.921161" fill="#101762"/>
<path d="M102.144 89.4644L94.9459 81.9869C94.9459 81.9869 98.1652 79.1522 93.68 68.4942C89.1948 57.8362 86.1932 47.9988 86.1932 47.9988C86.1932 47.9988 84.548 45.2136 80.525 47.3166C76.4986 49.4204 81.5177 62.8541 85.6204 73.809C85.6204 73.809 86.5306 77.3985 89.129 78.228" fill="#777DBE"/>
<path d="M102.144 89.4644L94.9459 81.9869C94.9459 81.9869 98.1652 79.1522 93.68 68.4942C89.1948 57.8362 86.1932 47.9988 86.1932 47.9988C86.1932 47.9988 84.548 45.2136 80.525 47.3166C76.4986 49.4204 81.5177 62.8541 85.6204 73.809C85.6204 73.809 86.5306 77.3985 89.129 78.228" stroke="#777DBE" stroke-width="0.654432" stroke-miterlimit="10"/>
<path opacity="0.3" d="M84.6666 52.7235C84.1282 51.7672 82.7052 48.5528 84.0455 46.6006C85.5405 46.8908 86.1932 47.9989 86.1932 47.9989C86.1932 47.9989 86.7864 49.9408 87.8341 53.0289C87.8341 53.0289 85.337 53.9239 84.6632 52.7242L84.6666 52.7235Z" fill="url(#paint1_linear_3_2740)"/>
<path d="M116.708 145.096C117.221 145.607 118.048 145.593 118.546 145.069L139.101 123.295C139.6 122.771 139.585 121.919 139.072 121.408L103.249 85.7355C102.736 85.2245 101.909 85.2381 101.411 85.7629L80.8555 107.533C80.3573 108.058 80.3722 108.909 80.8852 109.42L116.708 145.093L116.708 145.096Z" fill="#6067B0"/>
<path d="M34.3863 53.7343C35.8594 53.1921 37.3667 53.7672 38.818 54.5302C41.9966 56.2017 45.7084 58.7101 45.2087 61.1989C44.709 63.6878 41.7538 68.3753 36.1414 64.6657C34.2207 63.3974 31.1622 61.5574 30.9325 58.9997C30.7647 57.132 32.1143 55.1177 33.605 54.1326C33.863 53.9625 34.1248 53.8306 34.3863 53.7343Z" fill="#777DBE"/>
<path d="M35.326 42.1248C36.7626 41.6322 38.1764 42.1083 39.6086 42.8644C42.6886 44.4839 46.2903 46.9177 45.8042 49.3295C45.3181 51.7413 42.4527 56.2875 37.0114 52.6939C35.1275 51.4504 32.0258 49.5337 31.9101 46.9789C31.8357 45.32 33.0344 43.4801 34.3845 42.593C34.6994 42.3871 35.0139 42.2344 35.326 42.1248Z" fill="#777DBE"/>
<path opacity="0.3" d="M37.6106 50.3171L41.1577 45.7214C41.1577 45.7214 44.7889 47.313 44.359 49.6856C43.9292 52.0582 40.785 54.1412 37.6106 50.3171Z" fill="url(#paint2_linear_3_2740)"/>
<path d="M34.9974 66.2005C35.6134 65.9935 36.276 65.9369 36.9311 66.0803C39.3385 66.5992 43.6297 69.1343 43.3081 72.0143C43.1246 73.659 41.9031 75.4359 40.3902 76.0849C38.6513 76.8306 36.8575 76.2398 35.339 75.238C33.65 74.1236 32.1254 72.9422 31.9264 70.6728C31.7538 68.7067 33.1865 66.8112 34.9981 66.204L34.9974 66.2005Z" fill="#777DBE"/>
<path opacity="0.3" d="M36.169 73.5081L39.2412 69.0604C39.2412 69.0604 42.3054 70.4136 41.9054 72.6281C41.5054 74.8425 38.6377 76.4646 36.1724 73.5074L36.169 73.5081Z" fill="url(#paint3_linear_3_2740)"/>
<path opacity="0.3" d="M36.9416 62.7073L40.8273 57.3836C40.8273 57.3836 44.0101 59.1323 43.5802 61.5049C43.1504 63.8775 40.1153 66.5279 36.9416 62.7073Z" fill="url(#paint4_linear_3_2740)"/>
<path opacity="0.15" d="M47.6598 33.5684C47.6598 32.0422 48.8971 30.8049 50.4233 30.8049H69.7677C71.2939 30.8049 72.5312 32.0422 72.5312 33.5684V37.2531C72.5312 38.7793 71.2939 40.0165 69.7677 40.0165H47.6598V33.5684Z" fill="#A8C7FA"/>
<g opacity="0.35">
<path d="M52.1505 34.3745L54.2231 36.4471" stroke="white" stroke-width="0.345435" stroke-linecap="round" stroke-linejoin="round"/>
<path d="M52.1505 36.4471L54.2231 34.3745" stroke="white" stroke-width="0.345435" stroke-linecap="round" stroke-linejoin="round"/>
<path d="M56.7563 34.3745L58.8289 36.4471" stroke="white" stroke-width="0.345435" stroke-linecap="round" stroke-linejoin="round"/>
<path d="M56.7563 36.4471L58.8289 34.3745" stroke="white" stroke-width="0.345435" stroke-linecap="round" stroke-linejoin="round"/>
<path d="M61.3621 34.3745L63.4347 36.4471" stroke="white" stroke-width="0.345435" stroke-linecap="round" stroke-linejoin="round"/>
<path d="M61.3621 36.4471L63.4347 34.3745" stroke="white" stroke-width="0.345435" stroke-linecap="round" stroke-linejoin="round"/>
<path d="M65.9679 34.3745L68.0405 36.4471" stroke="white" stroke-width="0.345435" stroke-linecap="round" stroke-linejoin="round"/>
<path d="M65.9679 36.4471L68.0405 34.3745" stroke="white" stroke-width="0.345435" stroke-linecap="round" stroke-linejoin="round"/>
</g>
<path d="M46.7387 40.4772C47.8227 40.0627 47.7787 38.0823 47.7787 37.2532C48.3765 37.7138 49.798 39.3787 49.4472 39.6827C49.0089 40.0972 48.2531 40.4772 46.7387 40.4772Z" fill="#323C85"/>
</g>
<defs>
<filter id="filter0_d_3_2740" x="-4.63483" y="-7.42322" width="175.27" height="195.333" filterUnits="userSpaceOnUse" color-interpolation-filters="sRGB">
<feFlood flood-opacity="0" result="BackgroundImageFix"/>
<feColorMatrix in="SourceAlpha" type="matrix" values="0 0 0 0 0 0 0 0 0 0 0 0 0 0 0 0 0 0 127 0" result="hardAlpha"/>
<feOffset dy="9.21161"/>
<feGaussianBlur stdDeviation="13.8174"/>
<feComposite in2="hardAlpha" operator="out"/>
<feColorMatrix type="matrix" values="0 0 0 0 0 0 0 0 0 0 0 0 0 0 0 0 0 0 0.3 0"/>
<feBlend mode="normal" in2="BackgroundImageFix" result="effect1_dropShadow_3_2740"/>
<feBlend mode="normal" in="SourceGraphic" in2="effect1_dropShadow_3_2740" result="shape"/>
</filter>
<linearGradient id="paint0_linear_3_2740" x1="49.5537" y1="63.0995" x2="-3.09131" y2="33.1598" gradientUnits="userSpaceOnUse">
<stop stop-color="#181F68"/>
<stop offset="1" stop-color="#1F2673"/>
</linearGradient>
<linearGradient id="paint1_linear_3_2740" x1="84.7663" y1="46.4619" x2="86.1051" y2="53.4227" gradientUnits="userSpaceOnUse">
<stop stop-color="white"/>
<stop offset="1" stop-color="#D0D4FF" stop-opacity="0.7"/>
</linearGradient>
<linearGradient id="paint2_linear_3_2740" x1="40.2696" y1="45.8922" x2="41.5266" y2="52.4279" gradientUnits="userSpaceOnUse">
<stop stop-color="white"/>
<stop offset="1" stop-color="#D0D4FF" stop-opacity="0.7"/>
</linearGradient>
<linearGradient id="paint3_linear_3_2740" x1="38.3746" y1="69.2271" x2="39.5001" y2="75.0793" gradientUnits="userSpaceOnUse">
<stop stop-color="white"/>
<stop offset="1" stop-color="#D0D4FF" stop-opacity="0.7"/>
</linearGradient>
<linearGradient id="paint4_linear_3_2740" x1="39.4877" y1="57.6412" x2="40.8207" y2="64.5718" gradientUnits="userSpaceOnUse">
<stop stop-color="white"/>
<stop offset="1" stop-color="#D0D4FF" stop-opacity="0.7"/>
</linearGradient>
</defs>
</svg>
