<svg width="44" height="45" viewBox="0 0 44 45" fill="none" xmlns="http://www.w3.org/2000/svg">
<rect y="0.75" width="44" height="44" rx="22" fill="white"/>
<path d="M25.0733 15.9565C23.3412 14.969 21.9958 14.2018 20.9031 13.7042C19.8064 13.2047 18.8543 12.9226 17.9286 13.0187C16.4594 13.1712 15.1219 13.9324 14.2503 15.1172C13.6997 15.8656 13.4705 16.8261 13.36 18.0152C13.25 19.1996 13.25 20.7346 13.25 22.7088V22.7911C13.25 24.7653 13.25 26.3004 13.36 27.4847C13.4705 28.6739 13.6997 29.6344 14.2503 30.3827C15.1219 31.5675 16.4594 32.3288 17.9286 32.4813C18.8543 32.5774 19.8064 32.2953 20.9031 31.7958C21.9958 31.2981 23.3412 30.531 25.0732 29.5434L25.1435 29.5033C26.8755 28.5158 28.2209 27.7487 29.2038 27.0629C30.1894 26.3752 30.916 25.7003 31.297 24.8552C31.901 23.5154 31.901 21.9846 31.297 20.6447C30.916 19.7997 30.1894 19.1248 29.2038 18.437C28.2209 17.7513 26.8755 16.9841 25.1435 15.9966L25.0733 15.9565Z" fill="black"/>
</svg>
