<svg width="353" height="217" viewBox="0 0 353 217" fill="none" xmlns="http://www.w3.org/2000/svg">
<g clip-path="url(#clip0_991_4859)">
<path d="M213.245 125.304C213.245 125.304 213.186 125.634 213.078 126.245C212.948 126.916 212.749 127.923 212.501 129.216C212.36 129.936 212.209 130.736 212.031 131.613C211.972 131.943 211.913 132.273 211.842 132.625C211.794 132.874 211.745 133.134 211.691 133.393C211.621 133.712 211.562 134.032 211.503 134.373C208.713 148.587 203.226 175.474 199.827 184.722C195.112 197.54 189.16 200.749 185.324 199.937C179.503 198.698 165.081 191.388 165.081 191.388L178.607 164.566L183.533 168.164L197.092 133.875L197.491 132.874L198.975 129.124L199.352 128.145L199.849 126.895L200.965 124.086L202.562 120.05L213.251 125.309L213.245 125.304Z" fill="#858BD9"/>
<path d="M195.257 103.887C196.158 107.02 195.689 110.374 196.39 113.551C196.741 115.141 197.334 116.662 198.052 118.123C198.667 119.378 199.363 121.045 200.264 122.078C200.264 122.078 204.024 126.375 207.494 127.446C208.983 127.906 211.173 126.234 212.722 126.293C213.396 126.321 220.097 107.766 221.09 105.294C221.743 103.665 222.703 101.82 223.329 100.18C223.798 98.9519 225.293 96.1328 223.793 95.6079C222.493 95.148 221.36 97.3881 220.944 98.2971C220.194 99.9475 217.653 104.79 217.653 104.79C217.653 104.79 218.63 100.911 218.921 99.7689C219.811 96.3059 221.554 90.2023 221.09 88.9416C220.782 88.1029 220.259 88.1949 219.471 88.6819C218.716 89.1526 218.182 90.4621 217.837 91.2467C217.022 93.0918 213.018 103.443 213.018 103.443C213.018 103.443 215.392 90.7867 215.678 88.3085C215.835 86.972 216.266 84.1096 214.982 83.2006C213.499 82.14 211.918 88.6386 211.67 89.6234C211.249 91.2845 208.869 101.922 208.869 101.922C208.886 101.803 208.896 101.679 208.913 101.56C209.231 98.795 209.452 96.0137 209.549 93.2325C209.609 91.4793 209.63 89.71 209.49 87.9568C209.42 87.0694 209.35 84.4559 208.438 83.9473C206.911 83.0869 206.469 91.225 206.35 92.2639C205.994 95.3319 205.087 98.2917 204.203 101.257C203.663 103.08 201.359 108.394 201.359 108.394C201.359 108.394 198.748 104.017 198.494 103.627C197.89 102.685 197.75 101.495 197.399 100.44C197.07 99.4551 196.406 96.2897 194.437 97.4747C193.66 97.94 194.707 102.031 195.246 103.897L195.257 103.887Z" fill="#858BD9"/>
<path d="M207.942 119.049C207.699 119.049 207.483 118.871 207.451 118.622C207.451 118.595 207.073 116.068 206.216 114.055C205.385 112.107 201.926 109.488 201.894 109.461C201.673 109.293 201.63 108.985 201.797 108.763C201.964 108.541 202.277 108.498 202.493 108.666C202.644 108.779 206.199 111.468 207.133 113.665C208.045 115.797 208.422 118.373 208.438 118.481C208.476 118.757 208.287 119.006 208.018 119.049C207.996 119.049 207.969 119.049 207.947 119.049H207.942Z" fill="#7076BD"/>
<path d="M71.0074 96.6041C71.0074 96.6041 72.2052 106.793 71.029 113.378C69.8582 119.963 54.1201 125.688 54.1201 125.688L81.9114 161.882L88.3804 187.524L117.85 128.837C117.85 128.837 100.202 119.909 98.912 115.515C97.083 109.266 99.3221 95.5977 99.3221 95.5977L85.4615 103.157L71.0074 96.5987V96.6041Z" fill="#858BD9"/>
<path d="M106.234 57.9969C108.376 66.465 103.919 91.2743 102.295 96.7285C101.276 100.159 93.2851 108.47 86.7514 108.844C81.1834 109.163 69.632 100.846 68.2454 94.5263C67.3174 90.2841 60.4815 65.1231 65.6557 55.7784C70.8298 46.4336 103.04 45.3406 106.239 57.9969H106.234Z" fill="#858BD9"/>
<path d="M76.1503 78.8772C76.6898 77.5678 76.3877 75.1274 75.3032 74.754C73.3555 74.0831 73.6631 77.5732 73.8951 78.4389C74.0084 78.8718 74.2026 79.3209 74.5911 79.5319C75.3518 79.9378 75.8697 79.5644 76.1503 78.8772Z" fill="#1E246B"/>
<path d="M98.1515 78.7476C98.7558 77.4707 98.5777 75.0141 97.5149 74.5812C95.6049 73.8128 95.7344 77.3083 95.9178 78.1903C96.0096 78.6286 96.1768 79.0885 96.5599 79.3212C97.299 79.7649 97.8332 79.4186 98.1515 78.7476Z" fill="#1E246B"/>
<path d="M79.4465 93.0437C79.4465 93.0437 83.11 93.5036 86.4227 93.3305C89.7354 93.1573 92.104 92.9463 92.104 92.9463C92.104 92.9463 91.1706 96.5229 85.6943 96.7286C81.5561 96.8855 79.4465 93.0437 79.4465 93.0437Z" fill="#7076BD"/>
<path d="M104.658 71.1126C104.658 71.1126 106.865 68.997 108.063 72.8442C109.255 76.6914 109.001 82.7354 106.994 84.7429C104.982 86.7503 102.295 86.3553 102.295 86.3553L104.658 71.1181V71.1126Z" fill="#858BD9"/>
<path d="M65.9313 71.8058C65.9313 71.8058 63.73 69.6793 62.5215 73.521C61.3129 77.3628 61.5449 83.4069 63.5466 85.4252C65.5483 87.4434 68.2405 87.0539 68.2405 87.0539L65.9313 71.8058Z" fill="#858BD9"/>
<path d="M65.4678 82.3077C65.3815 82.3077 65.2898 82.2807 65.2089 82.232C65.0956 82.1562 64.0812 81.4528 64.0974 79.3263C64.1082 78.1846 64.9391 76.4531 65.0362 76.2583C65.1603 76.0094 65.457 75.912 65.7052 76.031C65.9534 76.1555 66.0559 76.4531 65.9318 76.702C65.6998 77.1727 65.1063 78.5579 65.0956 79.3371C65.0794 80.9009 65.7268 81.377 65.7538 81.3987C65.975 81.5556 66.0343 81.864 65.8833 82.0913C65.7862 82.2374 65.6297 82.3131 65.4678 82.3131V82.3077Z" fill="#7076BD"/>
<path d="M105.069 82.1675C104.918 82.1675 104.767 82.0971 104.67 81.9673C104.502 81.7454 104.545 81.4316 104.767 81.2693C106.051 80.3007 105.43 78.1688 104.68 76.5509C104.567 76.302 104.675 76.0044 104.923 75.8853C105.177 75.7663 105.468 75.8799 105.587 76.1288C106.882 78.9263 106.806 80.9825 105.371 82.0701C105.279 82.1404 105.177 82.1729 105.069 82.1729V82.1675Z" fill="#7076BD"/>
<path d="M85.1064 109.022C83.2126 109.022 81.4645 108.909 81.0275 108.714C80.2182 108.357 72.9777 102.329 71.5318 101.122C71.3213 100.944 71.289 100.63 71.467 100.419C71.6451 100.208 71.958 100.181 72.1684 100.354C75.4434 103.086 80.8495 107.518 81.4322 107.799C82.085 108.065 88.732 108.178 90.0593 107.594C91.4243 106.993 97.2405 102.967 97.2944 102.93C97.521 102.773 97.834 102.827 97.985 103.054C98.1415 103.281 98.0875 103.595 97.8609 103.747C97.6181 103.914 91.9099 107.87 90.4585 108.508C89.6385 108.871 87.2753 109.022 85.101 109.022H85.1064Z" fill="#7076BD"/>
<path d="M80.412 70.0423C79.9966 69.2523 78.1082 69.1712 77.3906 69.0792C76.0688 68.9169 74.7253 68.9601 73.4143 69.2145C72.2597 69.4417 69.7077 69.8313 69.6214 71.3518C69.6106 71.5358 69.7562 71.6873 69.9181 71.7468C70.9432 72.0877 72.0978 71.8225 73.1499 71.7251C74.5149 71.6007 75.8098 71.6602 77.1748 71.7035C78.0704 71.7306 80.8274 71.8712 80.4768 70.2263C80.4606 70.1614 80.439 70.1019 80.412 70.0477V70.0423Z" fill="#1E246B"/>
<path d="M91.7419 70.0369C91.3912 71.6818 94.1482 71.5411 95.0438 71.514C96.4088 71.4708 97.7037 71.4112 99.0687 71.5357C100.121 71.6331 101.281 71.8982 102.301 71.5573C102.462 71.5032 102.608 71.3517 102.597 71.1623C102.511 69.6473 99.9644 69.2523 98.8044 69.025C97.4987 68.7707 96.1499 68.7274 94.828 68.8897C94.1104 68.9763 92.2221 69.0575 91.8066 69.8529C91.7797 69.907 91.7527 69.9719 91.7419 70.0314V70.0369Z" fill="#1E246B"/>
<path d="M116.032 54.4908C114.322 52.6727 113.216 50.741 111.77 48.7281C111.344 48.1383 110.874 47.6189 110.4 47.1265C110.103 44.1451 109.25 41.3368 106.283 40.4548C105.339 40.1734 104.351 40.0165 103.353 39.9516C102.965 39.378 102.409 38.9343 101.605 38.7179C100.618 38.4581 99.6467 38.5826 98.7079 38.0685C97.7367 37.5383 96.9976 36.6455 96.1559 35.942C95.1146 35.0655 94.0571 34.4324 92.6705 34.3891C91.6346 34.3566 90.6095 34.7137 89.579 34.7192C88.2895 34.7192 87.0918 34.2809 85.894 33.8642C84.0218 33.2149 82.3223 32.6955 80.3314 33.0147C76.7867 33.5829 74.1754 36.1963 72.4003 39.1724C72.3679 39.1994 72.3355 39.2265 72.3032 39.2535C71.9417 39.286 71.5856 39.3401 71.2295 39.4105C67.9761 39.0533 64.4422 39.5998 61.9765 41.6939C60.687 42.7923 59.9856 44.329 59.2249 45.8062C58.0433 48.1167 56.2737 49.2909 54.5094 51.0603C53.3386 52.229 52.9933 53.3058 53.0419 54.9291C53.0688 55.9193 53.2199 55.6271 52.9771 57.0123C52.7235 58.457 52.4754 58.3272 51.8387 59.3282C51.4718 59.9018 51.2776 60.2805 51.2668 61.011C51.2398 63.7977 53.8889 66.0324 56.4355 67.1362C56.4841 68.5323 56.0633 69.8147 57.2179 71.1079C58.4426 72.4768 60.1529 72.8773 61.8093 73.164C61.9172 75.2094 66.6597 74.3274 67.1183 72.5797C67.237 72.1251 67.0859 71.6544 67.156 71.2053C67.4744 69.1707 68.3646 68.7649 69.6756 67.8559C70.663 67.1687 71.5694 66.633 72.1737 65.4805C72.8589 64.171 72.8751 62.6505 73.6142 61.3627C74.6879 59.4743 76.204 59.1983 77.7956 58.1324C79.1606 57.2179 79.6732 55.6488 80.0077 53.9984C80.79 54.7127 81.7612 55.27 82.7647 55.7137C84.5074 56.4875 85.0092 56.3576 85.8616 58.8033C86.0451 59.3282 86.0019 59.8909 86.3202 60.3779C87.1835 61.6982 88.8344 61.6603 90.1347 61.8551C90.9116 61.8876 91.6454 62.104 92.336 62.5044C92.8971 63.0888 93.318 63.7652 93.6039 64.539C94.0679 65.0638 94.1057 65.2099 94.6776 65.5021C95.7566 66.054 97.8554 65.2153 98.5568 65.8701C98.7996 66.0973 99.037 67.4609 99.3014 67.8288C99.6035 68.2509 99.992 68.608 100.429 68.8461C101.012 69.1653 101.352 69.0571 101.956 69.2249C103.537 69.6686 104.686 70.0636 105.366 71.7572C105.409 71.8654 105.474 71.9303 105.549 71.979C105.948 72.9314 107.125 73.2073 107.864 72.4444C109.186 72.0602 111.727 71.3622 112.466 69.8796C112.941 68.9327 112.547 67.6936 112.989 66.6979C113.41 65.7618 114.209 65.1342 114.576 64.1277C114.915 63.1862 114.942 62.288 114.786 61.4114C116.669 59.3986 118.115 56.7093 116.027 54.4854L116.032 54.4908Z" fill="#1E246B"/>
<path d="M78.7125 52.4397C78.6261 52.4397 78.5398 52.418 78.4589 52.3693C78.3348 52.299 75.4645 50.5891 74.5419 48.4139C74.0995 47.375 73.8513 46.2982 73.6247 45.3459C73.4035 44.399 73.2092 43.5873 72.9071 43.0841C72.2489 42.0019 71.3964 40.8386 71.3856 40.8277C71.2237 40.6059 71.2723 40.292 71.4881 40.1297C71.7093 39.9674 72.0223 40.0107 72.1841 40.2379C72.2219 40.2866 73.0689 41.4446 73.7542 42.5701C74.1426 43.2086 74.353 44.096 74.5958 45.124C74.8116 46.0331 75.0544 47.0666 75.4591 48.0297C76.2522 49.9019 78.9337 51.4981 78.9606 51.5144C79.198 51.6551 79.279 51.9581 79.1387 52.1962C79.047 52.3531 78.8797 52.4451 78.7071 52.4451L78.7125 52.4397Z" fill="#2A3077"/>
<path d="M62.823 71.0322C62.823 71.0322 62.7744 71.0322 62.7474 71.0322C62.4777 70.9943 62.2888 70.74 62.3266 70.464C62.3428 70.3775 62.6395 68.3267 62.8877 67.2066C63.1629 65.9729 64.7545 64.6797 67.2363 62.9969C69.1625 61.6875 69.5725 60.1616 70.1822 57.3533C70.862 54.2257 75.4966 53.1868 75.6962 53.1436C75.9714 53.084 76.2303 53.2572 76.2897 53.5277C76.349 53.7983 76.1764 54.0634 75.9066 54.1229C75.8635 54.1338 71.6983 55.0644 71.1587 57.5643C70.5113 60.5458 70.0365 62.3043 67.7974 63.8248C66.5997 64.6364 64.107 66.3301 63.8643 67.4231C63.6215 68.5107 63.3193 70.5885 63.3139 70.6047C63.2762 70.8536 63.0657 71.0322 62.823 71.0322Z" fill="#2A3077"/>
<path d="M59.241 68.4348C58.9767 68.4348 58.7554 68.2292 58.7446 67.9587C58.7393 67.8559 58.6313 65.4264 60.1043 62.7912C61.5988 60.1236 65.5697 58.6031 65.7424 58.5382C65.996 58.4408 66.2873 58.5707 66.3844 58.8304C66.4815 59.0901 66.3521 59.3769 66.0931 59.4743C66.0553 59.4905 62.2894 60.9298 60.9729 63.2782C59.6349 65.6644 59.7374 67.8829 59.7374 67.9046C59.7536 68.1805 59.5432 68.4132 59.268 68.4294C59.2572 68.4294 59.2518 68.4294 59.241 68.4294V68.4348Z" fill="#2A3077"/>
<path d="M112.461 66.1998C112.218 66.1998 112.002 66.0212 111.97 65.7669C111.97 65.7399 111.543 62.8179 110.141 61.4706C108.619 60.0042 105.981 58.4296 103.256 57.3583C100.483 56.2707 98.1793 54.3822 96.9491 52.18C96.8196 51.9473 96.6955 51.7038 96.5714 51.4603C95.6542 49.6747 94.7101 47.8242 89.3147 46.7203C83.2396 45.4812 79.8675 47.3859 79.8405 47.4075C79.6032 47.5428 79.2956 47.467 79.1607 47.229C79.0205 46.9909 79.1014 46.6879 79.3388 46.5472C79.4845 46.4606 83.04 44.4207 89.5198 45.7463C95.3845 46.9476 96.4905 49.1066 97.4671 51.0112C97.5858 51.2439 97.7045 51.4711 97.8286 51.6984C98.9508 53.7005 101.066 55.432 103.634 56.4384C106.472 57.5531 109.234 59.2088 110.842 60.7564C112.493 62.3472 112.952 65.5018 112.968 65.637C113.006 65.913 112.817 66.1619 112.542 66.1998C112.52 66.1998 112.493 66.1998 112.471 66.1998H112.461Z" fill="#2A3077"/>
<path d="M113.512 59.506C113.329 59.506 113.146 59.4032 113.059 59.2193C113.043 59.1814 111.182 55.318 108.247 54.0897C105.187 52.8073 103.294 52.4285 103.277 52.4285C103.008 52.3744 102.83 52.1147 102.884 51.8441C102.938 51.5736 103.197 51.395 103.466 51.4491C103.547 51.4654 105.468 51.8441 108.63 53.1698C111.921 54.5496 113.874 58.6186 113.96 58.7918C114.079 59.0407 113.971 59.3383 113.723 59.4573C113.653 59.4898 113.583 59.506 113.507 59.506H113.512Z" fill="#2A3077"/>
<path d="M139.636 158.257C139.555 163.435 139.426 169.084 139.269 174.912C139.258 175.29 139.248 175.669 139.237 176.053C139.199 177.471 139.156 178.905 139.118 180.333C139.048 182.925 138.967 185.523 138.892 188.12C138.832 190.008 138.773 191.897 138.714 193.78C138.514 200.23 138.314 206.528 138.147 212.285C138.147 212.626 138.136 212.967 138.125 213.297C138.088 214.455 138.055 215.586 138.028 216.684C137.867 222.712 137.748 227.961 137.732 231.911C137.721 234.908 137.764 237.159 137.872 238.436C138.072 240.698 138.179 243.696 137.651 246.336C137.581 246.666 137.5 247.007 137.413 247.327C136.658 250.027 135.072 252.126 131.98 252.278C120.893 252.808 110.787 252.586 99.6622 252.867C84.2532 253.246 68.8279 253.549 53.4189 253.679C48.3635 253.717 42.6606 254.88 37.7185 253.517C35.8733 253.019 34.886 250.129 34.4382 246.179C34.4004 245.849 34.3572 245.519 34.3302 245.178C34.1522 243.258 34.0821 241.147 34.0821 238.95C34.0821 238.783 34.0821 238.55 34.0713 238.279C33.9903 235.861 33.5641 229.703 33.0246 221.516C32.9275 219.969 32.8142 218.335 32.7063 216.657C32.6091 215.196 32.5174 213.687 32.4149 212.139C32.3933 211.809 32.3771 211.479 32.3448 211.138C31.816 202.6 31.2603 192.963 30.8395 183.434C30.8017 182.482 30.7585 181.546 30.7208 180.593C30.6722 179.392 30.6183 178.202 30.5805 177.017C30.5697 176.686 30.5589 176.346 30.5427 176.016C30.3755 171.037 30.2514 166.178 30.2028 161.639C30.1111 153.668 30.2622 146.65 30.7693 141.564C30.9312 139.924 31.1362 138.485 31.3898 137.273C31.4599 136.911 31.5409 136.575 31.6164 136.261C31.9941 134.741 32.4635 133.713 33.0408 133.274C33.6612 132.793 34.3087 132.344 34.9831 131.927C34.9939 131.916 35.0047 131.916 35.0155 131.905C39.8011 128.886 45.7899 127.155 50.9748 125.369C54.4062 124.189 53.7156 123.069 57.1848 121.998C58.6092 121.56 60.2925 120.78 61.7978 120.937C63.7509 121.138 65.3372 122.669 67.1392 123.297C69.7991 124.238 72.6101 124.725 75.4102 124.969C80.9351 125.45 86.4976 124.969 91.9901 124.379C95.1787 124.038 98.3673 123.529 101.448 122.588C102.953 122.128 104.426 121.57 105.856 120.889C106.811 120.44 107.982 119.401 108.996 119.2C110.242 118.952 112.233 120.12 113.404 120.542C115.028 121.132 116.652 121.733 118.276 122.35C121.756 123.659 121.076 125.006 124.535 126.386C125.991 126.954 127.448 127.528 128.91 128.107C129.229 128.226 129.531 128.345 129.827 128.459C129.919 128.491 130.006 128.529 130.086 128.556C130.583 128.756 131.085 128.956 131.592 129.157C132.201 129.384 132.779 129.627 133.345 129.865C135.099 130.585 136.847 131.337 138.557 132.127C138.638 132.165 138.719 132.268 138.794 132.419C138.946 132.717 139.075 133.236 139.172 133.962C139.221 134.243 139.264 134.551 139.302 134.903C139.469 136.521 139.593 138.804 139.652 141.591C139.76 146.039 139.733 151.78 139.631 158.268L139.636 158.257Z" fill="#646BC1"/>
<path d="M179.692 175.003C179.551 175.344 179.411 175.69 179.271 176.053C178.774 177.314 178.224 178.645 177.647 180.003C174.917 186.464 171.518 193.66 168.933 198.546C167.061 202.096 165.626 204.423 165.184 204.352C163.457 204.071 161.466 203.351 149.532 198.086C145.194 196.176 141.687 194.889 138.703 193.779C136.869 193.092 135.234 192.47 133.74 191.81C130.411 190.322 127.756 188.623 125.059 185.511C124.222 184.554 123.505 182.611 122.906 180.025C122.679 179.034 122.48 177.947 122.28 176.778C122.231 176.437 122.183 176.091 122.118 175.728C120.839 166.93 120.575 154.214 121.498 144.058V144.047C121.546 143.436 121.606 142.83 121.676 142.24C121.875 140.438 122.102 138.761 122.382 137.202V137.191C122.453 136.829 122.523 136.472 122.593 136.12C123.737 130.379 125.512 126.84 127.967 127.76C128.285 127.879 128.603 127.998 128.905 128.112C129.224 128.231 129.526 128.35 129.823 128.464C129.914 128.496 130.001 128.534 130.082 128.561C130.578 128.761 131.08 128.961 131.587 129.162C132.197 129.389 132.774 129.632 133.34 129.87C135.315 130.698 137.079 131.532 138.795 132.419C139.674 132.879 140.538 133.36 141.417 133.869C141.887 134.15 142.356 134.426 142.831 134.729H142.842C145.733 136.51 148.825 138.669 152.812 141.596C154.236 142.624 155.763 143.755 157.447 145.005C159.837 146.785 162.95 149.312 166.16 151.974C173.088 157.731 180.485 164.171 182.141 165.301C182.891 165.81 181.715 169.782 179.692 175.009V175.003Z" fill="#646BC1"/>
<path d="M47.5697 157.007L47.1219 174.371L47.0896 175.421L46.9709 180.069L46.6417 192.547L46.1508 211.204L46.1292 212.205L46.0105 216.772L45.8324 223.46C45.8324 223.46 41.5378 222.848 35.5759 221.917C34.7612 221.788 33.9034 221.647 33.0132 221.506C25.9938 220.386 17.3829 218.914 10.7359 217.497C10.1586 217.378 9.59745 217.259 9.06332 217.134C4.2291 216.052 0.722145 215.024 0.171822 214.207C-0.0278052 213.909 -0.0493865 213.168 0.101683 212.048C0.13945 211.739 0.193403 211.398 0.252752 211.036C0.652006 208.747 1.50986 205.409 2.63748 201.426C4.38017 195.306 6.80268 187.682 9.3169 180.02C9.71615 178.792 10.1262 177.553 10.5308 176.33C10.628 176.011 10.7413 175.692 10.8492 175.372C13.7087 166.726 16.5197 158.414 18.4026 152.657C19.0015 150.85 19.4979 149.297 19.8863 148.058C20.6363 145.666 21.8179 143.518 23.2746 141.592C24.44 140.044 25.778 138.632 27.1808 137.371C27.5801 137.009 27.9793 136.673 28.3894 136.343H28.4002C30.5907 134.536 32.9053 133.064 34.9771 131.917C34.9878 131.906 34.9986 131.906 35.0094 131.895C38.9264 129.725 42.0287 128.687 42.0287 128.687L43.4639 136.013L43.6635 137.014L44.5699 141.651L47.2406 155.298L47.5697 156.997V157.007Z" fill="#646BC1"/>
<path d="M63.7183 142.512C63.7777 142.582 63.7075 142.734 63.5295 142.95C62.1267 144.687 53.7802 150.72 47.241 155.309C43.583 157.868 40.4915 159.978 39.5041 160.628C37.5294 161.916 35.5386 163.826 33.0459 162.998C32.091 162.689 31.1306 162.208 30.1972 161.64C28.2711 160.492 26.4205 158.988 24.7533 157.771C22.5628 156.169 20.4371 154.47 18.403 152.674C19.0019 150.866 19.4983 149.313 19.8867 148.074C20.6367 145.683 21.8183 143.534 23.275 141.608C25.6651 141.576 28.1901 141.57 30.7637 141.57C35.3713 141.57 40.1462 141.608 44.5703 141.668C54.4006 141.808 62.5422 142.095 63.6104 142.458H63.6212C63.6698 142.479 63.7129 142.496 63.7183 142.517V142.512Z" fill="#B5B7D8"/>
<path d="M63.5458 142.51C62.607 144.009 72.2215 149.858 74.7842 152.147C77.0071 154.133 79.3325 156.01 81.7388 157.764C84.2153 159.571 87.091 162.017 90.026 162.996C92.5187 163.824 94.5203 161.914 96.4896 160.621C99.4625 158.667 121.459 143.511 120.698 142.51C119.938 141.509 64.4846 141.011 63.5458 142.51Z" fill="#B5B7D8"/>
<path d="M166.164 151.969C160.71 155.875 155.12 159.706 153.723 160.626C151.759 161.914 149.757 163.824 147.264 162.996C144.594 162.109 141.961 159.988 139.641 158.256C139.414 158.089 139.204 157.926 138.983 157.764C136.582 156.005 134.245 154.133 132.023 152.147C130.026 150.367 123.73 146.406 121.507 144.047V144.036C120.881 143.365 120.579 142.835 120.79 142.505C120.849 142.408 121.156 142.316 121.685 142.224C124.14 141.834 131.267 141.634 139.657 141.574C143.876 141.542 148.397 141.553 152.816 141.585C154.241 142.613 155.767 143.744 157.451 144.994C159.841 146.774 162.954 149.301 166.164 151.963V151.969Z" fill="#B5B7D8"/>
<path d="M63.7195 217.599C63.7789 217.67 63.7087 217.821 63.5307 218.038C61.3402 220.759 42.2569 233.892 39.5053 235.704C37.8112 236.825 36.0955 238.383 34.0614 238.275C33.9805 235.856 33.5543 229.698 33.0147 221.512C25.3912 220.294 15.89 218.671 9.05951 217.145C13.4243 216.782 22.8661 216.647 32.6964 216.652C37.2015 216.663 41.7983 216.701 46.0121 216.772C55.1841 216.923 62.5973 217.199 63.6062 217.54H63.617C63.6656 217.562 63.7087 217.578 63.7141 217.599H63.7195Z" fill="#B5B7D8"/>
<path d="M63.5458 217.593C62.607 219.092 72.2215 224.941 74.7842 227.23C77.0071 229.216 79.3325 231.093 81.7388 232.847C84.2153 234.654 87.091 237.1 90.026 238.079C92.5187 238.907 94.5203 236.997 96.4896 235.704C99.4625 233.75 121.459 218.594 120.698 217.593C119.938 216.592 64.4846 216.094 63.5458 217.593Z" fill="#B5B7D8"/>
<path d="M138.023 216.679C137.862 222.707 137.743 227.955 137.727 231.905C135.763 230.433 133.858 228.864 132.024 227.225C129.461 224.936 119.841 219.097 120.791 217.599C121.131 217.057 128.598 216.771 138.029 216.679H138.023Z" fill="#B5B7D8"/>
<path d="M33.2728 180.939C33.3321 181.01 33.262 181.161 33.0839 181.378C32.7332 181.816 31.9401 182.536 30.8287 183.428C25.1366 188.055 11.3623 197.535 9.05855 199.055C7.10544 200.332 5.10917 202.237 2.62732 201.436C4.37001 195.316 6.79251 187.692 9.30673 180.03C18.3007 180.111 26.6527 180.322 30.71 180.588C32.0049 180.68 32.8627 180.777 33.1648 180.88H33.1756C33.2242 180.901 33.2674 180.918 33.2728 180.939Z" fill="#B5B7D8"/>
<path d="M177.647 180.003C174.917 186.463 171.518 193.66 168.933 198.546C167.827 197.756 166.77 196.928 165.772 196.198C163.371 194.439 161.035 192.567 158.812 190.581C156.249 188.292 146.629 182.443 147.579 180.944C148.07 180.165 163.112 179.927 177.641 180.003H177.647Z" fill="#B5B7D8"/>
<path d="M33.1062 180.944C32.1674 182.442 41.7819 188.292 44.3447 190.581C46.5675 192.566 48.8929 194.444 51.2992 196.197C53.7757 198.004 56.6514 200.45 59.5865 201.43C62.0791 202.257 64.0808 200.347 66.05 199.054C69.0229 197.101 91.0196 181.945 90.2589 180.944C89.4981 179.943 34.045 179.445 33.1062 180.944Z" fill="#B5B7D8"/>
<path d="M90.3448 180.944C89.406 182.442 99.0205 188.292 101.583 190.581C103.806 192.566 106.132 194.444 108.538 196.197C111.014 198.004 113.89 200.45 116.825 201.43C119.318 202.257 121.319 200.347 123.289 199.054C126.261 197.101 148.258 181.945 147.497 180.944C146.737 179.943 91.2836 179.445 90.3448 180.944Z" fill="#B5B7D8"/>
<path d="M142.836 134.724C141.66 134.762 140.484 134.821 139.308 134.891C137.851 134.983 136.405 135.081 134.959 135.211C130.724 135.579 126.596 136.58 122.388 137.18V137.191C121.999 137.251 121.6 137.299 121.201 137.353C116.189 137.976 111.122 137.911 106.078 137.732C95.8321 137.37 85.5917 137.013 75.346 136.904C64.782 136.796 54.2233 136.845 43.6539 137.023C39.5588 137.083 35.4692 137.164 31.3741 137.272C29.9767 137.305 28.5848 137.343 27.1766 137.38C27.5758 137.018 27.9751 136.682 28.3851 136.352H28.3959C29.475 136.315 30.5379 136.282 31.6061 136.26C35.5663 136.163 39.5103 136.082 43.4597 136.022C45.3157 135.984 47.1555 135.952 49.0114 135.93C59.1169 135.811 69.2169 135.8 79.3278 135.952C89.5573 136.114 99.7706 136.682 109.989 136.839C114.236 136.899 118.422 136.699 122.598 136.109C123.623 135.968 124.654 135.811 125.679 135.617C130.006 134.816 134.274 134.166 138.676 133.966C138.844 133.955 139.005 133.945 139.173 133.945C139.923 133.907 140.667 133.874 141.417 133.853C141.887 134.134 142.356 134.41 142.831 134.713L142.836 134.724Z" fill="#646BC1"/>
<path d="M179.691 175.003C179.551 175.344 179.41 175.691 179.27 176.053C171.404 175.761 163.537 175.674 155.676 175.712C150.195 175.745 144.713 175.864 139.237 176.053C133.582 176.243 127.944 176.491 122.279 176.773C120.466 176.865 118.648 176.951 116.825 177.043C104.005 177.704 91.3964 175.523 78.6257 174.792C68.0778 174.192 57.5839 174.533 47.0846 175.42C44.592 175.631 42.1101 175.869 39.6175 176.14C36.6177 176.459 33.5963 176.778 30.5642 177.011C23.847 177.509 17.1082 177.579 10.5151 176.34C10.6123 176.021 10.7256 175.701 10.8335 175.382C17.3132 176.594 23.9225 176.513 30.521 176.01C35.5333 175.631 40.5509 174.998 45.5038 174.522C46.0433 174.473 46.5721 174.424 47.1062 174.37C59.5263 173.239 72.0272 173.153 84.4473 174.208C90.8461 174.76 97.218 175.577 103.617 175.977C109.805 176.367 115.929 176.107 122.107 175.718C122.177 175.718 122.258 175.707 122.328 175.707C127.961 175.366 133.604 175.095 139.253 174.906C152.709 174.446 166.219 174.446 179.675 174.998L179.691 175.003Z" fill="#646BC1"/>
<path d="M138.142 212.28C138.142 212.621 138.131 212.962 138.12 213.292C133.475 213.2 128.84 213.124 124.206 213.054C98.1788 212.653 72.1517 212.367 46.1355 212.204C41.5603 212.172 36.985 212.156 32.4098 212.134C21.6461 212.085 10.8663 212.053 0.1026 212.053C0.140367 211.744 0.194321 211.404 0.253669 211.041C9.71167 211.041 19.1751 211.073 28.6439 211.111C29.8794 211.111 31.1041 211.122 32.3397 211.133C36.9473 211.155 41.5495 211.171 46.1571 211.203C76.8187 211.393 107.486 211.755 138.147 212.286L138.142 212.28Z" fill="#646BC1"/>
<path d="M79.9103 129.264C68.8229 129.264 57.6707 124.718 57.3686 123.82C57.2823 123.56 57.4226 123.274 57.6815 123.187C57.8812 123.122 58.0916 123.187 58.2211 123.339C59.2839 124.118 70.803 128.912 82.2303 128.192C94.3536 127.424 109.353 121.997 109.504 121.943C109.763 121.851 110.049 121.98 110.14 122.24C110.232 122.5 110.103 122.787 109.844 122.879C109.692 122.933 94.5586 128.409 82.2896 129.188C81.4965 129.237 80.698 129.264 79.9049 129.264H79.9103Z" fill="#1E246B"/>
<path d="M33.2953 219.974C33.0202 219.974 32.799 219.752 32.799 219.476C32.799 219.065 32.5022 178.072 31.353 168.716C30.2038 159.328 27.5601 139.924 27.5331 139.73C27.4954 139.454 27.6842 139.205 27.9594 139.167C28.2237 139.129 28.4827 139.324 28.5205 139.594C28.5474 139.789 31.1912 159.204 32.3404 168.592C33.495 178.007 33.7917 219.054 33.7917 219.471C33.7917 219.747 33.5705 219.974 33.2953 219.974Z" fill="#1E246B"/>
<path d="M139.728 191.329C139.728 191.329 139.707 191.329 139.691 191.329C139.415 191.307 139.21 191.069 139.227 190.793L142.944 137.127C142.966 136.851 143.208 136.651 143.478 136.662C143.753 136.683 143.958 136.921 143.942 137.197L140.225 190.863C140.209 191.128 139.987 191.329 139.728 191.329Z" fill="#1E246B"/>
<path d="M213.073 126.245C212.944 126.916 212.744 127.922 212.496 129.216C211.508 129.124 210.532 129.048 209.545 128.956C206.145 128.658 202.887 128.247 199.844 126.894L200.961 124.086C204.727 125.823 208.935 125.915 213.073 126.245Z" fill="#1E246B"/>
<path d="M211.837 132.625C211.071 132.674 210.299 132.744 209.533 132.814C210.24 133.036 210.957 133.225 211.686 133.393C211.616 133.712 211.556 134.032 211.497 134.373C210.024 134.032 208.567 133.593 207.132 133.052C203.792 133.404 200.442 133.804 197.086 133.875L197.485 132.874C200.059 132.793 202.611 132.533 205.163 132.262C203.15 131.402 200.836 130.46 198.974 129.124L199.352 128.145C201.445 129.752 204.305 130.855 206.549 131.764C206.787 131.862 207.04 131.943 207.288 132.035C208.864 131.873 210.45 131.716 212.031 131.613C211.972 131.943 211.912 132.273 211.842 132.625H211.837Z" fill="#1E246B"/>
<path d="M86.1901 89.8886C84.755 89.8886 83.39 89.1906 83.2982 89.1419C83.0554 89.012 82.9583 88.7144 83.0878 88.4655C83.2119 88.222 83.5141 88.1246 83.7568 88.2545C83.7838 88.2707 86.4221 89.618 87.6846 88.3465C87.9976 87.7621 87.8681 82.8652 87.539 78.4985C87.5174 78.2226 87.7224 77.9845 87.9976 77.9628C88.2727 77.9466 88.5101 78.1468 88.5317 78.4228C88.8662 82.876 89.109 88.3302 88.386 89.0553C87.7602 89.683 86.9563 89.8886 86.1793 89.8886H86.1901Z" fill="#7076BD"/>
<path opacity="0.3" d="M152.282 104.917C152.282 104.152 149.611 103.513 146.062 103.366C145.914 99.8495 145.269 97.2031 144.496 97.2031C143.724 97.2031 143.079 99.8495 142.931 103.366C139.382 103.513 136.711 104.152 136.711 104.917C136.711 105.682 139.382 106.321 142.931 106.468C143.079 109.984 143.724 112.631 144.496 112.631C145.269 112.631 145.914 109.984 146.062 106.468C149.611 106.321 152.282 105.682 152.282 104.917Z" fill="#FFF5F4"/>
</g>
<g clip-path="url(#clip1_991_4859)">
<path d="M241.61 72.4929C241.61 72.0003 239.891 71.5916 237.606 71.4972C237.511 69.2334 237.098 67.5303 236.601 67.5303C236.104 67.5303 235.691 69.2334 235.596 71.4972C233.311 71.5916 231.592 72.0003 231.592 72.4929C231.592 72.9855 233.311 73.3942 235.596 73.4886C235.691 75.7524 236.104 77.4555 236.601 77.4555C237.098 77.4555 237.511 75.7524 237.606 73.4886C239.891 73.3942 241.61 72.9855 241.61 72.4929Z" fill="#FFF5F4"/>
<path opacity="0.2" d="M254.538 169.481C254.538 168.606 251.476 167.872 247.409 167.705C247.24 163.675 246.499 160.641 245.616 160.641C244.733 160.641 243.992 163.675 243.823 167.705C239.756 167.872 236.694 168.606 236.694 169.481C236.694 170.356 239.756 171.09 243.823 171.258C243.992 175.287 244.733 178.322 245.616 178.322C246.499 178.322 247.24 175.287 247.409 171.258C251.476 171.09 254.538 170.356 254.538 169.481Z" fill="#FFF5F4"/>
<path opacity="0.2" d="M218.812 39.0463C218.812 38.4227 216.628 37.8987 213.729 37.7782C213.608 34.9065 213.084 32.7422 212.449 32.7422C211.815 32.7422 211.291 34.9065 211.169 37.7782C208.271 37.8987 206.087 38.4175 206.087 39.0463C206.087 39.6752 208.271 40.194 211.169 40.3145C211.291 43.1862 211.815 45.3505 212.449 45.3505C213.084 45.3505 213.608 43.1862 213.729 40.3145C216.628 40.194 218.812 39.6752 218.812 39.0463Z" fill="#FFF5F4"/>
<path opacity="0.2" d="M319.807 31.399C319.807 31.027 318.5 30.7126 316.766 30.6392C316.692 28.9203 316.38 27.626 315.999 27.626C315.618 27.626 315.306 28.9203 315.232 30.6392C313.497 30.7126 312.191 31.0217 312.191 31.399C312.191 31.7763 313.497 32.0855 315.232 32.1589C315.306 33.8777 315.618 35.1721 315.999 35.1721C316.38 35.1721 316.692 33.8777 316.766 32.1589C318.5 32.0855 319.807 31.7763 319.807 31.399Z" fill="#FFF5F4"/>
<path d="M190.196 183.398C190.196 183.026 188.889 182.712 187.155 182.638C187.081 180.919 186.769 179.625 186.388 179.625C186.007 179.625 185.695 180.919 185.621 182.638C183.886 182.712 182.58 183.021 182.58 183.398C182.58 183.775 183.886 184.085 185.621 184.158C185.695 185.877 186.007 187.171 186.388 187.171C186.769 187.171 187.081 185.877 187.155 184.158C188.889 184.085 190.196 183.775 190.196 183.398Z" fill="#FFF5F4"/>
<path opacity="0.32" d="M328.623 94.5055C328.623 94.1334 327.317 93.819 325.582 93.7456C325.508 92.0268 325.196 90.7324 324.815 90.7324C324.434 90.7324 324.122 92.0268 324.048 93.7456C322.314 93.819 321.007 94.1282 321.007 94.5055C321.007 94.8828 322.314 95.192 324.048 95.2653C324.122 96.9842 324.434 98.2785 324.815 98.2785C325.196 98.2785 325.508 96.9842 325.582 95.2653C327.317 95.192 328.623 94.8828 328.623 94.5055Z" fill="#FFF5F4"/>
<path d="M178.038 80.6706C178.038 80.419 177.15 80.2042 175.976 80.157C175.928 78.9884 175.711 78.1133 175.457 78.1133C175.203 78.1133 174.987 78.9937 174.939 80.157C173.76 80.2042 172.876 80.419 172.876 80.6706C172.876 80.9221 173.765 81.137 174.939 81.1841C174.987 82.3527 175.203 83.2279 175.457 83.2279C175.711 83.2279 175.928 82.3475 175.976 81.1841C177.155 81.137 178.038 80.9221 178.038 80.6706Z" fill="#FFF5F4"/>
<path d="M174.239 133.073C173.499 133.073 172.901 133.665 172.901 134.399C172.901 135.133 173.499 135.725 174.239 135.725C174.98 135.725 175.577 135.133 175.577 134.399C175.577 133.665 174.98 133.073 174.239 133.073Z" fill="#FFF5F4"/>
<path opacity="0.2" d="M157.433 37.8584C156.693 37.8584 156.095 38.4506 156.095 39.1842C156.095 39.9179 156.693 40.51 157.433 40.51C158.174 40.51 158.772 39.9179 158.772 39.1842C158.772 38.4506 158.174 37.8584 157.433 37.8584Z" fill="#FFF5F4"/>
<path opacity="0.1" d="M314.169 192.777C313.428 192.777 312.831 193.37 312.831 194.103C312.831 194.837 313.428 195.429 314.169 195.429C314.909 195.429 315.507 194.837 315.507 194.103C315.507 193.37 314.909 192.777 314.169 192.777Z" fill="#FFF5F4"/>
<path d="M341.46 126.439C340.719 126.439 340.122 127.032 340.122 127.765C340.122 128.499 340.719 129.091 341.46 129.091C342.2 129.091 342.798 128.499 342.798 127.765C342.798 127.032 342.2 126.439 341.46 126.439Z" fill="#FFF5F4"/>
<path opacity="0.1" d="M270.679 26.6025C269.939 26.6025 269.341 27.1947 269.341 27.9284C269.341 28.662 269.939 29.2542 270.679 29.2542C271.42 29.2542 272.017 28.662 272.017 27.9284C272.017 27.1947 271.42 26.6025 270.679 26.6025Z" fill="#FFF5F4"/>
<path d="M280.881 111.527C280.141 111.527 279.543 112.12 279.543 112.853C279.543 113.587 280.141 114.179 280.881 114.179C281.622 114.179 282.22 113.587 282.22 112.853C282.22 112.12 281.622 111.527 280.881 111.527Z" fill="#FFF5F4"/>
</g>
<path opacity="0.6" fill-rule="evenodd" clip-rule="evenodd" d="M268.114 52.1826C263.128 52.1826 259.086 56.2246 259.086 61.2107V82.127C258.672 84.2153 257.822 86.1234 256.078 86.7904C259.633 86.7904 261.909 86.1492 263.44 85.2858H298.208C303.194 85.2858 307.236 81.2437 307.236 76.2576V61.2108C307.236 56.2247 303.194 52.1826 298.208 52.1826H268.114Z" fill="url(#paint0_linear_991_4859)"/>
<path d="M268.115 65.7254C268.115 64.8944 268.789 64.2207 269.62 64.2207H284.667C285.498 64.2207 286.172 64.8944 286.172 65.7254C286.172 66.5564 285.498 67.2301 284.667 67.2301H269.62C268.789 67.2301 268.115 66.5564 268.115 65.7254Z" fill="white"/>
<path d="M268.115 74.7537C268.115 73.9227 268.789 73.249 269.62 73.249H296.704C297.535 73.249 298.209 73.9227 298.209 74.7537C298.209 75.5847 297.535 76.2584 296.704 76.2584H269.62C268.789 76.2584 268.115 75.5847 268.115 74.7537Z" fill="white"/>
<g clip-path="url(#clip2_991_4859)">
<path opacity="0.8" d="M264.553 131.658C267.186 123.01 262.33 113.858 253.706 111.217C245.082 108.576 235.957 113.446 233.323 122.095C230.69 130.744 235.546 139.896 244.17 142.537C252.794 145.178 261.92 140.307 264.553 131.658Z" fill="url(#paint1_linear_991_4859)"/>
<path d="M256.261 130.58C256.167 130.436 255.544 130.131 255.544 130.131C255.295 130.01 253.468 129.113 253.126 128.986C252.834 128.88 252.497 128.759 252.199 129.207C251.973 129.545 251.31 130.32 251.09 130.563C250.94 130.735 250.797 130.79 250.466 130.624C250.411 130.596 248.782 129.899 247.662 128.903C246.668 128.022 245.979 126.932 245.725 126.506C245.57 126.246 245.669 126.124 245.863 125.93C245.979 125.814 246.497 125.188 246.536 125.133C246.619 125.006 246.762 124.707 246.762 124.707C246.911 124.413 246.817 124.159 246.735 123.987C246.674 123.871 245.741 121.607 245.647 121.397C245.382 120.76 245.095 120.727 244.825 120.738C244.692 120.749 243.451 120.754 243.059 121.186L242.987 121.258C242.601 121.668 241.795 122.526 241.795 124.181C241.795 124.563 241.856 124.961 241.982 125.404C242.214 126.201 242.661 127.076 243.257 127.873C243.268 127.89 244.179 129.152 244.632 129.678C246.067 131.333 247.684 132.556 249.318 133.198C251.404 134.017 252.298 134.206 252.806 134.206C253.027 134.206 253.496 134.095 253.595 134.084C254.236 134.028 255.748 133.237 256.068 132.346C256.372 131.504 256.377 130.768 256.261 130.58Z" fill="white"/>
</g>
<path opacity="0.7" d="M317.741 156.012C319.053 152.887 317.591 149.287 314.475 147.972L304.083 143.583C300.968 142.267 297.378 143.734 296.066 146.858L284.979 173.262C283.667 176.387 285.13 179.987 288.245 181.303L298.637 185.691C301.753 187.007 305.342 185.541 306.654 182.416L317.741 156.012Z" fill="url(#paint2_linear_991_4859)"/>
<path opacity="0.8" d="M305.693 146.874C305.796 146.629 306.077 146.514 306.322 146.617L310.745 148.485C310.989 148.588 311.104 148.87 311.001 149.115C310.898 149.36 310.617 149.475 310.373 149.372L305.949 147.504C305.705 147.401 305.59 147.119 305.693 146.874Z" fill="#B2B7FF"/>
<path opacity="0.4" d="M296.577 180.368C296.217 181.225 295.232 181.628 294.377 181.267C293.522 180.905 293.12 179.918 293.48 179.06C293.841 178.203 294.826 177.8 295.681 178.161C296.536 178.522 296.937 179.51 296.577 180.368Z" fill="#B2B7FF"/>
<defs>
<linearGradient id="paint0_linear_991_4859" x1="256.078" y1="97.202" x2="312.864" y2="52.1816" gradientUnits="userSpaceOnUse">
<stop stop-color="#57EAE2"/>
<stop offset="1" stop-color="#C1FFBF"/>
</linearGradient>
<linearGradient id="paint1_linear_991_4859" x1="241.795" y1="136.084" x2="267.376" y2="110.066" gradientUnits="userSpaceOnUse">
<stop stop-color="#FF92F0"/>
<stop offset="1" stop-color="#BAB4FF"/>
</linearGradient>
<linearGradient id="paint2_linear_991_4859" x1="292.245" y1="186.91" x2="313.006" y2="135.644" gradientUnits="userSpaceOnUse">
<stop stop-color="#6C8DFF"/>
<stop offset="1" stop-color="#AFD4FF"/>
</linearGradient>
<clipPath id="clip0_991_4859">
<rect y="32.7422" width="226.491" height="184.174" rx="71.6232" fill="white"/>
</clipPath>
<clipPath id="clip1_991_4859">
<rect width="212.208" height="195.429" fill="white" transform="translate(140.792)"/>
</clipPath>
<clipPath id="clip2_991_4859">
<rect width="32.6474" height="32.742" fill="white" transform="translate(232.613 110.504)"/>
</clipPath>
</defs>
</svg>
