<svg width="77" height="36" viewBox="0 0 77 36" fill="none" xmlns="http://www.w3.org/2000/svg">
<path d="M0.5 18C0.5 8.33502 8.33502 0.5 18 0.5H59C68.665 0.5 76.5 8.33502 76.5 18C76.5 27.665 68.665 35.5 59 35.5H18C8.33502 35.5 0.5 27.665 0.5 18Z" stroke="#E5E5E5"/>
<path d="M20.966 23V13.2H24.242C25.3807 13.2 26.3187 13.4053 27.056 13.816C27.8027 14.2173 28.3533 14.7867 28.708 15.524C29.072 16.252 29.254 17.1107 29.254 18.1C29.254 19.0893 29.072 19.9527 28.708 20.69C28.3533 21.418 27.8073 21.9873 27.07 22.398C26.3327 22.7993 25.39 23 24.242 23H20.966ZM22.856 21.376H24.144C24.9467 21.376 25.5767 21.2453 26.034 20.984C26.5007 20.7227 26.832 20.3493 27.028 19.864C27.224 19.3693 27.322 18.7813 27.322 18.1C27.322 17.4093 27.224 16.8213 27.028 16.336C26.832 15.8413 26.5007 15.4633 26.034 15.202C25.5767 14.9407 24.9467 14.81 24.144 14.81H22.856V21.376ZM34.3544 23.168C33.6824 23.168 33.0758 23.014 32.5344 22.706C32.0024 22.3887 31.5778 21.9547 31.2604 21.404C30.9524 20.844 30.7984 20.2047 30.7984 19.486C30.7984 18.7487 30.9524 18.1047 31.2604 17.554C31.5778 16.994 32.0071 16.56 32.5484 16.252C33.0898 15.9347 33.6964 15.776 34.3684 15.776C35.0498 15.776 35.6564 15.9347 36.1884 16.252C36.7298 16.56 37.1544 16.994 37.4624 17.554C37.7798 18.1047 37.9384 18.744 37.9384 19.472C37.9384 20.2 37.7798 20.844 37.4624 21.404C37.1544 21.9547 36.7298 22.3887 36.1884 22.706C35.6471 23.014 35.0358 23.168 34.3544 23.168ZM34.3544 21.53C34.6718 21.53 34.9518 21.4553 35.1944 21.306C35.4464 21.1567 35.6424 20.928 35.7824 20.62C35.9318 20.312 36.0064 19.9293 36.0064 19.472C36.0064 19.0147 35.9318 18.6367 35.7824 18.338C35.6424 18.03 35.4464 17.8013 35.1944 17.652C34.9518 17.4933 34.6764 17.414 34.3684 17.414C34.0698 17.414 33.7944 17.4933 33.5424 17.652C33.2904 17.8013 33.0898 18.03 32.9404 18.338C32.8004 18.6367 32.7304 19.0147 32.7304 19.472C32.7304 19.9293 32.8004 20.312 32.9404 20.62C33.0898 20.928 33.2858 21.1567 33.5284 21.306C33.7804 21.4553 34.0558 21.53 34.3544 21.53ZM39.7674 23V15.944H41.4334L41.5734 17.092C41.788 16.7 42.0914 16.3827 42.4834 16.14C42.8847 15.8973 43.3607 15.776 43.9114 15.776C44.4994 15.776 44.994 15.8973 45.3954 16.14C45.7967 16.3827 46.1 16.7373 46.3054 17.204C46.52 17.6707 46.6274 18.2447 46.6274 18.926V23H44.7514V19.108C44.7514 18.548 44.63 18.1187 44.3874 17.82C44.154 17.5213 43.79 17.372 43.2954 17.372C42.978 17.372 42.6934 17.4467 42.4414 17.596C42.1987 17.7453 42.0074 17.96 41.8674 18.24C41.7274 18.5107 41.6574 18.842 41.6574 19.234V23H39.7674ZM51.996 23.168C51.2867 23.168 50.6567 23.0187 50.106 22.72C49.5647 22.412 49.14 21.9873 48.832 21.446C48.5333 20.8953 48.384 20.2607 48.384 19.542C48.384 18.8047 48.5333 18.156 48.832 17.596C49.14 17.0267 49.5647 16.5833 50.106 16.266C50.6473 15.9393 51.2773 15.776 51.996 15.776C52.696 15.776 53.3073 15.93 53.83 16.238C54.3527 16.546 54.7587 16.9613 55.048 17.484C55.3373 18.0067 55.482 18.5993 55.482 19.262C55.482 19.3553 55.482 19.4627 55.482 19.584C55.482 19.696 55.4727 19.8127 55.454 19.934H49.728V18.786H53.578C53.55 18.3287 53.3867 17.9693 53.088 17.708C52.7987 17.4467 52.4347 17.316 51.996 17.316C51.6787 17.316 51.3847 17.3907 51.114 17.54C50.8433 17.68 50.6287 17.8993 50.47 18.198C50.3207 18.4967 50.246 18.8747 50.246 19.332V19.738C50.246 20.1207 50.316 20.4567 50.456 20.746C50.6053 21.026 50.8107 21.2453 51.072 21.404C51.3333 21.5533 51.6367 21.628 51.982 21.628C52.3273 21.628 52.612 21.5533 52.836 21.404C53.0693 21.2547 53.242 21.0633 53.354 20.83H55.286C55.1553 21.2687 54.936 21.6653 54.628 22.02C54.32 22.3747 53.942 22.6547 53.494 22.86C53.046 23.0653 52.5467 23.168 51.996 23.168Z" fill="#E5E5E5"/>
</svg>
