<svg width="92" height="36" viewBox="0 0 92 36" fill="none" xmlns="http://www.w3.org/2000/svg">
<path d="M18 0.5H74C83.665 0.5 91.5 8.33502 91.5 18C91.5 27.665 83.665 35.5 74 35.5H18C8.33502 35.5 0.5 27.665 0.5 18C0.5 8.33502 8.33502 0.5 18 0.5Z" stroke="#E5E5E5"/>
<path d="M26.3544 22.6797L26.0815 21.9812L26.3544 22.6797ZM23.6502 23.199L23.2752 23.8486L23.2752 23.8486L23.6502 23.199ZM22.7478 20.5974L22.0063 20.7104L22.7478 20.5974ZM23.0746 18.8626L23.7242 19.2376L23.0746 18.8626ZM22.6852 19.6874L21.9482 19.5486L21.9482 19.5486L22.6852 19.6874ZM27.6934 21.5292L28.343 21.9042L27.6934 21.5292ZM27.1738 22.2789L27.6626 22.8478L27.6626 22.8478L27.1738 22.2789ZM25.6069 14.4765L24.9574 14.1015L25.6069 14.4765ZM32.9403 24.2505C33.3545 24.2505 33.6903 23.9147 33.6903 23.5005C33.6903 23.0862 33.3545 22.7505 32.9403 22.7505V24.2505ZM28.9403 22.7505C28.526 22.7505 28.1903 23.0862 28.1903 23.5005C28.1903 23.9147 28.526 24.2505 28.9403 24.2505V22.7505ZM29.5762 16.7682L27.0439 21.1542L28.343 21.9042L30.8752 17.5182L29.5762 16.7682ZM23.7242 19.2376L26.2564 14.8515L24.9574 14.1015L22.4251 18.4876L23.7242 19.2376ZM26.0815 21.9812C25.3433 22.2696 24.8652 22.4544 24.5025 22.5391C24.1594 22.6193 24.0656 22.5729 24.0252 22.5495L23.2752 23.8486C23.7897 24.1456 24.3316 24.1194 24.8437 23.9998C25.3362 23.8847 25.9328 23.6497 26.6274 23.3783L26.0815 21.9812ZM22.0063 20.7104C22.1186 21.4476 22.2133 22.0817 22.3599 22.5658C22.5123 23.0691 22.7607 23.5515 23.2752 23.8486L24.0252 22.5495C23.9847 22.5262 23.8976 22.4682 23.7955 22.131C23.6876 21.7745 23.6086 21.2681 23.4892 20.4845L22.0063 20.7104ZM22.4251 18.4876C22.2191 18.8444 22.0193 19.1709 21.9482 19.5486L23.4222 19.8263C23.4352 19.7577 23.467 19.683 23.7242 19.2376L22.4251 18.4876ZM23.4892 20.4845C23.4118 19.976 23.4093 19.8949 23.4222 19.8263L21.9482 19.5486C21.877 19.9262 21.9443 20.303 22.0063 20.7104L23.4892 20.4845ZM27.0439 21.1542C26.7868 21.5997 26.738 21.6646 26.685 21.7101L27.6626 22.8478C27.9541 22.5973 28.1369 22.2611 28.343 21.9042L27.0439 21.1542ZM26.6274 23.3783C27.0112 23.2284 27.3711 23.0982 27.6626 22.8478L26.685 21.7101C26.6321 21.7556 26.5606 21.794 26.0815 21.9812L26.6274 23.3783ZM28.8747 14.15C29.4374 14.4748 29.7932 14.6822 30.0341 14.868C30.2577 15.0406 30.2892 15.1262 30.3011 15.1708L31.75 14.7826C31.6191 14.2938 31.3069 13.9556 30.9505 13.6805C30.6112 13.4187 30.1506 13.1546 29.6247 12.8509L28.8747 14.15ZM30.8752 17.5182C31.1789 16.9922 31.4458 16.5332 31.6087 16.1369C31.7798 15.7204 31.881 15.2714 31.75 14.7826L30.3011 15.1708C30.3131 15.2155 30.3286 15.3054 30.2213 15.5667C30.1056 15.848 29.9011 16.2055 29.5762 16.7682L30.8752 17.5182ZM29.6247 12.8509C29.0987 12.5473 28.6397 12.2804 28.2433 12.1175C27.8269 11.9464 27.3779 11.8452 26.8891 11.9761L27.2773 13.425C27.322 13.4131 27.4119 13.3975 27.6731 13.5049C27.9545 13.6206 28.312 13.8251 28.8747 14.15L29.6247 12.8509ZM26.2564 14.8515C26.5813 14.2888 26.7886 13.9329 26.9745 13.6921C27.147 13.4685 27.2327 13.437 27.2773 13.425L26.8891 11.9761C26.4003 12.1071 26.062 12.4192 25.787 12.7757C25.5252 13.1149 25.2611 13.5756 24.9574 14.1015L26.2564 14.8515ZM30.6007 16.4937L25.9819 13.827L25.2319 15.126L29.8507 17.7927L30.6007 16.4937ZM32.9403 22.7505H28.9403V24.2505H32.9403V22.7505Z" fill="#E5E5E5"/>
<path d="M44.966 23V13.2H51.406V14.726H46.856V17.288H50.986V18.758H46.856V21.474H51.406V23H44.966ZM56.4221 23.168C55.7781 23.168 55.1994 23.0093 54.6861 22.692C54.1821 22.3747 53.7854 21.936 53.4961 21.376C53.2068 20.816 53.0621 20.186 53.0621 19.486C53.0621 18.7673 53.2068 18.1327 53.4961 17.582C53.7948 17.022 54.2008 16.5833 54.7141 16.266C55.2368 15.9393 55.8201 15.776 56.4641 15.776C56.9681 15.776 57.4114 15.8693 57.7941 16.056C58.1768 16.2427 58.4848 16.5087 58.7181 16.854V12.92H60.6081V23H58.9281L58.7181 22.034C58.5781 22.23 58.4008 22.4167 58.1861 22.594C57.9808 22.7713 57.7334 22.9113 57.4441 23.014C57.1548 23.1167 56.8141 23.168 56.4221 23.168ZM56.8701 21.516C57.2434 21.516 57.5701 21.432 57.8501 21.264C58.1394 21.0867 58.3634 20.844 58.5221 20.536C58.6808 20.228 58.7601 19.8733 58.7601 19.472C58.7601 19.0707 58.6808 18.716 58.5221 18.408C58.3634 18.1 58.1394 17.862 57.8501 17.694C57.5701 17.5167 57.2434 17.428 56.8701 17.428C56.5154 17.428 56.1934 17.5167 55.9041 17.694C55.6148 17.862 55.3861 18.1 55.2181 18.408C55.0594 18.716 54.9801 19.066 54.9801 19.458C54.9801 19.8687 55.0594 20.228 55.2181 20.536C55.3861 20.844 55.6101 21.0867 55.8901 21.264C56.1794 21.432 56.5061 21.516 56.8701 21.516ZM62.7019 23V15.944H64.5919V23H62.7019ZM63.6539 14.978C63.3179 14.978 63.0379 14.88 62.8139 14.684C62.5993 14.4787 62.4919 14.222 62.4919 13.914C62.4919 13.606 62.5993 13.354 62.8139 13.158C63.0379 12.9527 63.3179 12.85 63.6539 12.85C63.9993 12.85 64.2793 12.9527 64.4939 13.158C64.7179 13.354 64.8299 13.606 64.8299 13.914C64.8299 14.222 64.7179 14.4787 64.4939 14.684C64.2793 14.88 63.9993 14.978 63.6539 14.978ZM69.8797 23C69.3851 23 68.9511 22.9253 68.5777 22.776C68.2137 22.6173 67.9291 22.3607 67.7237 22.006C67.5184 21.642 67.4157 21.1473 67.4157 20.522V17.526H66.2117V15.944H67.4157L67.6257 14.026H69.3057V15.944H71.1677V17.526H69.3057V20.55C69.3057 20.8673 69.3757 21.0867 69.5157 21.208C69.6557 21.3293 69.8937 21.39 70.2297 21.39H71.1537V23H69.8797Z" fill="#E5E5E5"/>
</svg>
