<svg width="32" height="32" viewBox="0 0 32 32" fill="none" xmlns="http://www.w3.org/2000/svg">
<g id="Group">
<path id="Path" d="M12.9131 12.9131C13.2291 11.551 14.4697 10.6066 15.8668 10.6646C17.4303 10.578 18.7707 11.7694 18.868 13.3324C18.868 15.3384 16.0001 16.0001 16.0001 17.334" stroke="white" stroke-width="2" stroke-linecap="round" stroke-linejoin="round"/>
<path id="Path_2" d="M16.1669 21.0024C16.1668 21.0944 16.0922 21.1689 16.0001 21.1689C15.9081 21.1688 15.8335 21.0943 15.8335 21.0022C15.8334 20.9102 15.908 20.8355 16 20.8354C16.0443 20.8354 16.0868 20.8529 16.1181 20.8842C16.1494 20.9156 16.167 20.9581 16.1669 21.0024" stroke="white" stroke-width="2" stroke-linecap="round" stroke-linejoin="round"/>
<path id="Path_3" fill-rule="evenodd" clip-rule="evenodd" d="M6.17156 22.8806C2.5941 17.7743 3.51344 10.7805 8.28904 6.77226C13.0646 2.76399 20.1119 3.07121 24.5205 7.47988C28.9292 11.8885 29.2364 18.9358 25.2282 23.7114C21.2199 28.487 14.2261 29.4063 9.11982 25.8289L5.32925 26.6712L6.17156 22.8806Z" stroke="white" stroke-width="2" stroke-linecap="round" stroke-linejoin="round"/>
</g>
</svg>
