<svg width="32" height="32" viewBox="0 0 32 32" fill="none" xmlns="http://www.w3.org/2000/svg">
<g id="Group">
<path id="Path" d="M3.99512 16V14.6661C3.99512 13.1927 5.18952 11.9983 6.66289 11.9983H25.3373C26.8107 11.9983 28.0051 13.1927 28.0051 14.6661V25.3372C28.0051 26.8106 26.8107 28.005 25.3373 28.005H16.0001" stroke="white" stroke-width="1.5" stroke-linecap="round" stroke-linejoin="round"/>
<path id="Path_2" d="M7.32983 7.99678H24.6704" stroke="white" stroke-width="1.5" stroke-linecap="round" stroke-linejoin="round"/>
<path id="Path_3" d="M9.9978 3.99507H23.3367" stroke="white" stroke-width="1.5" stroke-linecap="round" stroke-linejoin="round"/>
<path id="Path_4" fill-rule="evenodd" clip-rule="evenodd" d="M9.02906 20.212L9.33067 20.5182L9.63231 20.2119C10.1811 19.6511 10.9327 19.335 11.7174 19.335C12.5021 19.335 13.2537 19.6511 13.8025 20.2119V20.2119C14.9541 21.3885 14.9541 23.2698 13.8025 24.4463L10.9813 27.311C10.5468 27.755 9.95184 28.0052 9.33067 28.0052C8.7095 28.0052 8.11452 27.755 7.68007 27.311L4.85882 24.4464C3.70722 23.2698 3.70722 21.3886 4.85882 20.212V20.212C5.40763 19.6511 6.15924 19.335 6.94394 19.335C7.72864 19.335 8.48025 19.6511 9.02906 20.212Z" stroke="white" stroke-width="1.5" stroke-linecap="round" stroke-linejoin="round"/>
</g>
</svg>
