<svg width="32" height="32" viewBox="0 0 32 32" fill="none" xmlns="http://www.w3.org/2000/svg">
<g id="Group_34">
<g id="Group_35">
<path id="Path_83" fill-rule="evenodd" clip-rule="evenodd" d="M7.99992 4H23.9999C25.4733 4 26.6666 5.19333 26.6666 6.66667V25.3333C26.6666 26.8067 25.4733 28 23.9999 28H7.99992C6.52659 28 5.33325 26.8067 5.33325 25.3333V6.66667C5.33325 5.19333 6.52659 4 7.99992 4Z" stroke="#E3E3E3" stroke-width="2" stroke-linecap="round" stroke-linejoin="round"/>
<path id="Path_84" d="M11.9999 14.6667V17.3334" stroke="#E3E3E3" stroke-width="2" stroke-linecap="round" stroke-linejoin="round"/>
<path id="Path_85" fill-rule="evenodd" clip-rule="evenodd" d="M5.33325 6.67061V25.3306C5.33325 27.3133 7.41992 28.6026 9.19192 27.7159L14.5253 25.0493C15.4293 24.5959 15.9999 23.6733 15.9999 22.6626V9.33728C15.9999 8.32661 15.4293 7.40394 14.5253 6.95194L9.19192 4.28528C7.41992 3.39861 5.33325 4.68794 5.33325 6.67061Z" stroke="#E3E3E3" stroke-width="2" stroke-linecap="round" stroke-linejoin="round"/>
</g>
</g>
</svg>
