<svg width="233" height="34" viewBox="0 0 233 34" fill="none" xmlns="http://www.w3.org/2000/svg">
<mask id="mask0_1_1099" style="mask-type:alpha" maskUnits="userSpaceOnUse" x="5" y="5" width="24" height="24">
<rect x="5" y="5" width="24" height="24" fill="#D9D9D9"/>
</mask>
<g mask="url(#mask0_1_1099)">
<path d="M13.4 21.6538L17 18.0538L20.6 21.6538L21.6538 20.6L18.0538 17L21.6538 13.4L20.6 12.3462L17 15.9462L13.4 12.3462L12.3461 13.4L15.9461 17L12.3461 20.6L13.4 21.6538ZM17.0016 26.5C15.6877 26.5 14.4527 26.2506 13.2966 25.752C12.1404 25.2533 11.1347 24.5765 10.2795 23.7217C9.42427 22.8669 8.74721 21.8616 8.24833 20.706C7.74944 19.5504 7.5 18.3156 7.5 17.0017C7.5 15.6877 7.74933 14.4527 8.248 13.2966C8.74667 12.1404 9.42342 11.1347 10.2783 10.2795C11.1331 9.42427 12.1383 8.74721 13.294 8.24833C14.4496 7.74944 15.6844 7.5 16.9983 7.5C18.3122 7.5 19.5473 7.74933 20.7034 8.248C21.8596 8.74667 22.8652 9.42342 23.7205 10.2783C24.5757 11.1331 25.2527 12.1383 25.7516 13.294C26.2505 14.4496 26.5 15.6844 26.5 16.9983C26.5 18.3122 26.2506 19.5473 25.752 20.7034C25.2533 21.8596 24.5765 22.8652 23.7217 23.7205C22.8669 24.5757 21.8616 25.2527 20.706 25.7516C19.5504 26.2505 18.3156 26.5 17.0016 26.5ZM17 25C19.2333 25 21.125 24.225 22.675 22.675C24.225 21.125 25 19.2333 25 17C25 14.7666 24.225 12.875 22.675 11.325C21.125 9.77498 19.2333 8.99998 17 8.99998C14.7666 8.99998 12.875 9.77498 11.325 11.325C9.77498 12.875 8.99998 14.7666 8.99998 17C8.99998 19.2333 9.77498 21.125 11.325 22.675C12.875 24.225 14.7666 25 17 25Z" fill="white" fill-opacity="0.5"/>
</g>
<path d="M46.104 23L43.448 18.44H41.688V23H40.232V11.848H43.832C44.6747 11.848 45.384 11.992 45.96 12.28C46.5467 12.568 46.984 12.9573 47.272 13.448C47.56 13.9387 47.704 14.4987 47.704 15.128C47.704 15.896 47.48 16.5733 47.032 17.16C46.5947 17.7467 45.9333 18.136 45.048 18.328L47.848 23H46.104ZM41.688 17.272H43.832C44.6213 17.272 45.2133 17.08 45.608 16.696C46.0027 16.3013 46.2 15.7787 46.2 15.128C46.2 14.4667 46.0027 13.9547 45.608 13.592C45.224 13.2293 44.632 13.048 43.832 13.048H41.688V17.272ZM57.9664 18.28C57.9664 18.5573 57.9504 18.8507 57.9184 19.16H50.9104C50.9637 20.024 51.257 20.7013 51.7904 21.192C52.3344 21.672 52.9904 21.912 53.7584 21.912C54.3877 21.912 54.9104 21.768 55.3264 21.48C55.753 21.1813 56.0517 20.7867 56.2224 20.296H57.7904C57.5557 21.1387 57.0864 21.8267 56.3824 22.36C55.6784 22.8827 54.8037 23.144 53.7584 23.144C52.9264 23.144 52.1797 22.9573 51.5184 22.584C50.8677 22.2107 50.3557 21.6827 49.9824 21C49.609 20.3067 49.4224 19.5067 49.4224 18.6C49.4224 17.6933 49.6037 16.8987 49.9664 16.216C50.329 15.5333 50.8357 15.0107 51.4864 14.648C52.1477 14.2747 52.905 14.088 53.7584 14.088C54.5904 14.088 55.3264 14.2693 55.9664 14.632C56.6064 14.9947 57.097 15.496 57.4384 16.136C57.7904 16.7653 57.9664 17.48 57.9664 18.28ZM56.4624 17.976C56.4624 17.4213 56.3397 16.9467 56.0944 16.552C55.849 16.1467 55.513 15.8427 55.0864 15.64C54.6704 15.4267 54.2064 15.32 53.6944 15.32C52.9584 15.32 52.329 15.5547 51.8064 16.024C51.2944 16.4933 51.001 17.144 50.9264 17.976H56.4624ZM70.4323 14.072C71.1149 14.072 71.7229 14.216 72.2563 14.504C72.7896 14.7813 73.2109 15.2027 73.5203 15.768C73.8296 16.3333 73.9843 17.0213 73.9843 17.832V23H72.5443V18.04C72.5443 17.1653 72.3256 16.4987 71.8883 16.04C71.4616 15.5707 70.8803 15.336 70.1443 15.336C69.3869 15.336 68.7843 15.5813 68.3363 16.072C67.8883 16.552 67.6643 17.2507 67.6643 18.168V23H66.2243V18.04C66.2243 17.1653 66.0056 16.4987 65.5683 16.04C65.1416 15.5707 64.5603 15.336 63.8243 15.336C63.0669 15.336 62.4643 15.5813 62.0163 16.072C61.5683 16.552 61.3443 17.2507 61.3443 18.168V23H59.8883V14.232H61.3443V15.496C61.6323 15.0373 62.0163 14.6853 62.4963 14.44C62.9869 14.1947 63.5256 14.072 64.1123 14.072C64.8483 14.072 65.4989 14.2373 66.0643 14.568C66.6296 14.8987 67.0509 15.384 67.3283 16.024C67.5736 15.4053 67.9789 14.9253 68.5443 14.584C69.1096 14.2427 69.7389 14.072 70.4323 14.072ZM80.1966 23.144C79.3753 23.144 78.6286 22.9573 77.9566 22.584C77.2953 22.2107 76.7726 21.6827 76.3886 21C76.0153 20.3067 75.8286 19.5067 75.8286 18.6C75.8286 17.704 76.0206 16.9147 76.4046 16.232C76.7993 15.5387 77.3326 15.0107 78.0046 14.648C78.6766 14.2747 79.4286 14.088 80.2606 14.088C81.0926 14.088 81.8446 14.2747 82.5166 14.648C83.1886 15.0107 83.7166 15.5333 84.1006 16.216C84.4953 16.8987 84.6926 17.6933 84.6926 18.6C84.6926 19.5067 84.49 20.3067 84.0846 21C83.69 21.6827 83.1513 22.2107 82.4686 22.584C81.786 22.9573 81.0286 23.144 80.1966 23.144ZM80.1966 21.864C80.7193 21.864 81.21 21.7413 81.6686 21.496C82.1273 21.2507 82.4953 20.8827 82.7726 20.392C83.0606 19.9013 83.2046 19.304 83.2046 18.6C83.2046 17.896 83.066 17.2987 82.7886 16.808C82.5113 16.3173 82.1486 15.9547 81.7006 15.72C81.2526 15.4747 80.7673 15.352 80.2446 15.352C79.7113 15.352 79.2206 15.4747 78.7726 15.72C78.3353 15.9547 77.9833 16.3173 77.7166 16.808C77.45 17.2987 77.3166 17.896 77.3166 18.6C77.3166 19.3147 77.4446 19.9173 77.7006 20.408C77.9673 20.8987 78.3193 21.2667 78.7566 21.512C79.194 21.7467 79.674 21.864 80.1966 21.864ZM89.871 21.656L92.591 14.232H94.143L90.703 23H89.007L85.567 14.232H87.135L89.871 21.656ZM103.576 18.28C103.576 18.5573 103.56 18.8507 103.528 19.16H96.5198C96.5731 20.024 96.8664 20.7013 97.3998 21.192C97.9438 21.672 98.5998 21.912 99.3678 21.912C99.9971 21.912 100.52 21.768 100.936 21.48C101.362 21.1813 101.661 20.7867 101.832 20.296H103.4C103.165 21.1387 102.696 21.8267 101.992 22.36C101.288 22.8827 100.413 23.144 99.3678 23.144C98.5358 23.144 97.7891 22.9573 97.1278 22.584C96.4771 22.2107 95.9651 21.6827 95.5918 21C95.2184 20.3067 95.0318 19.5067 95.0318 18.6C95.0318 17.6933 95.2131 16.8987 95.5758 16.216C95.9384 15.5333 96.4451 15.0107 97.0958 14.648C97.7571 14.2747 98.5144 14.088 99.3678 14.088C100.2 14.088 100.936 14.2693 101.576 14.632C102.216 14.9947 102.706 15.496 103.048 16.136C103.4 16.7653 103.576 17.48 103.576 18.28ZM102.072 17.976C102.072 17.4213 101.949 16.9467 101.704 16.552C101.458 16.1467 101.122 15.8427 100.696 15.64C100.28 15.4267 99.8158 15.32 99.3038 15.32C98.5678 15.32 97.9384 15.5547 97.4158 16.024C96.9038 16.4933 96.6104 17.144 96.5358 17.976H102.072ZM113.331 15.432H111.491V23H110.035V15.432H108.899V14.232H110.035V13.608C110.035 12.6267 110.286 11.912 110.787 11.464C111.299 11.0053 112.115 10.776 113.235 10.776V11.992C112.595 11.992 112.142 12.12 111.875 12.376C111.619 12.6213 111.491 13.032 111.491 13.608V14.232H113.331V15.432ZM116.485 15.656C116.741 15.1547 117.104 14.7653 117.573 14.488C118.053 14.2107 118.634 14.072 119.317 14.072V15.576H118.933C117.301 15.576 116.485 16.4613 116.485 18.232V23H115.029V14.232H116.485V15.656ZM124.822 23.144C124 23.144 123.254 22.9573 122.582 22.584C121.92 22.2107 121.398 21.6827 121.014 21C120.64 20.3067 120.454 19.5067 120.454 18.6C120.454 17.704 120.646 16.9147 121.03 16.232C121.424 15.5387 121.958 15.0107 122.63 14.648C123.302 14.2747 124.054 14.088 124.886 14.088C125.718 14.088 126.47 14.2747 127.142 14.648C127.814 15.0107 128.342 15.5333 128.726 16.216C129.12 16.8987 129.318 17.6933 129.318 18.6C129.318 19.5067 129.115 20.3067 128.71 21C128.315 21.6827 127.776 22.2107 127.094 22.584C126.411 22.9573 125.654 23.144 124.822 23.144ZM124.822 21.864C125.344 21.864 125.835 21.7413 126.294 21.496C126.752 21.2507 127.12 20.8827 127.398 20.392C127.686 19.9013 127.83 19.304 127.83 18.6C127.83 17.896 127.691 17.2987 127.414 16.808C127.136 16.3173 126.774 15.9547 126.326 15.72C125.878 15.4747 125.392 15.352 124.87 15.352C124.336 15.352 123.846 15.4747 123.398 15.72C122.96 15.9547 122.608 16.3173 122.342 16.808C122.075 17.2987 121.942 17.896 121.942 18.6C121.942 19.3147 122.07 19.9173 122.326 20.408C122.592 20.8987 122.944 21.2667 123.382 21.512C123.819 21.7467 124.299 21.864 124.822 21.864ZM141.776 14.072C142.459 14.072 143.067 14.216 143.6 14.504C144.133 14.7813 144.555 15.2027 144.864 15.768C145.173 16.3333 145.328 17.0213 145.328 17.832V23H143.888V18.04C143.888 17.1653 143.669 16.4987 143.232 16.04C142.805 15.5707 142.224 15.336 141.488 15.336C140.731 15.336 140.128 15.5813 139.68 16.072C139.232 16.552 139.008 17.2507 139.008 18.168V23H137.568V18.04C137.568 17.1653 137.349 16.4987 136.912 16.04C136.485 15.5707 135.904 15.336 135.168 15.336C134.411 15.336 133.808 15.5813 133.36 16.072C132.912 16.552 132.688 17.2507 132.688 18.168V23H131.232V14.232H132.688V15.496C132.976 15.0373 133.36 14.6853 133.84 14.44C134.331 14.1947 134.869 14.072 135.456 14.072C136.192 14.072 136.843 14.2373 137.408 14.568C137.973 14.8987 138.395 15.384 138.672 16.024C138.917 15.4053 139.323 14.9253 139.888 14.584C140.453 14.2427 141.083 14.072 141.776 14.072ZM163.662 14.232L160.926 23H159.422L157.31 16.04L155.198 23H153.694L150.942 14.232H152.43L154.446 21.592L156.622 14.232H158.11L160.238 21.608L162.222 14.232H163.662ZM164.563 18.584C164.563 17.688 164.744 16.904 165.107 16.232C165.47 15.5493 165.966 15.0213 166.595 14.648C167.235 14.2747 167.944 14.088 168.723 14.088C169.491 14.088 170.158 14.2533 170.723 14.584C171.288 14.9147 171.71 15.3307 171.987 15.832V14.232H173.459V23H171.987V21.368C171.699 21.88 171.267 22.3067 170.691 22.648C170.126 22.9787 169.464 23.144 168.707 23.144C167.928 23.144 167.224 22.952 166.595 22.568C165.966 22.184 165.47 21.6453 165.107 20.952C164.744 20.2587 164.563 19.4693 164.563 18.584ZM171.987 18.6C171.987 17.9387 171.854 17.3627 171.587 16.872C171.32 16.3813 170.958 16.008 170.499 15.752C170.051 15.4853 169.555 15.352 169.011 15.352C168.467 15.352 167.971 15.48 167.523 15.736C167.075 15.992 166.718 16.3653 166.451 16.856C166.184 17.3467 166.051 17.9227 166.051 18.584C166.051 19.256 166.184 19.8427 166.451 20.344C166.718 20.8347 167.075 21.2133 167.523 21.48C167.971 21.736 168.467 21.864 169.011 21.864C169.555 21.864 170.051 21.736 170.499 21.48C170.958 21.2133 171.32 20.8347 171.587 20.344C171.854 19.8427 171.987 19.2613 171.987 18.6ZM177.696 15.432V20.6C177.696 21.0267 177.786 21.3307 177.968 21.512C178.149 21.6827 178.464 21.768 178.911 21.768H179.984V23H178.672C177.861 23 177.253 22.8133 176.848 22.44C176.442 22.0667 176.24 21.4533 176.24 20.6V15.432H175.104V14.232H176.24V12.024H177.696V14.232H179.984V15.432H177.696ZM181.204 18.6C181.204 17.6933 181.385 16.904 181.748 16.232C182.11 15.5493 182.612 15.0213 183.252 14.648C183.902 14.2747 184.644 14.088 185.476 14.088C186.553 14.088 187.438 14.3493 188.132 14.872C188.836 15.3947 189.3 16.12 189.524 17.048H187.956C187.806 16.5147 187.513 16.0933 187.076 15.784C186.649 15.4747 186.116 15.32 185.476 15.32C184.644 15.32 183.972 15.608 183.46 16.184C182.948 16.7493 182.692 17.5547 182.692 18.6C182.692 19.656 182.948 20.472 183.46 21.048C183.972 21.624 184.644 21.912 185.476 21.912C186.116 21.912 186.649 21.7627 187.076 21.464C187.502 21.1653 187.796 20.7387 187.956 20.184H189.524C189.289 21.08 188.82 21.8 188.116 22.344C187.412 22.8773 186.532 23.144 185.476 23.144C184.644 23.144 183.902 22.9573 183.252 22.584C182.612 22.2107 182.11 21.6827 181.748 21C181.385 20.3173 181.204 19.5173 181.204 18.6ZM195.818 14.072C196.48 14.072 197.077 14.216 197.61 14.504C198.144 14.7813 198.56 15.2027 198.858 15.768C199.168 16.3333 199.322 17.0213 199.322 17.832V23H197.882V18.04C197.882 17.1653 197.664 16.4987 197.226 16.04C196.789 15.5707 196.192 15.336 195.434 15.336C194.666 15.336 194.053 15.576 193.594 16.056C193.146 16.536 192.922 17.2347 192.922 18.152V23H191.466V11.16H192.922V15.48C193.21 15.032 193.605 14.6853 194.106 14.44C194.618 14.1947 195.189 14.072 195.818 14.072ZM203.157 11.16V23H201.701V11.16H203.157ZM206.39 12.808C206.113 12.808 205.878 12.712 205.686 12.52C205.494 12.328 205.398 12.0933 205.398 11.816C205.398 11.5387 205.494 11.304 205.686 11.112C205.878 10.92 206.113 10.824 206.39 10.824C206.657 10.824 206.881 10.92 207.062 11.112C207.254 11.304 207.35 11.5387 207.35 11.816C207.35 12.0933 207.254 12.328 207.062 12.52C206.881 12.712 206.657 12.808 206.39 12.808ZM207.094 14.232V23H205.638V14.232H207.094ZM212.68 23.144C212.008 23.144 211.405 23.032 210.872 22.808C210.338 22.5733 209.917 22.2533 209.608 21.848C209.298 21.432 209.128 20.9573 209.096 20.424H210.6C210.642 20.8613 210.845 21.2187 211.208 21.496C211.581 21.7733 212.066 21.912 212.664 21.912C213.218 21.912 213.656 21.7893 213.976 21.544C214.296 21.2987 214.456 20.9893 214.456 20.616C214.456 20.232 214.285 19.9493 213.944 19.768C213.602 19.576 213.074 19.3893 212.36 19.208C211.709 19.0373 211.176 18.8667 210.76 18.696C210.354 18.5147 210.002 18.2533 209.704 17.912C209.416 17.56 209.272 17.1013 209.272 16.536C209.272 16.088 209.405 15.6773 209.672 15.304C209.938 14.9307 210.317 14.6373 210.808 14.424C211.298 14.2 211.858 14.088 212.488 14.088C213.458 14.088 214.242 14.3333 214.84 14.824C215.437 15.3147 215.757 15.9867 215.8 16.84H214.344C214.312 16.3813 214.125 16.0133 213.784 15.736C213.453 15.4587 213.005 15.32 212.44 15.32C211.917 15.32 211.501 15.432 211.192 15.656C210.882 15.88 210.728 16.1733 210.728 16.536C210.728 16.824 210.818 17.064 211 17.256C211.192 17.4373 211.426 17.5867 211.704 17.704C211.992 17.8107 212.386 17.9333 212.888 18.072C213.517 18.2427 214.029 18.4133 214.424 18.584C214.818 18.744 215.154 18.9893 215.432 19.32C215.72 19.6507 215.869 20.0827 215.88 20.616C215.88 21.096 215.746 21.528 215.48 21.912C215.213 22.296 214.834 22.6 214.344 22.824C213.864 23.0373 213.309 23.144 212.68 23.144ZM219.711 15.432V20.6C219.711 21.0267 219.802 21.3307 219.983 21.512C220.164 21.6827 220.479 21.768 220.927 21.768H221.999V23H220.687C219.876 23 219.268 22.8133 218.863 22.44C218.458 22.0667 218.255 21.4533 218.255 20.6V15.432H217.119V14.232H218.255V12.024H219.711V14.232H221.999V15.432H219.711Z" fill="white"/>
<rect x="0.5" y="0.5" width="232" height="33" rx="9.5" stroke="white"/>
</svg>
