<svg width="178" height="34" viewBox="0 0 178 34" fill="none" xmlns="http://www.w3.org/2000/svg">
<rect width="178" height="34" rx="10" fill="#3158CE"/>
<mask id="mask0_1_1027" style="mask-type:alpha" maskUnits="userSpaceOnUse" x="5" y="5" width="24" height="24">
<rect x="5" y="5" width="24" height="24" fill="#D9D9D9"/>
</mask>
<g mask="url(#mask0_1_1027)">
<path d="M16 22H18V18H22V16H18V12H16V16H12V18H16V22ZM17 27C15.6167 27 14.3167 26.7375 13.1 26.2125C11.8833 25.6875 10.825 24.975 9.925 24.075C9.025 23.175 8.3125 22.1167 7.7875 20.9C7.2625 19.6833 7 18.3833 7 17C7 15.6167 7.2625 14.3167 7.7875 13.1C8.3125 11.8833 9.025 10.825 9.925 9.925C10.825 9.025 11.8833 8.3125 13.1 7.7875C14.3167 7.2625 15.6167 7 17 7C18.3833 7 19.6833 7.2625 20.9 7.7875C22.1167 8.3125 23.175 9.025 24.075 9.925C24.975 10.825 25.6875 11.8833 26.2125 13.1C26.7375 14.3167 27 15.6167 27 17C27 18.3833 26.7375 19.6833 26.2125 20.9C25.6875 22.1167 24.975 23.175 24.075 24.075C23.175 24.975 22.1167 25.6875 20.9 26.2125C19.6833 26.7375 18.3833 27 17 27ZM17 25C19.2333 25 21.125 24.225 22.675 22.675C24.225 21.125 25 19.2333 25 17C25 14.7667 24.225 12.875 22.675 11.325C21.125 9.775 19.2333 9 17 9C14.7667 9 12.875 9.775 11.325 11.325C9.775 12.875 9 14.7667 9 17C9 19.2333 9.775 21.125 11.325 22.675C12.875 24.225 14.7667 25 17 25Z" fill="white"/>
</g>
<path d="M46.824 20.52H41.96L41.064 23H39.528L43.56 11.912H45.24L49.256 23H47.72L46.824 20.52ZM46.408 19.336L44.392 13.704L42.376 19.336H46.408ZM50.4693 18.584C50.4693 17.688 50.6506 16.904 51.0133 16.232C51.3759 15.5493 51.8719 15.0213 52.5013 14.648C53.1413 14.2747 53.8559 14.088 54.6453 14.088C55.3279 14.088 55.9626 14.248 56.5493 14.568C57.1359 14.8773 57.5839 15.288 57.8933 15.8V11.16H59.3653V23H57.8933V21.352C57.6053 21.8747 57.1786 22.3067 56.6133 22.648C56.0479 22.9787 55.3866 23.144 54.6293 23.144C53.8506 23.144 53.1413 22.952 52.5013 22.568C51.8719 22.184 51.3759 21.6453 51.0133 20.952C50.6506 20.2587 50.4693 19.4693 50.4693 18.584ZM57.8933 18.6C57.8933 17.9387 57.7599 17.3627 57.4933 16.872C57.2266 16.3813 56.8639 16.008 56.4053 15.752C55.9573 15.4853 55.4613 15.352 54.9173 15.352C54.3733 15.352 53.8773 15.48 53.4293 15.736C52.9813 15.992 52.6239 16.3653 52.3573 16.856C52.0906 17.3467 51.9573 17.9227 51.9573 18.584C51.9573 19.256 52.0906 19.8427 52.3573 20.344C52.6239 20.8347 52.9813 21.2133 53.4293 21.48C53.8773 21.736 54.3733 21.864 54.9173 21.864C55.4613 21.864 55.9573 21.736 56.4053 21.48C56.8639 21.2133 57.2266 20.8347 57.4933 20.344C57.7599 19.8427 57.8933 19.2613 57.8933 18.6ZM61.2818 18.584C61.2818 17.688 61.4631 16.904 61.8258 16.232C62.1884 15.5493 62.6844 15.0213 63.3138 14.648C63.9538 14.2747 64.6684 14.088 65.4578 14.088C66.1404 14.088 66.7751 14.248 67.3618 14.568C67.9484 14.8773 68.3964 15.288 68.7058 15.8V11.16H70.1778V23H68.7058V21.352C68.4178 21.8747 67.9911 22.3067 67.4258 22.648C66.8604 22.9787 66.1991 23.144 65.4418 23.144C64.6631 23.144 63.9538 22.952 63.3138 22.568C62.6844 22.184 62.1884 21.6453 61.8258 20.952C61.4631 20.2587 61.2818 19.4693 61.2818 18.584ZM68.7058 18.6C68.7058 17.9387 68.5724 17.3627 68.3058 16.872C68.0391 16.3813 67.6764 16.008 67.2178 15.752C66.7698 15.4853 66.2738 15.352 65.7298 15.352C65.1858 15.352 64.6898 15.48 64.2418 15.736C63.7938 15.992 63.4364 16.3653 63.1698 16.856C62.9031 17.3467 62.7698 17.9227 62.7698 18.584C62.7698 19.256 62.9031 19.8427 63.1698 20.344C63.4364 20.8347 63.7938 21.2133 64.2418 21.48C64.6898 21.736 65.1858 21.864 65.7298 21.864C66.2738 21.864 66.7698 21.736 67.2178 21.48C67.6764 21.2133 68.0391 20.8347 68.3058 20.344C68.5724 19.8427 68.7058 19.2613 68.7058 18.6ZM78.6799 15.432V20.6C78.6799 21.0267 78.7705 21.3307 78.9519 21.512C79.1332 21.6827 79.4479 21.768 79.8959 21.768H80.9679V23H79.6559C78.8452 23 78.2372 22.8133 77.8319 22.44C77.4265 22.0667 77.2239 21.4533 77.2239 20.6V15.432H76.0879V14.232H77.2239V12.024H78.6799V14.232H80.9679V15.432H78.6799ZM86.556 23.144C85.7347 23.144 84.988 22.9573 84.316 22.584C83.6547 22.2107 83.132 21.6827 82.748 21C82.3747 20.3067 82.188 19.5067 82.188 18.6C82.188 17.704 82.38 16.9147 82.764 16.232C83.1587 15.5387 83.692 15.0107 84.364 14.648C85.036 14.2747 85.788 14.088 86.62 14.088C87.452 14.088 88.204 14.2747 88.876 14.648C89.548 15.0107 90.076 15.5333 90.46 16.216C90.8547 16.8987 91.052 17.6933 91.052 18.6C91.052 19.5067 90.8493 20.3067 90.444 21C90.0493 21.6827 89.5107 22.2107 88.828 22.584C88.1453 22.9573 87.388 23.144 86.556 23.144ZM86.556 21.864C87.0787 21.864 87.5693 21.7413 88.028 21.496C88.4867 21.2507 88.8547 20.8827 89.132 20.392C89.42 19.9013 89.564 19.304 89.564 18.6C89.564 17.896 89.4253 17.2987 89.148 16.808C88.8707 16.3173 88.508 15.9547 88.06 15.72C87.612 15.4747 87.1267 15.352 86.604 15.352C86.0707 15.352 85.58 15.4747 85.132 15.72C84.6947 15.9547 84.3427 16.3173 84.076 16.808C83.8093 17.2987 83.676 17.896 83.676 18.6C83.676 19.3147 83.804 19.9173 84.06 20.408C84.3267 20.8987 84.6787 21.2667 85.116 21.512C85.5533 21.7467 86.0333 21.864 86.556 21.864ZM108.912 14.232L106.176 23H104.672L102.56 16.04L100.448 23H98.944L96.192 14.232H97.68L99.696 21.592L101.872 14.232H103.36L105.488 21.608L107.472 14.232H108.912ZM109.813 18.584C109.813 17.688 109.994 16.904 110.357 16.232C110.72 15.5493 111.216 15.0213 111.845 14.648C112.485 14.2747 113.194 14.088 113.973 14.088C114.741 14.088 115.408 14.2533 115.973 14.584C116.538 14.9147 116.96 15.3307 117.237 15.832V14.232H118.709V23H117.237V21.368C116.949 21.88 116.517 22.3067 115.941 22.648C115.376 22.9787 114.714 23.144 113.957 23.144C113.178 23.144 112.474 22.952 111.845 22.568C111.216 22.184 110.72 21.6453 110.357 20.952C109.994 20.2587 109.813 19.4693 109.813 18.584ZM117.237 18.6C117.237 17.9387 117.104 17.3627 116.837 16.872C116.57 16.3813 116.208 16.008 115.749 15.752C115.301 15.4853 114.805 15.352 114.261 15.352C113.717 15.352 113.221 15.48 112.773 15.736C112.325 15.992 111.968 16.3653 111.701 16.856C111.434 17.3467 111.301 17.9227 111.301 18.584C111.301 19.256 111.434 19.8427 111.701 20.344C111.968 20.8347 112.325 21.2133 112.773 21.48C113.221 21.736 113.717 21.864 114.261 21.864C114.805 21.864 115.301 21.736 115.749 21.48C116.208 21.2133 116.57 20.8347 116.837 20.344C117.104 19.8427 117.237 19.2613 117.237 18.6ZM122.946 15.432V20.6C122.946 21.0267 123.036 21.3307 123.218 21.512C123.399 21.6827 123.714 21.768 124.161 21.768H125.234V23H123.922C123.111 23 122.503 22.8133 122.098 22.44C121.692 22.0667 121.49 21.4533 121.49 20.6V15.432H120.354V14.232H121.49V12.024H122.946V14.232H125.234V15.432H122.946ZM126.454 18.6C126.454 17.6933 126.635 16.904 126.998 16.232C127.36 15.5493 127.862 15.0213 128.502 14.648C129.152 14.2747 129.894 14.088 130.726 14.088C131.803 14.088 132.688 14.3493 133.382 14.872C134.086 15.3947 134.55 16.12 134.774 17.048H133.206C133.056 16.5147 132.763 16.0933 132.326 15.784C131.899 15.4747 131.366 15.32 130.726 15.32C129.894 15.32 129.222 15.608 128.71 16.184C128.198 16.7493 127.942 17.5547 127.942 18.6C127.942 19.656 128.198 20.472 128.71 21.048C129.222 21.624 129.894 21.912 130.726 21.912C131.366 21.912 131.899 21.7627 132.326 21.464C132.752 21.1653 133.046 20.7387 133.206 20.184H134.774C134.539 21.08 134.07 21.8 133.366 22.344C132.662 22.8773 131.782 23.144 130.726 23.144C129.894 23.144 129.152 22.9573 128.502 22.584C127.862 22.2107 127.36 21.6827 126.998 21C126.635 20.3173 126.454 19.5173 126.454 18.6ZM141.068 14.072C141.73 14.072 142.327 14.216 142.86 14.504C143.394 14.7813 143.81 15.2027 144.108 15.768C144.418 16.3333 144.572 17.0213 144.572 17.832V23H143.132V18.04C143.132 17.1653 142.914 16.4987 142.476 16.04C142.039 15.5707 141.442 15.336 140.684 15.336C139.916 15.336 139.303 15.576 138.844 16.056C138.396 16.536 138.172 17.2347 138.172 18.152V23H136.716V11.16H138.172V15.48C138.46 15.032 138.855 14.6853 139.356 14.44C139.868 14.1947 140.439 14.072 141.068 14.072ZM148.407 11.16V23H146.951V11.16H148.407ZM151.64 12.808C151.363 12.808 151.128 12.712 150.936 12.52C150.744 12.328 150.648 12.0933 150.648 11.816C150.648 11.5387 150.744 11.304 150.936 11.112C151.128 10.92 151.363 10.824 151.64 10.824C151.907 10.824 152.131 10.92 152.312 11.112C152.504 11.304 152.6 11.5387 152.6 11.816C152.6 12.0933 152.504 12.328 152.312 12.52C152.131 12.712 151.907 12.808 151.64 12.808ZM152.344 14.232V23H150.888V14.232H152.344ZM157.93 23.144C157.258 23.144 156.655 23.032 156.122 22.808C155.588 22.5733 155.167 22.2533 154.858 21.848C154.548 21.432 154.378 20.9573 154.346 20.424H155.85C155.892 20.8613 156.095 21.2187 156.458 21.496C156.831 21.7733 157.316 21.912 157.914 21.912C158.468 21.912 158.906 21.7893 159.226 21.544C159.546 21.2987 159.706 20.9893 159.706 20.616C159.706 20.232 159.535 19.9493 159.194 19.768C158.852 19.576 158.324 19.3893 157.61 19.208C156.959 19.0373 156.426 18.8667 156.01 18.696C155.604 18.5147 155.252 18.2533 154.954 17.912C154.666 17.56 154.522 17.1013 154.522 16.536C154.522 16.088 154.655 15.6773 154.922 15.304C155.188 14.9307 155.567 14.6373 156.058 14.424C156.548 14.2 157.108 14.088 157.738 14.088C158.708 14.088 159.492 14.3333 160.09 14.824C160.687 15.3147 161.007 15.9867 161.05 16.84H159.594C159.562 16.3813 159.375 16.0133 159.034 15.736C158.703 15.4587 158.255 15.32 157.69 15.32C157.167 15.32 156.751 15.432 156.442 15.656C156.132 15.88 155.978 16.1733 155.978 16.536C155.978 16.824 156.068 17.064 156.25 17.256C156.442 17.4373 156.676 17.5867 156.954 17.704C157.242 17.8107 157.636 17.9333 158.138 18.072C158.767 18.2427 159.279 18.4133 159.674 18.584C160.068 18.744 160.404 18.9893 160.682 19.32C160.97 19.6507 161.119 20.0827 161.13 20.616C161.13 21.096 160.996 21.528 160.73 21.912C160.463 22.296 160.084 22.6 159.594 22.824C159.114 23.0373 158.559 23.144 157.93 23.144ZM164.961 15.432V20.6C164.961 21.0267 165.052 21.3307 165.233 21.512C165.414 21.6827 165.729 21.768 166.177 21.768H167.249V23H165.937C165.126 23 164.518 22.8133 164.113 22.44C163.708 22.0667 163.505 21.4533 163.505 20.6V15.432H162.369V14.232H163.505V12.024H164.961V14.232H167.249V15.432H164.961Z" fill="white"/>
</svg>
