<svg width="23" height="24" viewBox="0 0 23 24" fill="none" xmlns="http://www.w3.org/2000/svg">
<rect width="23" height="23.988" fill="black"/>
<path d="M6 20.988C5.25 20.988 4.50833 20.8047 3.775 20.438C3.04167 20.0713 2.45 19.588 2 18.988C2.43333 18.988 2.875 18.8172 3.325 18.4755C3.775 18.1338 4 17.638 4 16.988C4 16.1547 4.29167 15.4463 4.875 14.863C5.45833 14.2797 6.16667 13.988 7 13.988C7.83333 13.988 8.54167 14.2797 9.125 14.863C9.70833 15.4463 10 16.1547 10 16.988C10 18.088 9.60833 19.0297 8.825 19.813C8.04167 20.5963 7.1 20.988 6 20.988ZM6 18.988C6.55 18.988 7.02083 18.7922 7.4125 18.4005C7.80417 18.0088 8 17.538 8 16.988C8 16.7047 7.90417 16.4672 7.7125 16.2755C7.52083 16.0838 7.28333 15.988 7 15.988C6.71667 15.988 6.47917 16.0838 6.2875 16.2755C6.09583 16.4672 6 16.7047 6 16.988C6 17.3713 5.95417 17.7213 5.8625 18.038C5.77083 18.3547 5.65 18.6547 5.5 18.938C5.58333 18.9713 5.66667 18.988 5.75 18.988H6ZM11.75 14.988L9 12.238L17.95 3.288C18.1333 3.10467 18.3625 3.00883 18.6375 3.0005C18.9125 2.99217 19.15 3.088 19.35 3.288L20.7 4.638C20.9 4.838 21 5.07133 21 5.338C21 5.60467 20.9 5.838 20.7 6.038L11.75 14.988Z" fill="white"/>
</svg>
