<svg width="36" height="36" viewBox="0 0 36 36" fill="none" xmlns="http://www.w3.org/2000/svg">
<path fill-rule="evenodd" clip-rule="evenodd" d="M15.0719 20.8035C13.3169 19.0485 11.9939 17.0835 11.1149 15.09C10.9289 14.6685 11.0384 14.175 11.3639 13.8495L12.5924 12.621C13.5989 11.6145 13.5989 10.191 12.7199 9.31195L10.9589 7.55245C9.78744 6.38095 7.88844 6.38095 6.71694 7.55245L5.73894 8.52895C4.62744 9.64045 4.16394 11.244 4.46394 12.834C5.20494 16.7535 7.48194 21.045 11.1554 24.7185C14.8289 28.392 19.1204 30.669 23.0399 31.41C24.6299 31.71 26.2334 31.2465 27.3449 30.135L28.3214 29.1585C29.4929 27.987 29.4929 26.088 28.3214 24.9165L26.5619 23.157C25.6829 22.278 24.2579 22.278 23.3804 23.157L22.0259 24.513C21.7004 24.8385 21.2069 24.948 20.7854 24.762C18.7919 23.8815 16.8269 22.557 15.0719 20.8035Z" stroke="black" stroke-width="2.25" stroke-linecap="round" stroke-linejoin="round"/>
<path d="M19.38 7.75512V4.24512" stroke="black" stroke-width="2.25" stroke-linecap="round" stroke-linejoin="round"/>
<path d="M25.6349 10.2295L28.1099 7.76953" stroke="#323232" stroke-width="2.25" stroke-linecap="round" stroke-linejoin="round"/>
<path d="M28.125 16.5H31.62" stroke="#323232" stroke-width="2.25" stroke-linecap="round" stroke-linejoin="round"/>
</svg>
