<svg width="64" height="64" viewBox="0 0 64 64" fill="none" xmlns="http://www.w3.org/2000/svg">
<path fill-rule="evenodd" clip-rule="evenodd" d="M0 32C0 58.352 5.648 64 32 64C58.352 64 64 58.352 64 32C64 5.648 58.352 0 32 0C5.648 0 0 5.648 0 32ZM32 26.6667C33.4728 26.6667 34.6667 27.8606 34.6667 29.3333V45.3333C34.6667 46.8061 33.4728 48 32 48C30.5272 48 29.3333 46.8061 29.3333 45.3333V29.3333C29.3333 27.8606 30.5272 26.6667 32 26.6667ZM32 18.6667C30.5272 18.6667 29.3333 19.8606 29.3333 21.3333C29.3333 22.8061 30.5272 24 32 24C33.4728 24 34.6667 22.8061 34.6667 21.3333C34.6667 19.8606 33.4728 18.6667 32 18.6667Z" fill="#BE2C36"/>
</svg>
