<svg width="27" height="27" viewBox="0 0 27 27" fill="none" xmlns="http://www.w3.org/2000/svg">
<g opacity="0.8">
<path d="M7.35941 9.61525V10.584V12.9008V15.6814V18.0439C7.35941 18.3981 7.36169 18.7522 7.35941 19.1041C7.35941 19.2001 7.35255 19.296 7.34113 19.392C7.35027 19.3303 7.35712 19.2709 7.36626 19.2092C7.33884 19.4034 7.28858 19.5908 7.21318 19.7712C7.23602 19.7164 7.25888 19.6616 7.28172 19.6067C7.22688 19.737 7.16063 19.8604 7.08066 19.9769C7.06466 20.002 7.04638 20.0249 7.02811 20.05C6.95956 20.146 7.13549 19.922 7.06238 20.0066C7.01668 20.0591 6.97099 20.1117 6.92072 20.1619C6.87502 20.2076 6.82704 20.2511 6.77678 20.2922C6.66939 20.3881 6.90701 20.1985 6.80877 20.2693C6.78363 20.2876 6.76079 20.3036 6.73565 20.3219C6.61913 20.4019 6.49575 20.4681 6.36551 20.5229L6.53002 20.4544C6.34952 20.5298 6.16216 20.5801 5.96796 20.6075C6.02965 20.5984 6.08905 20.5915 6.15075 20.5824C5.95654 20.6075 5.76004 20.6052 5.56584 20.5801C5.62753 20.5892 5.68693 20.5961 5.74862 20.6052C5.55669 20.5778 5.37163 20.5252 5.19112 20.4498L5.35562 20.5184C5.23224 20.4635 5.11343 20.3996 5.00148 20.3242C4.97634 20.3059 4.95121 20.2876 4.92608 20.2716C4.82783 20.2031 5.06773 20.3881 4.95578 20.2922C4.90323 20.2488 4.85525 20.2031 4.80727 20.1574C4.76385 20.114 4.72273 20.0683 4.6816 20.0203C4.66789 20.0043 4.65418 19.9883 4.64276 19.9723C4.71359 20.066 4.73415 20.0934 4.70217 20.05C4.6816 20.0203 4.65875 19.9906 4.64047 19.9609C4.56508 19.8489 4.50339 19.7301 4.44855 19.6045C4.4714 19.6593 4.49425 19.7141 4.51709 19.769C4.44398 19.593 4.39371 19.4103 4.36629 19.2206C4.37543 19.2823 4.38229 19.3417 4.39143 19.4034C4.34345 19.031 4.37086 18.6426 4.37086 18.2678V16.0196V13.2436V10.8217C4.37086 10.4264 4.38229 10.0311 4.37086 9.63585V9.61757L3.68543 10.303H5.15911H7.50791H8.04485C8.40357 10.303 8.74629 9.9877 8.73029 9.61757C8.71429 9.24515 8.42869 8.93214 8.04485 8.93214H6.57117H4.22238H3.68543C3.31529 8.93214 3 9.24516 3 9.61757V10.9085V13.8285V16.9861V18.9556C3 19.3257 3.0297 19.6981 3.15994 20.0454C3.49352 20.9365 4.22238 21.6471 5.15686 21.8824C6.12105 22.1246 7.15609 21.8459 7.86893 21.1513C8.41958 20.6144 8.72574 19.8627 8.73029 19.0973C8.73258 18.6038 8.73029 18.1102 8.73029 17.6167V14.6259V11.514V9.70443L8.73029 9.61757C8.73029 9.25886 8.41498 8.91614 8.04485 8.93214C7.67243 8.94814 7.35943 9.23149 7.35943 9.61536L7.35941 9.61525Z" fill="white"/>
<path d="M22.6269 6.35025V7.78282V11.1986V15.3433V18.8916C22.6269 19.4582 22.6314 20.0248 22.6269 20.5915C22.6269 20.628 22.6246 20.6669 22.62 20.7034C22.6292 20.6418 22.636 20.5824 22.6452 20.5207C22.636 20.5824 22.62 20.6372 22.5972 20.6943L22.6657 20.5298C22.6497 20.5664 22.6292 20.5983 22.6109 20.6349C22.556 20.7309 22.7411 20.5092 22.636 20.5983C22.6269 20.6098 22.6155 20.6189 22.604 20.628C22.5515 20.6715 22.5743 20.6532 22.6726 20.5755C22.6383 20.5892 22.604 20.6166 22.5698 20.6326L22.7343 20.5641C22.6771 20.5869 22.62 20.6029 22.5606 20.6143C22.6223 20.6052 22.6817 20.5983 22.7434 20.5892C22.572 20.6098 22.3938 20.5961 22.2225 20.5961H21.0115H19.2179H17.0131H14.5935H12.1579H9.87536H7.9447H6.55783C6.33849 20.5961 6.12145 20.5915 5.90211 20.5961H5.87241V21.9669C7.10849 21.9578 8.19149 21.1558 8.58902 19.9928C8.71469 19.625 8.73068 19.2389 8.73068 18.855V16.2435V12.1583V8.30153C8.73068 7.6595 8.72611 7.01518 8.73068 6.37316C8.73068 6.33432 8.73297 6.29776 8.73754 6.25892C8.7284 6.32061 8.72154 6.38001 8.7124 6.4417C8.72154 6.39144 8.73297 6.34345 8.75124 6.29548L8.6827 6.45998C8.69869 6.42342 8.71697 6.38915 8.73754 6.35488C8.7878 6.2612 8.6073 6.49425 8.72154 6.37773C8.83578 6.26349 8.60273 6.44399 8.69869 6.39144C8.73297 6.37087 8.76724 6.3526 8.80379 6.3366C8.74896 6.35945 8.69412 6.3823 8.63929 6.40515C8.69641 6.3823 8.75353 6.3663 8.81522 6.35717C8.75353 6.36631 8.69412 6.37316 8.63243 6.3823C8.78094 6.36631 8.93174 6.37544 9.08027 6.37544H10.0902H13.4168H17.4747H20.9567C21.5142 6.37544 22.074 6.37088 22.6315 6.37544C22.668 6.37544 22.7046 6.37773 22.7434 6.3823C22.6817 6.37316 22.6223 6.36631 22.5606 6.35717C22.6201 6.36631 22.6772 6.3823 22.7343 6.40515C22.6795 6.3823 22.6246 6.35945 22.5698 6.3366C22.6063 6.3526 22.6383 6.37316 22.6726 6.39144C22.7731 6.44856 22.5355 6.26806 22.6338 6.36631C22.732 6.46683 22.5515 6.22922 22.6086 6.32746C22.6292 6.36174 22.6475 6.39372 22.6635 6.43028C22.6406 6.37544 22.6178 6.32061 22.5949 6.26577C22.6178 6.32289 22.6338 6.38001 22.6429 6.43942C22.6338 6.37772 22.6269 6.31832 22.6178 6.25663C22.6246 6.28862 22.6269 6.31832 22.6269 6.35031C22.636 6.70902 22.9354 7.05174 23.3123 7.03574C23.6779 7.01975 24.0069 6.73414 23.9978 6.35031C23.9818 5.60317 23.3946 5.01596 22.6475 5H22.5332H21.7815H18.745H14.7306H11.0155H8.87233H8.73296C8.1275 5.00914 7.55174 5.41127 7.40321 6.01444C7.34838 6.24293 7.3598 6.47828 7.3598 6.70903V9.35027V13.287V17.0181V19.0425C7.3598 19.159 7.35523 19.2755 7.34152 19.392C7.35066 19.3303 7.35751 19.2709 7.36665 19.2092C7.33923 19.4035 7.28897 19.5908 7.21357 19.7713C7.23642 19.7165 7.25927 19.6616 7.28211 19.6068C7.22728 19.7347 7.16102 19.8604 7.08105 19.9769C7.06505 20.0021 7.04678 20.0249 7.0285 20.0501C6.95995 20.146 7.13588 19.9221 7.06277 20.0066C7.01707 20.0592 6.97138 20.1117 6.9234 20.162C6.8777 20.2077 6.82972 20.2488 6.77946 20.2922C6.67207 20.3882 6.90969 20.1986 6.81373 20.2671C6.7886 20.2854 6.76575 20.3014 6.74061 20.3197C6.62409 20.3996 6.50071 20.4659 6.37047 20.5207C6.42531 20.4979 6.48014 20.475 6.53498 20.4522C6.35448 20.5276 6.16713 20.5778 5.97522 20.6053C6.03691 20.5961 6.09631 20.5893 6.15801 20.5801C6.06433 20.5916 5.96836 20.5984 5.87469 20.5984C5.51598 20.6007 5.17326 20.9114 5.18926 21.2838C5.20525 21.6563 5.49086 21.9693 5.87469 21.9693H6.27453H7.37124H9.00715H11.0269H13.2706H15.5805H17.8128H19.7846H21.352H22.3573C22.7091 21.9693 23.0542 21.9693 23.3672 21.7636C23.7693 21.4986 23.9978 21.0668 24 20.5847V20.3516V19.2801V17.5847V15.4804V13.1865V10.9223V8.90249V7.34654V6.46688V6.35492C24 5.99621 23.6847 5.65349 23.3146 5.66949C22.9399 5.6832 22.6269 5.96652 22.6269 6.35037L22.6269 6.35025Z" fill="white"/>
<path d="M15.3083 12.4509H13.8163H11.4538C11.2619 12.4509 11.0631 12.4669 10.8712 12.4463C10.9329 12.4554 10.9923 12.4623 11.054 12.4714C11.0243 12.4668 10.9969 12.4577 10.9694 12.4486L11.1339 12.5171C11.1134 12.508 11.0905 12.492 11.07 12.4851C11.0197 12.4714 11.1979 12.5994 11.1294 12.5308C11.0654 12.4669 11.1865 12.5994 11.1819 12.6017C11.1796 12.6039 11.1431 12.5263 11.1431 12.524C11.1659 12.5788 11.1888 12.6336 11.2116 12.6885C11.2025 12.6588 11.1956 12.6336 11.1888 12.6039C11.1979 12.6656 11.2048 12.725 11.2139 12.7867C11.1956 12.6291 11.2093 12.4669 11.2093 12.3092V11.2559V8.87284C11.2093 8.68091 11.1934 8.48213 11.2139 8.29022C11.2048 8.35192 11.1979 8.41132 11.1888 8.47301C11.1934 8.44331 11.2025 8.41589 11.2116 8.38847C11.1888 8.44331 11.1659 8.49814 11.1431 8.55298C11.1522 8.53242 11.1682 8.50957 11.1751 8.48901C11.1888 8.43874 11.0608 8.61695 11.1294 8.54841C11.1934 8.48444 11.0608 8.60553 11.0585 8.60096C11.0563 8.59868 11.1339 8.56212 11.1362 8.56212C11.0814 8.58497 11.0266 8.60782 10.9717 8.63066C11.0014 8.62152 11.0266 8.61467 11.0563 8.60782C10.9946 8.61695 10.9352 8.62381 10.8735 8.63295C11.0311 8.61467 11.1934 8.62838 11.351 8.62838H12.4043H14.7874C14.9793 8.62838 15.1781 8.61238 15.37 8.63295C15.3083 8.62381 15.2489 8.61695 15.1872 8.60782C15.2169 8.61238 15.2443 8.62152 15.2717 8.63066C15.2169 8.60782 15.1621 8.58496 15.1072 8.56212C15.1278 8.57126 15.1506 8.58725 15.1712 8.59411C15.2215 8.60782 15.0433 8.47987 15.1118 8.54841C15.1758 8.61238 15.0547 8.47987 15.0592 8.47758C15.0615 8.4753 15.0981 8.55298 15.0981 8.55526L15.0295 8.39076C15.0387 8.42046 15.0455 8.44559 15.0524 8.47529C15.0433 8.4136 15.0364 8.3542 15.0273 8.29251C15.0455 8.45016 15.0318 8.61238 15.0318 8.77005V9.82335V12.2064C15.0318 12.3983 15.0478 12.5971 15.0273 12.789C15.0364 12.7273 15.0433 12.6679 15.0524 12.6062C15.0478 12.6359 15.0387 12.6633 15.0295 12.6908L15.0981 12.5263C15.0889 12.5468 15.073 12.5697 15.0661 12.5902C15.0524 12.6405 15.1803 12.4623 15.1118 12.5308C15.0478 12.5948 15.1803 12.4737 15.1826 12.4783C15.1849 12.4806 15.1072 12.5171 15.1049 12.5171L15.2694 12.4486C15.2397 12.4577 15.2146 12.4646 15.1849 12.4714C15.2466 12.4623 15.306 12.4554 15.3677 12.4463C15.3494 12.4486 15.3288 12.4509 15.3083 12.4509C14.9496 12.4646 14.6069 12.757 14.6229 13.1363C14.6389 13.4973 14.9245 13.8354 15.3083 13.8217C15.9184 13.7989 16.3867 13.3373 16.405 12.7227C16.4073 12.6679 16.405 12.6108 16.405 12.5559V11.6009V8.9825C16.405 8.77458 16.4096 8.56666 16.405 8.35873C16.3913 7.85834 16.0783 7.4334 15.5939 7.29173C15.4659 7.25517 15.338 7.25289 15.2078 7.25289H12.996C12.3197 7.25289 11.6434 7.24832 10.9672 7.25289C10.6519 7.25517 10.3274 7.36941 10.1195 7.61845C9.92985 7.84694 9.83618 8.1074 9.83618 8.40441V9.18351V11.8248V12.6473C9.83618 12.8552 9.87274 13.054 9.9687 13.2414C10.1538 13.6069 10.5536 13.8149 10.9512 13.8194C11.6024 13.8263 12.2535 13.8194 12.9047 13.8194H15.1758H15.3083C15.667 13.8194 16.0097 13.5041 15.9937 13.134C15.9777 12.7661 15.6921 12.4508 15.3083 12.4508L15.3083 12.4509Z" fill="white"/>
<path d="M10.5214 16.5633H11.5542H14.0332H17.0308H19.6195C20.0377 16.5633 20.4558 16.5724 20.8739 16.5633H20.8922C21.2509 16.5633 21.5936 16.248 21.5776 15.8778C21.5616 15.5054 21.276 15.1924 20.8922 15.1924H19.8594H17.3804H14.3827H11.794C11.3759 15.1924 10.9578 15.1833 10.5397 15.1924H10.5214C10.1627 15.1924 9.81999 15.5077 9.83599 15.8778C9.85198 16.2503 10.1376 16.5633 10.5214 16.5633Z" fill="white"/>
<path d="M10.5214 19.2664H11.5542H14.0332H17.0308H19.6195C20.0377 19.2664 20.4558 19.2755 20.8739 19.2664H20.8922C21.2509 19.2664 21.5936 18.9511 21.5776 18.581C21.5616 18.2085 21.276 17.8955 20.8922 17.8955H19.8594H17.3804H14.3827H11.794C11.3759 17.8955 10.9578 17.8864 10.5397 17.8955H10.5214C10.1627 17.8955 9.81999 18.2108 9.83599 18.581C9.85198 18.9511 10.1376 19.2664 10.5214 19.2664Z" fill="white"/>
</g>
</svg>
