<svg id="Dislike" xmlns="http://www.w3.org/2000/svg" width="52" height="52" viewBox="0 0 52 52">
  <circle id="Ellipse_19" data-name="Ellipse 19" cx="26" cy="26" r="26" fill="none"/>
  <path id="Path_31" data-name="Path 31" d="M1.457,31.342H7.9a1.047,1.047,0,0,0,.853-.459l.468.269A6.6,6.6,0,0,0,12.455,32H24.006a4.984,4.984,0,0,0,4.852-3.934l2.673-12.718a0,0,0,0,1,0,0,3.7,3.7,0,0,0-3.622-4.455H22.6l2.134-5.914A3.3,3.3,0,0,0,22.993.847L21.867.336a3.759,3.759,0,0,0-4.1.652L8.622,9.35A1.058,1.058,0,0,0,7.9,9.057H1.457A1.066,1.066,0,0,0,.39,10.123V30.276A1.066,1.066,0,0,0,1.457,31.342ZM19.212,2.561a1.628,1.628,0,0,1,1.776-.281l1.127.511a1.158,1.158,0,0,1,.612,1.455L20.076,11.6a1.066,1.066,0,0,0,1,1.429H27.91a1.565,1.565,0,0,1,1.533,1.886L26.77,27.626a2.84,2.84,0,0,1-2.764,2.241H12.455a4.457,4.457,0,0,1-2.183-.569l-1.31-.753V11.93ZM2.523,11.19H6.828V29.209H2.523Z" transform="translate(41.609 42) rotate(180)" fill="rgba(255,255,255,0.8)"/>
</svg>
