<svg width="27" height="27" viewBox="0 0 27 27" fill="none" xmlns="http://www.w3.org/2000/svg">
<g opacity="0.8">
<path fill-rule="evenodd" clip-rule="evenodd" d="M6.04864 20.9009C1.97501 16.8 1.98421 10.1643 6.0738 6.07384C10.1638 1.9842 16.8 1.975 20.9008 6.04868L20.9015 6.0493L20.9266 6.07384C20.9413 6.08931 20.9568 6.10462 20.9715 6.11931L21.0113 6.15995L21.0218 6.17042L21.0526 6.20261L21.0687 6.21949L21.0967 6.24825C25.0237 10.3603 24.967 16.8856 20.9265 20.9268C17.2366 24.6159 11.4753 24.9841 7.3725 22.031L7.222 21.9435L7.22262 21.9218C6.87193 21.6598 6.53436 21.3729 6.21162 21.0621L6.17036 21.0222L6.13535 20.9872C6.11503 20.9677 6.09472 20.9473 6.07378 20.927L6.04924 20.9019L6.04861 20.9012L6.04864 20.9009ZM22.2576 11.0184C21.7843 11.1003 21.3082 11.2166 20.8321 11.3665L20.8126 11.3713L20.7208 11.4092L19.427 11.8922L19.0153 12.1085L18.7898 12.2009L18.5021 12.3779L17.8881 12.7007L17.1718 13.197L16.8302 13.407L16.6733 13.5414L16.2413 13.8656C15.8079 14.2058 15.3893 14.5818 14.9853 14.9852C14.7479 15.2232 14.5197 15.4662 14.3032 15.7141L14.264 15.7589L14.2521 15.7722L14.2157 15.8149L14.2031 15.8296L14.1681 15.8708L14.1554 15.8855L14.1198 15.9282L14.1079 15.9422L14.0708 15.9871L14.061 15.9983L14.0147 16.0543L13.9679 16.1124L13.9216 16.1698L13.8775 16.2257L13.8642 16.2432L13.8335 16.2825L13.8174 16.3028L13.7894 16.3392L13.7725 16.3609L13.7459 16.3959L13.7284 16.4191L13.7025 16.4534L13.6856 16.4766L13.659 16.5122L13.6429 16.5339L13.6142 16.5731L13.6009 16.5913L13.5589 16.6486L13.4392 16.7929C13.4329 16.7999 13.4259 16.8076 13.4196 16.8146L13.4091 16.8273L13.1971 17.1717L12.7007 17.8879L12.378 18.502L12.2009 18.7897L12.1086 19.0152L11.8923 19.4269L11.4092 20.7207L11.3708 20.8139L11.3659 20.8348C11.214 21.3094 11.0949 21.7842 11.0145 22.256C14.0846 23.1236 17.5222 22.3506 19.9363 19.9357C22.3497 17.523 23.1233 14.0865 22.258 11.0179L22.2576 11.0184ZM20.1998 7.3399C20.1221 7.25441 20.0416 7.17111 19.9596 7.0886L19.4519 6.67335C16.5554 6.75524 13.3643 8.19054 10.7774 10.7778C8.19028 13.3649 6.75495 16.5562 6.67293 19.4524L7.08818 19.96C7.23727 20.1085 7.39059 20.2505 7.54811 20.3857C7.42356 20.2338 7.36261 20.03 7.39902 19.8214C7.48169 19.3432 7.59437 18.8621 7.73721 18.3799C7.84645 18.0095 8.23639 17.7974 8.60675 17.9067C8.97714 18.0165 9.18923 18.4066 9.07997 18.777C8.9526 19.2062 8.85242 19.6347 8.77819 20.0604C8.71239 20.4412 8.34966 20.6967 7.96882 20.631C7.89115 20.6169 7.81832 20.5911 7.75253 20.5553C7.93038 20.6974 8.11307 20.8305 8.3014 20.9531C8.76273 21.2233 9.21643 21.5005 9.6876 21.7289C9.77231 21.3011 9.88436 20.8718 10.0208 20.4427L10.0335 20.3831L10.1041 20.2109L10.6103 18.8547L10.8372 18.4227L10.9478 18.1539L11.1599 17.8087L11.5001 17.1611L12.0239 16.4056L12.2723 16.0024L12.4403 15.8064L12.483 15.7476L12.5265 15.6889L12.5355 15.6762L12.5536 15.6517L12.5697 15.63L12.5844 15.6111L12.6026 15.5859L12.6138 15.5712L12.6327 15.546L12.6587 15.5124L12.6824 15.4816L12.7034 15.4543L12.7321 15.4173L12.7826 15.3529L12.7953 15.3374C12.8709 15.2414 12.9479 15.1463 13.027 15.0525L13.0411 15.035L13.0942 14.972L13.1244 14.937L13.1475 14.9097L13.1727 14.8803L13.2014 14.8467L13.2217 14.8235L13.2554 14.7843L13.2588 14.7809C13.4926 14.5141 13.7384 14.2523 13.9946 13.996C14.4356 13.555 14.8929 13.1454 15.3669 12.7722L15.3746 12.7659C15.5166 12.6547 15.6602 12.5461 15.8059 12.4418L16.0012 12.2738L16.4044 12.0253L17.1599 11.5016L17.8076 11.1614L18.1528 10.9493L18.4216 10.8387L18.8536 10.6117L20.2098 10.1056L20.382 10.0349L20.4422 10.0216L20.4981 10.0048L20.5114 10.0005C20.9216 9.8752 21.3312 9.77158 21.7394 9.6911L21.6827 9.54685L21.2095 8.67103L20.9974 8.36784C20.8924 8.55132 20.7061 8.68572 20.4808 8.71588C20.0536 8.77183 19.6217 8.85591 19.1889 8.96718C18.8151 9.06314 18.4329 8.837 18.3369 8.4624C18.2409 8.08857 18.4671 7.70632 18.8411 7.61035C19.2961 7.49407 19.7498 7.40374 20.1993 7.34076L20.1998 7.3399ZM8.29534 20.9691L8.30238 20.9739L8.29894 20.9669L8.2955 20.9689L8.29534 20.9691ZM17.7457 5.44751C14.3093 3.63622 9.95368 4.17461 7.06429 7.06488C4.17418 9.95439 3.63563 14.31 5.44692 17.7463C5.93358 15.0123 7.41012 12.1639 9.78701 9.78784C12.1633 7.41079 15.0117 5.93425 17.7454 5.44775L17.7457 5.44751ZM10.0933 16.3241C10.3005 15.9376 10.5281 15.5546 10.7774 15.178C10.9902 14.8553 10.9013 14.4205 10.5786 14.2076C10.2565 13.9948 9.8217 14.0837 9.60886 14.4064C9.33584 14.8195 9.08579 15.2395 8.85823 15.6639C8.67616 16.0049 8.80509 16.4292 9.14594 16.6119C9.48617 16.7939 9.91126 16.665 10.0932 16.3242L10.0933 16.3241ZM12.4416 13.0826C12.5452 12.9733 12.6502 12.8655 12.7573 12.7576C12.9687 12.547 13.1836 12.3432 13.4029 12.1478C13.6906 11.8901 13.7151 11.4471 13.4582 11.1586C13.2005 10.8708 12.7574 10.8463 12.4696 11.104C12.2316 11.3169 11.997 11.5382 11.7674 11.7677C11.6505 11.8846 11.5364 12.0023 11.4244 12.1213C11.1584 12.4019 11.1709 12.8452 11.4517 13.1105C11.7332 13.3765 12.1764 13.364 12.4417 13.0826L12.4416 13.0826ZM15.5425 10.5439C15.927 10.3065 16.3161 10.0902 16.7083 9.89566C17.0549 9.72406 17.197 9.30398 17.0254 8.95751C16.8538 8.61166 16.433 8.46945 16.0872 8.64103C15.6559 8.85451 15.2281 9.09269 14.806 9.35306C14.4777 9.55685 14.3755 9.98883 14.5791 10.3172C14.7821 10.6455 15.2141 10.7477 15.5424 10.5441L15.5425 10.5439Z" fill="white"/>
</g>
</svg>
