<svg id="Unseen" xmlns="http://www.w3.org/2000/svg" width="52" height="52" viewBox="0 0 52 52">
  <circle id="Ellipse_12" data-name="Ellipse 12" cx="26" cy="26" r="26" fill="none"/>
  <path id="Path_9" data-name="Path 9" d="M35.733,17.256a3.787,3.787,0,0,1,0,4.472C31.6,27.45,25.676,30.736,19.492,30.736a17.648,17.648,0,0,1-5.173-.775l4.3-4.3a6.188,6.188,0,0,0,7.058-7.058l5.847-5.847a23.774,23.774,0,0,1,4.21,4.5Zm.883-13.121L4.134,36.616C3,37.782,1.207,35.978,2.368,34.85L9.5,27.715a23.18,23.18,0,0,1-6.251-5.987,3.787,3.787,0,0,1,0-4.472c4.135-5.722,10.057-9.007,16.241-9.007a17.816,17.816,0,0,1,7.713,1.764l7.644-7.644C35.979,1.2,37.779,3.006,36.616,4.135ZM14.248,22.969,16.1,21.12a3.789,3.789,0,0,1,5.027-5.026l1.846-1.846a6.845,6.845,0,0,0-3.477-1,6.143,6.143,0,0,0-6.184,7.133,5.987,5.987,0,0,0,.937,2.586Z" transform="translate(6.508 8.009)" fill="rgba(255,255,255,0.8)"/>
</svg>
