<svg xmlns="http://www.w3.org/2000/svg" width="27" height="27" viewBox="0 0 27 27">
  <g id="Playlist" transform="translate(-410 -184)" opacity="0.8">
    <circle id="Ellipse_23" data-name="Ellipse 23" cx="13.5" cy="13.5" r="13.5" transform="translate(410 184)" fill="none"/>
    <g id="Playlist-1" transform="translate(337.415 164.666)">
      <path id="Path_186" data-name="Path 186" d="M515.984,42.8H515.1a1.769,1.769,0,0,1-1.769-1.769V25.1a1.769,1.769,0,0,1,1.769-1.769h.885a1.769,1.769,0,0,1,1.769,1.769V41.026a1.769,1.769,0,0,1-1.769,1.769ZM515.1,25.1V41.026h.885V25.1Z" transform="translate(-420.668)" fill="#fff"/>
      <path id="Path_187" data-name="Path 187" d="M352.654,42.8h-.885A1.769,1.769,0,0,1,350,41.026V25.1a1.769,1.769,0,0,1,1.769-1.769h.885a1.769,1.769,0,0,1,1.769,1.769V41.026a1.769,1.769,0,0,1-1.769,1.769ZM351.769,25.1V41.026h.885V25.1Z" transform="translate(-263.53)" fill="#fff"/>
      <path id="Path_188" data-name="Path 188" d="M78.694,48.891a1.642,1.642,0,0,1-.539-.088l-.885-.274h0a1.769,1.769,0,0,1-1.1-2.22l4.883-15.153a1.769,1.769,0,0,1,2.229-1.141l.84.274a1.769,1.769,0,0,1,1.141,2.22L80.384,47.661a1.769,1.769,0,0,1-1.69,1.23Zm-.885-2.043.885.274,4.892-15.153-.885-.274Z" transform="translate(0 -6.343)" fill="#fff"/>
    </g>
  </g>
</svg>
