<svg width="25" height="17" viewBox="0 0 25 17" fill="none" xmlns="http://www.w3.org/2000/svg">
<path d="M15.6236 5.48521V11.5197C15.6236 12.4417 14.8635 13.19 13.9269 13.19L1.69715 13.19C0.760582 13.19 0.000468433 12.4417 0.000468433 11.5197L0.000468433 5.48521C0.000468433 4.56322 0.760582 3.81494 1.69715 3.81494L13.9269 3.81494C14.8635 3.81494 15.6236 4.56322 15.6236 5.48521ZM10.1601 8.50247C10.1601 9.42279 10.9202 10.1727 11.8568 10.1727C12.7933 10.1727 13.5535 9.42279 13.5535 8.50247C13.5535 7.58216 12.7933 6.83221 11.8568 6.83221C10.9202 6.83221 10.1601 7.58216 10.1601 8.50247Z" fill="white"/>
<path d="M18.0703 5.59935C17.8037 5.22028 17.7962 4.69461 18.1274 4.36857C18.4587 4.04246 19.0012 4.03995 19.2848 4.40704C21.1064 6.76494 21.1055 10.2421 19.285 12.5978C19.0013 12.9649 18.4587 12.9623 18.1274 12.6362C17.7962 12.3101 17.8035 11.7844 18.07 11.4052C19.2679 9.70132 19.2689 7.30323 18.0703 5.59935Z" fill="white"/>
<path d="M24.4805 8.5C24.4805 11.3435 23.4567 14.0307 21.5807 16.1568C21.2734 16.505 20.7336 16.5033 20.4022 16.1771C20.0711 15.8511 20.0741 15.3247 20.377 14.9731C21.9348 13.1652 22.7838 10.8975 22.7838 8.5C22.7838 6.1025 21.9349 3.83491 20.3771 2.02702C20.0741 1.67536 20.0711 1.14881 20.4023 0.822753C20.7337 0.496591 21.2735 0.494763 21.5808 0.842947C23.4567 2.96827 24.4805 5.658 24.4805 8.5Z" fill="white"/>
</svg>
