<svg width="24" height="25" viewBox="0 0 24 25" fill="none" xmlns="http://www.w3.org/2000/svg">
<g id="devices">
<mask id="mask0_1_2899" style="mask-type:alpha" maskUnits="userSpaceOnUse" x="0" y="0" width="24" height="25">
<rect id="Bounding box" y="0.726562" width="24" height="24" fill="#D9D9D9"/>
</mask>
<g mask="url(#mask0_1_2899)">
<path id="devices_2" d="M2 20.7266V17.7266H4V6.72656C4 6.17656 4.19583 5.70573 4.5875 5.31406C4.97917 4.9224 5.45 4.72656 6 4.72656H21V6.72656H6V17.7266H12V20.7266H2ZM15 20.7266C14.7167 20.7266 14.4792 20.6307 14.2875 20.4391C14.0958 20.2474 14 20.0099 14 19.7266V9.72656C14 9.44323 14.0958 9.20573 14.2875 9.01406C14.4792 8.8224 14.7167 8.72656 15 8.72656H21C21.2833 8.72656 21.5208 8.8224 21.7125 9.01406C21.9042 9.20573 22 9.44323 22 9.72656V19.7266C22 20.0099 21.9042 20.2474 21.7125 20.4391C21.5208 20.6307 21.2833 20.7266 21 20.7266H15ZM16 17.7266H20V10.7266H16V17.7266Z" fill="white" fill-opacity="0.8"/>
</g>
</g>
</svg>
