<svg width="18" height="19" viewBox="0 0 18 19" fill="none" xmlns="http://www.w3.org/2000/svg">
<mask id="mask0_1_1667" style="mask-type:alpha" maskUnits="userSpaceOnUse" x="0" y="0" width="18" height="19">
<rect y="0.327271" width="18" height="18" fill="#D9D9D9"/>
</mask>
<g mask="url(#mask0_1_1667)">
<path d="M1.5 18.3271V15.3271H16.5V18.3271H1.5ZM3 13.8271V11.0146L9.7875 4.22706L12.6 7.03956L5.8125 13.8271H3ZM4.5 12.3271H5.175L10.5 7.03956L9.7875 6.32706L4.5 11.6521V12.3271ZM13.4438 6.21456L10.6313 3.40206L11.9813 2.05206C12.1188 1.90206 12.2937 1.83018 12.5063 1.83643C12.7188 1.84268 12.8938 1.91456 13.0312 2.05206L14.7938 3.81456C14.9313 3.95206 15 4.12393 15 4.33018C15 4.53643 14.9313 4.71456 14.7938 4.86456L13.4438 6.21456Z" fill="white"/>
</g>
</svg>
