<svg id="Seen" xmlns="http://www.w3.org/2000/svg" width="52" height="52" viewBox="0 0 52 52">
  <circle id="Ellipse_11" data-name="Ellipse 11" cx="26" cy="26" r="26" fill="none"/>
  <path id="Path_10" data-name="Path 10" d="M19.417,27.615a3.693,3.693,0,1,1,3.755-3.692A3.724,3.724,0,0,1,19.417,27.615Zm16.276-1.495C31.544,31.764,25.612,35,19.417,35S7.291,31.764,3.142,26.121h0a3.7,3.7,0,0,1,0-4.4c4.15-5.643,10.081-8.879,16.276-8.879s12.126,3.236,16.276,8.879a3.7,3.7,0,0,1,0,4.4ZM19.417,17.769a6.155,6.155,0,1,0,6.258,6.154A6.207,6.207,0,0,0,19.417,17.769ZM18.166,4.231v6.154a1.252,1.252,0,0,0,2.5,0V4.231a1.252,1.252,0,0,0-2.5,0ZM32.987,7.236,28.963,11.95a1.216,1.216,0,0,0,.153,1.734,1.266,1.266,0,0,0,1.763-.151L34.9,8.819a1.216,1.216,0,0,0-.153-1.734,1.266,1.266,0,0,0-1.763.151ZM3.931,8.819l4.024,4.714a1.266,1.266,0,0,0,1.763.151,1.217,1.217,0,0,0,.153-1.734L5.848,7.236a1.266,1.266,0,0,0-1.763-.151,1.217,1.217,0,0,0-.153,1.734Z" transform="translate(6.583 4)" fill="rgba(255,221,0,0.8)"/>
</svg>