<svg id="Nonfav" xmlns="http://www.w3.org/2000/svg" width="52" height="52" viewBox="0 0 52 52">
    <circle id="Ellipse_8" data-name="Ellipse 8" cx="26" cy="26" r="26" fill="none" />
    <path id="Path_13" data-name="Path 13"
        d="M35.418,7.234a10.358,10.358,0,0,0-14.787-.35,10.389,10.389,0,0,0-15.11.336,11.458,11.458,0,0,0,.323,15.736L19.69,37.376a1.307,1.307,0,0,0,1.909,0l13.819-14.42a11.43,11.43,0,0,0,0-15.722ZM33.536,20.968,20.631,34.408,7.725,20.968a8.561,8.561,0,0,1,0-11.76,7.762,7.762,0,0,1,11.293,0l.658.686a1.307,1.307,0,0,0,1.909,0l.659-.686a7.762,7.762,0,0,1,11.292,0,8.562,8.562,0,0,1,0,11.761Z"
        transform="translate(5.449 5.209)" fill="rgba(255,255,255,0.8)" />
</svg>
