<svg width="24" height="25" viewBox="0 0 24 25" fill="none" xmlns="http://www.w3.org/2000/svg">
<g id="spoke">
<mask id="mask0_1_2894" style="mask-type:alpha" maskUnits="userSpaceOnUse" x="0" y="0" width="24" height="25">
<rect id="Bounding box" y="0.726562" width="24" height="24" fill="#D9D9D9"/>
</mask>
<g mask="url(#mask0_1_2894)">
<path id="spoke_2" d="M12 11.7266C10.9 11.7266 9.95833 11.3349 9.175 10.5516C8.39167 9.76823 8 8.82656 8 7.72656C8 6.62656 8.39167 5.6849 9.175 4.90156C9.95833 4.11823 10.9 3.72656 12 3.72656C13.1 3.72656 14.0417 4.11823 14.825 4.90156C15.6083 5.6849 16 6.62656 16 7.72656C16 8.82656 15.6083 9.76823 14.825 10.5516C14.0417 11.3349 13.1 11.7266 12 11.7266ZM12 9.72656C12.55 9.72656 13.0208 9.53073 13.4125 9.13906C13.8042 8.7474 14 8.27656 14 7.72656C14 7.17656 13.8042 6.70573 13.4125 6.31406C13.0208 5.9224 12.55 5.72656 12 5.72656C11.45 5.72656 10.9792 5.9224 10.5875 6.31406C10.1958 6.70573 10 7.17656 10 7.72656C10 8.27656 10.1958 8.7474 10.5875 9.13906C10.9792 9.53073 11.45 9.72656 12 9.72656ZM7 21.7266C5.9 21.7266 4.95833 21.3349 4.175 20.5516C3.39167 19.7682 3 18.8266 3 17.7266C3 16.6266 3.39167 15.6849 4.175 14.9016C4.95833 14.1182 5.9 13.7266 7 13.7266C8.1 13.7266 9.04167 14.1182 9.825 14.9016C10.6083 15.6849 11 16.6266 11 17.7266C11 18.8266 10.6083 19.7682 9.825 20.5516C9.04167 21.3349 8.1 21.7266 7 21.7266ZM7 19.7266C7.55 19.7266 8.02083 19.5307 8.4125 19.1391C8.80417 18.7474 9 18.2766 9 17.7266C9 17.1766 8.80417 16.7057 8.4125 16.3141C8.02083 15.9224 7.55 15.7266 7 15.7266C6.45 15.7266 5.97917 15.9224 5.5875 16.3141C5.19583 16.7057 5 17.1766 5 17.7266C5 18.2766 5.19583 18.7474 5.5875 19.1391C5.97917 19.5307 6.45 19.7266 7 19.7266ZM17 21.7266C15.9 21.7266 14.9583 21.3349 14.175 20.5516C13.3917 19.7682 13 18.8266 13 17.7266C13 16.6266 13.3917 15.6849 14.175 14.9016C14.9583 14.1182 15.9 13.7266 17 13.7266C18.1 13.7266 19.0417 14.1182 19.825 14.9016C20.6083 15.6849 21 16.6266 21 17.7266C21 18.8266 20.6083 19.7682 19.825 20.5516C19.0417 21.3349 18.1 21.7266 17 21.7266ZM17 19.7266C17.55 19.7266 18.0208 19.5307 18.4125 19.1391C18.8042 18.7474 19 18.2766 19 17.7266C19 17.1766 18.8042 16.7057 18.4125 16.3141C18.0208 15.9224 17.55 15.7266 17 15.7266C16.45 15.7266 15.9792 15.9224 15.5875 16.3141C15.1958 16.7057 15 17.1766 15 17.7266C15 18.2766 15.1958 18.7474 15.5875 19.1391C15.9792 19.5307 16.45 19.7266 17 19.7266Z" fill="white" fill-opacity="0.8"/>
</g>
</g>
</svg>
