<svg width="52" height="52" viewBox="0 0 52 52" fill="none" xmlns="http://www.w3.org/2000/svg">
<path d="M26.0263 8.15185L42.8876 37.3047H9.1649L26.0263 8.15185ZM26.0263 5C24.923 5 23.8725 5.57782 23.2947 6.57592L6.43337 35.7288C5.85554 36.7269 5.85554 37.8825 6.43337 38.8806C7.01119 39.8787 8.06163 40.4565 9.1649 40.4565H42.8351C43.9384 40.4565 44.9888 39.8787 45.5666 38.8806C46.1445 37.8825 46.1445 36.7269 45.5666 35.7288L28.7578 6.57592C28.18 5.5778 27.1295 5 26.0263 5Z" fill="rgba(255,255,255,0.8)"/>
<path d="M26.0251 28.2174C25.1322 28.2174 24.4492 27.5344 24.4492 26.6415V17.8694C24.4492 16.9765 25.1322 16.2935 26.0251 16.2935C26.9181 16.2935 27.6011 16.9764 27.6011 17.8694V26.6415C27.6011 27.482 26.9181 28.2174 26.0251 28.2174Z" fill="rgba(255,255,255,0.8)"/>
<path d="M27.6011 32.4197C27.6011 33.2899 26.8954 33.9952 26.0251 33.9952C25.1549 33.9952 24.4492 33.2899 24.4492 32.4197C24.4492 31.5491 25.1549 30.8438 26.0251 30.8438C26.8954 30.8438 27.6011 31.5491 27.6011 32.4197Z" fill="rgba(255,255,255,0.8)"/>
</svg>
