<svg xmlns="http://www.w3.org/2000/svg" width="27" height="27" viewBox="0 0 27 27">
  <g id="Channels" transform="translate(-410 -184)" opacity="0.8">
    <circle id="Ellipse_23" data-name="Ellipse 23" cx="13.5" cy="13.5" r="13.5" transform="translate(410 184)" fill="none"/>
    <g id="Group_110" data-name="Group 110" transform="translate(3267.392 -1153.605)">
      <path id="Path_179" data-name="Path 179" d="M498.492,84.982a.954.954,0,0,0-1.349,1.349,8.624,8.624,0,0,1,0,12.188.948.948,0,0,0,0,1.349.959.959,0,0,0,.664.288.873.873,0,0,0,.664-.288,10.54,10.54,0,0,0,.022-14.887Z" transform="translate(-3334.95 1258.626)" fill="#fff"/>
      <path id="Path_180" data-name="Path 180" d="M418.412,164.5a.954.954,0,0,0-1.349,1.349,4.159,4.159,0,0,1,0,5.884.948.948,0,0,0,0,1.349.959.959,0,0,0,.664.288.873.873,0,0,0,.664-.288,6.035,6.035,0,0,0,.022-8.582Z" transform="translate(-3258.033 1182.247)" fill="#fff"/>
      <path id="Path_181" data-name="Path 181" d="M88.558,86.332a.954.954,0,0,0-1.349-1.349,10.534,10.534,0,0,0,0,14.864.959.959,0,0,0,.664.288.873.873,0,0,0,.664-.288.948.948,0,0,0,0-1.349,8.618,8.618,0,0,1,.022-12.166Z" transform="translate(-2938.531 1258.626)" fill="#fff"/>
      <path id="Path_182" data-name="Path 182" d="M199.543,165.852a.954.954,0,1,0-1.349-1.349,6.074,6.074,0,0,0,0,8.582.959.959,0,0,0,.664.288.873.873,0,0,0,.664-.288.948.948,0,0,0,0-1.349,4.2,4.2,0,0,1,.022-5.884Z" transform="translate(-3046.375 1182.247)" fill="#fff"/>
      <path id="Path_183" data-name="Path 183" d="M312.351,240.736a1.615,1.615,0,1,1-1.615-1.615,1.615,1.615,0,0,1,1.615,1.615" transform="translate(-3154.627 1110.305)" fill="#fff"/>
    </g>
  </g>
</svg>
