<svg width="60" height="28" viewBox="0 0 60 28" fill="none" xmlns="http://www.w3.org/2000/svg">
<g id="c">
<path id="Vector" d="M41.7128 17.8222C41.7128 17.7778 41.7128 17.7111 41.7128 17.6666C41.7128 17.5111 41.7128 17.3555 41.69 17.2C41.69 17 41.6444 16.8 41.6215 16.6C41.6215 16.5111 41.5987 16.4444 41.5759 16.3555C41.553 16.1778 41.5074 16 41.4617 15.8222C41.4389 15.7111 41.3932 15.6 41.3704 15.4666C41.3475 15.3778 41.3247 15.2889 41.3019 15.2C41.2791 15.1111 41.2334 15 41.2106 14.9111C41.1421 14.6889 41.0507 14.4889 40.9594 14.2889C40.9137 14.2 40.8909 14.1333 40.8453 14.0444C40.7996 13.9555 40.7539 13.8666 40.7083 13.7778C40.6626 13.6889 40.6169 13.6 40.5713 13.5111C40.5256 13.4444 40.48 13.3555 40.4343 13.2889C40.4343 13.2889 40.4343 13.2666 40.4115 13.2444C40.3658 13.1555 40.2973 13.0666 40.2516 12.9778C40.206 12.8889 40.1375 12.8222 40.0918 12.7333C40.0005 12.5778 39.8863 12.4444 39.7722 12.3111C39.7265 12.2444 39.6809 12.2 39.6352 12.1555C39.6124 12.1111 39.5667 12.0666 39.5439 12.0444C39.4754 11.9555 39.4069 11.8666 39.3384 11.8C39.2471 11.7111 39.1557 11.6222 39.0872 11.5333C39.0187 11.4666 38.9503 11.3778 38.8589 11.3111C38.8133 11.2666 38.7676 11.2222 38.7219 11.2C38.6763 11.1555 38.6306 11.1111 38.5849 11.0666C38.5621 11.0444 38.5165 11 38.4936 10.9778C38.448 10.9333 38.3795 10.8889 38.3338 10.8444C38.2881 10.8 38.2425 10.7778 38.1968 10.7333C38.1055 10.6666 38.0142 10.6 37.9457 10.5333C37.8543 10.4666 37.763 10.4 37.6489 10.3111C37.6489 10.3111 37.6032 10.2889 37.5804 10.2666C37.5119 10.2222 37.4434 10.1778 37.3749 10.1333C37.3292 10.1111 37.3064 10.0889 37.2607 10.0666C37.1922 10.0222 37.1009 9.97776 37.0324 9.93331C37.0324 9.93331 36.9868 9.91109 36.9639 9.88887C36.8726 9.84442 36.8041 9.79998 36.7128 9.75554C36.6899 9.75554 36.6443 9.71109 36.6215 9.71109C36.5073 9.64443 36.416 9.59998 36.3018 9.55554C36.2105 9.51109 36.1192 9.46665 36.0278 9.4222C35.9593 9.39998 35.9137 9.35554 35.8452 9.33331C35.7767 9.31109 35.731 9.28887 35.6625 9.26665C35.6169 9.26665 35.594 9.24442 35.5484 9.2222C35.4571 9.17776 35.3657 9.15554 35.2516 9.11109C35.2516 9.11109 35.2287 9.11109 35.2059 9.11109C35.0918 9.06665 34.9548 9.0222 34.8406 8.99998C33.9274 8.73331 32.9456 8.57776 31.941 8.57776C30.9364 8.57776 31.7812 8.57776 31.7127 8.57776C30.9593 8.57776 30.2287 8.68887 29.5209 8.86665C29.4067 8.88887 29.3154 8.91109 29.2013 8.95554C29.0871 8.99998 28.9501 9.0222 28.836 9.06665C24.9318 10.3333 22.1235 13.9333 22.1235 18.1555C22.1235 22.3778 22.1235 18.3111 22.1235 18.4C22.1235 18.9778 22.2149 19.5333 22.329 20.0889C22.3518 20.2 22.3747 20.3333 22.4203 20.4444C22.4432 20.5555 22.4888 20.6889 22.5117 20.8C22.5345 20.9111 22.5802 21.0222 22.6258 21.1555C22.6715 21.2666 22.6943 21.3778 22.74 21.4889C22.7628 21.5778 22.8085 21.6666 22.8541 21.7555C22.8541 21.8 22.877 21.8444 22.8998 21.8889C22.9226 21.9555 22.9455 22.0222 22.9911 22.0666C23.014 22.1111 23.0368 22.1778 23.0596 22.2222C23.1053 22.3111 23.1509 22.4 23.1966 22.5111C23.2423 22.5778 23.2879 22.6666 23.3108 22.7333C23.3108 22.7778 23.3564 22.8 23.3793 22.8444C23.4249 22.9333 23.4706 23.0222 23.5391 23.1111C23.6532 23.3111 23.7674 23.4889 23.9044 23.6666C23.9272 23.7111 23.9729 23.7555 23.9957 23.7778C24.087 23.9111 24.2012 24.0444 24.3153 24.1778C24.3382 24.2222 24.3838 24.2666 24.4067 24.2889C24.4523 24.3555 24.498 24.4 24.5665 24.4666L24.6578 24.5778C24.7035 24.6444 24.772 24.6889 24.8176 24.7555C24.8633 24.8 24.909 24.8444 24.9546 24.8889C25.0231 24.9555 25.0916 25.0444 25.1829 25.1111C25.2514 25.1778 25.2971 25.2222 25.3656 25.2666C25.4341 25.3333 25.5026 25.4 25.5939 25.4444C25.6396 25.4889 25.6852 25.5111 25.7309 25.5555C25.7994 25.6 25.845 25.6444 25.9135 25.6889C25.9592 25.7111 25.982 25.7555 26.0277 25.7778C26.0962 25.8222 26.1647 25.8889 26.2332 25.9333C26.3245 26 26.4387 26.0666 26.53 26.1333C26.5985 26.1778 26.667 26.2222 26.7583 26.2666C26.8953 26.3555 27.0551 26.4444 27.2149 26.5333C27.3063 26.5778 27.3976 26.6222 27.4889 26.6666C27.6031 26.7333 27.6944 26.7778 27.8085 26.8222C27.9227 26.8889 28.0597 26.9333 28.1738 26.9778C28.2652 27.0222 28.3337 27.0444 28.425 27.0889C28.562 27.1333 28.6761 27.1778 28.8131 27.2222C28.9273 27.2666 29.0186 27.2889 29.1328 27.3111C29.1556 27.3111 29.2013 27.3111 29.2241 27.3333C29.3154 27.3555 29.4067 27.3778 29.4981 27.4C29.5209 27.4 29.5437 27.4 29.5894 27.4C29.7035 27.4222 29.7949 27.4444 29.909 27.4666C30.0232 27.4889 30.1373 27.5111 30.2743 27.5333C30.8451 27.6222 31.4387 27.6889 32.0323 27.6889C32.626 27.6889 33.1054 27.6444 33.6077 27.5555C34.2698 27.4444 34.9091 27.2889 35.5027 27.0666C35.6854 27 35.8452 26.9333 36.0278 26.8666C39.4069 25.4 41.7813 22.1555 41.8727 18.3555C41.8727 18.3111 41.8727 18.2444 41.8727 18.2C41.8727 18.1778 41.8727 18.1333 41.8727 18.1111C41.8727 18.0444 41.8727 17.9555 41.8727 17.8889L41.7128 17.8222ZM30.731 22.6889C28.5848 22.1778 26.9866 20.2889 26.9866 18.0444C26.9866 15.8 27.0094 17.4222 27.0779 17.1111C27.0779 17.0666 27.0779 17.0222 27.1008 16.9778C27.1008 16.9333 27.1008 16.8889 27.1236 16.8444C27.1464 16.7555 27.1693 16.6666 27.2149 16.5555C27.2149 16.4889 27.2606 16.4444 27.2834 16.3778C27.3063 16.3111 27.3291 16.2444 27.3519 16.2C27.3519 16.1555 27.3747 16.1333 27.3976 16.0889C27.3976 16.0444 27.4432 16 27.4661 15.9555C27.4661 15.9555 27.4661 15.9555 27.4661 15.9333C27.4889 15.8666 27.5346 15.8 27.5574 15.7333C27.6031 15.6666 27.6259 15.6 27.6716 15.5333C27.6944 15.4666 27.7401 15.4222 27.7857 15.3778C27.7857 15.3778 27.8085 15.3333 27.8314 15.3333C27.8542 15.2889 27.8999 15.2444 27.9227 15.2C27.9227 15.2 27.9227 15.1778 27.9455 15.1555C27.9684 15.1111 28.014 15.0666 28.0597 15.0222C28.0597 15 28.1054 14.9778 28.1282 14.9555C28.151 14.9111 28.1967 14.8666 28.2423 14.8444C28.2423 14.8444 28.2423 14.8444 28.2423 14.8222C28.288 14.7778 28.3337 14.7333 28.3793 14.6889C28.3793 14.6889 28.3793 14.6889 28.4022 14.6666C28.4478 14.6222 28.5163 14.5555 28.562 14.5111C28.6076 14.4666 28.6533 14.4444 28.699 14.4C28.7218 14.3778 28.7675 14.3555 28.7903 14.3333C28.7903 14.3333 28.836 14.2889 28.8588 14.2889C28.9045 14.2666 28.9273 14.2222 28.9729 14.2C28.9729 14.2 29.0186 14.1778 29.0414 14.1555C29.0871 14.1333 29.1099 14.0889 29.1556 14.0666C29.1784 14.0666 29.2241 14.0222 29.2698 14C29.4296 13.9111 29.5894 13.8222 29.7492 13.7333C29.7949 13.7111 29.8405 13.6889 29.8862 13.6666C30.1373 13.5555 30.3885 13.4666 30.6396 13.4222C30.7081 13.4222 30.7538 13.4 30.8223 13.3778C30.9136 13.3778 31.0049 13.3333 31.1191 13.3333C31.2789 13.3111 31.4159 13.2889 31.5757 13.2889C31.5757 13.2889 31.5986 13.2889 31.6214 13.2889C31.6899 13.2889 31.7812 13.2889 31.8497 13.2889C32.5346 13.2889 33.1739 13.4222 33.7675 13.6666C35.5255 14.4 36.7584 16.0889 36.7584 18.0666C36.7584 20.0444 36.7128 18.7555 36.6443 19.0889C36.5986 19.2889 36.5301 19.4889 36.4616 19.6889C36.4616 19.7333 36.4388 19.7555 36.416 19.8C36.416 19.8444 36.3931 19.8666 36.3703 19.9111C36.3703 19.9555 36.3246 20.0222 36.3018 20.0666C36.279 20.1333 36.2562 20.1778 36.2105 20.2222C36.1877 20.2889 36.142 20.3333 36.1192 20.4C36.1192 20.4 36.1192 20.4 36.1192 20.4222C36.0963 20.4666 36.0507 20.5333 36.0278 20.5778C35.9593 20.6889 35.868 20.8 35.7995 20.9111C35.7539 20.9555 35.7082 21.0222 35.6854 21.0666C35.6397 21.1111 35.594 21.1555 35.5484 21.2222C35.5027 21.2666 35.4571 21.3111 35.4114 21.3778C35.3657 21.4222 35.3429 21.4444 35.2972 21.4889C35.2516 21.5333 35.2059 21.5778 35.1602 21.6222C35.1374 21.6444 35.0918 21.6666 35.0689 21.7111C34.9319 21.8222 34.7949 21.9333 34.658 22.0222C34.6123 22.0444 34.5666 22.0889 34.521 22.1111C34.4753 22.1333 34.4296 22.1778 34.384 22.2C34.3383 22.2222 34.2927 22.2444 34.247 22.2889C34.0415 22.4 33.836 22.4889 33.6077 22.5778C33.562 22.5778 33.5392 22.6 33.4936 22.6222C33.3337 22.6889 33.1511 22.7333 32.9913 22.7778C32.9684 22.7778 32.9228 22.7778 32.8999 22.8C32.8543 22.8 32.7858 22.8 32.7401 22.8222C32.6945 22.8222 32.6716 22.8222 32.626 22.8222C32.5346 22.8222 32.4661 22.8222 32.3748 22.8444H32.3292C32.2835 22.8444 32.2607 22.8444 32.215 22.8444C32.215 22.8444 32.215 22.8444 32.1922 22.8444C32.1465 22.8444 32.1008 22.8444 32.0552 22.8444C32.0095 22.8444 31.941 22.8444 31.8954 22.8444C31.4844 22.8444 31.0963 22.8 30.731 22.7111V22.6889Z" fill="#DA0C15"/>
<path id="Vector_2" d="M14.7491 -0.0222168V9.73334C13.3107 8.91112 11.6212 8.44445 9.84032 8.44445C4.40645 8.46667 0 12.7556 0 18.0445C0 23.3333 4.40645 27.6222 9.84032 27.6222C15.2742 27.6222 10.0001 27.6222 10.0915 27.6222C10.2056 27.6222 10.3198 27.6222 10.4568 27.6222C10.5024 27.6222 10.5481 27.6222 10.6166 27.6222C10.7307 27.6222 10.8677 27.6222 10.9819 27.5778C11.0732 27.5778 11.1645 27.5778 11.2559 27.5333C11.3015 27.5333 11.37 27.5333 11.4157 27.5111C12.2148 27.4 12.9682 27.1778 13.676 26.8889C13.7445 26.8667 13.813 26.8222 13.9043 26.8C17.329 25.2889 19.7035 21.9556 19.7035 18.0667V-0.0222168H14.7719H14.7491ZM10.1371 22.8222C10.1371 22.8222 10.0915 22.8222 10.0686 22.8222C10.0001 22.8222 9.90881 22.8222 9.84032 22.8222C7.12339 22.8222 4.93158 20.6889 4.93158 18.0445C4.93158 15.4 7.12339 13.2667 9.84032 13.2667C12.5573 13.2667 14.7491 15.4 14.7491 18.0445C14.7491 20.6889 13.9043 21.1111 12.6486 21.9778C11.9408 22.4667 11.0732 22.7556 10.16 22.8222H10.1371Z" fill="#DA0C15"/>
<path id="Vector_3" d="M59.9095 10.4445L57.3753 14.6445C56.4848 13.7778 55.2748 13.2667 53.9277 13.2667C52.5807 13.2667 53.7679 13.2667 53.6994 13.2667C53.6994 13.2667 53.6766 13.2667 53.6537 13.2667C51.0738 13.4 49.019 15.4889 49.019 18.0445V27.6222H44.0874V18.0445C44.0874 13.6667 47.1011 9.97779 51.2336 8.82223C51.2336 8.82223 51.2565 8.82223 51.2793 8.82223C52.0556 8.62223 52.8546 8.4889 53.6994 8.46667C53.7679 8.46667 53.8592 8.46667 53.9277 8.46667C56.188 8.46667 58.2657 9.20001 59.9095 10.4445Z" fill="#DA0C15"/>
<path id="Vector_4" d="M30.7311 22.689L30.1375 27.4667C25.6169 26.6667 22.1693 22.889 22.0552 18.289L26.7128 12.7334L31.8955 13.2445C29.1786 13.2445 26.9868 15.3778 26.9868 18.0223C26.9868 20.6667 28.5849 22.1556 30.7311 22.6667V22.689Z" fill="url(#paint0_linear_1106_3495)"/>
<path id="Vector_5" d="M31.8726 13.2667V8.46667C22.0323 8.46667 16.1646 22.8222 9.84033 22.8222V27.6222C19.6807 27.6222 24.5437 13.2667 31.8726 13.2667Z" fill="#DA0C15"/>
<path id="Vector_6" d="M41.7129 18.0445C41.7129 18.0667 41.7129 18.1111 41.7129 18.1334C41.7129 18.1778 41.7129 18.2445 41.7129 18.2889L34.6352 25.5111L31.8726 22.8223C34.2242 22.8223 36.1877 21.2222 36.6671 19.0667C36.7356 18.7334 36.7813 18.4 36.7813 18.0445C36.7813 16.0667 35.5484 14.3556 33.7904 13.6445L34.7721 8.88892C38.7905 10.0889 41.7129 13.7334 41.7129 18.0445Z" fill="url(#paint1_linear_1106_3495)"/>
<path id="Vector_7" d="M53.9278 13.2667V8.46667C44.0875 8.46667 38.2198 22.8222 31.8955 22.8222V27.6222C41.7358 27.6222 46.5989 13.2667 53.9278 13.2667Z" fill="#DA0C15"/>
</g>
<defs>
<linearGradient id="paint0_linear_1106_3495" x1="25.731" y1="16.2001" x2="30.5623" y2="21.6191" gradientUnits="userSpaceOnUse">
<stop stop-color="#8A1812"/>
<stop offset="0.2" stop-color="#921612"/>
<stop offset="0.5" stop-color="#AA1313"/>
<stop offset="0.8" stop-color="#D10D14"/>
<stop offset="0.9" stop-color="#DA0C15"/>
</linearGradient>
<linearGradient id="paint1_linear_1106_3495" x1="37.9457" y1="19.3778" x2="33.0379" y2="15.0689" gradientUnits="userSpaceOnUse">
<stop stop-color="#8A1812"/>
<stop offset="0.2" stop-color="#921612"/>
<stop offset="0.5" stop-color="#AA1313"/>
<stop offset="0.8" stop-color="#D10D14"/>
<stop offset="0.9" stop-color="#DA0C15"/>
</linearGradient>
</defs>
</svg>
