<svg xmlns="http://www.w3.org/2000/svg" width="27" height="27" viewBox="0 0 27 27">
  <g id="Wellness_1" data-name="Wellness 1" transform="translate(-410 -184)" opacity="0.8">
    <circle id="Ellipse_23" data-name="Ellipse 23" cx="13.5" cy="13.5" r="13.5" transform="translate(410 184)" fill="none"/>
    <g id="Wellness-1" transform="translate(413 188)">
      <path id="Path_207" data-name="Path 207" d="M19.591,1.843a5.935,5.935,0,0,0-8.243-.187,5.957,5.957,0,1,0-8.243,8.6h0l7.7,7.725a.749.749,0,0,0,1.057,0h0l7.7-7.718a5.95,5.95,0,0,0,0-8.407ZM18.542,9.194l-7.193,7.193L4.155,9.194a4.454,4.454,0,1,1,6.234-6.362l.06.067.367.367a.749.749,0,0,0,1.057,0h0L12.24,2.9a4.451,4.451,0,1,1,6.354,6.227Z" transform="translate(-0.311 0)" fill="#fff"/>
      <path id="Path_208" data-name="Path 208" d="M13.126,13.232c-.54,0-.644-.225-1.626-2.405-.262-.592-.584-1.341-.862-1.873-.195.352-.412.749-.569,1.079-.832,1.6-1.027,1.986-1.6,1.911s-.644-.39-1.3-2.5c-.127-.4-.292-.937-.45-1.409-.075.172-.142.337-.195.48-.525,1.356-.719,1.723-1.079,1.926-.2.082-.307.12-5.448.067V9.156H4.763a8.009,8.009,0,0,0,.48-1.169c.622-1.566.809-1.948,1.191-2.121l.307-.127.315.127c.42.187.6.6,1.394,3.147.075.232.157.495.24.749.06-.127.127-.255.187-.367C9.829,7.56,10.1,7.073,10.683,7.073s.8.412,2.053,3.162l.262.577c.12-.435.255-.914.367-1.356,1.146-4.219,1.274-4.5,1.948-4.5s.907.659,1.544,3.162c.09.352.195.749.277,1.057H21.99v1.349c-5.448.052-5.47.037-5.687-.09l-.067-.045c-.255-.2-.33-.45-.7-1.918-.067-.255-.15-.592-.24-.922-.217.749-.457,1.6-.644,2.3C13.777,13.075,13.74,13.232,13.126,13.232ZM7.183,6.991Z" transform="translate(0.01 -1.243)" fill="#fff"/>
    </g>
  </g>
</svg>
