<svg id="Bookmark" xmlns="http://www.w3.org/2000/svg" width="52" height="52" viewBox="0 0 52 52">
  <circle id="Ellipse_20" data-name="Ellipse 20" cx="26" cy="26" r="26" fill="none"/>
  <path id="Path_23" data-name="Path 23" d="M39.787,30.966a.821.821,0,0,0-.821.822v27.37c0,.454.287.582.635.293l7.361-6.134a1.032,1.032,0,0,1,1.269,0l7.361,6.134c.35.292.635.162.635-.293V31.787a.817.817,0,0,0-.821-.822ZM37.762,64.192c-.7.581-1.262.318-1.262-.6V30.15a1.65,1.65,0,0,1,1.65-1.65H57.043a1.647,1.647,0,0,1,1.65,1.65V63.593c0,.911-.566,1.179-1.262.6L48.225,56.52a1.024,1.024,0,0,0-1.257,0Zm7.361-16.724,2.106-1.107a.88.88,0,0,1,.734,0l2.106,1.107c.4.208.664.02.587-.427l-.4-2.345a.88.88,0,0,1,.227-.7l1.7-1.661c.32-.312.224-.625-.224-.69L49.606,41.3a.88.88,0,0,1-.594-.431l-1.053-2.134c-.2-.4-.525-.406-.726,0L46.18,40.873a.88.88,0,0,1-.594.431l-2.355.342c-.442.064-.549.374-.224.69L44.711,44a.88.88,0,0,1,.227.7l-.4,2.345C44.46,47.481,44.722,47.678,45.123,47.467Z" transform="translate(-21.596 -20.5)" fill="rgba(255,255,255,0.8)"/>
</svg>
