<svg width="24" height="25" viewBox="0 0 24 25" fill="none" xmlns="http://www.w3.org/2000/svg">
<g id="sports_esports">
<mask id="mask0_1_2904" style="mask-type:alpha" maskUnits="userSpaceOnUse" x="0" y="0" width="24" height="25">
<rect id="Bounding box" y="0.726562" width="24" height="24" fill="#D9D9D9"/>
</mask>
<g mask="url(#mask0_1_2904)">
<path id="sports_esports_2" d="M4.55001 19.7266C3.70001 19.7266 3.04168 19.4307 2.57501 18.8391C2.10835 18.2474 1.93335 17.5266 2.05001 16.6766L3.10001 9.17656C3.25001 8.17656 3.69585 7.35156 4.43751 6.70156C5.17918 6.05156 6.05001 5.72656 7.05001 5.72656H16.95C17.95 5.72656 18.8208 6.05156 19.5625 6.70156C20.3042 7.35156 20.75 8.17656 20.9 9.17656L21.95 16.6766C22.0667 17.5266 21.8917 18.2474 21.425 18.8391C20.9583 19.4307 20.3 19.7266 19.45 19.7266C19.1 19.7266 18.775 19.6641 18.475 19.5391C18.175 19.4141 17.9 19.2266 17.65 18.9766L15.4 16.7266H8.60001L6.35001 18.9766C6.10001 19.2266 5.82501 19.4141 5.52501 19.5391C5.22501 19.6641 4.90001 19.7266 4.55001 19.7266ZM4.95001 17.5766L7.80001 14.7266H16.2L19.05 17.5766C19.0833 17.6099 19.2167 17.6599 19.45 17.7266C19.6333 17.7266 19.7792 17.6724 19.8875 17.5641C19.9958 17.4557 20.0333 17.3099 20 17.1266L18.9 9.42656C18.8333 8.94323 18.6167 8.53906 18.25 8.21406C17.8833 7.88906 17.45 7.72656 16.95 7.72656H7.05001C6.55001 7.72656 6.11668 7.88906 5.75001 8.21406C5.38335 8.53906 5.16668 8.94323 5.10001 9.42656L4.00001 17.1266C3.96668 17.3099 4.00418 17.4557 4.11251 17.5641C4.22085 17.6724 4.36668 17.7266 4.55001 17.7266C4.58335 17.7266 4.71668 17.6766 4.95001 17.5766ZM17 13.7266C17.2833 13.7266 17.5208 13.6307 17.7125 13.4391C17.9042 13.2474 18 13.0099 18 12.7266C18 12.4432 17.9042 12.2057 17.7125 12.0141C17.5208 11.8224 17.2833 11.7266 17 11.7266C16.7167 11.7266 16.4792 11.8224 16.2875 12.0141C16.0958 12.2057 16 12.4432 16 12.7266C16 13.0099 16.0958 13.2474 16.2875 13.4391C16.4792 13.6307 16.7167 13.7266 17 13.7266ZM15 10.7266C15.2833 10.7266 15.5208 10.6307 15.7125 10.4391C15.9042 10.2474 16 10.0099 16 9.72656C16 9.44323 15.9042 9.20573 15.7125 9.01406C15.5208 8.8224 15.2833 8.72656 15 8.72656C14.7167 8.72656 14.4792 8.8224 14.2875 9.01406C14.0958 9.20573 14 9.44323 14 9.72656C14 10.0099 14.0958 10.2474 14.2875 10.4391C14.4792 10.6307 14.7167 10.7266 15 10.7266ZM7.75001 13.7266H9.25001V11.9766H11V10.4766H9.25001V8.72656H7.75001V10.4766H6.00001V11.9766H7.75001V13.7266Z" fill="white" fill-opacity="0.8"/>
</g>
</g>
</svg>
