<svg id="Fav" xmlns="http://www.w3.org/2000/svg" width="52" height="52" viewBox="0 0 52 52">
  <circle id="Ellipse_7" data-name="Ellipse 7" cx="26" cy="26" r="26" fill="none"/>
  <path id="Path_12" data-name="Path 12" d="M35.564,6.531A9.561,9.561,0,0,0,21.814,5.4L20,6.987,18.177,5.4A9.561,9.561,0,0,0,4.427,6.531a10.62,10.62,0,0,0,.194,13.753L19.04,36.568a1.272,1.272,0,0,0,1.91,0L35.37,20.283A10.62,10.62,0,0,0,35.564,6.531ZM11.859,10.846a1.986,1.986,0,0,0-1.553.762,2.713,2.713,0,0,0,.045,3.423,1.324,1.324,0,0,1-.094,1.847,1.27,1.27,0,0,1-1.816-.1,5.372,5.372,0,0,1-.095-6.867,4.528,4.528,0,0,1,3.513-1.684,1.308,1.308,0,0,1,0,2.615Z" transform="translate(6.004 6)" fill="rgba(255,70,70,0.8)"/>
</svg>
