<svg id="Disliked" xmlns="http://www.w3.org/2000/svg" width="52" height="52" viewBox="0 0 52 52">
  <circle id="Ellipse_19" data-name="Ellipse 19" cx="26" cy="26" r="26" fill="none"/>
  <g id="Group_19" data-name="Group 19" transform="translate(1224.557 323) rotate(180)">
    <rect id="Rectangle_43" data-name="Rectangle 43" width="5.959" height="21.195" transform="translate(1183.443 291.063)" fill="rgba(255,221,0,0.8)"/>
    <path id="Path_33" data-name="Path 33" d="M12.066,31.993H24.9a3.759,3.759,0,0,0,3.649-2.962l2.962-14.122a2.338,2.338,0,0,0-.474-1.955,2.3,2.3,0,0,0-1.8-.853H21.638a.6.6,0,0,1-.557-.794l2.95-8.163a1.883,1.883,0,0,0-1-2.358L21.781.218a2.4,2.4,0,0,0-2.618.415L7.587,11.212V30.275C8.909,31.02,10.471,32.1,12.066,31.993Z" transform="translate(1183 281)" fill="rgba(255,221,0,0.8)"/>
  </g>
</svg>
