<svg id="Bookmarked" xmlns="http://www.w3.org/2000/svg" width="52" height="52" viewBox="0 0 52 52">
  <circle id="Ellipse_19" data-name="Ellipse 19" cx="26" cy="26" r="26" fill="none"/>
  <path id="Path_27" data-name="Path 27" d="M38,30.822A.873.873,0,0,1,38.917,30H59.083a.872.872,0,0,1,.917.822V60.965c0,.9-.631,1.16-1.4.587L49.7,54.967a1.259,1.259,0,0,0-1.41,0L39.4,61.552c-.776.575-1.4.314-1.4-.587ZM49,46.7l3.772,1.763-.72-3.733L55.1,42.089l-4.217-.545L49,38.148l-1.886,3.4-4.217.545,3.051,2.644-.72,3.733Z" transform="translate(-23 -20)" fill="rgba(255,221,0,0.8)" fill-rule="evenodd"/>
</svg>
