<svg width="24" height="24" viewBox="0 0 24 24" fill="none" xmlns="http://www.w3.org/2000/svg">
<g id="Group">
<g id="Group_2">
<path id="Path" d="M20 12V7.828C20 7.298 19.789 6.789 19.414 6.414L16.586 3.586C16.211 3.211 15.702 3 15.172 3H6C4.895 3 4 3.895 4 5V19C4 20.105 4.895 21 6 21H13" stroke="white" stroke-width="1.5" stroke-linecap="round" stroke-linejoin="round"/>
<path id="Path_2" d="M7 9H17" stroke="white" stroke-width="1.5" stroke-linecap="round" stroke-linejoin="round"/>
<path id="Path_3" d="M7 12H17" stroke="white" stroke-width="1.5" stroke-linecap="round" stroke-linejoin="round"/>
<path id="Path_4" d="M7 15C7.78105 15 10.219 15 11 15" stroke="white" stroke-width="1.5" stroke-linecap="round" stroke-linejoin="round"/>
<path id="Path_5" fill-rule="evenodd" clip-rule="evenodd" d="M18.5 21.0005C18.5 21.0005 21 19.8005 21 18.0005V15.9005L19.177 15.2445C18.739 15.0865 18.26 15.0865 17.822 15.2445L16 15.9005V18.0005C16 19.8005 18.5 21.0005 18.5 21.0005Z" stroke="white" stroke-width="1.5" stroke-linecap="round" stroke-linejoin="round"/>
</g>
</g>
</svg>
