<svg xmlns="http://www.w3.org/2000/svg" width="27" height="27" viewBox="0 0 27 27">
  <g id="Home" transform="translate(-410 -184)" opacity="0.8">
    <circle id="Ellipse_23" data-name="Ellipse 23" cx="13.5" cy="13.5" r="13.5" transform="translate(410 184)" fill="none"/>
    <path id="Home-2" d="M118.984,100.629l-6.95-6.95a3.038,3.038,0,0,0-4.21,0l-6.95,6.95a2.979,2.979,0,0,0-.874,2.1v7.119a2.979,2.979,0,0,0,2.979,2.979h13.9a2.979,2.979,0,0,0,2.979-2.979v-7.119a2.979,2.979,0,0,0-.874-2.1Zm-11.041,10.217v-4.964a.993.993,0,0,1,.993-.993h1.986a.993.993,0,0,1,.993.993v4.964Zm9.929-.993a.993.993,0,0,1-.993.993H113.9v-4.964a2.979,2.979,0,0,0-2.979-2.979h-1.986a2.979,2.979,0,0,0-2.979,2.979v4.964h-2.979a.993.993,0,0,1-.993-.993v-7.119a.993.993,0,0,1,.288-.7l6.95-6.95a.993.993,0,0,1,1.41,0l6.95,6.95a.993.993,0,0,1,.288.7Z" transform="translate(313.5 93.168)" fill="#fff"/>
  </g>
</svg>
