<svg width="42" height="43" viewBox="0 0 42 43" fill="none" xmlns="http://www.w3.org/2000/svg">
<rect y="0.827393" width="42" height="42" rx="21" fill="#3158CE"/>
<path d="M21 24.3274C20.1667 24.3274 19.4583 24.0357 18.875 23.4524C18.2917 22.8691 18 22.1607 18 21.3274V15.3274C18 14.4941 18.2917 13.7857 18.875 13.2024C19.4583 12.6191 20.1667 12.3274 21 12.3274C21.8333 12.3274 22.5417 12.6191 23.125 13.2024C23.7083 13.7857 24 14.4941 24 15.3274V21.3274C24 22.1607 23.7083 22.8691 23.125 23.4524C22.5417 24.0357 21.8333 24.3274 21 24.3274ZM20 31.3274V28.2524C18.2667 28.0191 16.8333 27.2441 15.7 25.9274C14.5667 24.6107 14 23.0774 14 21.3274H16C16 22.7107 16.4875 23.8899 17.4625 24.8649C18.4375 25.8399 19.6167 26.3274 21 26.3274C22.3833 26.3274 23.5625 25.8399 24.5375 24.8649C25.5125 23.8899 26 22.7107 26 21.3274H28C28 23.0774 27.4333 24.6107 26.3 25.9274C25.1667 27.2441 23.7333 28.0191 22 28.2524V31.3274H20ZM21 22.3274C21.2833 22.3274 21.5208 22.2316 21.7125 22.0399C21.9042 21.8482 22 21.6107 22 21.3274V15.3274C22 15.0441 21.9042 14.8066 21.7125 14.6149C21.5208 14.4232 21.2833 14.3274 21 14.3274C20.7167 14.3274 20.4792 14.4232 20.2875 14.6149C20.0958 14.8066 20 15.0441 20 15.3274V21.3274C20 21.6107 20.0958 21.8482 20.2875 22.0399C20.4792 22.2316 20.7167 22.3274 21 22.3274Z" fill="white"/>
</svg>
