<svg width="24" height="24" viewBox="0 0 24 24" fill="none" xmlns="http://www.w3.org/2000/svg">
<g id="Group">
<path id="Path" d="M14.0008 20.0034C13.5285 20.6332 12.7872 21.0038 12 21.0038C11.2128 21.0038 10.4715 20.6332 9.99915 20.0034" stroke="white" stroke-width="1.5" stroke-linecap="round" stroke-linejoin="round"/>
<path id="Path_2" d="M5.99747 12.482V8.99884C5.99747 5.68375 8.68489 2.99634 12 2.99634V2.99634C13.5919 2.99634 15.1187 3.62874 16.2444 4.75443C17.3701 5.88012 18.0025 7.40688 18.0025 8.99884V12.482H17.9979L19.3745 13.8596C19.9846 14.4702 20.1669 15.3881 19.8363 16.1855C19.5058 16.9828 18.7275 17.5025 17.8644 17.5024H6.13553C5.2724 17.5025 4.49414 16.9828 4.16361 16.1855C3.83307 15.3881 4.01534 14.4702 4.62543 13.8596L6.00201 12.482" stroke="white" stroke-width="1.5" stroke-linecap="round" stroke-linejoin="round"/>
</g>
</svg>
