<svg width="33" height="34" viewBox="0 0 33 34" fill="none" xmlns="http://www.w3.org/2000/svg">
<path d="M11 25.988C10.25 25.988 9.50833 25.8047 8.775 25.438C8.04167 25.0713 7.45 24.588 7 23.988C7.43333 23.988 7.875 23.8172 8.325 23.4755C8.775 23.1338 9 22.638 9 21.988C9 21.1547 9.29167 20.4463 9.875 19.863C10.4583 19.2797 11.1667 18.988 12 18.988C12.8333 18.988 13.5417 19.2797 14.125 19.863C14.7083 20.4463 15 21.1547 15 21.988C15 23.088 14.6083 24.0297 13.825 24.813C13.0417 25.5963 12.1 25.988 11 25.988ZM11 23.988C11.55 23.988 12.0208 23.7922 12.4125 23.4005C12.8042 23.0088 13 22.538 13 21.988C13 21.7047 12.9042 21.4672 12.7125 21.2755C12.5208 21.0838 12.2833 20.988 12 20.988C11.7167 20.988 11.4792 21.0838 11.2875 21.2755C11.0958 21.4672 11 21.7047 11 21.988C11 22.3713 10.9542 22.7213 10.8625 23.038C10.7708 23.3547 10.65 23.6547 10.5 23.938C10.5833 23.9713 10.6667 23.988 10.75 23.988H11ZM16.75 19.988L14 17.238L22.95 8.288C23.1333 8.10467 23.3625 8.00883 23.6375 8.0005C23.9125 7.99217 24.15 8.088 24.35 8.288L25.7 9.638C25.9 9.838 26 10.0713 26 10.338C26 10.6047 25.9 10.838 25.7 11.038L16.75 19.988Z" fill="white"/>
<rect x="1" y="1" width="31" height="31.988" rx="15.5" stroke="white" stroke-width="2"/>
</svg>
