<svg width="40" height="41" viewBox="0 0 40 41" fill="none" xmlns="http://www.w3.org/2000/svg">
<g id="solar:reel-broken">
<g id="Group">
<path id="Vector" d="M20 37.1667H36.6667" stroke="white" stroke-width="1.5" stroke-linecap="round"/>
<path id="Vector_2" d="M22.5 13C22.5 13.663 22.2366 14.2989 21.7678 14.7678C21.2989 15.2366 20.663 15.5 20 15.5C19.337 15.5 18.7011 15.2366 18.2322 14.7678C17.7634 14.2989 17.5 13.663 17.5 13C17.5 12.337 17.7634 11.7011 18.2322 11.2322C18.7011 10.7634 19.337 10.5 20 10.5C20.663 10.5 21.2989 10.7634 21.7678 11.2322C22.2366 11.7011 22.5 12.337 22.5 13ZM22.5 28C22.5 28.663 22.2366 29.2989 21.7678 29.7678C21.2989 30.2366 20.663 30.5 20 30.5C19.337 30.5 18.7011 30.2366 18.2322 29.7678C17.7634 29.2989 17.5 28.663 17.5 28C17.5 27.337 17.7634 26.7011 18.2322 26.2322C18.7011 25.7634 19.337 25.5 20 25.5C20.663 25.5 21.2989 25.7634 21.7678 26.2322C22.2366 26.7011 22.5 27.337 22.5 28ZM12.5 18C13.163 18 13.7989 18.2634 14.2678 18.7322C14.7366 19.2011 15 19.837 15 20.5C15 21.163 14.7366 21.7989 14.2678 22.2678C13.7989 22.7366 13.163 23 12.5 23C11.837 23 11.2011 22.7366 10.7322 22.2678C10.2634 21.7989 10 21.163 10 20.5C10 19.837 10.2634 19.2011 10.7322 18.7322C11.2011 18.2634 11.837 18 12.5 18ZM27.5 18C28.163 18 28.7989 18.2634 29.2678 18.7322C29.7366 19.2011 30 19.837 30 20.5C30 21.163 29.7366 21.7989 29.2678 22.2678C28.7989 22.7366 28.163 23 27.5 23C26.837 23 26.2011 22.7366 25.7322 22.2678C25.2634 21.7989 25 21.163 25 20.5C25 19.837 25.2634 19.2011 25.7322 18.7322C26.2011 18.2634 26.837 18 27.5 18Z" stroke="white" stroke-width="1.5"/>
<path id="Vector_3" d="M11.6668 6.06339C14.1994 4.59823 17.0743 3.82889 20.0002 3.83339C29.2052 3.83339 36.6668 11.2951 36.6668 20.5001C36.6668 29.7051 29.2052 37.1667 20.0002 37.1667C10.7952 37.1667 3.3335 29.7051 3.3335 20.5001C3.3335 17.4651 4.14516 14.6167 5.5635 12.1667" stroke="white" stroke-width="1.5" stroke-linecap="round"/>
</g>
</g>
</svg>
