<svg width="24" height="24" viewBox="0 0 24 24" fill="none" xmlns="http://www.w3.org/2000/svg">
<path fill-rule="evenodd" clip-rule="evenodd" d="M19.121 17.8794L16.8782 20.1219C16.3156 20.6845 15.5525 21.0005 14.7568 21.0005L6.99945 21C6.2038 21 5.44076 20.6838 4.87819 20.1212C4.31561 19.5586 3.99959 18.7955 3.99963 17.9998L4.00035 5.99982C4.0004 5.20417 4.31652 4.44113 4.87916 3.87855C5.4418 3.31598 6.20488 2.99995 7.00053 3L17.0005 3.0006C17.7962 3.00065 18.5592 3.31676 19.1218 3.87941C19.6844 4.44205 20.0004 5.20513 20.0004 6.00078L19.9998 15.7581C19.9997 16.5538 19.6836 17.3168 19.121 17.8794Z" stroke="white" stroke-width="1.5" stroke-linecap="round" stroke-linejoin="round"/>
<path d="M19.9998 15.5012L16.4998 15.501C15.9694 15.5009 15.4607 15.7116 15.0856 16.0867C14.7105 16.4617 14.4998 16.9704 14.4997 17.5009L14.4995 21.0009" stroke="white" stroke-width="1.5" stroke-linecap="round" stroke-linejoin="round"/>
<path d="M16.0002 7.50024L8.00024 7.49976" stroke="white" stroke-width="1.5" stroke-linecap="round" stroke-linejoin="round"/>
<path d="M8 10.9998L16 11.0002" stroke="white" stroke-width="1.5" stroke-linecap="round" stroke-linejoin="round"/>
<path d="M10.6999 14.5001L7.99988 14.4999" stroke="white" stroke-width="1.5" stroke-linecap="round" stroke-linejoin="round"/>
</svg>
