<svg width="36" height="37" viewBox="0 0 36 37" fill="none" xmlns="http://www.w3.org/2000/svg">
<g id="Ticket">
<path id="Vector" d="M11.1429 11.6429H12.8572M16.2858 11.6429H18.0001M21.4286 11.6429H23.1429M11.1429 23.6429H12.8572M16.2858 23.6429H18.0001M21.4286 23.6429H23.1429M13.7144 4.76172V4.78572C13.7144 5.69504 14.0756 6.56711 14.7186 7.21009C15.3615 7.85307 16.2336 8.2143 17.1429 8.2143C18.0522 8.2143 18.9243 7.85307 19.5673 7.21009C20.2103 6.56711 20.5715 5.69504 20.5715 4.78572L20.5698 4.76001H24.8572C25.3119 4.76001 25.7479 4.94062 26.0694 5.26211C26.3909 5.5836 26.5715 6.01964 26.5715 6.4743V28.7857C26.5715 29.2404 26.3909 29.6764 26.0694 29.9979C25.7479 30.3194 25.3119 30.5 24.8572 30.5H20.5715C20.5715 29.5907 20.2103 28.7186 19.5673 28.0756C18.9243 27.4327 18.0522 27.0714 17.1429 27.0714C16.2336 27.0714 15.3615 27.4327 14.7186 28.0756C14.0756 28.7186 13.7144 29.5907 13.7144 30.5H9.42864C8.97398 30.5 8.53795 30.3194 8.21646 29.9979C7.89497 29.6764 7.71436 29.2404 7.71436 28.7857V6.4743C7.71436 6.01964 7.89497 5.5836 8.21646 5.26211C8.53795 4.94062 8.97398 4.76001 9.42864 4.76001L13.7144 4.76172Z" stroke="#8F8F8F" stroke-width="2.25" stroke-linecap="round" stroke-linejoin="round"/>
</g>
</svg>
