<svg width="22" height="22" viewBox="0 0 22 22" fill="none" xmlns="http://www.w3.org/2000/svg">
<path fill-rule="evenodd" clip-rule="evenodd" d="M9.92715 9.93149C10.464 10.8026 11.1974 11.536 12.0685 12.0729L12.8904 11.5798C13.2488 11.3647 13.7032 11.3953 14.0296 11.6564L15.6247 12.9325C15.848 13.1111 15.9841 13.3767 15.9987 13.6623C16.0133 13.9478 15.905 14.226 15.7011 14.4265L14.98 15.1355C13.9867 16.1149 12.4495 16.2808 11.2701 15.5358C9.34646 14.2915 7.70851 12.6536 6.4643 10.7299C5.71923 9.55057 5.8851 8.01329 6.8646 7.01999L7.5736 6.29888C7.77406 6.095 8.05221 5.98667 8.33775 6.00128C8.6233 6.01588 8.88894 6.15202 9.06755 6.37529L10.3436 7.97041C10.6048 8.2968 10.6353 8.75117 10.4203 9.10959L9.92715 9.93149Z" stroke="black" stroke-width="1.5" stroke-linecap="round" stroke-linejoin="round"/>
<path fill-rule="evenodd" clip-rule="evenodd" d="M5.86748 18.9863L3.17048 19.437C3.0023 19.4651 2.83091 19.4102 2.71035 19.2896C2.58978 19.169 2.53489 18.9976 2.56298 18.8295L3.01358 16.1323C0.381886 12.0422 1.25733 6.62593 5.04355 3.57313C8.82977 0.520332 14.3085 0.813284 17.7476 4.25243C21.1867 7.69157 21.4796 13.1703 18.4267 16.9565C15.3739 20.7427 9.95758 21.618 5.86748 18.9863Z" stroke="black" stroke-width="1.5" stroke-linecap="round" stroke-linejoin="round"/>
</svg>
